<svg width="241.251" height="311.297" viewBox="0 0 63.831 82.364" xmlns="http://www.w3.org/2000/svg"><defs><clipPath id="a"><path d="M0 357.165h357.165V0H0z"/></clipPath></defs><g clip-path="url(#a)" transform="matrix(.35278 0 0 -.35278 -32.044 104.29)"><path d="M242.74 205.5a6.726 6.726 0 1 0-13.451 0 6.726 6.726 0 0 0 13.451 0m-45.365-12.924a6.726 6.726 0 1 0-13.452 0 6.726 6.726 0 0 0 13.452 0m-53.188 17.73a6.726 6.726 0 1 0-6.725 6.726 6.725 6.725 0 0 0 6.725-6.726m121.98-5.04c0-3.735-7.238-9.572-22.646-14.241-16.576-5.136-38.756-7.938-62.336-7.938s-45.76 2.802-62.336 7.938c-15.641 4.669-22.645 10.739-22.645 14.475 0 3.735 7.004 9.572 22.645 14.475 16.576 5.136 38.756 7.938 62.336 7.938s45.76-2.802 62.336-7.938c15.408-4.67 22.412-10.506 22.646-14.242zm-31.925-88.396c-6.296 0-11.4 5.104-11.4 11.4s5.104 11.399 11.4 11.399 11.4-5.103 11.4-11.399-5.104-11.4-11.4-11.4m-13.824-38.303a6.726 6.726 0 1 0 0 13.451 6.726 6.726 0 0 0 0-13.451m-58.516 43.779c-6.07 0-10.992 4.921-10.992 10.991 0 6.071 4.922 10.992 10.992 10.992s10.992-4.921 10.992-10.992c0-6.07-4.922-10.991-10.992-10.991m-4.266-43.779c-6.295 0-11.4 5.104-11.4 11.4s5.105 11.4 11.4 11.4c6.296 0 11.4-5.104 11.4-11.4s-5.104-11.4-11.4-11.4m-33.629 80.026a6.726 6.726 0 1 0 0 13.452 6.726 6.726 0 0 0 0-13.452m57.178 131.66c43.425 0 79.379-32.685 84.515-74.709-13.074 10.273-45.993 17.743-84.515 17.743-38.521 0-71.674-7.47-84.514-17.977 5.135 42.258 41.089 74.943 84.514 74.943m90.352-84.748c-.234 49.728-40.623 90.118-90.352 90.118-49.495 0-89.885-39.923-90.351-89.651v-.467c0-2.335.933-4.669 2.801-7.004l25.214-116.97c0-10.739 27.784-19.378 62.336-19.378 34.553 0 62.336 8.639 62.336 19.378l25.214 116.97c1.868 2.101 2.802 4.436 2.802 6.77h.233s-.233 0-.233.234" fill="#fff"/></g></svg>