<svg width="128" height="128" viewBox="0 0 124 124" xmlns="http://www.w3.org/2000/svg"><defs><clipPath id="a"><path d="M0 357.165h357.165V0H0z"/></clipPath><clipPath id="b"><path d="M206.61 262.14h55.759V94.85H206.61z"/></clipPath><clipPath id="c"><path d="M94.797 262.32h111.74V94.85H94.797z"/></clipPath></defs><path d="M62.004 0C27.762 0 .003 27.758.003 62.001s27.758 62.001 62.001 62.001 62.001-27.758 62.001-62S96.247 0 62.004 0m0 1.764c16.09 0 31.216 6.266 42.595 17.643C115.976 30.784 122.242 45.91 122.242 62s-6.266 31.217-17.643 42.595C93.22 115.973 78.095 122.24 62.004 122.24s-31.216-6.266-42.595-17.643S1.766 78.092 1.766 62.001 8.032 30.785 19.41 19.407 45.913 1.764 62.004 1.764" fill="#fff"/><g clip-path="url(#a)" transform="matrix(.35278 0 0 -.35278 -1 125)"><g clip-path="url(#b)" opacity=".6"><path d="M221.57 94.855l40.801-.007-.041.096-55.718 167.195V101.23c3.785-3.915 9.067-6.375 14.958-6.375" fill="#fff"/></g><path d="M178.58 178.62l23.288-69.89c.007-.014.007-.027.014-.048 1.017-2.829 2.658-5.344 4.708-7.455v160.9l-.062.164z" fill="#fff"/><g clip-path="url(#c)" opacity=".8"><path d="M150.65 262.3l-.007-.062-.02.062L94.842 94.94l-.041-.089h40.802c5.883 0 11.172 2.46 14.958 6.389 2.05 2.118 3.69 4.626 4.708 7.455.007.021.007.034.014.041l51.263 153.58h-55.903v-.021z" fill="#fff"/></g></g></svg>