<?xml version="1.0" encoding="UTF-8"?>
<svg width="128px" height="128px" version="1.1" viewBox="0 0 124 124" xmlns="http://www.w3.org/2000/svg">
 <defs>
  <clipPath id="clipPath10208">
   <path d="M 0,357.165 H 357.165 V 0 H 0 Z"/>
  </clipPath>
  <clipPath id="clipPath10216">
   <path d="m206.61 262.14h55.759v-167.29h-55.759z"/>
  </clipPath>
  <clipPath id="clipPath10236">
   <path d="m94.797 262.32h111.74v-167.47h-111.74z"/>
  </clipPath>
 </defs>
 <g transform="translate(-69.536 -106.49)">
  <g transform="matrix(.35278 0 0 -.35278 131.54 106.49)" fill="#fff">
   <path d="m0 0c-97.063 0-175.75-78.685-175.75-175.75s78.685-175.75 175.75-175.75 175.75 78.685 175.75 175.75-78.685 175.75-175.75 175.75m0-5c45.608 0 88.486-17.761 120.74-50.011 32.25-32.25 50.011-75.129 50.011-120.74s-17.761-88.487-50.011-120.74c-32.251-32.25-75.129-50.011-120.74-50.011s-88.487 17.761-120.74 50.011-50.011 75.129-50.011 120.74 17.761 88.487 50.011 120.74 75.129 50.011 120.74 50.011" fill="#fff"/>
  </g>
  <g transform="matrix(.35278 0 0 -.35278 68.536 231.49)">
   <g clip-path="url(#clipPath10208)">
    <g clip-path="url(#clipPath10216)" opacity=".60001">
     <g transform="translate(221.57 94.855)">
      <path d="M 0,0 40.801,-0.007 40.76,0.089 -14.958,167.284 V 6.375 C -11.173,2.46 -5.891,0 0,0" fill="#fff"/>
     </g>
    </g>
    <g transform="translate(178.58 178.62)">
     <path d="m0 0 23.288-69.89c7e-3 -0.014 7e-3 -0.027 0.014-0.048 1.017-2.829 2.658-5.344 4.708-7.455v160.9l-0.062 0.164z" fill="#fff"/>
    </g>
    <g clip-path="url(#clipPath10236)" opacity=".8">
     <g transform="translate(150.65 262.3)">
      <path d="m0 0-7e-3 -0.062-0.02 0.062-55.781-167.36-0.041-0.089h40.802c5.883 0 11.172 2.46 14.958 6.389 2.05 2.118 3.69 4.626 4.708 7.455 7e-3 0.021 7e-3 0.034 0.014 0.041l51.263 153.58h-55.903v-0.021z" fill="#fff"/>
     </g>
    </g>
   </g>
  </g>
 </g>
</svg>
