<svg width="128" height="128" viewBox="0 0 124 124" xmlns="http://www.w3.org/2000/svg"><defs><clipPath id="a"><path d="M0 357.165h357.165V0H0z"/></clipPath><clipPath id="b"><path d="M79.983 215.55h129.47V79.89H79.983z"/></clipPath></defs><path d="M62.004 0C27.762 0 .003 27.758.003 62.001s27.758 62.001 62.001 62.001 62.001-27.758 62.001-62S96.247 0 62.004 0m0 1.764c16.09 0 31.216 6.266 42.595 17.643C115.976 30.784 122.242 45.91 122.242 62s-6.266 31.217-17.643 42.595C93.22 115.973 78.095 122.24 62.004 122.24s-31.216-6.266-42.595-17.643S1.766 78.092 1.766 62.001 8.032 30.785 19.41 19.407 45.913 1.764 62.004 1.764" fill="#fff"/><g clip-path="url(#a)" transform="matrix(.35278 0 0 -.35278 -1 125)"><g clip-path="url(#b)" opacity=".7"><path d="M209.45 79.885v135.66h-51.366c-9.002 0-16.367-7.365-16.367-16.368v-51.366H96.352c-9.002 0-16.367-7.365-16.367-16.367V96.445c0-9.001 7.365-16.367 16.367-16.367h61.732z" fill="#fff"/></g><path d="M260.81 277.28h-34.998c-9.003 0-16.368-7.365-16.368-16.367V80.083h51.366c9.002 0 16.367 7.366 16.367 16.368v164.46c0 9.002-7.365 16.367-16.367 16.367" fill="#fff"/></g></svg>