<?xml version="1.0" encoding="UTF-8"?>
<svg width="128px" height="128px" version="1.1" viewBox="0 0 124 124" xmlns="http://www.w3.org/2000/svg">
 <defs>
  <clipPath id="clipPath10252">
   <path d="M 0,357.165 H 357.165 V 0 H 0 Z"/>
  </clipPath>
  <clipPath id="clipPath10260">
   <path d="m79.983 215.55h129.47v-135.66h-129.47z"/>
  </clipPath>
 </defs>
 <g transform="translate(-69.536 -106.49)">
  <g transform="matrix(.35278 0 0 -.35278 131.54 106.49)" fill="#fff">
   <path d="m0 0c-97.063 0-175.75-78.685-175.75-175.75s78.685-175.75 175.75-175.75 175.75 78.685 175.75 175.75-78.685 175.75-175.75 175.75m0-5c45.608 0 88.486-17.761 120.74-50.011 32.25-32.25 50.011-75.129 50.011-120.74s-17.761-88.487-50.011-120.74c-32.251-32.25-75.129-50.011-120.74-50.011s-88.487 17.761-120.74 50.011-50.011 75.129-50.011 120.74 17.761 88.487 50.011 120.74 75.129 50.011 120.74 50.011" fill="#fff"/>
  </g>
  <g transform="matrix(.35278 0 0 -.35278 68.536 231.49)">
   <g clip-path="url(#clipPath10252)">
    <g clip-path="url(#clipPath10260)" opacity=".7">
     <g transform="translate(209.45 79.885)">
      <path d="m0 0v135.66h-51.366c-9.002 0-16.367-7.365-16.367-16.368v-51.366h-45.365c-9.002 0-16.367-7.365-16.367-16.367v-34.999c0-9.001 7.365-16.367 16.367-16.367h61.732z" fill="#fff"/>
     </g>
    </g>
    <g transform="translate(260.81 277.28)">
     <path d="m0 0h-34.998c-9.003 0-16.368-7.365-16.368-16.367v-180.83h51.366c9.002 0 16.367 7.366 16.367 16.368v164.46c0 9.002-7.365 16.367-16.367 16.367" fill="#fff"/>
    </g>
   </g>
  </g>
 </g>
</svg>
