<svg width="128" height="128" viewBox="0 0 124 124" xmlns="http://www.w3.org/2000/svg"><defs><clipPath id="a"><path d="M0 357.165h357.165V0H0z"/></clipPath></defs><g fill="#878789"><path d="M62.004 0C27.762 0 .003 27.758.003 62.001s27.758 62.001 62.001 62.001 62.001-27.758 62.001-62S96.247 0 62.004 0m0 1.764c16.09 0 31.216 6.266 42.595 17.643C115.976 30.784 122.242 45.91 122.242 62s-6.266 31.217-17.643 42.595C93.22 115.973 78.095 122.24 62.004 122.24s-31.216-6.266-42.595-17.643S1.766 78.092 1.766 62.001 8.032 30.785 19.41 19.407 45.913 1.764 62.004 1.764"/><g clip-path="url(#a)" transform="matrix(.35278 0 0 -.35278 -1 125)"><path d="M186.49 206.53c-2.372.527-5.272 1.317-7.909 1.317-16.082 0-29.266-13.183-29.266-29.265 0-15.819 13.184-29.002 29.266-29.002 15.818 0 29.002 13.183 29.002 29.002 0 2.901-.528 5.801-1.318 8.173l-17.928-17.929c-2.638-2.372-6.066-3.955-9.756-3.955-3.692 0-7.383 1.583-10.02 3.955-2.371 2.637-3.955 6.065-3.955 9.756s1.584 7.382 3.955 10.019zm94.389 55.104l-3.954-3.955c17.401-21.62 27.946-49.041 27.946-79.097 0-69.605-56.686-126.29-126.29-126.29-69.869 0-126.56 56.685-126.56 126.29 0 69.868 56.687 126.56 126.56 126.56 29.792 0 57.214-10.546 78.834-27.948l3.954 3.955c-22.676 18.456-51.412 29.265-82.788 29.265-72.77 0-131.83-59.058-131.83-131.83 0-72.506 59.058-131.83 131.83-131.83 72.506 0 131.83 59.321 131.83 131.83 0 31.639-11.073 60.376-29.529 83.052m-43.503-4.484c-16.61 12.13-36.912 19.776-58.795 19.776-54.314 0-98.344-44.031-98.344-98.344 0-54.05 44.03-98.08 98.344-98.08 54.05 0 98.08 44.03 98.08 98.08 0 22.147-7.647 42.449-19.775 59.059l-29.793-29.794c5.274-8.436 8.172-18.455 8.172-29.265 0-31.376-25.308-56.685-56.684-56.685-31.64 0-56.951 25.309-56.951 56.685 0 31.639 25.311 56.95 56.951 56.95 10.546 0 20.565-2.9 29.002-8.174zm-62.75-82.259c1.053-1.054 2.374-1.581 3.691-1.581 1.581 0 2.901.527 3.954 1.581l102.3 102.04h22.41v11.073h-19.246v19.246h-11.073v-22.41l-102.04-102.3c-2.373-2.109-2.373-5.536 0-7.646"/></g></g></svg>