<?xml version="1.0" encoding="iso-8859-1"?>
<!DOCTYPE svg PUBLIC "-//W3C//DTD SVG 1.1 Basic//EN" "http://www.w3.org/Graphics/SVG/1.1/DTD/svg11-basic.dtd">
<svg version="1.1" baseProfile="basic"
   xmlns="http://www.w3.org/2000/svg" xmlns:xlink="http://www.w3.org/1999/xlink" x="0px" y="0px" width="128px" height="128px"
   viewBox="0 0 128 128" xml:space="preserve">
  <path transform="matrix(0.128,0,0,0.128,0,0)" stroke="none" style="fill:#FFFFFF" d="M 999 107 C 995 7 908 0 887 0 L 617 0 C 557 0 508 47 505 107 L 505 107 L 505 112 L 505 148 L 505 149 L 0 149 L 0 266 L 0 307 L 0 999 L 850 999 L 850 861 L 887 861 C 949 861 1000 810 1000 748 L 1000 695 L 1000 654 L 1000 148 L 1000 112 L 1000 107 L 999 107 z M 617 41 L 887 41 C 925 41 956 70 958 107 L 546 107 C 548 70 580 41 617 41 z M 41 190 L 505 190 L 505 266 L 41 266 L 41 190 z M 809 958 L 41 958 L 41 307 L 505 307 L 505 654 L 505 695 L 505 748 C 505 810 555 861 617 861 L 809 861 L 809 958 z M 958 748 C 958 787 926 819 887 819 L 850 819 L 617 819 C 578 819 546 787 546 748 L 546 695 L 958 695 L 958 748 z M 958 654 L 546 654 L 546 307 L 546 266 L 546 149 L 546 148 L 958 148 L 958 654 z M 800 758 C 800 784 780 804 755 804 C 730 804 709 784 709 758 C 709 733 730 713 755 713 C 780 713 800 733 800 758"/>
</svg>