<?xml version="1.0" encoding="iso-8859-1"?>
<!DOCTYPE svg PUBLIC "-//W3C//DTD SVG 1.1 Basic//EN" "http://www.w3.org/Graphics/SVG/1.1/DTD/svg11-basic.dtd">
<svg version="1.1" baseProfile="basic"
   xmlns="http://www.w3.org/2000/svg" xmlns:xlink="http://www.w3.org/1999/xlink" x="0px" y="0px" width="128px" height="128px"
   viewBox="0 0 128 128" xml:space="preserve">
  <path transform="matrix(0.128,0,0,0.128,5,0)" stroke="none" style="fill:#FFFFFF" d="M 806 696 C 872 619 909 522 909 421 C 909 189 718 0 485 0 C 251 0 60 189 60 421 C 60 428 63 438 67 452 C 68 455 69 459 70 463 C 51 488 0 567 0 623 C 0 638 7 670 72 670 C 74 670 77 670 79 670 C 76 684 75 699 80 712 C 82 717 85 722 90 725 L 90 744 C 90 763 97 777 104 786 C 92 826 95 864 115 892 C 128 911 147 923 166 923 L 301 923 C 331 923 333 978 333 979 C 333 990 343 1000 355 1000 L 787 1000 C 793 1000 799 997 803 992 C 807 986 809 980 808 974 C 808 973 792 901 783 836 C 776 782 801 710 806 696 z M 765 681 C 759 699 732 778 740 842 C 746 885 755 929 760 957 L 374 957 C 368 923 348 880 301 880 L 166 880 C 163 880 156 877 150 868 C 137 849 137 819 149 788 C 152 779 149 769 141 763 C 141 763 133 756 133 744 L 133 713 C 133 705 127 697 119 694 C 118 687 123 669 130 655 C 134 648 133 639 128 633 C 123 626 115 623 107 625 C 107 625 90 628 72 628 C 49 628 43 623 43 623 C 43 581 91 506 110 480 C 113 476 114 471 114 466 C 113 460 112 453 108 441 C 107 435 104 424 104 421 C 104 212 274 42 485 42 C 695 42 866 212 866 421 C 866 513 832 602 770 671 C 768 674 766 678 765 681 z M 538 682 L 434 682 C 423 682 413 691 413 703 C 413 715 423 724 434 724 L 538 724 C 550 724 560 715 560 703 C 560 691 550 682 538 682 z M 506 134 C 506 134 504 134 503 134 L 469 134 C 469 134 467 134 467 134 C 403 138 282 185 282 336 C 282 428 316 467 344 498 C 367 523 381 539 381 592 L 382 636 C 382 648 391 657 403 657 L 570 657 C 582 657 591 648 591 636 L 591 592 C 591 539 606 523 629 498 C 656 467 691 428 691 336 C 691 185 570 138 506 134 z M 425 614 L 424 603 L 548 603 L 548 614 L 425 614 z M 596 469 C 576 492 556 515 550 560 L 422 560 C 416 515 397 492 376 469 C 351 441 325 412 325 336 C 325 217 419 180 469 177 L 504 177 C 554 180 648 217 648 336 C 648 412 622 441 596 469 z"/>
</svg>