<?xml version="1.0" encoding="UTF-8" standalone="no"?>
<svg
   xmlns:dc="http://purl.org/dc/elements/1.1/"
   xmlns:cc="http://creativecommons.org/ns#"
   xmlns:rdf="http://www.w3.org/1999/02/22-rdf-syntax-ns#"
   xmlns:svg="http://www.w3.org/2000/svg"
   xmlns="http://www.w3.org/2000/svg"
   xmlns:sodipodi="http://sodipodi.sourceforge.net/DTD/sodipodi-0.dtd"
   xmlns:inkscape="http://www.inkscape.org/namespaces/inkscape"
   version="1.1"
   x="0px"
   y="0px"
   width="128px"
   height="128px"
   viewBox="0 0 128 128"
   xml:space="preserve"
   id="svg4546"
   sodipodi:docname="conversion-design-2.svg"
   inkscape:version="0.92.2 (5c3e80d, 2017-08-06)"><metadata
     id="metadata4552"><rdf:RDF><cc:Work
         rdf:about=""><dc:format>image/svg+xml</dc:format><dc:type
           rdf:resource="http://purl.org/dc/dcmitype/StillImage" /><dc:title></dc:title></cc:Work></rdf:RDF></metadata><defs
     id="defs4550" /><sodipodi:namedview
     pagecolor="#ffffff"
     bordercolor="#666666"
     borderopacity="1"
     objecttolerance="10"
     gridtolerance="10"
     guidetolerance="10"
     inkscape:pageopacity="0"
     inkscape:pageshadow="2"
     inkscape:window-width="1920"
     inkscape:window-height="1017"
     id="namedview4548"
     showgrid="false"
     inkscape:snap-object-midpoints="true"
     inkscape:zoom="3.3125"
     inkscape:cx="38.173563"
     inkscape:cy="58.484908"
     inkscape:window-x="-8"
     inkscape:window-y="-8"
     inkscape:window-maximized="1"
     inkscape:current-layer="svg4546" /><path
     style="fill:#ffffff;stroke:none;stroke-width:0.08815094"
     d="M 103.66793,106.22432 69.465357,53.598189 c 4.848297,-2.115622 8.286185,-6.963924 8.286185,-12.517434 0,-6.963925 -5.289056,-12.781887 -12.164831,-13.575246 v -7.580981 h -3.261578 v 7.580981 c -6.875776,0.793359 -12.164832,6.611321 -12.164832,13.575246 0,5.64166 3.437888,10.489962 8.374334,12.517434 L 45.047542,74.401811 C 38.700672,70.435019 33.587927,64.705208 30.150039,57.741283 l -2.997137,1.498566 c 3.702342,7.492831 9.255845,13.663396 16.043472,17.894642 l -18.864302,29.089829 2.73268,1.85115 19.040603,-29.177961 c 6.258721,3.261586 13.310795,5.112756 20.715466,5.112756 5.641665,0 11.107019,-1.145963 16.307926,-3.173435 l 17.718343,27.15049 z M 53.510039,41.080755 c 0,-5.729812 4.672,-10.401812 10.489962,-10.401812 5.729802,0 10.401802,4.672 10.401802,10.401812 0,5.729812 -4.672,10.31366 -10.401802,10.31366 -5.817962,0 -10.489962,-4.583848 -10.489962,-10.31366 z m 13.310782,39.579773 c -6.699466,0 -13.222633,-1.674867 -18.952447,-4.583848 l 2.644534,-3.966792 v 0 L 60.650262,56.595321 h -0.0881 l 1.322261,-2.027472 c 0.705205,0.08815 1.322261,0.176303 2.115627,0.176303 0.705205,0 1.41041,-0.08815 2.115615,-0.176303 L 81.277629,78.016 c -4.583851,1.763019 -9.432149,2.644529 -14.456758,2.644529 z"
     id="path4544"
     inkscape:connector-curvature="0" /><circle
     style="opacity:1;fill:none;stroke:#ffffff;stroke-width:2.66666667;stroke-opacity:1;stroke-miterlimit:4;stroke-dasharray:none"
     id="path4554"
     cx="64"
     cy="64"
     r="61.456585" /><path
     inkscape:connector-curvature="0"
     style="fill:#000000;stroke:none;stroke-width:0.12800001"
     d="m -42.995928,64.175094 c -0.512,-12.8 -11.648,-13.696 -14.336,-13.696 h -34.56 c -7.68,0 -13.952002,6.016 -14.336002,13.696 v 0 0.64 4.608 0.128 h -64.63999 v 14.976 5.248 88.575996 h 108.799992 v -17.664 h 4.736 c 7.936,0 14.464,-6.528 14.464,-14.464 v -6.784 -5.248 -64.767996 -4.608 -0.64 z m -48.896,-8.448 h 34.56 c 4.864,0 8.832,3.712 9.088,8.448 h -52.736002 c 0.256,-4.736 4.352002,-8.448 9.088002,-8.448 z m -73.727992,19.072 h 59.39199 v 9.728 h -59.39199 z m 98.303992,98.303996 H -165.61992 V 89.775094 h 59.39199 v 44.415996 5.248 6.784 c 0,7.936 6.400002,14.464 14.336002,14.464 h 24.576 z m 19.072,-26.88 c 0,4.992 -4.096,9.088 -9.088,9.088 h -4.736 -29.824 c -4.992,0 -9.088002,-4.096 -9.088002,-9.088 v -6.784 h 52.736002 z m 0,-12.032 h -52.736002 v -44.415996 -5.248 -14.976 -0.128 h 52.736002 z m -20.224,13.312 c 0,3.328 -2.56,5.888 -5.76,5.888 -3.2,0 -5.888,-2.56 -5.888,-5.888 0,-3.2 2.688,-5.76 5.888,-5.76 3.2,0 5.76,2.56 5.76,5.76"
     id="path4566" /><path
     inkscape:connector-curvature="0"
     style="fill:#000000;stroke:none;stroke-width:0.12800001"
     d="m -65.606038,47.132981 c 0,-4.992 -3.968,-8.96 -8.96,-8.96 -4.864,0 -8.96,3.968 -8.96,8.96 0,4.864 4.096,8.832 8.96,8.832 4.992,0 8.96,-3.968 8.96,-8.832 m -53.120002,-30.592 c 8.96,0 16.384,-4.992 18.048,-11.5199999 -5.12,3.456 -11.392,5.5039999 -18.048,5.5039999 -6.656,0 -12.8,-2.0479999 -17.92,-5.5039999 1.664,6.5279999 9.088,11.5199999 17.92,11.5199999 m 56.576002,30.592 c 0,6.784 -5.504,12.416004 -12.416,12.416004 -6.784,0 -12.416,-5.632004 -12.416,-12.416004 0,-0.64 0.128,-1.28 0.128,-1.792 -8.576,0.256 -12.544,2.56 -16.768002,13.312004 -4.864,12.416 -11.008,24.064 -22.528,24.064 -7.168,0 -16,-7.424 -18.304,-15.36 -1.28,-3.968 -1.792,-11.392004 7.04,-17.152004 16.64,-10.88 16.64,-16.64 16.64,-20.352 v -9.856 c -11.008,-0.896 -19.712,-8.448 -19.712,-17.7919999 0,0 0,-0.128 0,-0.128 -6.4,-6.016 -10.496,-14.4640001 -10.496,-23.9360001 v -21.76 c 0,-0.896 0.768,-1.664 1.664,-1.664 h 13.44 c 1.024,0 1.792,0.768 1.792,1.664 0,1.024 -0.768,1.792 -1.792,1.792 h -11.648 v 19.968 c 0,16.0000001 12.928,28.9280001 28.8,28.9280001 16,0 28.928002,-12.928 28.928002,-28.9280001 v -19.968 h -11.136002 c -0.896,0 -1.792,-0.768 -1.792,-1.792 0,-0.896 0.896,-1.664 1.792,-1.664 h 12.928002 c 0.896,0 1.664,0.768 1.664,1.664 v 21.76 c 0,9.472 -4.096,17.9200001 -10.496,23.9360001 0,0 0,0.128 0,0.128 0,9.4719999 -9.088002,17.1519999 -20.352002,17.7919999 v 9.856 c 0,5.76 -1.408,12.288 -18.304,23.296 -6.656,4.352004 -6.784,9.600004 -5.632,13.184004 2.048,7.168 9.856,12.8 14.976,12.8 8.96,0 14.208,-8.704 19.328,-21.76 5.12,-13.056004 10.880002,-15.488004 20.992002,-15.488004 2.048,-4.352 6.272,-7.296 11.264,-7.296 6.912,0 12.416,5.632 12.416,12.544 m -5.248,0.256 c 0,3.968 -3.2,7.168 -7.168,7.168 -3.84,0 -7.04,-3.2 -7.04,-7.168 0,-3.968 3.2,-7.04 7.04,-7.04 3.968,0 7.168,3.072 7.168,7.04"
     id="path5144" /><path
     inkscape:connector-curvature="0"
     style="fill:#000000;stroke:none;stroke-width:0.12800001"
     d="m 250.57691,100.5597 c 8.448,-9.856001 13.184,-22.272001 13.184,-35.200002 0,-29.695999 -24.448,-53.887999 -54.272,-53.887999 -29.952,0 -54.4,24.192 -54.4,53.887999 0,0.896001 0.384,2.176001 0.896,3.968001 0.128,0.384 0.256,0.896 0.384,1.408 -2.432,3.2 -8.96,13.312 -8.96,20.48 0,1.92 0.896,6.016 9.216,6.016 0.256,0 0.64,0 0.896,0 -0.384,1.792 -0.512,3.712001 0.128,5.376001 0.256,0.64 0.64,1.28 1.28,1.664 v 2.432 c 0,2.432 0.896,4.224 1.792,5.376 -1.536,5.12 -1.152,9.984 1.408,13.568 1.664,2.432 4.096,3.968 6.528,3.968 h 17.28 c 3.84,0 4.096,7.04 4.096,7.168 0,1.408 1.28,2.688 2.816,2.688 h 55.296 c 0.768,0 1.536,-0.384 2.048,-1.024 0.512,-0.768 0.768,-1.536 0.64,-2.304 0,-0.128 -2.048,-9.344 -3.2,-17.664 -0.896,-6.912 2.304,-16.128 2.944,-17.92 z m -5.248,-1.920001 c -0.768,2.304001 -4.224,12.416001 -3.2,20.608001 0.768,5.504 1.92,11.136 2.56,14.72 h -49.408 c -0.768,-4.352 -3.328,-9.856 -9.344,-9.856 h -17.28 c -0.384,0 -1.28,-0.384 -2.048,-1.536 -1.664,-2.432 -1.664,-6.272 -0.128,-10.24 0.384,-1.152 0,-2.432 -1.024,-3.2 0,0 -1.024,-0.896 -1.024,-2.432 v -3.968 c 0,-1.024 -0.768,-2.048 -1.792,-2.432 -0.128,-0.896001 0.512,-3.200001 1.408,-4.992001 0.512,-0.896 0.384,-2.048 -0.256,-2.816 -0.64,-0.896 -1.664,-1.28 -2.688,-1.024 0,0 -2.176,0.384 -4.48,0.384 -2.944,0 -3.712,-0.64 -3.712,-0.64 0,-5.376 6.144,-14.976 8.576,-18.304 0.384,-0.512 0.512,-1.152 0.512,-1.792 -0.128,-0.768 -0.256,-1.664 -0.768,-3.2 -0.128,-0.768 -0.512,-2.176001 -0.512,-2.560001 0,-26.751999 21.76,-48.511999 48.768,-48.511999 26.88,0 48.768,21.76 48.768,48.511999 0,11.776001 -4.352,23.168001 -12.288,32.000001 -0.256,0.384 -0.512,0.896 -0.64,1.28 z m -29.056,0.128 h -13.312 c -1.408,0 -2.688,1.152 -2.688,2.688001 0,1.536 1.28,2.688 2.688,2.688 h 13.312 c 1.536,0 2.816,-1.152 2.816,-2.688 0,-1.536001 -1.28,-2.688001 -2.816,-2.688001 z m -4.096,-70.144 c 0,0 -0.256,0 -0.384,0 h -4.352 c 0,0 -0.256,0 -0.256,0 -8.192,0.512 -23.68,6.528 -23.68,25.855999 0,11.776001 4.352,16.768001 7.936,20.736001 2.944,3.2 4.736,5.248 4.736,12.032 l 0.128,5.632 c 0,1.536 1.152,2.688 2.688,2.688 h 21.376 c 1.536,0 2.688,-1.152 2.688,-2.688 v -5.632 c 0,-6.784 1.92,-8.832 4.864,-12.032 3.456,-3.968 7.936,-8.96 7.936,-20.736001 0,-19.327999 -15.488,-25.343999 -23.68,-25.855999 z m -10.368,61.44 -0.128,-1.408 h 15.872 v 1.408 z m 21.888,-18.56 c -2.56,2.944 -5.12,5.888 -5.888,11.648 h -16.384 c -0.768,-5.76 -3.2,-8.704 -5.888,-11.648 -3.2,-3.584 -6.528,-7.296001 -6.528,-17.024001 0,-15.231999 12.032,-19.967999 18.432,-20.351999 h 4.48 c 6.4,0.384 18.432,5.12 18.432,20.351999 0,9.728 -3.328,13.440001 -6.656,17.024001 z"
     id="path5722" /></svg>