<?xml version="1.0" encoding="UTF-8" standalone="no"?>
<svg
   xmlns:dc="http://purl.org/dc/elements/1.1/"
   xmlns:cc="http://creativecommons.org/ns#"
   xmlns:rdf="http://www.w3.org/1999/02/22-rdf-syntax-ns#"
   xmlns:svg="http://www.w3.org/2000/svg"
   xmlns="http://www.w3.org/2000/svg"
   xmlns:sodipodi="http://sodipodi.sourceforge.net/DTD/sodipodi-0.dtd"
   xmlns:inkscape="http://www.inkscape.org/namespaces/inkscape"
   version="1.1"
   x="0px"
   y="0px"
   width="128px"
   height="128px"
   viewBox="0 0 128 128"
   xml:space="preserve"
   id="svg4546"
   sodipodi:docname="conversion-strategy-2.svg"
   inkscape:version="0.92.2 (5c3e80d, 2017-08-06)"><metadata
     id="metadata4552"><rdf:RDF><cc:Work
         rdf:about=""><dc:format>image/svg+xml</dc:format><dc:type
           rdf:resource="http://purl.org/dc/dcmitype/StillImage" /><dc:title></dc:title></cc:Work></rdf:RDF></metadata><defs
     id="defs4550" /><sodipodi:namedview
     pagecolor="#ffffff"
     bordercolor="#666666"
     borderopacity="1"
     objecttolerance="10"
     gridtolerance="10"
     guidetolerance="10"
     inkscape:pageopacity="0"
     inkscape:pageshadow="2"
     inkscape:window-width="1920"
     inkscape:window-height="1017"
     id="namedview4548"
     showgrid="false"
     inkscape:snap-object-midpoints="true"
     inkscape:zoom="3.3125"
     inkscape:cx="38.173563"
     inkscape:cy="58.484908"
     inkscape:window-x="-8"
     inkscape:window-y="-8"
     inkscape:window-maximized="1"
     inkscape:current-layer="svg4546" /><path
     style="fill:#212121;stroke:none;stroke-width:0.08815094"
     d="m -36.105655,14.148848 -34.202573,-52.626131 c 4.848297,-2.115622 8.286185,-6.963924 8.286185,-12.517434 0,-6.963925 -5.289056,-12.781887 -12.164831,-13.575246 v -7.580981 h -3.261578 v 7.580981 c -6.875776,0.793359 -12.164832,6.611321 -12.164832,13.575246 0,5.64166 3.437888,10.489962 8.374334,12.517434 l -13.487093,20.803622 c -6.346867,-3.966792 -11.459617,-9.696603 -14.897507,-16.660528 l -2.99713,1.498566 c 3.70234,7.492831 9.25584,13.663396 16.043469,17.894642 l -18.864299,29.089829 2.73268,1.85115 19.0406,-29.177961 c 6.258721,3.2615864 13.310795,5.1127564 20.715466,5.1127564 5.641665,0 11.107019,-1.145963 16.307926,-3.1734354 l 17.718343,27.15049 z m -50.157891,-65.143565 c 0,-5.729812 4.672,-10.401812 10.489962,-10.401812 5.729802,0 10.401802,4.672 10.401802,10.401812 0,5.729812 -4.672,10.31366 -10.401802,10.31366 -5.817962,0 -10.489962,-4.583848 -10.489962,-10.31366 z m 13.310782,39.579773 c -6.699466,0 -13.222633,-1.674867 -18.952447,-4.583848 l 2.644534,-3.966792 v 0 l 10.137354,-15.514567 h -0.0881 l 1.322261,-2.027472 c 0.705205,0.08815 1.322261,0.176303 2.115627,0.176303 0.705205,0 1.41041,-0.08815 2.115615,-0.176303 l 15.161964,23.448151 c -4.583851,1.763019 -9.432149,2.644529 -14.456758,2.644529 z"
     id="path4544"
     inkscape:connector-curvature="0" /><circle
     style="opacity:1;fill:none;stroke:#212121;stroke-width:2.66666667;stroke-opacity:1;stroke-miterlimit:4;stroke-dasharray:none"
     id="path4554"
     cx="64"
     cy="64"
     r="61.456585" /><path
     inkscape:connector-curvature="0"
     style="fill:#212121;stroke:none;stroke-width:0.12800001"
     d="m -42.995928,64.175094 c -0.512,-12.8 -11.648,-13.696 -14.336,-13.696 h -34.56 c -7.68,0 -13.952002,6.016 -14.336002,13.696 v 0 0.64 4.608 0.128 h -64.63999 v 14.976 5.248 88.575996 h 108.799992 v -17.664 h 4.736 c 7.936,0 14.464,-6.528 14.464,-14.464 v -6.784 -5.248 -64.767996 -4.608 -0.64 z m -48.896,-8.448 h 34.56 c 4.864,0 8.832,3.712 9.088,8.448 h -52.736002 c 0.256,-4.736 4.352002,-8.448 9.088002,-8.448 z m -73.727992,19.072 h 59.39199 v 9.728 h -59.39199 z m 98.303992,98.303996 H -165.61992 V 89.775094 h 59.39199 v 44.415996 5.248 6.784 c 0,7.936 6.400002,14.464 14.336002,14.464 h 24.576 z m 19.072,-26.88 c 0,4.992 -4.096,9.088 -9.088,9.088 h -4.736 -29.824 c -4.992,0 -9.088002,-4.096 -9.088002,-9.088 v -6.784 h 52.736002 z m 0,-12.032 h -52.736002 v -44.415996 -5.248 -14.976 -0.128 h 52.736002 z m -20.224,13.312 c 0,3.328 -2.56,5.888 -5.76,5.888 -3.2,0 -5.888,-2.56 -5.888,-5.888 0,-3.2 2.688,-5.76 5.888,-5.76 3.2,0 5.76,2.56 5.76,5.76"
     id="path4566" /><path
     inkscape:connector-curvature="0"
     style="fill:#212121;stroke:none;stroke-width:0.12800001"
     d="m -65.606038,47.132981 c 0,-4.992 -3.968,-8.96 -8.96,-8.96 -4.864,0 -8.96,3.968 -8.96,8.96 0,4.864 4.096,8.832 8.96,8.832 4.992,0 8.96,-3.968 8.96,-8.832 m -53.120002,-30.592 c 8.96,0 16.384,-4.992 18.048,-11.5199999 -5.12,3.456 -11.392,5.5039999 -18.048,5.5039999 -6.656,0 -12.8,-2.0479999 -17.92,-5.5039999 1.664,6.5279999 9.088,11.5199999 17.92,11.5199999 m 56.576002,30.592 c 0,6.784 -5.504,12.416004 -12.416,12.416004 -6.784,0 -12.416,-5.632004 -12.416,-12.416004 0,-0.64 0.128,-1.28 0.128,-1.792 -8.576,0.256 -12.544,2.56 -16.768002,13.312004 -4.864,12.416 -11.008,24.064 -22.528,24.064 -7.168,0 -16,-7.424 -18.304,-15.36 -1.28,-3.968 -1.792,-11.392004 7.04,-17.152004 16.64,-10.88 16.64,-16.64 16.64,-20.352 v -9.856 c -11.008,-0.896 -19.712,-8.448 -19.712,-17.7919999 0,0 0,-0.128 0,-0.128 -6.4,-6.016 -10.496,-14.4640001 -10.496,-23.9360001 v -21.76 c 0,-0.896 0.768,-1.664 1.664,-1.664 h 13.44 c 1.024,0 1.792,0.768 1.792,1.664 0,1.024 -0.768,1.792 -1.792,1.792 h -11.648 v 19.968 c 0,16.0000001 12.928,28.9280001 28.8,28.9280001 16,0 28.928002,-12.928 28.928002,-28.9280001 v -19.968 h -11.136002 c -0.896,0 -1.792,-0.768 -1.792,-1.792 0,-0.896 0.896,-1.664 1.792,-1.664 h 12.928002 c 0.896,0 1.664,0.768 1.664,1.664 v 21.76 c 0,9.472 -4.096,17.9200001 -10.496,23.9360001 0,0 0,0.128 0,0.128 0,9.4719999 -9.088002,17.1519999 -20.352002,17.7919999 v 9.856 c 0,5.76 -1.408,12.288 -18.304,23.296 -6.656,4.352004 -6.784,9.600004 -5.632,13.184004 2.048,7.168 9.856,12.8 14.976,12.8 8.96,0 14.208,-8.704 19.328,-21.76 5.12,-13.056004 10.880002,-15.488004 20.992002,-15.488004 2.048,-4.352 6.272,-7.296 11.264,-7.296 6.912,0 12.416,5.632 12.416,12.544 m -5.248,0.256 c 0,3.968 -3.2,7.168 -7.168,7.168 -3.84,0 -7.04,-3.2 -7.04,-7.168 0,-3.968 3.2,-7.04 7.04,-7.04 3.968,0 7.168,3.072 7.168,7.04"
     id="path5144" /><path
     inkscape:connector-curvature="0"
     style="fill:#212121;stroke:none;stroke-width:0.08513208"
     d="m 93.923925,80.685887 c 5.618717,-6.555171 8.768605,-14.812981 8.768605,-23.411322 0,-19.750641 -16.260228,-35.840603 -36.096002,-35.840603 -19.920905,0 -36.181132,16.089962 -36.181132,35.840603 0,0.595925 0.255396,1.447246 0.595925,2.639095 0.08513,0.255397 0.170264,0.595925 0.255396,0.936453 -1.61751,2.128302 -5.959245,8.853736 -5.959245,13.621132 0,1.276981 0.595924,4.001208 6.129509,4.001208 0.170264,0 0.42566,0 0.595925,0 -0.255397,1.191849 -0.340529,2.468831 0.08513,3.575548 0.170264,0.42566 0.42566,0.85132 0.85132,1.106717 v 1.617509 c 0,1.617509 0.595925,2.809359 1.191849,3.575547 -1.021584,3.405283 -0.766188,6.640301 0.936453,9.024 1.106717,1.617509 2.724227,2.639096 4.341736,2.639096 h 11.49283 c 2.553963,0 2.724227,4.68226 2.724227,4.76739 0,0.93646 0.851321,1.78778 1.872905,1.78778 h 36.777057 c 0.510793,0 1.021585,-0.2554 1.362113,-0.68106 0.340529,-0.51079 0.510793,-1.02158 0.425661,-1.53238 0,-0.0851 -1.362113,-6.214638 -2.128302,-11.748223 -0.595925,-4.597132 1.532377,-10.726641 1.958038,-11.91849 z m -3.490416,-1.276981 c -0.510792,1.532378 -2.809358,8.257812 -2.128301,13.706264 0.510792,3.660679 1.276981,7.40649 1.702641,9.79019 H 57.146868 c -0.510793,-2.89449 -2.213434,-6.555171 -6.214642,-6.555171 h -11.49283 c -0.255396,0 -0.851321,-0.255397 -1.362113,-1.021585 -1.106717,-1.61751 -1.106717,-4.171472 -0.08513,-6.810566 0.255396,-0.766188 0,-1.617509 -0.681057,-2.128302 0,0 -0.681056,-0.595924 -0.681056,-1.617509 v -2.639094 c 0,-0.681057 -0.510793,-1.362114 -1.191849,-1.61751 -0.08513,-0.595925 0.340528,-2.128302 0.936452,-3.320151 0.340529,-0.595925 0.255397,-1.362114 -0.170264,-1.872906 -0.42566,-0.595925 -1.106717,-0.851321 -1.787773,-0.681057 0,0 -1.447246,0.255397 -2.979623,0.255397 -1.958038,0 -2.46883,-0.425661 -2.46883,-0.425661 0,-3.575548 4.086339,-9.960453 5.703849,-12.173887 0.255396,-0.340529 0.340528,-0.766189 0.340528,-1.191849 -0.08513,-0.510793 -0.170264,-1.106717 -0.510792,-2.128302 -0.08513,-0.510793 -0.340529,-1.447246 -0.340529,-1.702642 0,-17.792604 14.472453,-32.265056 32.435321,-32.265056 17.877736,0 32.435321,14.472452 32.435321,32.265056 0,7.832151 -2.89449,15.408906 -8.172679,21.283019 -0.170264,0.255396 -0.340528,0.595925 -0.425661,0.851322 z m -19.324981,0.08513 h -8.853736 c -0.936452,0 -1.787773,0.766188 -1.787773,1.787774 0,1.021585 0.851321,1.787774 1.787773,1.787774 h 8.853736 c 1.021585,0 1.872906,-0.766189 1.872906,-1.787774 0,-1.021586 -0.851321,-1.787774 -1.872906,-1.787774 z M 68.384302,32.84166 c 0,0 -0.170264,0 -0.255396,0 h -2.894491 c 0,0 -0.170264,0 -0.170264,0 -5.448453,0.340529 -15.749434,4.341735 -15.749434,17.196678 0,7.832152 2.894491,11.152303 5.278189,13.791397 1.958037,2.128303 3.149886,3.490416 3.149886,8.002415 l 0.08513,3.745812 c 0,1.021585 0.766188,1.787774 1.787773,1.787774 h 14.217057 c 1.021585,0 1.787773,-0.766189 1.787773,-1.787774 V 71.83215 c 0,-4.512 1.276981,-5.874113 3.235019,-8.002415 2.298566,-2.639094 5.278189,-5.959245 5.278189,-13.791397 0,-12.854943 -10.300981,-16.85615 -15.749434,-17.196678 z m -6.895698,40.863396 -0.08513,-0.936453 h 10.556377 v 0.936453 z M 76.046189,61.360905 c -1.702642,1.958038 -3.405283,3.916076 -3.916076,7.747019 H 61.233208 C 60.722415,65.27698 59.104906,63.318943 57.317132,61.360905 55.18883,58.977207 52.975396,56.508376 52.975396,50.038338 c 0,-10.130716 8.002415,-13.280603 12.259019,-13.535999 h 2.979623 c 4.256604,0.255396 12.259019,3.405283 12.259019,13.535999 0,6.470038 -2.213434,8.938869 -4.426868,11.322567 z"
     id="path5722" /></svg>
