<svg width="96" height="96" viewBox="0 0 124 124" xmlns="http://www.w3.org/2000/svg"><defs><clipPath id="a"><path d="M0 357.165h357.165V0H0z"/></clipPath></defs><path d="M62.004 0C27.762 0 .003 27.758.003 62.001s27.758 62.001 62.001 62.001 62.001-27.758 62.001-62S96.247 0 62.004 0m0 1.764c16.09 0 31.216 6.266 42.595 17.643C115.976 30.784 122.242 45.91 122.242 62s-6.266 31.217-17.643 42.595C93.22 115.973 78.095 122.24 62.004 122.24s-31.216-6.266-42.595-17.643S1.766 78.092 1.766 62.001 8.032 30.785 19.41 19.407 45.913 1.764 62.004 1.764" fill="#fff"/><g clip-path="url(#a)" transform="matrix(.35278 0 0 -.35278 -1.001 124.94)"><path d="M229.13 119.59c-7.684 0-14.153 6.268-14.153 13.951 0 7.886 6.469 14.153 14.153 14.153 7.886 0 14.153-6.267 14.153-14.153 0-7.683-6.267-13.951-14.153-13.951m-94.977 76.783a51.855 51.855 0 0 1 25.22-6.536c8.972 0 17.67 2.248 25.417 6.536-4.205-7.717-14.16-12.977-25.417-12.977-11.157 0-21.034 5.26-25.22 12.977m94.977-41.485c-7.91 0-15.008-4.392-18.744-11.529-15.755-.157-25.367-4.352-33.634-25.434-7.863-20.048-15.821-33.399-29.105-33.399-7.575 0-19.159 8.522-22.198 19.155-1.656 5.151-1.564 12.64 8.275 19.074 27.322 17.801 29.608 28.574 29.608 38.082v14.145c17.957 1.619 31.862 14.125 32.143 29.069 10.701 10.291 16.585 23.927 16.585 38.472v34.372c0 2.255-1.906 4.16-4.161 4.16h-20.421c-2.325 0-4.363-1.944-4.363-4.16 0-2.365 1.998-4.363 4.363-4.363h16.058v-30.009c0-24.351-19.811-44.163-44.163-44.163-24.239 0-43.96 19.812-43.96 44.163v30.009h16.866c2.448 0 4.365 1.916 4.365 4.363 0 2.294-1.958 4.16-4.365 4.16H111.05c-2.255 0-4.16-1.905-4.16-4.16v-34.372c0-14.544 5.884-28.181 16.584-38.472.267-14.786 13.466-27.032 31.133-29.035v-14.179c0-5.628 0-14.134-25.59-30.866-15.695-10.235-13.44-23.582-11.755-28.802 3.854-13.277 18.337-25.369 30.385-25.369 19.105 0 29.08 18.737 37.011 38.984 5.44 13.846 9.939 19.188 23.394 19.981a13.213 13.213 0 0 1-.067-1.224c0-11.659 9.486-21.144 21.145-21.144 11.658 0 21.145 9.485 21.145 21.144 0 11.771-9.487 21.347-21.145 21.347" fill="#fff"/></g></svg>