<?xml version="1.0" encoding="UTF-8"?>
<svg width="128px" height="128px" version="1.1" viewBox="0 0 124 124" xmlns="http://www.w3.org/2000/svg">
 <g transform="translate(-69.536 -106.49)">
  <g transform="translate(80.521 55.551)">
   <g transform="matrix(.35278 0 0 -.35278 51.015 50.938)" fill="#878789">
    <path d="m0 0c-97.063 0-175.75-78.685-175.75-175.75s78.685-175.75 175.75-175.75 175.75 78.685 175.75 175.75-78.685 175.75-175.75 175.75m0-5c45.608 0 88.486-17.761 120.74-50.011 32.25-32.25 50.011-75.129 50.011-120.74s-17.761-88.487-50.011-120.74c-32.251-32.25-75.129-50.011-120.74-50.011s-88.487 17.761-120.74 50.011-50.011 75.129-50.011 120.74 17.761 88.487 50.011 120.74 75.129 50.011 120.74 50.011" fill="#878789"/>
   </g>
   <path d="m14.948 76.842h43.097v4.4746h-43.097zm48.043 0h3.5327v4.4746h-3.5327zm8.4 0h3.5327v4.4746h-3.5327zm-58.091 7.7717h63.272v27.004h1.6485v-37.995h-66.49v66.49h8.6353v-1.6482h-7.0651z" fill="#878789"/>
   <g transform="matrix(.35278 0 0 -.35278 26.715 133.25)">
    <path d="m0 0c0-5.785 4.673-10.458 10.235-10.458 5.786 0 10.459 4.673 10.459 10.458 0 5.563-4.673 10.236-10.459 10.236-5.562 0-10.235-4.673-10.235-10.236" fill="#878789"/>
   </g>
   <g transform="matrix(.35278 0 0 -.35278 88.652 144.09)">
    <path d="m0 0c0-10.236-8.456-18.692-18.692-18.692h-1.335v98.578h1.335c10.236 0 18.692-8.456 18.692-18.692zm-86.5-5.828c-20.182 0-36.548 16.244-36.548 36.425s16.366 36.424 36.548 36.424 36.425-16.243 36.425-36.424-16.243-36.425-36.425-36.425m-62.368-12.864h-14.241c-10.237 0-18.693 8.456-18.693 18.692v61.194c0 10.236 8.456 18.692 18.693 18.692h14.241zm130.18 103.25h-144.42c-12.907 0-23.366-10.459-23.366-23.365v-61.194c0-12.906 10.459-23.143 23.366-23.143h144.42c12.906 0 23.365 10.237 23.365 23.143v61.194c-0.223 12.906-10.459 23.365-23.365 23.365" fill="#878789"/>
   </g>
   <g transform="matrix(0 -.35278 -.35278 0 65.468 126.85)">
    <path d="m0 0c-3.002 0-5.63-1.251-8.132-2.377-2.377-1.251-4.754-2.252-7.132-2.127-5.755 0.375-19.141 5.254-23.02 7.131 5.63 2.252 24.772 9.634 28.525 11.135 1.127 0.376 2.127 0.501 2.503 0.251 0.375-0.251 0.5-0.876 0.5-1.752v-7.132h4.755v28.526h-4.254v-1.126c0-0.75-0.751-4.003-2.878-5.13-2.252-1-12.011-4.378-13.888-4.879l-19.267 9.008c6.006 2.503 29.026 12.136 32.029 13.137 0.876 0.251 2.127 0.501 2.878 0 0.5-0.375 0.75-1.001 0.75-1.376v-4.254h4.63v12.511c-2.878 1.502-6.131 2.628-9.384 3.253v-1.751l-37.033-15.639c-1.251-2.503-2.252-5.13-3.003-8.008l22.771-9.133-22.646-8.257c1.126-4.004 2.878-7.632 5.13-10.885l36.157-13.512c6.381 1.501 12.011 4.754 16.39 9.133-1.251 1.877-3.378 3.253-6.381 3.253" fill="#878789"/>
   </g>
   <g transform="matrix(.35278 0 0 -.35278 33.44 112.14)">
    <path d="m0 0-10.774 25.513h-2.403c0.859 4.462 2.403 8.924 4.462 12.872h17.163v-6.351h-5.835c-0.515 0-1.373-0.343-1.888-1.03-0.687-1.029-0.343-2.745 0-3.947 0.847-2.542 6.204-15.539 10.988-27.057h14.925l4.465 9.551c-0.687 2.574-5.321 15.962-6.694 19.051-1.544 2.918-6.007 3.947-7.036 3.947h-1.545v5.836h39.131v-6.522h-9.782c-1.202 0-2.06-0.172-2.404-0.687-0.342-0.515-0.171-1.888 0.344-3.432 1.419-3.549 6.668-17.12 10.807-27.744h8.962c2.504 7.143 4.983 15.509 5.289 20.192 0.171 3.261-1.202 6.522-2.918 9.783-1.545 3.432-3.261 7.037-3.261 11.156s1.888 7.036 4.462 8.753c6.007-6.008 10.47-13.731 12.529-22.484l-10.239-27.4h12.517c1.741 5.153 2.7 10.671 2.7 16.416 0 28.147-22.655 50.802-50.803 50.802-28.146 0-50.802-22.655-50.802-50.802 0-6.253 1.124-12.24 3.172-17.776 2.458 0.879 5.105 1.36 7.865 1.36z" fill="#878789"/>
   </g>
   <g transform="matrix(.35278 0 0 -.35278 45.243 112.14)">
    <path d="m0 0h1.399l-0.666 1.828z" fill="#878789"/>
   </g>
  </g>
 </g>
</svg>
