<?xml version="1.0" encoding="UTF-8" standalone="no"?>
<svg
   xmlns:dc="http://purl.org/dc/elements/1.1/"
   xmlns:cc="http://creativecommons.org/ns#"
   xmlns:rdf="http://www.w3.org/1999/02/22-rdf-syntax-ns#"
   xmlns:svg="http://www.w3.org/2000/svg"
   xmlns="http://www.w3.org/2000/svg"
   xmlns:sodipodi="http://sodipodi.sourceforge.net/DTD/sodipodi-0.dtd"
   xmlns:inkscape="http://www.inkscape.org/namespaces/inkscape"
   version="1.1"
   x="0px"
   y="0px"
   width="128px"
   height="128px"
   viewBox="0 0 128 128"
   xml:space="preserve"
   id="svg4546"
   sodipodi:docname="conversion-development-2.svg"
   inkscape:version="0.92.2 (5c3e80d, 2017-08-06)"><metadata
     id="metadata4552"><rdf:RDF><cc:Work
         rdf:about=""><dc:format>image/svg+xml</dc:format><dc:type
           rdf:resource="http://purl.org/dc/dcmitype/StillImage" /><dc:title></dc:title></cc:Work></rdf:RDF></metadata><defs
     id="defs4550" /><sodipodi:namedview
     pagecolor="#ffffff"
     bordercolor="#666666"
     borderopacity="1"
     objecttolerance="10"
     gridtolerance="10"
     guidetolerance="10"
     inkscape:pageopacity="0"
     inkscape:pageshadow="2"
     inkscape:window-width="1920"
     inkscape:window-height="1017"
     id="namedview4548"
     showgrid="false"
     inkscape:snap-object-midpoints="true"
     inkscape:zoom="3.3125"
     inkscape:cx="84.973628"
     inkscape:cy="61.125435"
     inkscape:window-x="-8"
     inkscape:window-y="-8"
     inkscape:window-maximized="1"
     inkscape:current-layer="svg4546" /><path
     style="fill:#000000;stroke:none;stroke-width:0.08815094"
     d="M 255.51699,113.16772 221.31441,60.541585 c 4.8483,-2.115622 8.28619,-6.963924 8.28619,-12.517434 0,-6.963925 -5.28906,-12.781887 -12.16483,-13.575246 v -7.580981 h -3.26158 v 7.580981 c -6.87578,0.793359 -12.16483,6.611321 -12.16483,13.575246 0,5.64166 3.43789,10.489962 8.37433,12.517434 L 196.8966,81.345207 c -6.34687,-3.966792 -11.45962,-9.696603 -14.89751,-16.660528 l -2.99713,1.498566 c 3.70234,7.492831 9.25584,13.663396 16.04347,17.894642 l -18.8643,29.089833 2.73268,1.85115 19.0406,-29.177965 c 6.25872,3.261586 13.3108,5.112756 20.71547,5.112756 5.64166,0 11.10702,-1.145963 16.30792,-3.173435 l 17.71835,27.150494 z M 205.3591,48.024151 c 0,-5.729812 4.672,-10.401812 10.48996,-10.401812 5.7298,0 10.4018,4.672 10.4018,10.401812 0,5.729812 -4.672,10.31366 -10.4018,10.31366 -5.81796,0 -10.48996,-4.583848 -10.48996,-10.31366 z m 13.31078,39.579773 c -6.69947,0 -13.22264,-1.674867 -18.95245,-4.583848 l 2.64453,-3.966792 v 0 l 10.13736,-15.514567 h -0.0881 l 1.32226,-2.027472 c 0.7052,0.08815 1.32226,0.176303 2.11563,0.176303 0.7052,0 1.41041,-0.08815 2.11561,-0.176303 l 15.16197,23.448151 c -4.58386,1.763019 -9.43215,2.644529 -14.45676,2.644529 z"
     id="path4544"
     inkscape:connector-curvature="0" /><circle
     style="opacity:1;fill:none;stroke:#ffffff;stroke-width:2.66666667;stroke-opacity:1;stroke-miterlimit:4;stroke-dasharray:none"
     id="path4554"
     cx="64"
     cy="64"
     r="61.456585" /><path
     inkscape:connector-curvature="0"
     style="fill:#ffffff;stroke:none;stroke-width:0.07723226"
     d="m 102.53889,33.686343 c -0.30893,-7.723225 -7.028131,-8.26385 -8.650008,-8.26385 h -20.85271 c -4.633935,0 -8.418317,3.629915 -8.650014,8.26385 v 0 0.386162 2.780361 0.07723 h -39.00228 v 9.036173 3.166522 53.444719 h 65.64741 V 91.919459 h 2.857594 c 4.788399,0 8.727248,-3.938845 8.727248,-8.727246 V 79.098904 75.932382 36.852866 34.072505 33.686343 Z M 73.036172,28.589015 h 20.85271 c 2.934825,0 5.329025,2.239735 5.483489,5.097328 h -31.81969 c 0.154464,-2.857593 2.625897,-5.097328 5.483491,-5.097328 z M 28.5504,40.09662 h 35.835758 v 5.869651 H 28.5504 Z M 87.864766,99.410987 H 28.5504 V 49.132793 h 35.835758 v 26.799589 3.166522 4.093309 c 0,4.788401 3.861614,8.727246 8.650014,8.727246 H 87.864766 Z M 99.372371,83.192213 c 0,3.012059 -2.471432,5.483491 -5.483489,5.483491 H 91.031288 73.036172 c -3.012058,0 -5.483491,-2.471432 -5.483491,-5.483491 v -4.093309 h 31.81969 z m 0,-7.259831 h -31.81969 v -26.799589 -3.166522 -9.036173 -0.07723 h 31.81969 z m -12.202695,8.032154 c 0,2.00804 -1.544648,3.552685 -3.475454,3.552685 -1.930806,0 -3.552683,-1.544645 -3.552683,-3.552685 0,-1.930806 1.621877,-3.475451 3.552683,-3.475451 1.930806,0 3.475454,1.544645 3.475454,3.475451"
     id="path4566" /><path
     inkscape:connector-curvature="0"
     style="fill:#000000;stroke:none;stroke-width:0.08815095"
     d="m 246.77434,187.72045 c 0,-3.43789 -2.73268,-6.17056 -6.17057,-6.17056 -3.34973,0 -6.17056,2.73267 -6.17056,6.17056 0,3.34974 2.82083,6.08242 6.17056,6.08242 3.43789,0 6.17057,-2.73268 6.17057,-6.08242 M 210.1917,166.65238 c 6.17056,0 11.28332,-3.43789 12.42928,-7.93359 -3.52604,2.38008 -7.84543,3.79049 -12.42928,3.79049 -4.58385,0 -8.8151,-1.41041 -12.34113,-3.79049 1.14596,4.4957 6.25871,7.93359 12.34113,7.93359 m 38.96272,21.06807 c 0,4.672 -3.7905,8.55064 -8.55065,8.55064 -4.672,0 -8.55064,-3.87864 -8.55064,-8.55064 0,-0.44075 0.0881,-0.88151 0.0881,-1.23411 -5.90611,0.1763 -8.63879,1.76302 -11.54777,9.1677 -3.34974,8.55064 -7.58098,16.57237 -15.51457,16.57237 -4.93645,0 -11.01887,-5.11275 -12.60558,-10.57811 -0.88151,-2.73268 -1.23411,-7.84543 4.8483,-11.81223 11.45962,-7.49283 11.45962,-11.45962 11.45962,-14.016 v -6.78762 c -7.58098,-0.61706 -13.57524,-5.81796 -13.57524,-12.25298 0,0 0,-0.0882 0,-0.0882 -4.40755,-4.14309 -7.22838,-9.96106 -7.22838,-16.48423 v -14.98566 c 0,-0.61705 0.52891,-1.14596 1.14596,-1.14596 h 9.25585 c 0.70521,0 1.23411,0.52891 1.23411,1.14596 0,0.70521 -0.5289,1.23412 -1.23411,1.23412 h -8.02173 v 13.75154 c 0,11.01887 8.90324,19.92212 19.83396,19.92212 11.01887,0 19.92211,-8.90325 19.92211,-19.92212 v -13.75154 h -7.66913 c -0.61706,0 -1.23411,-0.52891 -1.23411,-1.23412 0,-0.61705 0.61705,-1.14596 1.23411,-1.14596 h 8.90325 c 0.61705,0 1.14596,0.52891 1.14596,1.14596 v 14.98566 c 0,6.52317 -2.82083,12.34114 -7.22838,16.48423 0,0 0,0.0882 0,0.0882 0,6.52317 -6.25872,11.81223 -14.016,12.25298 v 6.78762 c 0,3.9668 -0.96966,8.46249 -12.60559,16.04347 -4.58384,2.99714 -4.672,6.61133 -3.87864,9.07955 1.41042,4.93645 6.78763,8.8151 10.31366,8.8151 6.17057,0 9.78476,-5.99427 13.3108,-14.98566 3.52603,-8.9914 7.49283,-10.66627 14.45675,-10.66627 1.41042,-2.99713 4.3194,-5.0246 7.75728,-5.0246 4.76015,0 8.55065,3.87864 8.55065,8.63879 m -3.61419,0.1763 c 0,2.73268 -2.20378,4.93646 -4.93646,4.93646 -2.64453,0 -4.8483,-2.20378 -4.8483,-4.93646 0,-2.73268 2.20377,-4.8483 4.8483,-4.8483 2.73268,0 4.93646,2.11562 4.93646,4.8483"
     id="path5144" /><path
     inkscape:connector-curvature="0"
     style="fill:#000000;stroke:none;stroke-width:0.08513208"
     d="m 238.22581,-7.1631696 c 5.61872,-6.5551714 8.76861,-14.8129814 8.76861,-23.4113224 0,-19.750641 -16.26023,-35.840603 -36.09601,-35.840603 -19.9209,0 -36.18113,16.089962 -36.18113,35.840603 0,0.595925 0.2554,1.447246 0.59593,2.639095 0.0851,0.255397 0.17026,0.595925 0.25539,0.936453 -1.61751,2.128302 -5.95924,8.853736 -5.95924,13.621132 0,1.276981 0.59592,4.0012084 6.12951,4.0012084 0.17026,0 0.42566,0 0.59592,0 -0.25539,1.191849 -0.34053,2.468831 0.0851,3.575548 0.17027,0.42566 0.42566,0.85132 0.85132,1.106717 v 1.617509 c 0,1.617509 0.59593,2.80935904 1.19185,3.57554704 -1.02158,3.40528296 -0.76619,6.64030096 0.93645,9.02399996 1.10672,1.6175086 2.72423,2.6390956 4.34174,2.6390956 h 11.49283 c 2.55396,0 2.72423,4.68226 2.72423,4.76739 0,0.93646 0.85132,1.78778 1.8729,1.78778 h 36.77706 c 0.51079,0 1.02158,-0.2554 1.36211,-0.68106 0.34053,-0.51079 0.5108,-1.02158 0.42566,-1.53238 0,-0.0851 -1.36211,-6.214638 -2.1283,-11.7482226 -0.59592,-4.59713196 1.53238,-10.726641 1.95804,-11.91849 z m -3.49041,-1.276981 c -0.5108,1.532378 -2.80936,8.25781204 -2.12831,13.706264 0.5108,3.660679 1.27699,7.4064896 1.70265,9.7901896 h -32.86099 c -0.51079,-2.89449 -2.21343,-6.5551706 -6.21464,-6.5551706 h -11.49283 c -0.25539,0 -0.85132,-0.255397 -1.36211,-1.021585 -1.10672,-1.61751 -1.10672,-4.171472 -0.0851,-6.81056596 0.2554,-0.766188 0,-1.617509 -0.68106,-2.12830204 0,0 -0.68105,-0.595924 -0.68105,-1.617509 v -2.639094 c 0,-0.681057 -0.5108,-1.362114 -1.19185,-1.61751 -0.0851,-0.595925 0.34053,-2.128302 0.93645,-3.3201514 0.34053,-0.595925 0.2554,-1.362114 -0.17026,-1.872906 -0.42566,-0.595925 -1.10672,-0.851321 -1.78778,-0.681057 0,0 -1.44724,0.255397 -2.97962,0.255397 -1.95804,0 -2.46883,-0.425661 -2.46883,-0.425661 0,-3.575548 4.08634,-9.960453 5.70385,-12.173887 0.25539,-0.340529 0.34053,-0.766189 0.34053,-1.191849 -0.0851,-0.510793 -0.17027,-1.106717 -0.5108,-2.128302 -0.0851,-0.510793 -0.34052,-1.447246 -0.34052,-1.702642 0,-17.792604 14.47245,-32.265056 32.43532,-32.265056 17.87773,0 32.43532,14.472452 32.43532,32.265056 0,7.832151 -2.89449,15.408906 -8.17268,21.2830194 -0.17027,0.255396 -0.34053,0.595925 -0.42566,0.851322 z m -19.32499,0.08513 h -8.85373 c -0.93645,0 -1.78777,0.766188 -1.78777,1.787774 0,1.021585 0.85132,1.787774 1.78777,1.787774 h 8.85373 c 1.02159,0 1.87291,-0.766189 1.87291,-1.787774 0,-1.021586 -0.85132,-1.787774 -1.87291,-1.787774 z m -2.72422,-46.6523764 c 0,0 -0.17027,0 -0.2554,0 h -2.89449 c 0,0 -0.17026,0 -0.17026,0 -5.44846,0.340529 -15.74944,4.341735 -15.74944,17.196678 0,7.832152 2.89449,11.152303 5.27819,13.791397 1.95804,2.128303 3.14989,3.490416 3.14989,8.002415 l 0.0851,3.745812 c 0,1.021585 0.76619,1.787774 1.78777,1.787774 h 14.21706 c 1.02158,0 1.78777,-0.766189 1.78777,-1.787774 v -3.745812 c 0,-4.512 1.27698,-5.874113 3.23502,-8.002415 2.29857,-2.639094 5.27819,-5.959245 5.27819,-13.791397 0,-12.854943 -10.30098,-16.85615 -15.74943,-17.196678 z m -6.8957,40.863396 -0.0851,-0.936453 h 10.55638 v 0.936453 z m 14.55759,-12.344151 c -1.70265,1.958038 -3.40529,3.916076 -3.91608,7.747019 h -10.89691 c -0.51079,-3.830944 -2.1283,-5.788981 -3.91607,-7.747019 -2.1283,-2.383698 -4.34174,-4.852529 -4.34174,-11.322567 0,-10.130716 8.00242,-13.280603 12.25902,-13.535999 h 2.97962 c 4.25661,0.255396 12.25902,3.405283 12.25902,13.535999 0,6.470038 -2.21343,8.938869 -4.42686,11.322567 z"
     id="path5722" /><path
     inkscape:connector-curvature="0"
     style="fill:#ffffff;stroke:none;stroke-width:0.02656603"
     d="m 83.294186,43.773585 c -7.332226,0 -13.256452,5.924225 -13.256452,13.283017 0,7.332225 5.924226,13.283011 13.256452,13.283011 7.35879,0 13.309581,-5.950786 13.309581,-13.283011 0,-7.358792 -5.950791,-13.283017 -13.309581,-13.283017 z m 0,1.434565 c 3.559846,0 6.721213,1.567396 8.899621,4.038037 -0.929802,0.132831 -1.912745,0.823548 -1.912745,2.15185 0,1.726792 1.514252,3.134792 1.408,4.808453 -0.185974,2.576906 -2.204988,6.402414 -2.204988,6.402414 0,0 -2.5769,-6.50868 -3.134788,-8.022943 -0.58445,-1.487699 0.557888,-1.461132 0.82355,-1.461132 0.292225,0 0.743844,0 0.743844,0 v -0.743848 h -8.208902 v 0.584452 c 0.345352,0 1.514253,0.292226 1.912746,1.115773 0.425056,0.850113 1.248606,3.506716 1.248606,3.506716 l -2.523775,5.472603 c 0,0 -3.055084,-7.146262 -3.48014,-8.341735 -0.425056,-1.195471 0.345351,-1.620528 0.770408,-1.620528 0.425056,0 0.611013,0 0.611013,0 v -0.929811 h -5.71169 c 1.85962,-4.091168 5.977353,-6.960301 10.75924,-6.960301 z M 71.472298,57.056602 c 0,-1.168905 0.159377,-2.284679 0.478198,-3.34732 L 77.635623,67.44392 C 73.96951,65.424901 71.472298,61.519697 71.472298,57.056602 Z m 8.448,11.317129 3.63955,-9.059016 3.294184,9.03245 c -1.115775,0.34536 -2.31124,0.531321 -3.559846,0.531321 -1.1689,0 -2.311238,-0.159394 -3.373888,-0.504755 z m 9.563776,-1.248603 5.12724,-13.65494 c 0.345367,1.142339 0.531324,2.33781 0.531324,3.586414 0,4.250567 -2.258113,7.996376 -5.658564,10.068526 z"
     id="path6300" /><path
     inkscape:connector-curvature="0"
     style="fill:#ffffff;stroke:none;stroke-width:0.02656603"
     d="m 46.765888,64.301892 c -7.332226,0 -13.256452,5.924225 -13.256452,13.283015 0,7.33223 5.924226,13.28301 13.256452,13.28301 7.35879,0 13.309581,-5.95078 13.309581,-13.28301 0,-7.35879 -5.950791,-13.283015 -13.309581,-13.283015 z m 0,1.434565 c 3.559846,0 6.721213,1.567396 8.899621,4.03804 -0.929802,0.13283 -1.912745,0.82354 -1.912745,2.15185 0,1.72679 1.514252,3.13479 1.408,4.80845 -0.185974,2.57691 -2.204988,6.40241 -2.204988,6.40241 0,0 -2.5769,-6.50868 -3.134788,-8.02294 -0.58445,-1.4877 0.557888,-1.46113 0.82355,-1.46113 0.292225,0 0.743844,0 0.743844,0 v -0.74385 H 43.17948 v 0.58445 c 0.345352,0 1.514253,0.29223 1.912746,1.11578 0.425056,0.85011 1.248606,3.50671 1.248606,3.50671 l -2.523775,5.4726 c 0,0 -3.055084,-7.14626 -3.48014,-8.34173 -0.425056,-1.19547 0.345351,-1.62053 0.770408,-1.62053 0.425056,0 0.611013,0 0.611013,0 v -0.92981 h -5.71169 c 1.85962,-4.091167 5.977353,-6.9603 10.75924,-6.9603 z M 34.944,77.584907 c 0,-1.1689 0.159377,-2.28468 0.478198,-3.34732 l 5.685127,13.73464 C 37.441212,85.953207 34.944,82.048007 34.944,77.584907 Z m 8.448,11.31713 3.63955,-9.05902 3.294184,9.03245 c -1.115775,0.34536 -2.31124,0.53133 -3.559846,0.53133 -1.1689,0 -2.311238,-0.1594 -3.373888,-0.50476 z m 9.563776,-1.2486 5.12724,-13.65494 c 0.345367,1.14234 0.531324,2.33781 0.531324,3.58641 0,4.25057 -2.258113,7.99638 -5.658564,10.06853 z"
     id="path6300-9" /></svg>