<?xml version="1.0" encoding="UTF-8"?>
<svg width="96px" height="96px" version="1.1" viewBox="0 0 124 124" xmlns="http://www.w3.org/2000/svg">
 <defs>
  <clipPath id="clipPath10088">
   <path d="M 0,357.165 H 357.165 V 0 H 0 Z"/>
  </clipPath>
 </defs>
 <g transform="translate(-69.536 -106.49)">
  <g transform="matrix(.35278 0 0 -.35278 131.54 106.49)" fill="#ffbc00">
   <path d="m0 0c-97.063 0-175.75-78.685-175.75-175.75s78.685-175.75 175.75-175.75 175.75 78.685 175.75 175.75-78.685 175.75-175.75 175.75m0-5c45.608 0 88.486-17.761 120.74-50.011 32.25-32.25 50.011-75.129 50.011-120.74s-17.761-88.487-50.011-120.74c-32.251-32.25-75.129-50.011-120.74-50.011s-88.487 17.761-120.74 50.011-50.011 75.129-50.011 120.74 17.761 88.487 50.011 120.74 75.129 50.011 120.74 50.011" fill="#ffbc00"/>
  </g>
  <g transform="matrix(.35278 0 0 -.35278 153.91 439.62)">
   <g transform="translate(-233.59 589.99)" clip-path="url(#clipPath10088)">
    <g transform="translate(236.56 141.63)">
     <path d="m0 0c12.381 14.095 20.19 32.381 20.19 52.571 0 44-36.19 79.619-80.571 79.619s-80.571-35.619-80.571-79.619c0-1.714 2.095-7.238 2.095-9.143 0 0-14.095-19.238-14.095-31.047 0-7.619 17.904-4.381 17.904-4.381s-6.096-11.81 0-13.524v-6.095c0-4.571 3.429-7.238 3.429-7.238-5.715-14.476 1.904-24 7.619-24h26.856c10.477 0 10.858-15.429 10.858-15.429h86.286s-3.238 14.667-4.953 27.81c-1.904 13.143 4.953 30.476 4.953 30.476m-49.715-12.762h-20.762v9.333h20.762zm6.286 13.333h-33.333v9.333h33.333zm8.572 39.619c-4.762-5.333-8.572-9.523-8.572-21.523v-4.762h-33.333v4.762c0 12-3.809 16.19-8.572 21.523-5.333 5.905-11.237 12.762-11.237 29.333 0 26.858 21.523 35.429 32.761 36h7.429c11.428-0.571 32.952-9.142 32.952-36 0-16.571-6.095-23.428-11.428-29.333" fill="#ffbc00"/>
    </g>
   </g>
  </g>
 </g>
</svg>
