<?xml version="1.0" encoding="iso-8859-1"?>
<!DOCTYPE svg PUBLIC "-//W3C//DTD SVG 1.1 Basic//EN" "http://www.w3.org/Graphics/SVG/1.1/DTD/svg11-basic.dtd">
<svg version="1.1" baseProfile="basic"
   xmlns="http://www.w3.org/2000/svg" xmlns:xlink="http://www.w3.org/1999/xlink" x="0px" y="0px" width="128px" height="128px"
   viewBox="0 0 128 128" xml:space="preserve">
  <path transform="matrix(0.128,0,0,0.128,19,0)" stroke="none" style="fill:#FFFFFF" d="M 667 722 C 667 683 636 652 597 652 C 559 652 527 683 527 722 C 527 760 559 791 597 791 C 636 791 667 760 667 722 M 252 483 C 322 483 380 444 393 393 C 353 420 304 436 252 436 C 200 436 152 420 112 393 C 125 444 183 483 252 483 M 694 722 C 694 775 651 819 597 819 C 544 819 500 775 500 722 C 500 717 501 712 501 708 C 434 710 403 728 370 812 C 332 909 284 1000 194 1000 C 138 1000 69 942 51 880 C 41 849 37 791 106 746 C 236 661 236 616 236 587 L 236 510 C 150 503 82 444 82 371 C 82 371 82 370 82 370 C 32 323 0 257 0 183 L 0 13 C 0 6 6 0 13 0 L 118 0 C 126 0 132 6 132 13 C 132 21 126 27 118 27 L 27 27 L 27 183 C 27 308 128 409 252 409 C 377 409 478 308 478 183 L 478 27 L 391 27 C 384 27 377 21 377 13 C 377 6 384 0 391 0 L 492 0 C 499 0 505 6 505 13 L 505 183 C 505 257 473 323 423 370 C 423 370 423 371 423 371 C 423 445 352 505 264 510 L 264 587 C 264 632 253 683 121 769 C 69 803 68 844 77 872 C 93 928 154 972 194 972 C 264 972 305 904 345 802 C 385 700 430 681 509 681 C 525 647 558 624 597 624 C 651 624 694 668 694 722 M 653 724 C 653 755 628 780 597 780 C 567 780 542 755 542 724 C 542 693 567 669 597 669 C 628 669 653 693 653 724"/>
</svg>
