<svg width="96" height="96" viewBox="0 0 124 124" xmlns="http://www.w3.org/2000/svg"><path d="M62-.001C27.758-.001-.001 27.757-.001 62S27.757 124.001 62 124.001s62.001-27.758 62.001-62S96.243-.002 62-.002m0 1.764c16.09 0 31.216 6.266 42.595 17.643C115.972 30.783 122.238 45.91 122.238 62s-6.266 31.217-17.643 42.595C93.217 115.972 78.09 122.238 62 122.238s-31.216-6.266-42.595-17.643S1.762 78.091 1.762 62s6.266-31.216 17.643-42.594S45.91 1.763 62 1.763" fill="#878789"/><path d="M25.933 25.903H69.03v4.475H25.933zm48.043 0h3.533v4.475h-3.533zm8.4 0h3.533v4.475h-3.533zm-58.091 7.772h63.272v27.004h1.649V22.684h-66.49v66.49h8.635v-1.649h-7.065z" fill="#878789"/><path d="M37.7 82.311c0 2.04 1.649 3.69 3.61 3.69A3.685 3.685 0 0 0 45 82.31c0-1.963-1.648-3.611-3.69-3.611-1.961 0-3.61 1.648-3.61 3.611" fill="#878789"/><path d="M99.637 93.151c0 3.611-2.983 6.594-6.594 6.594h-.471V64.97h.47c3.612 0 6.595 2.983 6.595 6.594zm-30.515 2.056c-7.12 0-12.894-5.73-12.894-12.85s5.774-12.85 12.894-12.85 12.85 5.73 12.85 12.85-5.73 12.85-12.85 12.85m-22.003 4.538h-5.024c-3.611 0-6.594-2.983-6.594-6.594V71.563c0-3.611 2.983-6.594 6.594-6.594h5.024zm45.925-36.424H42.096a8.242 8.242 0 0 0-8.243 8.242v21.588c0 4.553 3.69 8.165 8.243 8.165h50.948c4.553 0 8.243-3.612 8.243-8.165V71.563c-.079-4.553-3.69-8.242-8.243-8.242" fill="#878789"/><path d="M76.453 75.911c0 1.059.441 1.986.839 2.869.44.838.794 1.677.75 2.516-.132 2.03-1.854 6.752-2.516 8.12-.794-1.985-3.398-8.738-3.928-10.062-.133-.398-.177-.75-.089-.883.089-.133.31-.177.619-.177h2.516v-1.677H64.58v1.5h.397c.265 0 1.413.266 1.81 1.016.353.794 1.545 4.237 1.721 4.9l-3.177 6.796c-.883-2.118-4.282-10.24-4.635-11.299-.088-.309-.177-.75 0-1.015a.679.679 0 0 1 .486-.265h1.5v-1.633H58.27a12.254 12.254 0 0 0-1.148 3.31h.618l5.517 13.065c.883.441 1.81.794 2.825 1.06l3.222-8.034 2.913 7.99a12.806 12.806 0 0 0 3.84-1.81l4.767-12.756A12.095 12.095 0 0 0 77.6 73.66c-.663.441-1.148 1.192-1.148 2.251M44.425 61.201l-3.8-9h-.849a16.846 16.846 0 0 1 1.575-4.541h6.054v2.24h-2.058c-.182 0-.485.121-.666.363-.243.363-.121.969 0 1.393.299.897 2.188 5.482 3.876 9.545h5.265l1.576-3.37c-.243-.907-1.878-5.63-2.362-6.72-.545-1.03-2.12-1.393-2.482-1.393h-.545V47.66h13.804v2.3h-3.45c-.424 0-.727.061-.849.243-.12.181-.06.666.122 1.21.5 1.252 2.352 6.04 3.812 9.788h3.162c.883-2.52 1.758-5.471 1.866-7.123.06-1.15-.424-2.301-1.03-3.452-.545-1.21-1.15-2.482-1.15-3.935s.666-2.482 1.574-3.088a16.595 16.595 0 0 1 4.42 7.932L68.678 61.2h4.416c.614-1.818.952-3.765.952-5.791 0-9.93-7.992-17.922-17.922-17.922A17.882 17.882 0 0 0 38.202 55.41c0 2.206.396 4.318 1.119 6.27.867-.31 1.8-.479 2.775-.479z" fill="#878789"/><path d="M56.228 61.201h.494l-.235-.645z" fill="#878789"/></svg>