<?xml version="1.0" encoding="UTF-8"?>
<svg width="96px" height="96px" version="1.1" viewBox="0 0 124 124" xmlns="http://www.w3.org/2000/svg">
 <defs>
  <clipPath id="clipPath10142">
   <path d="M 0,357.165 H 357.165 V 0 H 0 Z"/>
  </clipPath>
 </defs>
 <g transform="translate(-69.536 -106.49)">
  <g transform="matrix(.35278 0 0 -.35278 131.54 106.49)" fill="#ffffff">
   <path d="m0 0c-97.063 0-175.75-78.685-175.75-175.75s78.685-175.75 175.75-175.75 175.75 78.685 175.75 175.75-78.685 175.75-175.75 175.75m0-5c45.608 0 88.486-17.761 120.74-50.011 32.25-32.25 50.011-75.129 50.011-120.74s-17.761-88.487-50.011-120.74c-32.251-32.25-75.129-50.011-120.74-50.011s-88.487 17.761-120.74 50.011-50.011 75.129-50.011 120.74 17.761 88.487 50.011 120.74 75.129 50.011 120.74 50.011" fill="#ffffff"/>
  </g>
  <g transform="matrix(.35278 0 0 -.35278 71.917 233.61)">
   <g clip-path="url(#clipPath10142)">
    <g transform="translate(258.82 256.37)">
     <path d="m0 0-9.752-13.364c-0.542-0.723-1.265-0.903-1.986-0.362l-22.756 16.074c-0.722 0.542-0.902 1.444-0.361 1.986l9.752 13.365c0.362 0.722 1.264 0.722 1.987 0.361l22.756-16.254c0.721-0.361 0.721-1.264 0.36-1.806m-12.461-16.976-51.832-71.156c-0.541-0.722-1.264-0.903-1.986-0.361l-22.755 16.254c-0.723 0.361-0.904 1.264-0.362 1.806l51.832 71.155c0.542 0.723 1.445 0.903 1.987 0.361l22.935-16.253c0.542-0.361 0.723-1.265 0.181-1.806m-17.337 10.475-50.207-68.809 7.946-5.598 50.207 68.808zm-56.527-64.293 4.153-2.89 50.206 68.808-4.153 2.889zm70.794 54.179-3.973 2.889-50.207-68.807 3.974-2.89zm-52.012-75.671-27.09-13.364c-0.361-0.181-0.903-0.181-1.445 0.181-0.361 0.18-0.541 0.722-0.541 1.264l4.153 29.437c0.181 0.542 0.542 0.903 0.903 1.084 0.542 0.181 0.903 0.181 1.445-0.181l22.756-16.073c0.36-0.361 0.721-0.722 0.541-1.264 0-0.542-0.362-0.903-0.722-1.084m-3.432 1.445-18.963 13.364-2.528-18.24 4.695-3.431zm3.251-70.975 33.591 33.049h-33.591z" fill="#ffffff"/>
    </g>
    <g transform="translate(198.68 165.35)">
     <path d="m0 0c-0.542-0.722-1.084-1.264-1.806-1.625-0.361-1.806-1.626-3.432-3.431-4.154l-26.909-13.365c-0.904-0.36-1.987-0.541-2.89-0.541-1.445 0-2.709 0.361-3.793 1.083-1.986 1.445-3.069 3.793-2.709 6.141l4.335 29.437c0.181 1.806 1.264 3.432 2.89 4.515 0.18 0.722 0.541 1.445 0.902 1.987l36.12 49.483h-122.44v-12.652c5.945 3.138 12.614 4.801 19.581 4.801 11.166 0 21.566-4.269 29.448-12.041 13.137-13.027 13.137-34.265 0-47.292-10.619-10.618-28.024-10.618-38.644 0-8.757 8.539-8.757 22.551 0 31.2 3.394 3.393 7.992 5.254 12.809 5.254 4.926 0 9.414-1.861 12.917-5.254 5.802-5.803 5.802-15.217 0-20.91-2.299-2.408-5.474-3.612-8.758-3.612s-6.348 1.204-8.647 3.612c-1.971 1.861-3.066 4.379-3.066 7.116s1.095 5.254 2.956 7.116c1.751 1.751 4.16 2.737 6.568 2.737 2.518 0 4.926-0.986 6.677-2.737 3.066-3.066 3.066-7.992 0-11.057l-2.736 2.628c1.642 1.641 1.642 4.159 0 5.801-0.985 0.986-2.408 1.533-3.941 1.533-1.423 0-2.846-0.547-3.831-1.533-1.204-1.204-1.862-2.846-1.862-4.488s0.658-3.284 1.862-4.488c1.642-1.533 3.721-2.408 6.02-2.408s4.379 0.875 6.022 2.408c2.08 2.08 3.284 4.816 3.284 7.772s-1.204 5.693-3.284 7.773c-2.738 2.737-6.35 4.269-10.181 4.269-3.832 0-7.444-1.532-10.071-4.269-7.226-7.116-7.226-18.72 0-25.836 9.086-9.086 24.083-9.086 33.169 0 11.714 11.604 11.714 30.433 0 41.928-7.116 7.115-16.64 11.056-26.711 11.056-7 0-13.735-1.908-19.581-5.459v-78.631c22.625-16.372 54.232-15.282 75.631 3.848l2.517-2.846c-22.063-19.771-54.292-21.454-78.148-5.712v-43.382h105.29v39.731h40.454v66.641z" fill="#ffffff"/>
    </g>
   </g>
  </g>
 </g>
</svg>
