<?xml version="1.0" encoding="UTF-8" standalone="no"?>
<svg
   xmlns:dc="http://purl.org/dc/elements/1.1/"
   xmlns:cc="http://creativecommons.org/ns#"
   xmlns:rdf="http://www.w3.org/1999/02/22-rdf-syntax-ns#"
   xmlns:svg="http://www.w3.org/2000/svg"
   xmlns="http://www.w3.org/2000/svg"
   xmlns:sodipodi="http://sodipodi.sourceforge.net/DTD/sodipodi-0.dtd"
   xmlns:inkscape="http://www.inkscape.org/namespaces/inkscape"
   version="1.1"
   x="0px"
   y="0px"
   width="128px"
   height="128px"
   viewBox="0 0 128 128"
   xml:space="preserve"
   id="svg4546"
   sodipodi:docname="conversion-research-2.svg"
   inkscape:version="0.92.2 (5c3e80d, 2017-08-06)"><metadata
     id="metadata4552"><rdf:RDF><cc:Work
         rdf:about=""><dc:format>image/svg+xml</dc:format><dc:type
           rdf:resource="http://purl.org/dc/dcmitype/StillImage" /><dc:title></dc:title></cc:Work></rdf:RDF></metadata><defs
     id="defs4550" /><sodipodi:namedview
     pagecolor="#ffffff"
     bordercolor="#666666"
     borderopacity="1"
     objecttolerance="10"
     gridtolerance="10"
     guidetolerance="10"
     inkscape:pageopacity="0"
     inkscape:pageshadow="2"
     inkscape:window-width="1920"
     inkscape:window-height="1017"
     id="namedview4548"
     showgrid="false"
     inkscape:snap-object-midpoints="true"
     inkscape:zoom="3.3125"
     inkscape:cx="84.973628"
     inkscape:cy="82.635851"
     inkscape:window-x="-8"
     inkscape:window-y="-8"
     inkscape:window-maximized="1"
     inkscape:current-layer="svg4546" /><path
     style="fill:#212121;stroke:none;stroke-width:0.08815094"
     d="M 255.51699,113.16772 221.31441,60.541585 c 4.8483,-2.115622 8.28619,-6.963924 8.28619,-12.517434 0,-6.963925 -5.28906,-12.781887 -12.16483,-13.575246 v -7.580981 h -3.26158 v 7.580981 c -6.87578,0.793359 -12.16483,6.611321 -12.16483,13.575246 0,5.64166 3.43789,10.489962 8.37433,12.517434 L 196.8966,81.345207 c -6.34687,-3.966792 -11.45962,-9.696603 -14.89751,-16.660528 l -2.99713,1.498566 c 3.70234,7.492831 9.25584,13.663396 16.04347,17.894642 l -18.8643,29.089833 2.73268,1.85115 19.0406,-29.177965 c 6.25872,3.261586 13.3108,5.112756 20.71547,5.112756 5.64166,0 11.10702,-1.145963 16.30792,-3.173435 l 17.71835,27.150494 z M 205.3591,48.024151 c 0,-5.729812 4.672,-10.401812 10.48996,-10.401812 5.7298,0 10.4018,4.672 10.4018,10.401812 0,5.729812 -4.672,10.31366 -10.4018,10.31366 -5.81796,0 -10.48996,-4.583848 -10.48996,-10.31366 z m 13.31078,39.579773 c -6.69947,0 -13.22264,-1.674867 -18.95245,-4.583848 l 2.64453,-3.966792 v 0 l 10.13736,-15.514567 h -0.0881 l 1.32226,-2.027472 c 0.7052,0.08815 1.32226,0.176303 2.11563,0.176303 0.7052,0 1.41041,-0.08815 2.11561,-0.176303 l 15.16197,23.448151 c -4.58386,1.763019 -9.43215,2.644529 -14.45676,2.644529 z"
     id="path4544"
     inkscape:connector-curvature="0" /><circle
     style="opacity:1;fill:none;stroke:#212121;stroke-width:2.66666667;stroke-opacity:1;stroke-miterlimit:4;stroke-dasharray:none"
     id="path4554"
     cx="64"
     cy="64"
     r="61.456585" /><path
     inkscape:connector-curvature="0"
     style="fill:#212121;stroke:none;stroke-width:0.12800001"
     d="m -42.995928,64.175094 c -0.512,-12.8 -11.648,-13.696 -14.336,-13.696 h -34.56 c -7.68,0 -13.952002,6.016 -14.336002,13.696 v 0 0.64 4.608 0.128 h -64.63999 v 14.976 5.248 88.575996 h 108.799992 v -17.664 h 4.736 c 7.936,0 14.464,-6.528 14.464,-14.464 v -6.784 -5.248 -64.767996 -4.608 -0.64 z m -48.896,-8.448 h 34.56 c 4.864,0 8.832,3.712 9.088,8.448 h -52.736002 c 0.256,-4.736 4.352002,-8.448 9.088002,-8.448 z m -73.727992,19.072 h 59.39199 v 9.728 h -59.39199 z m 98.303992,98.303996 H -165.61992 V 89.775094 h 59.39199 v 44.415996 5.248 6.784 c 0,7.936 6.400002,14.464 14.336002,14.464 h 24.576 z m 19.072,-26.88 c 0,4.992 -4.096,9.088 -9.088,9.088 h -4.736 -29.824 c -4.992,0 -9.088002,-4.096 -9.088002,-9.088 v -6.784 h 52.736002 z m 0,-12.032 h -52.736002 v -44.415996 -5.248 -14.976 -0.128 h 52.736002 z m -20.224,13.312 c 0,3.328 -2.56,5.888 -5.76,5.888 -3.2,0 -5.888,-2.56 -5.888,-5.888 0,-3.2 2.688,-5.76 5.888,-5.76 3.2,0 5.76,2.56 5.76,5.76"
     id="path4566" /><path
     inkscape:connector-curvature="0"
     style="fill:#212121;stroke:none;stroke-width:0.08815095"
     d="m 92.208302,83.569508 c 0,-3.437887 -2.732679,-6.170566 -6.170566,-6.170566 -3.349737,0 -6.170567,2.732679 -6.170567,6.170566 0,3.349736 2.82083,6.082416 6.170567,6.082416 3.437887,0 6.170566,-2.73268 6.170566,-6.082416 M 55.625661,62.501432 c 6.170566,0 11.283321,-3.437887 12.429283,-7.933584 -3.526038,2.380075 -7.845434,3.79049 -12.429283,3.79049 -4.583849,0 -8.815094,-1.410415 -12.341133,-3.79049 1.145963,4.495697 6.258718,7.933584 12.341133,7.933584 m 38.962717,21.068076 c 0,4.672 -3.790491,8.550643 -8.550642,8.550643 -4.672001,0 -8.55064,-3.878643 -8.55064,-8.550643 0,-0.440755 0.08815,-0.88151 0.08815,-1.234113 -5.906113,0.176302 -8.638793,1.763019 -11.547775,9.167699 -3.349736,8.550646 -7.580981,16.572376 -15.514566,16.572376 -4.936453,0 -11.018868,-5.11275 -12.605585,-10.578112 C 37.025812,94.764679 36.673208,89.651924 42.755623,85.685131 54.215245,78.1923 54.215245,74.225508 54.215245,71.66913 V 64.881508 C 46.634265,64.264451 40.64,59.063545 40.64,52.628527 c 0,0 0,-0.08815 0,-0.08815 C 36.232453,48.397283 33.411622,42.57932 33.411622,36.05615 V 21.07049 c 0,-0.617057 0.528906,-1.145963 1.145963,-1.145963 h 9.255849 c 0.705207,0 1.234113,0.528906 1.234113,1.145963 0,0.705207 -0.528906,1.234113 -1.234113,1.234113 H 35.791698 V 36.05615 c 0,11.018869 8.903245,19.922114 19.833962,19.922114 11.018868,0 19.922115,-8.903245 19.922115,-19.922114 V 22.304602 h -7.669133 c -0.617056,0 -1.234113,-0.528906 -1.234113,-1.234113 0,-0.617057 0.617057,-1.145963 1.234113,-1.145963 h 8.903247 c 0.617057,0 1.145962,0.528906 1.145962,1.145963 v 14.98566 c 0,6.52317 -2.82083,12.341133 -7.228377,16.484227 0,0 0,0.08815 0,0.08815 0,6.523169 -6.258719,11.812226 -14.016002,12.252981 v 6.787622 c 0,3.966793 -0.96966,8.462491 -12.605585,16.043472 -4.583849,2.997134 -4.672,6.611322 -3.878641,9.079549 1.410415,4.93645 6.787622,8.8151 10.31366,8.8151 6.170566,0 9.784755,-5.99427 13.310793,-14.985666 3.526038,-8.991398 7.492831,-10.666266 14.456754,-10.666266 1.410415,-2.997132 4.319396,-5.024604 7.757283,-5.024604 4.760151,0 8.550642,3.878642 8.550642,8.638793 m -3.614189,0.176302 c 0,2.732679 -2.203774,4.936453 -4.936453,4.936453 -2.644529,0 -4.848303,-2.203774 -4.848303,-4.936453 0,-2.732679 2.203774,-4.848302 4.848303,-4.848302 2.732679,0 4.936453,2.115623 4.936453,4.848302"
     id="path5144" /><path
     inkscape:connector-curvature="0"
     style="fill:#212121;stroke:none;stroke-width:0.08513208"
     d="m 238.22581,-7.1631696 c 5.61872,-6.5551714 8.76861,-14.8129814 8.76861,-23.4113224 0,-19.750641 -16.26023,-35.840603 -36.09601,-35.840603 -19.9209,0 -36.18113,16.089962 -36.18113,35.840603 0,0.595925 0.2554,1.447246 0.59593,2.639095 0.0851,0.255397 0.17026,0.595925 0.25539,0.936453 -1.61751,2.128302 -5.95924,8.853736 -5.95924,13.621132 0,1.276981 0.59592,4.0012084 6.12951,4.0012084 0.17026,0 0.42566,0 0.59592,0 -0.25539,1.191849 -0.34053,2.468831 0.0851,3.575548 0.17027,0.42566 0.42566,0.85132 0.85132,1.106717 v 1.617509 c 0,1.617509 0.59593,2.80935904 1.19185,3.57554704 -1.02158,3.40528296 -0.76619,6.64030096 0.93645,9.02399996 1.10672,1.6175086 2.72423,2.6390956 4.34174,2.6390956 h 11.49283 c 2.55396,0 2.72423,4.68226 2.72423,4.76739 0,0.93646 0.85132,1.78778 1.8729,1.78778 h 36.77706 c 0.51079,0 1.02158,-0.2554 1.36211,-0.68106 0.34053,-0.51079 0.5108,-1.02158 0.42566,-1.53238 0,-0.0851 -1.36211,-6.214638 -2.1283,-11.7482226 -0.59592,-4.59713196 1.53238,-10.726641 1.95804,-11.91849 z m -3.49041,-1.276981 c -0.5108,1.532378 -2.80936,8.25781204 -2.12831,13.706264 0.5108,3.660679 1.27699,7.4064896 1.70265,9.7901896 h -32.86099 c -0.51079,-2.89449 -2.21343,-6.5551706 -6.21464,-6.5551706 h -11.49283 c -0.25539,0 -0.85132,-0.255397 -1.36211,-1.021585 -1.10672,-1.61751 -1.10672,-4.171472 -0.0851,-6.81056596 0.2554,-0.766188 0,-1.617509 -0.68106,-2.12830204 0,0 -0.68105,-0.595924 -0.68105,-1.617509 v -2.639094 c 0,-0.681057 -0.5108,-1.362114 -1.19185,-1.61751 -0.0851,-0.595925 0.34053,-2.128302 0.93645,-3.3201514 0.34053,-0.595925 0.2554,-1.362114 -0.17026,-1.872906 -0.42566,-0.595925 -1.10672,-0.851321 -1.78778,-0.681057 0,0 -1.44724,0.255397 -2.97962,0.255397 -1.95804,0 -2.46883,-0.425661 -2.46883,-0.425661 0,-3.575548 4.08634,-9.960453 5.70385,-12.173887 0.25539,-0.340529 0.34053,-0.766189 0.34053,-1.191849 -0.0851,-0.510793 -0.17027,-1.106717 -0.5108,-2.128302 -0.0851,-0.510793 -0.34052,-1.447246 -0.34052,-1.702642 0,-17.792604 14.47245,-32.265056 32.43532,-32.265056 17.87773,0 32.43532,14.472452 32.43532,32.265056 0,7.832151 -2.89449,15.408906 -8.17268,21.2830194 -0.17027,0.255396 -0.34053,0.595925 -0.42566,0.851322 z m -19.32499,0.08513 h -8.85373 c -0.93645,0 -1.78777,0.766188 -1.78777,1.787774 0,1.021585 0.85132,1.787774 1.78777,1.787774 h 8.85373 c 1.02159,0 1.87291,-0.766189 1.87291,-1.787774 0,-1.021586 -0.85132,-1.787774 -1.87291,-1.787774 z m -2.72422,-46.6523764 c 0,0 -0.17027,0 -0.2554,0 h -2.89449 c 0,0 -0.17026,0 -0.17026,0 -5.44846,0.340529 -15.74944,4.341735 -15.74944,17.196678 0,7.832152 2.89449,11.152303 5.27819,13.791397 1.95804,2.128303 3.14989,3.490416 3.14989,8.002415 l 0.0851,3.745812 c 0,1.021585 0.76619,1.787774 1.78777,1.787774 h 14.21706 c 1.02158,0 1.78777,-0.766189 1.78777,-1.787774 v -3.745812 c 0,-4.512 1.27698,-5.874113 3.23502,-8.002415 2.29857,-2.639094 5.27819,-5.959245 5.27819,-13.791397 0,-12.854943 -10.30098,-16.85615 -15.74943,-17.196678 z m -6.8957,40.863396 -0.0851,-0.936453 h 10.55638 v 0.936453 z m 14.55759,-12.344151 c -1.70265,1.958038 -3.40529,3.916076 -3.91608,7.747019 h -10.89691 c -0.51079,-3.830944 -2.1283,-5.788981 -3.91607,-7.747019 -2.1283,-2.383698 -4.34174,-4.852529 -4.34174,-11.322567 0,-10.130716 8.00242,-13.280603 12.25902,-13.535999 h 2.97962 c 4.25661,0.255396 12.25902,3.405283 12.25902,13.535999 0,6.470038 -2.21343,8.938869 -4.42686,11.322567 z"
     id="path5722" /></svg>
