<svg width="96" height="96" viewBox="0 0 124 124" xmlns="http://www.w3.org/2000/svg"><defs><clipPath id="a"><path d="M0 357.165h357.165V0H0z"/></clipPath></defs><path d="M62.004 0C27.762 0 .003 27.758.003 62.001s27.758 62.001 62.001 62.001 62.001-27.758 62.001-62S96.247 0 62.004 0m0 1.764c16.09 0 31.216 6.266 42.595 17.643C115.976 30.784 122.242 45.91 122.242 62s-6.266 31.217-17.643 42.595C93.22 115.973 78.095 122.24 62.004 122.24s-31.216-6.266-42.595-17.643S1.766 78.092 1.766 62.001 8.032 30.785 19.41 19.407 45.913 1.764 62.004 1.764" fill="#fff"/><g transform="matrix(.35278 0 0 -.35278 1.968 124.993)" clip-path="url(#a)"><path d="M236.56 141.63c12.381 14.095 20.19 32.381 20.19 52.571 0 44-36.19 79.619-80.571 79.619s-80.571-35.619-80.571-79.619c0-1.714 2.095-7.238 2.095-9.143 0 0-14.095-19.238-14.095-31.047 0-7.619 17.904-4.381 17.904-4.381s-6.096-11.81 0-13.524v-6.095c0-4.571 3.429-7.238 3.429-7.238-5.715-14.476 1.904-24 7.619-24h26.856c10.477 0 10.858-15.429 10.858-15.429h86.286s-3.238 14.667-4.953 27.81c-1.904 13.143 4.953 30.476 4.953 30.476m-49.715-12.762h-20.762v9.333h20.762zm6.286 13.333h-33.333v9.333h33.333zm8.572 39.619c-4.762-5.333-8.572-9.523-8.572-21.523v-4.762h-33.333v4.762c0 12-3.809 16.19-8.572 21.523-5.333 5.905-11.237 12.762-11.237 29.333 0 26.858 21.523 35.429 32.761 36h7.429c11.428-.571 32.952-9.142 32.952-36 0-16.571-6.095-23.428-11.428-29.333" fill="#fff"/></g></svg>