<svg width="96" height="96" viewBox="0 0 124 124" xmlns="http://www.w3.org/2000/svg"><defs><clipPath id="a"><path d="M0 357.165h357.165V0H0z"/></clipPath></defs><path d="M62.004 0C27.762 0 .003 27.758.003 62.001s27.758 62.001 62.001 62.001 62.001-27.758 62.001-62S96.247 0 62.004 0m0 1.764c16.09 0 31.216 6.266 42.595 17.643C115.976 30.784 122.242 45.91 122.242 62s-6.266 31.217-17.643 42.595C93.22 115.973 78.095 122.24 62.004 122.24s-31.216-6.266-42.595-17.643S1.766 78.092 1.766 62.001 8.032 30.785 19.41 19.407 45.913 1.764 62.004 1.764" fill="#F99300"/><g clip-path="url(#a)" transform="matrix(.35278 0 0 -.35278 2.381 127.12)"><path d="M258.82 256.37l-9.752-13.364c-.542-.723-1.265-.903-1.986-.362l-22.756 16.074c-.722.542-.902 1.444-.361 1.986l9.752 13.365c.362.722 1.264.722 1.987.361l22.756-16.254c.721-.361.721-1.264.36-1.806m-12.461-16.976l-51.832-71.156c-.541-.722-1.264-.903-1.986-.361l-22.755 16.254c-.723.361-.904 1.264-.362 1.806l51.832 71.155c.542.723 1.445.903 1.987.361l22.935-16.253c.542-.361.723-1.265.181-1.806m-17.337 10.475l-50.207-68.809 7.946-5.598 50.207 68.808zm-56.527-64.293l4.153-2.89 50.206 68.808-4.153 2.889zm70.794 54.179l-3.973 2.889-50.207-68.807 3.974-2.89zm-52.012-75.671l-27.09-13.364c-.361-.181-.903-.181-1.445.181-.361.18-.541.722-.541 1.264l4.153 29.437c.181.542.542.903.903 1.084.542.181.903.181 1.445-.181l22.756-16.073c.36-.361.721-.722.541-1.264 0-.542-.362-.903-.722-1.084m-3.432 1.445l-18.963 13.364-2.528-18.24 4.695-3.431zm3.251-70.975l33.591 33.049h-33.591z" fill="#F99300"/><path d="M198.68 165.35c-.542-.722-1.084-1.264-1.806-1.625-.361-1.806-1.626-3.432-3.431-4.154l-26.909-13.365c-.904-.36-1.987-.541-2.89-.541-1.445 0-2.709.361-3.793 1.083-1.986 1.445-3.069 3.793-2.709 6.141l4.335 29.437c.181 1.806 1.264 3.432 2.89 4.515.18.722.541 1.445.902 1.987l36.12 49.483H78.949v-12.652c5.945 3.138 12.614 4.801 19.581 4.801 11.166 0 21.566-4.269 29.448-12.041 13.137-13.027 13.137-34.265 0-47.292-10.619-10.618-28.024-10.618-38.644 0-8.757 8.539-8.757 22.551 0 31.2 3.394 3.393 7.992 5.254 12.809 5.254 4.926 0 9.414-1.861 12.917-5.254 5.802-5.803 5.802-15.217 0-20.91-2.299-2.408-5.474-3.612-8.758-3.612s-6.348 1.204-8.647 3.612c-1.971 1.861-3.066 4.379-3.066 7.116s1.095 5.254 2.956 7.116c1.751 1.751 4.16 2.737 6.568 2.737 2.518 0 4.926-.986 6.677-2.737a7.796 7.796 0 0 0 0-11.057l-2.736 2.628c1.642 1.641 1.642 4.159 0 5.801-.985.986-2.408 1.533-3.941 1.533-1.423 0-2.846-.547-3.831-1.533-1.204-1.204-1.862-2.846-1.862-4.488s.658-3.284 1.862-4.488c1.642-1.533 3.721-2.408 6.02-2.408s4.379.875 6.022 2.408c2.08 2.08 3.284 4.816 3.284 7.772s-1.204 5.693-3.284 7.773c-2.738 2.737-6.35 4.269-10.181 4.269-3.832 0-7.444-1.532-10.071-4.269-7.226-7.116-7.226-18.72 0-25.836 9.086-9.086 24.083-9.086 33.169 0 11.714 11.604 11.714 30.433 0 41.928-7.116 7.115-16.64 11.056-26.711 11.056-7 0-13.735-1.908-19.581-5.459v-78.631c22.625-16.372 54.232-15.282 75.631 3.848l2.517-2.846c-22.063-19.771-54.292-21.454-78.148-5.712V94.556h105.29v39.731h40.454v66.641z" fill="#F99300"/></g></svg>