<?xml version="1.0" encoding="UTF-8"?>
<svg width="128px" height="128px" version="1.1" viewBox="0 0 124 124" xmlns="http://www.w3.org/2000/svg">
 <defs>
  <clipPath id="clipPath10280">
   <path d="M 0,357.165 H 357.165 V 0 H 0 Z"/>
  </clipPath>
 </defs>
 <g transform="translate(-69.536 -106.49)">
  <g transform="matrix(.35278 0 0 -.35278 131.54 106.49)" fill="#fff">
   <path d="m0 0c-97.063 0-175.75-78.685-175.75-175.75s78.685-175.75 175.75-175.75 175.75 78.685 175.75 175.75-78.685 175.75-175.75 175.75m0-5c45.608 0 88.486-17.761 120.74-50.011 32.25-32.25 50.011-75.129 50.011-120.74s-17.761-88.487-50.011-120.74c-32.251-32.25-75.129-50.011-120.74-50.011s-88.487 17.761-120.74 50.011-50.011 75.129-50.011 120.74 17.761 88.487 50.011 120.74 75.129 50.011 120.74 50.011" fill="#fff"/>
  </g>
  <g transform="matrix(.35278 0 0 -.35278 68.007 231.49)">
   <g clip-path="url(#clipPath10280)">
    <g transform="translate(315.28 178.58)">
     <path d="m0 0c0-22.991-58.789-41.629-131.31-41.629-72.519 0-131.31 18.638-131.31 41.629 0 22.992 58.789 41.63 131.31 41.63 72.52 0 131.31-18.638 131.31-41.63z" fill="none" stroke="#fff" stroke-miterlimit="10" stroke-width="6"/>
    </g>
    <g transform="translate(41.89 177.97)">
     <path d="m0 0c0 5.49 4.45 9.94 9.94 9.94s9.94-4.45 9.94-9.94-4.45-9.94-9.94-9.94-9.94 4.45-9.94 9.94" fill="#fff"/>
    </g>
    <g transform="translate(275.23 275.25)">
     <path d="m0 0c16.258-16.257-12.134-71.006-63.413-122.29-51.278-51.279-106.03-79.67-122.28-63.412-16.258 16.257 12.133 71.007 63.412 122.28 51.279 51.28 106.03 79.671 122.29 63.413z" fill="none" stroke="#fff" stroke-miterlimit="10" stroke-width="6"/>
    </g>
    <g transform="translate(275.23 81.913)">
     <path d="m0 0c-16.258-16.257-71.007 12.133-122.29 63.413-51.279 51.279-79.67 106.03-63.412 122.28 16.257 16.258 71.007-12.133 122.28-63.412 51.279-51.28 79.671-106.03 63.413-122.29z" fill="none" stroke="#fff" stroke-miterlimit="10" stroke-width="6"/>
    </g>
    <g transform="translate(80.419 248.78)">
     <path d="m0 0c3.882 3.882 10.176 3.882 14.058 0 3.881-3.882 3.881-10.175 0-14.057-3.882-3.882-10.176-3.882-14.058 0s-3.882 10.175 0 14.057" fill="#fff"/>
    </g>
    <g transform="translate(121.42 272.13)">
     <path d="m0 0c3.882 3.882 10.175 3.882 14.057 0 3.881-3.881 3.881-10.175 0-14.057-3.882-3.881-10.175-3.881-14.057 0-3.882 3.882-3.882 10.176 0 14.057" fill="#fff"/>
    </g>
    <g transform="translate(269.68 248.78)">
     <path d="m0 0c3.882 3.882 10.176 3.882 14.058 0 3.88-3.882 3.88-10.175 0-14.057-3.882-3.882-10.176-3.882-14.058 0s-3.882 10.175 0 14.057" fill="#fff"/>
    </g>
    <g transform="translate(216.69 272.13)">
     <path d="m0 0c3.882 3.882 10.176 3.882 14.058 0 3.881-3.881 3.881-10.175 0-14.057-3.882-3.881-10.176-3.881-14.058 0-3.882 3.882-3.882 10.176 0 14.057" fill="#fff"/>
    </g>
    <g transform="translate(134.89 227.43)">
     <path d="m0 0c24.867 24.867 65.185 24.867 90.052 0s24.867-65.185 0-90.052-65.185-24.867-90.052 0-24.867 65.185 0 90.052z" fill="none" stroke="#fff" stroke-miterlimit="10" stroke-width=".951"/>
    </g>
    <g transform="translate(253.54 150.21)">
     <path d="m0 0c3.882 3.881 10.175 3.881 14.057 0 3.881-3.882 3.881-10.176 0-14.057-3.882-3.882-10.175-3.882-14.057 0-3.882 3.881-3.882 10.175 0 14.057" fill="#fff"/>
    </g>
    <g transform="translate(218.99 165.66)">
     <path d="m0 0h-20.503v36.69h7.399v-30.627h13.104zm-31.705 0-5.293 12.435-5.241-12.435h-8.119l9.147 18.55-8.428 18.14h8.17l4.728-11.87 4.677 11.87h8.067l-8.53-18.14 9.147-18.55zm-21.067 8.376c-0.309-1.782-0.883-3.34-1.722-4.676-0.84-1.336-2.022-2.382-3.546-3.135s-3.503-1.13-5.935-1.13c-2.775 0-4.985 0.445-6.629 1.336-1.644 0.89-2.904 2.175-3.777 3.854-0.874 1.678-1.439 3.682-1.695 6.012-0.258 2.329-0.386 4.899-0.386 7.708 0 2.775 0.128 5.335 0.386 7.682 0.256 2.347 0.821 4.36 1.695 6.038 0.873 1.678 2.133 2.989 3.777 3.932 1.644 0.941 3.854 1.413 6.629 1.413 2.637 0 4.718-0.429 6.244-1.285 1.524-0.857 2.663-1.945 3.417-3.263 0.752-1.32 1.224-2.741 1.413-4.265 0.188-1.525 0.282-2.955 0.282-4.291h-7.4c0 2.672-0.316 4.616-0.95 5.833-0.635 1.215-1.791 1.823-3.469 1.823-0.924 0-1.687-0.249-2.287-0.745-0.599-0.497-1.071-1.302-1.413-2.415-0.342-1.114-0.583-2.569-0.718-4.367-0.138-1.799-0.207-4.001-0.207-6.604 0-2.775 0.094-5.019 0.283-6.731 0.188-1.714 0.48-3.041 0.874-3.983 0.393-0.943 0.89-1.576 1.49-1.902 0.599-0.325 1.293-0.488 2.081-0.488 0.65 0 1.259 0.111 1.824 0.335 0.566 0.222 1.054 0.667 1.465 1.335 0.411 0.669 0.736 1.61 0.977 2.827 0.239 1.215 0.359 2.818 0.359 4.805h7.399c0-1.987-0.154-3.872-0.461-5.653m55.99 50.664c-23.357 23.356-61.227 23.356-84.583 0-23.358-23.357-23.358-61.227 0-84.584 23.356-23.357 61.226-23.357 84.583 0s23.357 61.227 0 84.584" fill="#fff"/>
    </g>
   </g>
  </g>
 </g>
</svg>
