<svg width="128" height="128" viewBox="0 0 124 124" xmlns="http://www.w3.org/2000/svg"><defs><clipPath id="a"><path d="M0 357.165h357.165V0H0z"/></clipPath></defs><path d="M62.004 0C27.762 0 .003 27.758.003 62.001s27.758 62.001 62.001 62.001 62.001-27.758 62.001-62S96.247 0 62.004 0m0 1.764c16.09 0 31.216 6.266 42.595 17.643C115.976 30.784 122.242 45.91 122.242 62s-6.266 31.217-17.643 42.595C93.22 115.973 78.095 122.24 62.004 122.24s-31.216-6.266-42.595-17.643S1.766 78.092 1.766 62.001 8.032 30.785 19.41 19.407 45.913 1.764 62.004 1.764" fill="#878789"/><g clip-path="url(#a)" transform="matrix(.35278 0 0 -.35278 -1.529 125)"><path d="M315.28 178.58c0-22.991-58.789-41.629-131.31-41.629-72.519 0-131.31 18.638-131.31 41.629 0 22.992 58.789 41.63 131.31 41.63 72.52 0 131.31-18.638 131.31-41.63z" fill="none" stroke="#212121" stroke-miterlimit="10" stroke-width="6"/><path d="M41.89 177.97c0 5.49 4.45 9.94 9.94 9.94s9.94-4.45 9.94-9.94-4.45-9.94-9.94-9.94-9.94 4.45-9.94 9.94" fill="#878789"/><path d="M275.23 275.25c16.258-16.257-12.134-71.006-63.413-122.29-51.278-51.279-106.03-79.67-122.28-63.412-16.258 16.257 12.133 71.007 63.412 122.28 51.279 51.28 106.03 79.671 122.29 63.413z" fill="none" stroke="#212121" stroke-miterlimit="10" stroke-width="6"/><path d="M275.23 81.913c-16.258-16.257-71.007 12.133-122.29 63.413-51.279 51.279-79.67 106.03-63.412 122.28 16.257 16.258 71.007-12.133 122.28-63.412 51.279-51.28 79.671-106.03 63.413-122.29z" fill="none" stroke="#212121" stroke-miterlimit="10" stroke-width="6"/><path d="M80.419 248.78c3.882 3.882 10.176 3.882 14.058 0 3.881-3.882 3.881-10.175 0-14.057-3.882-3.882-10.176-3.882-14.058 0s-3.882 10.175 0 14.057M121.42 272.13c3.882 3.882 10.175 3.882 14.057 0 3.881-3.881 3.881-10.175 0-14.057-3.882-3.881-10.175-3.881-14.057 0-3.882 3.882-3.882 10.176 0 14.057M269.68 248.78c3.882 3.882 10.176 3.882 14.058 0 3.88-3.882 3.88-10.175 0-14.057-3.882-3.882-10.176-3.882-14.058 0s-3.882 10.175 0 14.057M216.69 272.13c3.882 3.882 10.176 3.882 14.058 0 3.881-3.881 3.881-10.175 0-14.057-3.882-3.881-10.176-3.881-14.058 0-3.882 3.882-3.882 10.176 0 14.057" fill="#878789"/><path d="M134.89 227.43c24.867 24.867 65.185 24.867 90.052 0s24.867-65.185 0-90.052-65.185-24.867-90.052 0-24.867 65.185 0 90.052z" fill="none" stroke="#212121" stroke-miterlimit="10" stroke-width=".951"/><path d="M253.54 150.21c3.882 3.881 10.175 3.881 14.057 0 3.881-3.882 3.881-10.176 0-14.057-3.882-3.882-10.175-3.882-14.057 0-3.882 3.881-3.882 10.175 0 14.057M218.99 165.66h-20.503v36.69h7.399v-30.627h13.104zm-31.705 0l-5.293 12.435-5.241-12.435h-8.119l9.147 18.55-8.428 18.14h8.17l4.728-11.87 4.677 11.87h8.067l-8.53-18.14 9.147-18.55zm-21.067 8.376c-.309-1.782-.883-3.34-1.722-4.676-.84-1.336-2.022-2.382-3.546-3.135s-3.503-1.13-5.935-1.13c-2.775 0-4.985.445-6.629 1.336-1.644.89-2.904 2.175-3.777 3.854-.874 1.678-1.439 3.682-1.695 6.012-.258 2.329-.386 4.899-.386 7.708 0 2.775.128 5.335.386 7.682.256 2.347.821 4.36 1.695 6.038a9.502 9.502 0 0 0 3.777 3.932c1.644.941 3.854 1.413 6.629 1.413 2.637 0 4.718-.429 6.244-1.285 1.524-.857 2.663-1.945 3.417-3.263a11.353 11.353 0 0 0 1.413-4.265c.188-1.525.282-2.955.282-4.291h-7.4c0 2.672-.316 4.616-.95 5.833-.635 1.215-1.791 1.823-3.469 1.823-.924 0-1.687-.249-2.287-.745-.599-.497-1.071-1.302-1.413-2.415-.342-1.114-.583-2.569-.718-4.367-.138-1.799-.207-4.001-.207-6.604 0-2.775.094-5.019.283-6.731.188-1.714.48-3.041.874-3.983.393-.943.89-1.576 1.49-1.902.599-.325 1.293-.488 2.081-.488.65 0 1.259.111 1.824.335.566.222 1.054.667 1.465 1.335.411.669.736 1.61.977 2.827.239 1.215.359 2.818.359 4.805h7.399c0-1.987-.154-3.872-.461-5.653m55.99 50.664c-23.357 23.356-61.227 23.356-84.583 0-23.358-23.357-23.358-61.227 0-84.584 23.356-23.357 61.226-23.357 84.583 0s23.357 61.227 0 84.584" fill="#878789"/></g></svg>