<svg width="128" height="128" viewBox="0 0 124 124" xmlns="http://www.w3.org/2000/svg"><defs><clipPath id="a"><path d="M0 357.165h357.165V0H0z"/></clipPath></defs><path d="M62.004 0C27.762 0 .003 27.758.003 62.001s27.758 62.001 62.001 62.001 62.001-27.758 62.001-62S96.247 0 62.004 0m0 1.764c16.09 0 31.216 6.266 42.595 17.643C115.976 30.784 122.242 45.91 122.242 62s-6.266 31.217-17.643 42.595C93.22 115.973 78.095 122.24 62.004 122.24s-31.216-6.266-42.595-17.643S1.766 78.092 1.766 62.001 8.032 30.785 19.41 19.407 45.913 1.764 62.004 1.764" fill="#fff"/><g transform="matrix(.35278 0 0 -.35278 -1 124.997)" clip-path="url(#a)"><g fill="#fff"><path d="M230.43 247.23c0 18.523 15.017 33.54 33.54 33.54s33.539-15.017 33.539-33.54-15.016-33.54-33.539-33.54-33.54 15.017-33.54 33.54M136.26 111.85c0 18.523 15.016 33.54 33.539 33.54 18.524 0 33.54-15.017 33.54-33.54s-15.016-33.54-33.54-33.54c-18.523 0-33.539 15.017-33.539 33.54M45.6 157.46c0 18.523 15.016 33.54 33.539 33.54 18.524 0 33.539-15.017 33.539-33.54s-15.015-33.54-33.539-33.54c-18.523 0-33.539 15.017-33.539 33.54"/><path d="M262.44 255.69L167.888 115.5l-89.635 49.297-57.138-52.456c1.628-3.867 3.4-7.673 5.313-11.413l53.593 49.201 91.688-50.426 93.786 139.06 83.831-59.899a173.771 173.771 0 0 1-.7 15.249z"/><path d="M178.58 354.33c-97.063 0-175.75-78.685-175.75-175.75S81.515 2.83 178.58 2.83s175.75 78.685 175.75 175.75-78.685 175.75-175.75 175.75m0-5c45.608 0 88.486-17.761 120.74-50.011 32.25-32.25 50.011-75.129 50.011-120.74S331.57 90.092 299.32 57.839c-32.251-32.25-75.129-50.011-120.74-50.011S90.093 25.589 57.84 57.839 7.829 132.968 7.829 178.579s17.761 88.487 50.011 120.74 75.129 50.011 120.74 50.011"/></g></g></svg>