<?xml version="1.0" encoding="UTF-8"?>
<svg width="128px" height="128px" version="1.1" viewBox="0 0 124 124" xmlns="http://www.w3.org/2000/svg">
 <defs>
  <clipPath id="clipPath9964">
   <path d="M 0,357.165 H 357.165 V 0 H 0 Z"/>
  </clipPath>
 </defs>
 <g transform="translate(-69.536 -106.49)">
  <g transform="matrix(.35278 0 0 -.35278 131.54 106.49)" fill="#878789">
   <path d="m0 0c-97.063 0-175.75-78.685-175.75-175.75s78.685-175.75 175.75-175.75 175.75 78.685 175.75 175.75-78.685 175.75-175.75 175.75m0-5c45.608 0 88.486-17.761 120.74-50.011 32.25-32.25 50.011-75.129 50.011-120.74s-17.761-88.487-50.011-120.74c-32.251-32.25-75.129-50.011-120.74-50.011s-88.487 17.761-120.74 50.011-50.011 75.129-50.011 120.74 17.761 88.487 50.011 120.74 75.129 50.011 120.74 50.011" fill="#878789"/>
  </g>
  <g transform="matrix(.35278 0 0 -.35278 27.454 317.96)">
   <g transform="translate(116.45 245.12)" clip-path="url(#clipPath9964)">
    <g fill="#878789">
     <g transform="translate(230.43 247.23)">
      <path d="m0 0c0 18.523 15.017 33.54 33.54 33.54s33.539-15.017 33.539-33.54-15.016-33.54-33.539-33.54-33.54 15.017-33.54 33.54" fill="#878789"/>
     </g>
     <g transform="translate(136.26 111.85)">
      <path d="m0 0c0 18.523 15.016 33.54 33.539 33.54 18.524 0 33.54-15.017 33.54-33.54s-15.016-33.54-33.54-33.54c-18.523 0-33.539 15.017-33.539 33.54" fill="#878789"/>
     </g>
     <g transform="translate(45.6 157.46)">
      <path d="m0 0c0 18.523 15.016 33.54 33.539 33.54 18.524 0 33.539-15.017 33.539-33.54s-15.015-33.54-33.539-33.54c-18.523 0-33.539 15.017-33.539 33.54" fill="#878789"/>
     </g>
     <g transform="translate(262.44 255.69)">
      <path d="m0 0-94.552-140.19-89.635 49.297-57.138-52.456c1.628-3.867 3.4-7.673 5.313-11.413l53.593 49.201 91.688-50.426 93.786 139.06 83.831-59.899c-8e-3 5.122-0.248 10.207-0.7 15.249z" fill="#878789"/>
     </g>
     <g transform="translate(178.58 354.33)">
      <path d="m0 0c-97.063 0-175.75-78.685-175.75-175.75s78.685-175.75 175.75-175.75 175.75 78.685 175.75 175.75-78.685 175.75-175.75 175.75m0-5c45.608 0 88.486-17.761 120.74-50.011 32.25-32.25 50.011-75.129 50.011-120.74s-17.761-88.487-50.011-120.74c-32.251-32.25-75.129-50.011-120.74-50.011s-88.487 17.761-120.74 50.011-50.011 75.129-50.011 120.74 17.761 88.487 50.011 120.74 75.129 50.011 120.74 50.011" fill="#878789"/>
     </g>
    </g>
   </g>
  </g>
 </g>
</svg>
