<?xml version="1.0" encoding="UTF-8"?>
<svg width="128px" height="128px" version="1.1" viewBox="0 0 124 124" xmlns="http://www.w3.org/2000/svg">
 <defs>
  <clipPath id="clipPath10040">
   <path d="M 0,357.165 H 357.165 V 0 H 0 Z"/>
  </clipPath>
 </defs>
 <g transform="translate(-69.536 -106.49)">
  <g transform="matrix(.35278 0 0 -.35278 131.54 106.49)" fill="#fff">
   <path d="m0 0c-97.063 0-175.75-78.685-175.75-175.75s78.685-175.75 175.75-175.75 175.75 78.685 175.75 175.75-78.685 175.75-175.75 175.75m0-5c45.608 0 88.486-17.761 120.74-50.011 32.25-32.25 50.011-75.129 50.011-120.74s-17.761-88.487-50.011-120.74c-32.251-32.25-75.129-50.011-120.74-50.011s-88.487 17.761-120.74 50.011-50.011 75.129-50.011 120.74 17.761 88.487 50.011 120.74 75.129 50.011 120.74 50.011" fill="#fff"/>
  </g>
  <g transform="matrix(.35278 0 0 -.35278 68.535 231.43)">
   <g clip-path="url(#clipPath10040)">
    <g transform="translate(229.13 119.59)">
     <path d="m0 0c-7.684 0-14.153 6.268-14.153 13.951 0 7.886 6.469 14.153 14.153 14.153 7.886 0 14.153-6.267 14.153-14.153 0-7.683-6.267-13.951-14.153-13.951m-94.977 76.783c7.729-4.288 16.361-6.536 25.22-6.536 8.972 0 17.67 2.248 25.417 6.536-4.205-7.717-14.16-12.977-25.417-12.977-11.157 0-21.034 5.26-25.22 12.977m94.977-41.485c-7.91 0-15.008-4.392-18.744-11.529-15.755-0.157-25.367-4.352-33.634-25.434-7.863-20.048-15.821-33.399-29.105-33.399-7.575 0-19.159 8.522-22.198 19.155-1.656 5.151-1.564 12.64 8.275 19.074 27.322 17.801 29.608 28.574 29.608 38.082v14.145c17.957 1.619 31.862 14.125 32.143 29.069 10.701 10.291 16.585 23.927 16.585 38.472v34.372c0 2.255-1.906 4.16-4.161 4.16h-20.421c-2.325 0-4.363-1.944-4.363-4.16 0-2.365 1.998-4.363 4.363-4.363h16.058v-30.009c0-24.351-19.811-44.163-44.163-44.163-24.239 0-43.96 19.812-43.96 44.163v30.009h16.866c2.448 0 4.365 1.916 4.365 4.363 0 2.294-1.958 4.16-4.365 4.16h-21.229c-2.255 0-4.16-1.905-4.16-4.16v-34.372c0-14.544 5.884-28.181 16.584-38.472 0.267-14.786 13.466-27.032 31.133-29.035v-14.179c0-5.628 0-14.134-25.59-30.866-15.695-10.235-13.44-23.582-11.755-28.802 3.854-13.277 18.337-25.369 30.385-25.369 19.105 0 29.08 18.737 37.011 38.984 5.44 13.846 9.939 19.188 23.394 19.981-0.036-0.387-0.067-0.801-0.067-1.224 0-11.659 9.486-21.144 21.145-21.144 11.658 0 21.145 9.485 21.145 21.144 0 11.771-9.487 21.347-21.145 21.347" fill="#fff"/>
    </g>
   </g>
  </g>
 </g>
</svg>
