<?xml version="1.0" encoding="UTF-8"?>
<svg width="128px" height="128px" version="1.1" viewBox="0 0 124 124" xmlns="http://www.w3.org/2000/svg">
 <defs>
  <clipPath id="clipPath10076">
   <path d="M 0,357.165 H 357.165 V 0 H 0 Z"/>
  </clipPath>
 </defs>
 <g transform="translate(-69.536 -106.49)" fill="#fff">
  <g transform="matrix(.35278 0 0 -.35278 131.54 106.49)">
   <path d="m0 0c-97.063 0-175.75-78.685-175.75-175.75s78.685-175.75 175.75-175.75 175.75 78.685 175.75 175.75-78.685 175.75-175.75 175.75m0-5c45.608 0 88.486-17.761 120.74-50.011 32.25-32.25 50.011-75.129 50.011-120.74s-17.761-88.487-50.011-120.74c-32.251-32.25-75.129-50.011-120.74-50.011s-88.487 17.761-120.74 50.011-50.011 75.129-50.011 120.74 17.761 88.487 50.011 120.74 75.129 50.011 120.74 50.011" fill="#fff"/>
  </g>
  <g transform="matrix(.35278 0 0 -.35278 68.536 231.49)">
   <g clip-path="url(#clipPath10076)" fill="#fff">
    <g transform="translate(210.8 266.95)" fill="#fff">
     <path d="m0 0c0-3.392-2.638-6.029-6.029-6.029h-49.929c-3.392 0-6.029 2.637-6.029 6.029 0 3.203 2.637 5.841 6.029 5.841h49.929c3.391 0 6.029-2.638 6.029-5.841m13.754-102.5c-3.392 6.218-6.971 12.435-10.174 18.842-15.262 28.449-15.826 54.639-14.319 69.523h-8.102c-1.508-16.015-0.565-43.334 15.261-73.292 3.392-6.406 6.972-12.811 10.363-19.029 13.754-24.682 28.073-50.306 21.856-61.045-2.827-4.711-9.61-6.971-20.726-6.971h-80.263c-11.116 0-17.898 2.26-20.724 6.971-6.218 10.739 8.101 36.363 21.855 61.045 3.391 6.218 6.971 12.623 10.363 19.029 15.826 29.958 16.768 57.277 15.26 73.292h-8.101c1.508-14.884 0.942-40.885-14.319-69.523-3.203-6.407-6.783-12.624-10.174-18.842-16.204-29.015-30.146-54.262-21.667-69.146 4.333-7.348 13.188-10.928 27.507-10.928h80.263c14.319 0 23.175 3.58 27.508 10.928 8.478 14.884-5.464 40.131-21.667 69.146m-99.858-61.045s1.884-3.014 13.754-3.014h80.263c11.87 0 13.754 3.014 13.754 3.014 3.957 6.972-12.058 35.987-21.667 53.321-2.826 4.71-5.464 9.797-8.102 14.696h-48.233c-2.638-4.899-5.275-9.986-8.102-14.696-9.608-17.334-25.811-46.349-21.667-53.321m90.814 24.494c2.639 0 4.711-2.073 4.711-4.71 0-2.638-2.072-4.711-4.711-4.711-2.638 0-4.71 2.073-4.71 4.711 0 2.637 2.072 4.71 4.71 4.71m-13.942 26.566c3.768 0 6.594-3.015 6.594-6.783s-2.826-6.783-6.594-6.783-6.783 3.015-6.783 6.783 3.015 6.783 6.783 6.783m-13.377-22.609c3.768 0 6.594-3.015 6.594-6.595 0-3.768-2.826-6.783-6.594-6.783s-6.783 3.015-6.783 6.783c0 3.58 3.015 6.595 6.783 6.595m-31.464 13.565c2.449 0 4.521-2.073 4.521-4.522s-2.072-4.522-4.521-4.522c-2.45 0-4.334 2.073-4.334 4.522s1.884 4.522 4.334 4.522m-4.334-32.407c0-3.014-2.449-5.463-5.464-5.463s-5.464 2.449-5.464 5.463c0 3.015 2.449 5.464 5.464 5.464s5.464-2.449 5.464-5.464" fill="#fff"/>
    </g>
   </g>
  </g>
 </g>
</svg>
