<?xml version="1.0" encoding="UTF-8"?>
<svg width="128px" height="128px" version="1.1" viewBox="0 0 124 124" xmlns="http://www.w3.org/2000/svg">
 <defs>
  <clipPath id="clipPath10188">
   <path d="m80.796 228.85 37.395-28.999c8.801 26.456 33.477 46.146 62.631 46.146 16.433 0 31.187-5.647 42.787-16.739l32.103 32.104c-19.383 18.061-44.72 29.154-74.89 29.154-43.756 0-81.609-25.084-100.03-61.666"/>
  </clipPath>
  <clipPath id="clipPath10178">
   <path d="m80.796 228.85c-7.581-15.11-11.906-32.205-11.906-50.266 0-18.062 4.325-35.157 11.906-50.268l37.395 29.001c-2.239 6.715-3.511 13.889-3.511 21.267 0 7.377 1.272 14.551 3.511 21.267v28.999z"/>
  </clipPath>
  <clipPath id="clipPath10168">
   <path d="m80.796 157.32v-29.001c18.417-36.582 56.27-61.664 100.03-61.664 30.221 0 55.558 10.024 74.078 27.118l-36.175 28.085c-10.023-6.716-22.845-10.685-37.903-10.685-29.154 0-53.83 19.69-62.631 46.147z"/>
  </clipPath>
  <clipPath id="clipPath10158">
   <path d="m180.82 198.93v-43.296h60.239c-2.595-13.992-10.481-25.847-22.336-33.783v-28.085h36.175c21.164 19.486 33.375 48.182 33.375 82.27 0 7.936-0.712 15.568-2.035 22.894z"/>
  </clipPath>
 </defs>
 <g transform="translate(-69.536 -106.49)" fill="#fff">
  <g transform="matrix(.35278 0 0 -.35278 131.54 106.49)">
   <path d="m0 0c-97.063 0-175.75-78.685-175.75-175.75s78.685-175.75 175.75-175.75 175.75 78.685 175.75 175.75-78.685 175.75-175.75 175.75m0-5c45.608 0 88.486-17.761 120.74-50.011 32.25-32.25 50.011-75.129 50.011-120.74s-17.761-88.487-50.011-120.74c-32.251-32.25-75.129-50.011-120.74-50.011s-88.487 17.761-120.74 50.011-50.011 75.129-50.011 120.74 17.761 88.487 50.011 120.74 75.129 50.011 120.74 50.011" fill="#fff"/>
  </g>
  <g transform="translate(68.426 -5.6816)">
   <g transform="matrix(.35278 0 0 -.35278 .11019 237.17)">
    <g clip-path="url(#clipPath10158)" fill="#fff">
     <path d="m118.64 261.12h231.82v-229.53h-231.82z" fill="#fff"/>
    </g>
   </g>
   <g transform="matrix(.35278 0 0 -.35278 .11019 237.17)">
    <g clip-path="url(#clipPath10168)" fill="#fff">
     <path d="m18.611 219.5h298.47v-215.03h-298.47z" fill="#fff"/>
    </g>
   </g>
   <g transform="matrix(.35278 0 0 -.35278 .11019 237.17)">
    <g clip-path="url(#clipPath10178)" fill="#fff">
     <path d="m6.706 291.03h173.67v-224.9h-173.67z" fill="#fff"/>
    </g>
   </g>
   <g transform="matrix(.35278 0 0 -.35278 .11019 237.17)">
    <g clip-path="url(#clipPath10188)" fill="#fff">
     <path d="m18.611 352.7h299.29v-215.03h-299.29z" fill="#fff"/>
    </g>
   </g>
  </g>
 </g>
</svg>
