<svg width="128" height="128" viewBox="0 0 124 124" xmlns="http://www.w3.org/2000/svg"><defs><clipPath id="d"><path d="M80.796 228.85l37.395-28.999c8.801 26.456 33.477 46.146 62.631 46.146 16.433 0 31.187-5.647 42.787-16.739l32.103 32.104c-19.383 18.061-44.72 29.154-74.89 29.154-43.756 0-81.609-25.084-100.03-61.666"/></clipPath><clipPath id="c"><path d="M80.796 228.85a111.88 111.88 0 0 1-11.906-50.266c0-18.062 4.325-35.157 11.906-50.268l37.395 29.001c-2.239 6.715-3.511 13.889-3.511 21.267 0 7.377 1.272 14.551 3.511 21.267v28.999z"/></clipPath><clipPath id="b"><path d="M80.796 157.32v-29.001c18.417-36.582 56.27-61.664 100.03-61.664 30.221 0 55.558 10.024 74.078 27.118l-36.175 28.085c-10.023-6.716-22.845-10.685-37.903-10.685-29.154 0-53.83 19.69-62.631 46.147z"/></clipPath><clipPath id="a"><path d="M180.82 198.93v-43.296h60.239c-2.595-13.992-10.481-25.847-22.336-33.783V93.766h36.175c21.164 19.486 33.375 48.182 33.375 82.27 0 7.936-.712 15.568-2.035 22.894z"/></clipPath></defs><g fill="#fff"><path d="M62.004 0C27.762 0 .003 27.758.003 62.001s27.758 62.001 62.001 62.001 62.001-27.758 62.001-62S96.247 0 62.004 0m0 1.764c16.09 0 31.216 6.266 42.595 17.643C115.976 30.784 122.242 45.91 122.242 62s-6.266 31.217-17.643 42.595C93.22 115.973 78.095 122.24 62.004 122.24s-31.216-6.266-42.595-17.643S1.766 78.092 1.766 62.001 8.032 30.785 19.41 19.407 45.913 1.764 62.004 1.764"/><g clip-path="url(#a)" transform="matrix(.35278 0 0 -.35278 -1 124.998)"><path d="M118.64 261.12h231.82V31.59H118.64z"/></g><g clip-path="url(#b)" transform="matrix(.35278 0 0 -.35278 -1 124.998)"><path d="M18.611 219.5h298.47V4.47H18.611z"/></g><g clip-path="url(#c)" transform="matrix(.35278 0 0 -.35278 -1 124.998)"><path d="M6.706 291.03h173.67V66.13H6.706z"/></g><g clip-path="url(#d)" transform="matrix(.35278 0 0 -.35278 -1 124.998)"><path d="M18.611 352.7h299.29V137.67H18.611z"/></g></g></svg>