<svg width="128" height="128" viewBox="0 0 124 124" xmlns="http://www.w3.org/2000/svg"><defs><clipPath id="a"><path d="M0 357.165h357.165V0H0z"/></clipPath></defs><path d="M62.004 0C27.762 0 .003 27.758.003 62.001s27.758 62.001 62.001 62.001 62.001-27.758 62.001-62S96.247 0 62.004 0m0 1.764c16.09 0 31.216 6.266 42.595 17.643C115.976 30.784 122.242 45.91 122.242 62s-6.266 31.217-17.643 42.595C93.22 115.973 78.095 122.24 62.004 122.24s-31.216-6.266-42.595-17.643S1.766 78.092 1.766 62.001 8.032 30.785 19.41 19.407 45.913 1.764 62.004 1.764" fill="#878789"/><g clip-path="url(#a)" transform="matrix(.35278 0 0 -.35278 -1 125)"><path d="M288.23 67.944H68.28v221.28h20.579V88.964h199.37zm-9.958 203.13l-68.817-63.065c.664-1.548.884-3.319.884-5.089a15.866 15.866 0 0 0-15.931-15.932c-8.852 0-16.375 7.081-16.375 15.932 0 1.991.442 3.983 1.328 5.753l-24.783 22.349a15.586 15.586 0 0 0-8.41-2.434c-3.097 0-5.752.885-8.186 2.213l-31.864-26.996c-2.213-1.77-5.533-1.549-7.303.664s-1.549 5.31.664 7.302l31.643 26.774c-.663 1.771-1.107 3.984-1.107 5.975 0 8.851 7.303 16.153 16.153 16.153 8.852 0 15.933-7.302 15.933-16.153 0-1.77-.442-3.762-1.106-5.31l25.004-22.571a15.582 15.582 0 0 0 8.409 2.434c3.097 0 6.195-1.106 8.63-2.655l67.932 62.179-10.843 10.621h28.766v-28.545zm-142.72-38.503l-1.327 1.328v-1.328zm19.695 11.949c0 5.089-4.205 9.073-9.074 9.073-5.088 0-9.292-3.984-9.292-9.073 0-4.868 4.204-9.072 9.292-9.072 4.869 0 9.074 4.204 9.074 9.072m48.238-41.6c0 5.089-3.983 9.072-9.072 9.072-5.09 0-9.073-3.983-9.073-9.072 0-4.868 3.983-9.073 9.073-9.073 5.089 0 9.072 4.205 9.072 9.073m2.655 11.949h-1.106c.442-.221.664-.664 1.106-1.107zm46.69-40.494l-53.771-47.796c.664-1.77.886-3.319.886-5.311a15.866 15.866 0 0 0-15.933-15.932c-9.072 0-16.153 7.081-16.153 15.932 0 1.992.222 3.983.885 5.754l-24.562 22.349a15.568 15.568 0 0 0-8.408-2.434 15.28 15.28 0 0 0-7.967 2.212l-22.127-17.038c-2.213-1.992-5.532-1.549-7.302.663-1.992 1.992-1.549 5.311.442 7.303l22.128 16.817c-.885 1.991-1.327 3.983-1.327 5.974 0 8.852 7.302 16.375 16.153 16.375s15.932-7.523 15.932-16.375c0-1.77-.443-3.54-1.107-5.31l24.783-22.571c2.435 1.549 5.533 2.434 8.63 2.434 3.32 0 6.197-1.106 8.63-2.655l52.664 47.132-10.621 10.843h28.545v-28.988zm-127.68-23.456l-1.327 1.328v-1.328zm19.694 11.949c0 5.09-4.204 9.073-9.072 9.073-5.09 0-9.294-3.983-9.294-9.073 0-4.867 4.204-9.072 9.294-9.072 4.868 0 9.072 4.205 9.072 9.072m28.324-29.429v-.222zm19.915-12.171c0 5.089-3.983 9.294-9.073 9.294-5.089 0-9.294-4.205-9.294-9.294 0-4.868 4.205-9.072 9.294-9.072 5.09 0 9.073 4.204 9.073 9.072m2.655 12.171h-1.107c.444-.443.664-.886 1.107-1.328z" fill="#878789"/></g></svg>