<?xml version="1.0" encoding="UTF-8"?>
<svg width="128px" height="128px" version="1.1" viewBox="0 0 124 124" xmlns="http://www.w3.org/2000/svg">
 <defs>
  <clipPath id="clipPath10064">
   <path d="M 0,357.165 H 357.165 V 0 H 0 Z"/>
  </clipPath>
 </defs>
 <g transform="translate(-69.536 -106.49)">
  <g transform="matrix(.35278 0 0 -.35278 131.54 106.49)" fill="#878789">
   <path d="m0 0c-97.063 0-175.75-78.685-175.75-175.75s78.685-175.75 175.75-175.75 175.75 78.685 175.75 175.75-78.685 175.75-175.75 175.75m0-5c45.608 0 88.486-17.761 120.74-50.011 32.25-32.25 50.011-75.129 50.011-120.74s-17.761-88.487-50.011-120.74c-32.251-32.25-75.129-50.011-120.74-50.011s-88.487 17.761-120.74 50.011-50.011 75.129-50.011 120.74 17.761 88.487 50.011 120.74 75.129 50.011 120.74 50.011" fill="#878789"/>
  </g>
  <g transform="matrix(.35278 0 0 -.35278 68.536 231.49)">
   <g clip-path="url(#clipPath10064)">
    <g transform="translate(288.23 67.944)">
     <path d="m0 0h-219.95v221.28h20.579v-200.26h199.37zm-9.958 203.13-68.817-63.065c0.664-1.548 0.884-3.319 0.884-5.089 0-8.851-7.081-15.932-15.931-15.932-8.852 0-16.375 7.081-16.375 15.932 0 1.991 0.442 3.983 1.328 5.753l-24.783 22.349c-2.435-1.549-5.311-2.434-8.41-2.434-3.097 0-5.752 0.885-8.186 2.213l-31.864-26.996c-2.213-1.77-5.533-1.549-7.303 0.664s-1.549 5.31 0.664 7.302l31.643 26.774c-0.663 1.771-1.107 3.984-1.107 5.975 0 8.851 7.303 16.153 16.153 16.153 8.852 0 15.933-7.302 15.933-16.153 0-1.77-0.442-3.762-1.106-5.31l25.004-22.571c2.434 1.549 5.311 2.434 8.409 2.434 3.097 0 6.195-1.106 8.63-2.655l67.932 62.179-10.843 10.621h28.766v-28.545zm-142.72-38.503c-0.442 0.443-0.884 0.885-1.327 1.328v-1.328zm19.695 11.949c0 5.089-4.205 9.073-9.074 9.073-5.088 0-9.292-3.984-9.292-9.073 0-4.868 4.204-9.072 9.292-9.072 4.869 0 9.074 4.204 9.074 9.072m48.238-41.6c0 5.089-3.983 9.072-9.072 9.072-5.09 0-9.073-3.983-9.073-9.072 0-4.868 3.983-9.073 9.073-9.073 5.089 0 9.072 4.205 9.072 9.073m2.655 11.949h-1.106c0.442-0.221 0.664-0.664 1.106-1.107zm46.69-40.494-53.771-47.796c0.664-1.77 0.886-3.319 0.886-5.311 0-8.851-7.081-15.932-15.933-15.932-9.072 0-16.153 7.081-16.153 15.932 0 1.992 0.222 3.983 0.885 5.754l-24.562 22.349c-2.433-1.55-5.31-2.434-8.408-2.434-3.099 0-5.754 0.884-7.967 2.212l-22.127-17.038c-2.213-1.992-5.532-1.549-7.302 0.663-1.992 1.992-1.549 5.311 0.442 7.303l22.128 16.817c-0.885 1.991-1.327 3.983-1.327 5.974 0 8.852 7.302 16.375 16.153 16.375s15.932-7.523 15.932-16.375c0-1.77-0.443-3.54-1.107-5.31l24.783-22.571c2.435 1.549 5.533 2.434 8.63 2.434 3.32 0 6.197-1.106 8.63-2.655l52.664 47.132-10.621 10.843h28.545v-28.988zm-127.68-23.456c-0.442 0.443-0.885 0.886-1.327 1.328v-1.328zm19.694 11.949c0 5.09-4.204 9.073-9.072 9.073-5.09 0-9.294-3.983-9.294-9.073 0-4.867 4.204-9.072 9.294-9.072 4.868 0 9.072 4.205 9.072 9.072m28.324-29.429v-0.222zm19.915-12.171c0 5.089-3.983 9.294-9.073 9.294-5.089 0-9.294-4.205-9.294-9.294 0-4.868 4.205-9.072 9.294-9.072 5.09 0 9.073 4.204 9.073 9.072m2.655 12.171h-1.107c0.444-0.443 0.664-0.886 1.107-1.328z" fill="#878789"/>
    </g>
   </g>
  </g>
 </g>
</svg>
