<svg baseProfile="basic" xmlns="http://www.w3.org/2000/svg" width="512" height="512"><path d="M183.808 238.592c0 12.8-10.24 22.528-22.528 22.528-12.8 0-22.528-9.728-22.528-22.528 0-12.288 9.728-22.528 22.528-22.528 12.288 0 22.528 10.24 22.528 22.528m188.928 0c0 12.8-9.728 22.528-22.528 22.528-12.288 0-22.528-9.728-22.528-22.528 0-12.288 10.24-22.528 22.528-22.528 12.8 0 22.528 10.24 22.528 22.528M256 388.096c47.104 0 84.992-38.4 84.992-85.504H170.496c0 47.104 37.888 85.504 85.504 85.504zM446.464 0H0v512h512V0h-65.536zm10.752 20.992h33.28V61.44h-33.28V20.992zm-65.024 0h32.768V61.44h-32.768V20.992zm-371.2 0h338.944V61.44H20.992V20.992zm480.256 480.256H10.24V82.944h491.008v418.304z" fill="#fff"/></svg>