<svg xmlns="http://www.w3.org/2000/svg" width="254.307" height="278.642"><path d="M254.307 179.583l-34.203-52.626c4.849-2.116 8.287-6.964 8.287-12.518 0-6.964-5.29-12.782-12.165-13.575v-7.581h-3.262v7.581c-6.876.793-12.165 6.611-12.165 13.575 0 5.642 3.438 10.49 8.375 12.518l-13.487 20.803c-6.347-3.966-11.46-9.696-14.898-16.66l-2.997 1.498c3.702 7.493 9.256 13.664 16.043 17.895l-18.864 29.09 2.733 1.851 19.04-29.178c6.259 3.262 13.311 5.113 20.716 5.113 5.641 0 11.107-1.146 16.308-3.174l17.718 27.15zm-50.158-65.144c0-5.73 4.672-10.402 10.49-10.402 5.73 0 10.402 4.672 10.402 10.402 0 5.73-4.672 10.314-10.402 10.314-5.818 0-10.49-4.584-10.49-10.314zm13.31 39.58c-6.699 0-13.222-1.675-18.952-4.584l2.645-3.967 10.137-15.514h-.088l1.322-2.028c.706.088 1.323.177 2.116.177.705 0 1.41-.089 2.116-.177l15.162 23.448c-4.584 1.764-9.433 2.645-14.457 2.645z"/><circle cx="62.79" cy="130.415" r="61.457" fill="none" stroke="#000" stroke-width="2.667"/><path d="M101.329 100.101c-.31-7.723-7.028-8.263-8.65-8.263H71.826c-4.634 0-8.418 3.63-8.65 8.263V103.345H24.174v65.648H89.82v-10.658h2.858c4.788 0 8.727-3.94 8.727-8.728v-49.506zm-29.503-5.097H92.68c2.935 0 5.329 2.24 5.483 5.097h-31.82c.155-2.857 2.626-5.097 5.484-5.097zM27.34 106.512h35.836v5.87H27.34zm59.315 59.314H27.34v-50.278h35.836v34.059c0 4.789 3.862 8.728 8.65 8.728h14.829zm11.507-16.219c0 3.012-2.471 5.484-5.483 5.484H71.826c-3.012 0-5.483-2.472-5.483-5.484v-4.093h31.82zm0-7.26h-31.82v-39.079h31.82zM85.96 150.38c0 2.008-1.545 3.552-3.476 3.552a3.543 3.543 0 0 1-3.553-3.552c0-1.931 1.622-3.476 3.553-3.476a3.461 3.461 0 0 1 3.476 3.476M245.564 254.136a6.133 6.133 0 0 0-6.17-6.171c-3.35 0-6.17 2.733-6.17 6.17 0 3.35 2.82 6.083 6.17 6.083 3.438 0 6.17-2.733 6.17-6.082m-36.582-21.069c6.17 0 11.283-3.437 12.429-7.933a22.25 22.25 0 0 1-12.43 3.79c-4.583 0-8.814-1.41-12.34-3.79 1.145 4.496 6.258 7.933 12.34 7.933m38.963 21.069c0 4.672-3.79 8.55-8.55 8.55-4.672 0-8.551-3.878-8.551-8.55 0-.441.088-.882.088-1.235-5.906.177-8.639 1.763-11.548 9.168-3.35 8.55-7.58 16.573-15.514 16.573-4.937 0-11.02-5.113-12.606-10.579-.881-2.732-1.234-7.845 4.849-11.812 11.46-7.493 11.46-11.46 11.46-14.016v-6.787c-7.582-.618-13.576-5.818-13.576-12.253v-.089c-4.408-4.143-7.228-9.96-7.228-16.484v-14.986c0-.617.528-1.145 1.145-1.145h9.256c.706 0 1.234.528 1.234 1.145 0 .706-.528 1.235-1.234 1.235h-8.021v13.751c0 11.019 8.903 19.922 19.834 19.922 11.018 0 19.922-8.903 19.922-19.922v-13.751h-7.67c-.617 0-1.234-.53-1.234-1.235 0-.617.617-1.145 1.235-1.145h8.903c.617 0 1.146.528 1.146 1.145v14.986c0 6.523-2.821 12.341-7.229 16.484v.089c0 6.523-6.258 11.812-14.016 12.253v6.787c0 3.967-.97 8.463-12.605 16.044-4.584 2.997-4.672 6.611-3.879 9.08 1.41 4.936 6.788 8.814 10.314 8.814 6.17 0 9.785-5.994 13.31-14.985 3.527-8.992 7.493-10.667 14.457-10.667 1.41-2.997 4.32-5.024 7.758-5.024 4.76 0 8.55 3.878 8.55 8.639m-3.614.176a4.928 4.928 0 0 1-4.936 4.936c-2.645 0-4.849-2.203-4.849-4.936a4.834 4.834 0 0 1 4.849-4.848c2.732 0 4.936 2.115 4.936 4.848M237.016 59.252c5.618-6.555 8.768-14.813 8.768-23.411C245.784 16.09 229.524 0 209.688 0c-19.92 0-36.18 16.09-36.18 35.84 0 .597.255 1.448.595 2.64.085.255.17.596.256.936-1.618 2.128-5.96 8.854-5.96 13.621 0 1.277.596 4.001 6.13 4.001h.596c-.256 1.192-.34 2.47.085 3.576.17.426.425.851.851 1.107v1.617c0 1.618.596 2.81 1.192 3.576-1.022 3.405-.766 6.64.936 9.024 1.107 1.617 2.725 2.639 4.342 2.639h11.493c2.554 0 2.724 4.682 2.724 4.767 0 .937.852 1.788 1.873 1.788h36.777c.511 0 1.022-.255 1.362-.681.34-.51.511-1.022.426-1.532 0-.085-1.362-6.215-2.128-11.749-.596-4.597 1.532-10.726 1.958-11.918zm-3.49-1.277c-.511 1.532-2.81 8.258-2.129 13.706.51 3.66 1.277 7.407 1.703 9.79h-32.861c-.511-2.894-2.214-6.555-6.215-6.555h-11.493c-.255 0-.851-.255-1.362-1.021-1.107-1.618-1.107-4.172-.085-6.81.255-.767 0-1.618-.681-2.13 0 0-.681-.595-.681-1.617V60.7c0-.68-.51-1.362-1.192-1.617-.085-.596.34-2.129.936-3.32a1.674 1.674 0 0 0-.17-1.873c-.425-.596-1.106-.852-1.788-.681 0 0-1.447.255-2.98.255-1.957 0-2.468-.426-2.468-.426 0-3.575 4.086-9.96 5.704-12.174.255-.34.34-.766.34-1.191-.085-.511-.17-1.107-.51-2.129-.086-.51-.34-1.447-.34-1.702 0-17.793 14.472-32.265 32.434-32.265 17.878 0 32.436 14.472 32.436 32.265a31.832 31.832 0 0 1-8.173 21.283c-.17.255-.34.596-.426.85zm-19.326.085h-8.853c-.937 0-1.788.766-1.788 1.788 0 1.021.851 1.788 1.788 1.788h8.853c1.022 0 1.873-.767 1.873-1.788 0-1.022-.851-1.788-1.873-1.788zm-2.724-46.652h-3.15-.17c-5.449.34-15.75 4.341-15.75 17.196 0 7.833 2.895 11.153 5.279 13.792 1.958 2.128 3.15 3.49 3.15 8.002l.085 3.746c0 1.022.766 1.788 1.787 1.788h14.218c1.021 0 1.787-.766 1.787-1.788v-3.746c0-4.512 1.277-5.874 3.235-8.002 2.299-2.64 5.279-5.96 5.279-13.792 0-12.855-10.301-16.856-15.75-17.196zM204.58 52.27l-.085-.936h10.557v.936zm14.558-12.344c-1.703 1.958-3.405 3.916-3.916 7.747h-10.897c-.51-3.831-2.128-5.789-3.916-7.747-2.128-2.384-4.342-4.853-4.342-11.323 0-10.13 8.003-13.28 12.26-13.536h2.979c4.256.256 12.259 3.406 12.259 13.536 0 6.47-2.214 8.94-4.427 11.323z"/><path d="M82.084 110.189c-7.332 0-13.256 5.924-13.256 13.283 0 7.332 5.924 13.283 13.256 13.283 7.359 0 13.31-5.951 13.31-13.283 0-7.36-5.951-13.283-13.31-13.283zm0 1.434c3.56 0 6.721 1.568 8.9 4.038-.93.133-1.913.824-1.913 2.152 0 1.727 1.514 3.135 1.408 4.809-.186 2.576-2.205 6.402-2.205 6.402s-2.577-6.509-3.135-8.023c-.584-1.488.558-1.461.824-1.461h.744v-.744h-8.21v.585c.346 0 1.515.292 1.913 1.115.425.85 1.249 3.507 1.249 3.507l-2.524 5.473s-3.055-7.147-3.48-8.342c-.425-1.196.345-1.62.77-1.62h.612v-.93h-5.712c1.86-4.092 5.977-6.96 10.76-6.96zm-11.822 11.849c0-1.17.16-2.285.478-3.348l5.686 13.735c-3.667-2.019-6.164-5.924-6.164-10.387zm8.448 11.317l3.64-9.06 3.294 9.033a12.02 12.02 0 0 1-3.56.532c-1.169 0-2.311-.16-3.374-.505zm9.564-1.249l5.127-13.655c.346 1.143.532 2.338.532 3.587 0 4.25-2.259 7.996-5.659 10.068zM45.556 130.717c-7.332 0-13.257 5.924-13.257 13.283 0 7.332 5.925 13.283 13.257 13.283 7.359 0 13.31-5.95 13.31-13.283 0-7.359-5.951-13.283-13.31-13.283zm0 1.435c3.56 0 6.721 1.567 8.9 4.038-.93.132-1.913.823-1.913 2.151 0 1.727 1.514 3.135 1.408 4.809-.186 2.577-2.205 6.402-2.205 6.402s-2.577-6.508-3.135-8.023c-.585-1.487.558-1.46.823-1.46h.744v-.745H41.97v.585c.346 0 1.515.292 1.913 1.116.425.85 1.249 3.506 1.249 3.506l-2.524 5.473s-3.055-7.146-3.48-8.342c-.425-1.195.345-1.62.77-1.62h.611v-.93h-5.711c1.86-4.091 5.977-6.96 10.759-6.96zM33.734 144c0-1.169.16-2.285.478-3.347l5.685 13.734c-3.666-2.019-6.163-5.924-6.163-10.387zm8.448 11.317l3.64-9.059 3.294 9.033a12.02 12.02 0 0 1-3.56.53c-1.17 0-2.311-.159-3.374-.504zm9.564-1.248l5.127-13.655c.345 1.142.531 2.337.531 3.586 0 4.25-2.258 7.996-5.658 10.069z"/></svg>