<?xml version="1.0" encoding="UTF-8" standalone="no"?>
<svg
   xmlns:dc="http://purl.org/dc/elements/1.1/"
   xmlns:cc="http://creativecommons.org/ns#"
   xmlns:rdf="http://www.w3.org/1999/02/22-rdf-syntax-ns#"
   xmlns:svg="http://www.w3.org/2000/svg"
   xmlns="http://www.w3.org/2000/svg"
   xmlns:sodipodi="http://sodipodi.sourceforge.net/DTD/sodipodi-0.dtd"
   xmlns:inkscape="http://www.inkscape.org/namespaces/inkscape"
   version="1.1"
   x="0px"
   y="0px"
   width="254.30692"
   height="278.64151"
   viewBox="0 0 254.30692 278.64151"
   xml:space="preserve"
   id="svg4546"
   sodipodi:docname="icons.svg"
   inkscape:version="0.92.2 (5c3e80d, 2017-08-06)"><metadata
     id="metadata4552"><rdf:RDF><cc:Work
         rdf:about=""><dc:format>image/svg+xml</dc:format><dc:type
           rdf:resource="http://purl.org/dc/dcmitype/StillImage" /><dc:title></dc:title></cc:Work></rdf:RDF></metadata><defs
     id="defs4550" /><sodipodi:namedview
     pagecolor="#ffffff"
     bordercolor="#666666"
     borderopacity="1"
     objecttolerance="10"
     gridtolerance="10"
     guidetolerance="10"
     inkscape:pageopacity="0"
     inkscape:pageshadow="2"
     inkscape:window-width="1920"
     inkscape:window-height="1017"
     id="namedview4548"
     showgrid="false"
     inkscape:snap-object-midpoints="true"
     inkscape:zoom="3.3125"
     inkscape:cx="83.763546"
     inkscape:cy="145.35184"
     inkscape:window-x="-8"
     inkscape:window-y="-8"
     inkscape:window-maximized="1"
     inkscape:current-layer="svg4546"
     inkscape:snap-page="true" /><path
     style="fill:#000000;stroke:none;stroke-width:0.08815094"
     d="m 254.30691,179.58282 -34.20258,-52.62614 c 4.8483,-2.11562 8.28619,-6.96392 8.28619,-12.51743 0,-6.96393 -5.28906,-12.78189 -12.16483,-13.57525 v -7.580981 h -3.26158 V 100.864 c -6.87578,0.79336 -12.16483,6.61132 -12.16483,13.57525 0,5.64166 3.43789,10.48996 8.37433,12.51743 l -13.48709,20.80362 c -6.34687,-3.96679 -11.45962,-9.6966 -14.89751,-16.66053 l -2.99713,1.49857 c 3.70234,7.49283 9.25584,13.6634 16.04347,17.89464 l -18.8643,29.08984 2.73268,1.85115 19.0406,-29.17797 c 6.25872,3.26159 13.3108,5.11276 20.71547,5.11276 5.64166,0 11.10702,-1.14597 16.30792,-3.17344 l 17.71835,27.1505 z m -50.15789,-65.14357 c 0,-5.72982 4.672,-10.40182 10.48996,-10.40182 5.7298,0 10.4018,4.672 10.4018,10.40182 0,5.72981 -4.672,10.31366 -10.4018,10.31366 -5.81796,0 -10.48996,-4.58385 -10.48996,-10.31366 z m 13.31078,39.57977 c -6.69947,0 -13.22264,-1.67487 -18.95245,-4.58385 l 2.64453,-3.96679 v 0 l 10.13736,-15.51457 h -0.0881 l 1.32226,-2.02747 c 0.7052,0.0881 1.32226,0.1763 2.11563,0.1763 0.7052,0 1.41041,-0.0882 2.11561,-0.1763 l 15.16197,23.44815 c -4.58386,1.76302 -9.43215,2.64453 -14.45676,2.64453 z"
     id="path4544"
     inkscape:connector-curvature="0" /><circle
     style="opacity:1;fill:none;stroke:#000000;stroke-width:2.66666675;stroke-miterlimit:4;stroke-dasharray:none;stroke-opacity:1"
     id="path4554"
     cx="62.789917"
     cy="130.4151"
     r="61.456585" /><path
     inkscape:connector-curvature="0"
     style="fill:#000000;stroke:none;stroke-width:0.07723226"
     d="M 101.32881,100.10144 C 101.01988,92.378213 94.300677,91.837588 92.6788,91.837588 H 71.82609 c -4.633935,0 -8.418317,3.629915 -8.650014,8.263852 v 0 0.38616 2.78036 0.0772 h -39.00228 v 9.03617 3.16653 53.44472 h 65.64741 V 158.33455 H 92.6788 c 4.788399,0 8.72725,-3.93884 8.72725,-8.72724 v -4.09331 -3.16652 -39.07952 -2.78036 -0.38616 z M 71.82609,95.00411 H 92.6788 c 2.934825,0 5.329025,2.239735 5.483489,5.09733 h -31.81969 c 0.154464,-2.857595 2.625897,-5.09733 5.483491,-5.09733 z m -44.485772,11.50761 h 35.835758 v 5.86965 H 27.340318 Z m 59.314366,59.31436 H 27.340318 v -50.27819 h 35.835758 v 26.79959 3.16652 4.09331 c 0,4.7884 3.861614,8.72724 8.650014,8.72724 h 14.828594 z m 11.507605,-16.21877 c 0,3.01206 -2.471432,5.48349 -5.483489,5.48349 H 89.821206 71.82609 c -3.012058,0 -5.483491,-2.47143 -5.483491,-5.48349 V 145.514 h 31.81969 z m 0,-7.25983 h -31.81969 v -26.79959 -3.16652 -9.03618 -0.0772 h 31.81969 z m -12.202695,8.03215 c 0,2.00804 -1.544648,3.55269 -3.475454,3.55269 -1.930806,0 -3.552683,-1.54465 -3.552683,-3.55269 0,-1.9308 1.621877,-3.47545 3.552683,-3.47545 1.930806,0 3.475454,1.54465 3.475454,3.47545"
     id="path4566" /><path
     inkscape:connector-curvature="0"
     style="fill:#000000;stroke:none;stroke-width:0.08815095"
     d="m 245.56426,254.13555 c 0,-3.43789 -2.73268,-6.17056 -6.17057,-6.17056 -3.34973,0 -6.17056,2.73267 -6.17056,6.17056 0,3.34974 2.82083,6.08242 6.17056,6.08242 3.43789,0 6.17057,-2.73268 6.17057,-6.08242 m -36.58264,-21.06807 c 6.17056,0 11.28332,-3.43789 12.42928,-7.93359 -3.52604,2.38008 -7.84543,3.79049 -12.42928,3.79049 -4.58385,0 -8.8151,-1.41041 -12.34113,-3.79049 1.14596,4.4957 6.25871,7.93359 12.34113,7.93359 m 38.96272,21.06807 c 0,4.67199 -3.7905,8.55064 -8.55065,8.55064 -4.672,0 -8.55064,-3.87865 -8.55064,-8.55064 0,-0.44075 0.0881,-0.88151 0.0881,-1.23411 -5.90611,0.1763 -8.63879,1.76302 -11.54777,9.1677 -3.34974,8.55063 -7.58098,16.57237 -15.51457,16.57237 -4.93645,0 -11.01887,-5.11275 -12.60558,-10.57811 -0.88151,-2.73268 -1.23411,-7.84543 4.8483,-11.81223 11.45962,-7.49283 11.45962,-11.45962 11.45962,-14.016 v -6.78762 c -7.58098,-0.61706 -13.57524,-5.81796 -13.57524,-12.25298 0,0 0,-0.0882 0,-0.0882 -4.40755,-4.14309 -7.22838,-9.96106 -7.22838,-16.48423 v -14.98566 c 0,-0.61705 0.52891,-1.14596 1.14596,-1.14596 h 9.25585 c 0.70521,0 1.23411,0.52891 1.23411,1.14596 0,0.70521 -0.5289,1.23412 -1.23411,1.23412 h -8.02173 v 13.75154 c 0,11.01887 8.90324,19.92212 19.83396,19.92212 11.01887,0 19.92211,-8.90325 19.92211,-19.92212 V 192.8706 h -7.66913 c -0.61706,0 -1.23411,-0.52891 -1.23411,-1.23412 0,-0.61706 0.61705,-1.14596 1.23411,-1.14596 h 8.90325 c 0.61705,0 1.14596,0.5289 1.14596,1.14596 v 14.98566 c 0,6.52317 -2.82083,12.34114 -7.22838,16.48423 0,0 0,0.0882 0,0.0882 0,6.52317 -6.25872,11.81223 -14.016,12.25298 v 6.78762 c 0,3.9668 -0.96966,8.46249 -12.60559,16.04346 -4.58384,2.99715 -4.672,6.61134 -3.87864,9.07956 1.41042,4.93645 6.78763,8.8151 10.31366,8.8151 6.17057,0 9.78476,-5.99427 13.3108,-14.98566 3.52603,-8.9914 7.49283,-10.66627 14.45675,-10.66627 1.41042,-2.99713 4.3194,-5.0246 7.75728,-5.0246 4.76015,0 8.55065,3.87864 8.55065,8.63879 m -3.61419,0.1763 c 0,2.73268 -2.20378,4.93646 -4.93646,4.93646 -2.64453,0 -4.8483,-2.20378 -4.8483,-4.93646 0,-2.73268 2.20377,-4.8483 4.8483,-4.8483 2.73268,0 4.93646,2.11562 4.93646,4.8483"
     id="path5144" /><path
     inkscape:connector-curvature="0"
     style="fill:#000000;stroke:none;stroke-width:0.08513208"
     d="m 237.01573,59.251925 c 5.61872,-6.555171 8.76861,-14.812981 8.76861,-23.411322 C 245.78434,16.089962 229.52411,0 209.68833,0 189.76743,0 173.5072,16.089962 173.5072,35.840603 c 0,0.595925 0.2554,1.447246 0.59593,2.639095 0.0851,0.255397 0.17026,0.595925 0.25539,0.936453 -1.61751,2.128302 -5.95924,8.853736 -5.95924,13.621132 0,1.276981 0.59592,4.001208 6.12951,4.001208 0.17026,0 0.42566,0 0.59592,0 -0.25539,1.191849 -0.34053,2.468831 0.0851,3.575548 0.17027,0.42566 0.42566,0.85132 0.85132,1.106717 v 1.617509 c 0,1.617509 0.59593,2.809359 1.19185,3.575547 -1.02158,3.405283 -0.76619,6.640301 0.93645,9.024 1.10672,1.617509 2.72423,2.639096 4.34174,2.639096 H 194.024 c 2.55396,0 2.72423,4.68226 2.72423,4.76739 0,0.93646 0.85132,1.78778 1.8729,1.78778 h 36.77706 c 0.51079,0 1.02158,-0.2554 1.36211,-0.68106 0.34053,-0.51079 0.5108,-1.02158 0.42566,-1.53238 0,-0.0851 -1.36211,-6.214638 -2.1283,-11.748223 -0.59592,-4.597132 1.53238,-10.726641 1.95804,-11.91849 z m -3.49041,-1.276981 c -0.5108,1.532378 -2.80936,8.257812 -2.12831,13.706264 0.5108,3.660679 1.27699,7.40649 1.70265,9.79019 h -32.86099 c -0.51079,-2.89449 -2.21343,-6.555171 -6.21464,-6.555171 H 182.5312 c -0.25539,0 -0.85132,-0.255397 -1.36211,-1.021585 -1.10672,-1.61751 -1.10672,-4.171472 -0.0851,-6.810566 0.2554,-0.766188 0,-1.617509 -0.68106,-2.128302 0,0 -0.68105,-0.595924 -0.68105,-1.617509 v -2.639094 c 0,-0.681057 -0.5108,-1.362114 -1.19185,-1.61751 -0.0851,-0.595925 0.34053,-2.128302 0.93645,-3.320151 0.34053,-0.595925 0.2554,-1.362114 -0.17026,-1.872906 -0.42566,-0.595925 -1.10672,-0.851321 -1.78778,-0.681057 0,0 -1.44724,0.255397 -2.97962,0.255397 -1.95804,0 -2.46883,-0.425661 -2.46883,-0.425661 0,-3.575548 4.08634,-9.960453 5.70385,-12.173887 0.25539,-0.340529 0.34053,-0.766189 0.34053,-1.191849 -0.0851,-0.510793 -0.17027,-1.106717 -0.5108,-2.128302 -0.0851,-0.510793 -0.34052,-1.447246 -0.34052,-1.702642 0,-17.792604 14.47245,-32.265056 32.43532,-32.265056 17.87773,0 32.43532,14.472452 32.43532,32.265056 0,7.832151 -2.89449,15.408906 -8.17268,21.283019 -0.17027,0.255396 -0.34053,0.595925 -0.42566,0.851322 z m -19.32499,0.08513 h -8.85373 c -0.93645,0 -1.78777,0.766188 -1.78777,1.787774 0,1.021585 0.85132,1.787774 1.78777,1.787774 h 8.85373 c 1.02159,0 1.87291,-0.766189 1.87291,-1.787774 0,-1.021586 -0.85132,-1.787774 -1.87291,-1.787774 z m -2.72422,-46.652376 c 0,0 -0.17027,0 -0.2554,0 h -2.89449 c 0,0 -0.17026,0 -0.17026,0 -5.44846,0.340529 -15.74944,4.341735 -15.74944,17.196678 0,7.832152 2.89449,11.152303 5.27819,13.791397 1.95804,2.128303 3.14989,3.490416 3.14989,8.002415 l 0.0851,3.745812 c 0,1.021585 0.76619,1.787774 1.78777,1.787774 h 14.21706 c 1.02158,0 1.78777,-0.766189 1.78777,-1.787774 v -3.745812 c 0,-4.512 1.27698,-5.874113 3.23502,-8.002415 2.29857,-2.639094 5.27819,-5.959245 5.27819,-13.791397 0,-12.854943 -10.30098,-16.85615 -15.74943,-17.196678 z m -6.8957,40.863396 -0.0851,-0.936453 h 10.55638 v 0.936453 z M 219.138,39.926943 c -1.70265,1.958038 -3.40529,3.916076 -3.91608,7.747019 h -10.89691 c -0.51079,-3.830944 -2.1283,-5.788981 -3.91607,-7.747019 -2.1283,-2.383698 -4.34174,-4.852529 -4.34174,-11.322567 0,-10.130716 8.00242,-13.280603 12.25902,-13.535999 h 2.97962 c 4.25661,0.255396 12.25902,3.405283 12.25902,13.535999 0,6.470038 -2.21343,8.938869 -4.42686,11.322567 z"
     id="path5722" /><path
     inkscape:connector-curvature="0"
     style="fill:#000000;stroke:none;stroke-width:0.02656603"
     d="m 82.084104,110.18868 c -7.332226,0 -13.256452,5.92423 -13.256452,13.28302 0,7.33222 5.924226,13.28301 13.256452,13.28301 7.35879,0 13.309581,-5.95079 13.309581,-13.28301 0,-7.35879 -5.950791,-13.28302 -13.309581,-13.28302 z m 0,1.43457 c 3.559846,0 6.721213,1.56739 8.899621,4.03803 -0.929802,0.13283 -1.912745,0.82355 -1.912745,2.15185 0,1.72679 1.514252,3.13479 1.408,4.80846 -0.185974,2.5769 -2.204988,6.40241 -2.204988,6.40241 0,0 -2.5769,-6.50868 -3.134788,-8.02294 -0.58445,-1.4877 0.557888,-1.46114 0.82355,-1.46114 0.292225,0 0.743844,0 0.743844,0 v -0.74384 h -8.208902 v 0.58445 c 0.345352,0 1.514253,0.29222 1.912746,1.11577 0.425056,0.85011 1.248606,3.50672 1.248606,3.50672 l -2.523775,5.4726 c 0,0 -3.055084,-7.14626 -3.48014,-8.34173 -0.425056,-1.19548 0.345351,-1.62053 0.770408,-1.62053 0.425056,0 0.611013,0 0.611013,0 v -0.92981 h -5.71169 c 1.85962,-4.09117 5.977353,-6.9603 10.75924,-6.9603 z M 70.262216,123.4717 c 0,-1.16891 0.159377,-2.28468 0.478198,-3.34732 l 5.685127,13.73464 C 72.759428,131.84 70.262216,127.93479 70.262216,123.4717 Z m 8.448,11.31713 3.63955,-9.05902 3.294184,9.03245 c -1.115775,0.34536 -2.31124,0.53132 -3.559846,0.53132 -1.1689,0 -2.311238,-0.15939 -3.373888,-0.50475 z m 9.563776,-1.24861 5.12724,-13.65494 c 0.345367,1.14234 0.531324,2.33781 0.531324,3.58642 0,4.25056 -2.258113,7.99637 -5.658564,10.06852 z"
     id="path6300" /><path
     inkscape:connector-curvature="0"
     style="fill:#000000;stroke:none;stroke-width:0.02656603"
     d="m 45.555806,130.71699 c -7.332226,0 -13.256452,5.92422 -13.256452,13.28301 0,7.33223 5.924226,13.28301 13.256452,13.28301 7.35879,0 13.309581,-5.95078 13.309581,-13.28301 0,-7.35879 -5.950791,-13.28301 -13.309581,-13.28301 z m 0,1.43456 c 3.559846,0 6.721213,1.5674 8.899621,4.03804 -0.929802,0.13283 -1.912745,0.82354 -1.912745,2.15185 0,1.72679 1.514252,3.13479 1.408,4.80845 -0.185974,2.57691 -2.204988,6.40241 -2.204988,6.40241 0,0 -2.5769,-6.50868 -3.134788,-8.02294 -0.58445,-1.4877 0.557888,-1.46113 0.82355,-1.46113 0.292225,0 0.743844,0 0.743844,0 v -0.74385 h -8.208902 v 0.58445 c 0.345352,0 1.514253,0.29223 1.912746,1.11578 0.425056,0.85011 1.248606,3.50671 1.248606,3.50671 l -2.523775,5.4726 c 0,0 -3.055084,-7.14626 -3.48014,-8.34173 -0.425056,-1.19547 0.345351,-1.62053 0.770408,-1.62053 0.425056,0 0.611013,0 0.611013,0 v -0.92981 h -5.71169 c 1.85962,-4.09116 5.977353,-6.9603 10.75924,-6.9603 z M 33.733918,144 c 0,-1.1689 0.159377,-2.28468 0.478198,-3.34732 l 5.685127,13.73464 C 36.23113,152.3683 33.733918,148.4631 33.733918,144 Z m 8.448,11.31713 3.63955,-9.05902 3.294184,9.03245 c -1.115775,0.34536 -2.31124,0.53133 -3.559846,0.53133 -1.1689,0 -2.311238,-0.1594 -3.373888,-0.50476 z m 9.563776,-1.2486 5.12724,-13.65494 c 0.345367,1.14234 0.531324,2.33781 0.531324,3.58641 0,4.25057 -2.258113,7.99638 -5.658564,10.06853 z"
     id="path6300-9" /></svg>