<svg width="128" height="128" viewBox="0 0 124 124" xmlns="http://www.w3.org/2000/svg"><defs><clipPath id="a"><path d="M0 357.165h357.165V0H0z"/></clipPath></defs><path d="M62.004 0C27.762 0 .003 27.758.003 62.001s27.758 62.001 62.001 62.001 62.001-27.758 62.001-62S96.247 0 62.004 0m0 1.764c16.09 0 31.216 6.266 42.595 17.643C115.976 30.784 122.242 45.91 122.242 62s-6.266 31.217-17.643 42.595C93.22 115.973 78.095 122.24 62.004 122.24s-31.216-6.266-42.595-17.643S1.766 78.092 1.766 62.001 8.032 30.785 19.41 19.407 45.913 1.764 62.004 1.764" fill="#878789"/><path d="M25.935 25.906H69.03v4.475H25.935zm48.041 0h3.533v4.475h-3.533zm8.4 0h3.533v4.475h-3.533zm-58.092 7.772h63.271v27.004h1.649V22.688H22.712V89.18h8.635v-1.648h-7.065z" fill="#878789"/><g clip-path="url(#a)" transform="matrix(.35278 0 0 -.35278 -.242 125.697)"><path d="M107.55 122.96c0-5.785 4.673-10.458 10.235-10.458a10.446 10.446 0 0 1 10.459 10.458c0 5.563-4.673 10.236-10.459 10.236-5.562 0-10.235-4.673-10.235-10.236" fill="#878789"/><path d="M283.12 92.256c0-10.236-8.456-18.692-18.692-18.692h-1.335v98.578h1.335c10.236 0 18.692-8.456 18.692-18.692zm-86.5-5.828c-20.182 0-36.548 16.244-36.548 36.425s16.366 36.424 36.548 36.424 36.425-16.243 36.425-36.424-16.243-36.425-36.425-36.425m-62.368-12.864h-14.241c-10.237 0-18.693 8.456-18.693 18.692v61.194c0 10.236 8.456 18.692 18.693 18.692h14.241zm130.18 103.25h-144.42c-12.907 0-23.366-10.459-23.366-23.365V92.255c0-12.906 10.459-23.143 23.366-23.143h144.42c12.906 0 23.365 10.237 23.365 23.143v61.194c-.223 12.906-10.459 23.365-23.365 23.365" fill="#878789"/><path d="M214.74 101.9c-3.002 0-5.63-1.251-8.132-2.377-2.377-1.251-4.754-2.252-7.132-2.127-5.755.375-19.141 5.254-23.02 7.131 5.63 2.252 24.772 9.634 28.525 11.135 1.127.376 2.127.501 2.503.251.375-.251.5-.876.5-1.752v-7.132h4.755v28.526h-4.254v-1.126c0-.75-.751-4.003-2.878-5.13-2.252-1-12.011-4.378-13.888-4.879l-19.267 9.008c6.006 2.503 29.026 12.136 32.029 13.137.876.251 2.127.501 2.878 0 .5-.375.75-1.001.75-1.376v-4.254h4.63v12.511c-2.878 1.502-6.131 2.628-9.384 3.253v-1.751l-37.033-15.639a40.75 40.75 0 0 1-3.003-8.008l22.771-9.133-22.646-8.257a36.3 36.3 0 0 1 5.13-10.885l36.157-13.512a34.286 34.286 0 0 1 16.39 9.133c-1.251 1.877-3.378 3.253-6.381 3.253M126.62 182.82l-10.774 25.513h-2.403c.859 4.462 2.403 8.924 4.462 12.872h17.163v-6.351h-5.835c-.515 0-1.373-.343-1.888-1.03-.687-1.029-.343-2.745 0-3.947.847-2.542 6.204-15.539 10.988-27.057h14.925l4.465 9.551c-.687 2.574-5.321 15.962-6.694 19.051-1.544 2.918-6.007 3.947-7.036 3.947h-1.545v5.836h39.131v-6.522h-9.782c-1.202 0-2.06-.172-2.404-.687-.342-.515-.171-1.888.344-3.432 1.419-3.549 6.668-17.12 10.807-27.744h8.962c2.504 7.143 4.983 15.509 5.289 20.192.171 3.261-1.202 6.522-2.918 9.783-1.545 3.432-3.261 7.037-3.261 11.156s1.888 7.036 4.462 8.753a47.041 47.041 0 0 0 12.529-22.484l-10.239-27.4h12.517a51.19 51.19 0 0 1 2.7 16.416c0 28.147-22.655 50.802-50.803 50.802-28.146 0-50.802-22.655-50.802-50.802 0-6.253 1.124-12.24 3.172-17.776a23.31 23.31 0 0 0 7.865 1.36z" fill="#878789"/><path d="M160.07 182.82h1.399l-.666 1.828z" fill="#878789"/></g></svg>