<svg width="128" height="128" viewBox="0 0 124 124" xmlns="http://www.w3.org/2000/svg"><defs><clipPath id="a"><path d="M0 357.165h357.165V0H0z"/></clipPath></defs><path d="M62.004 0C27.762 0 .003 27.758.003 62.001s27.758 62.001 62.001 62.001 62.001-27.758 62.001-62S96.247 0 62.004 0m0 1.764c16.09 0 31.216 6.266 42.595 17.643C115.976 30.784 122.242 45.91 122.242 62s-6.266 31.217-17.643 42.595C93.22 115.973 78.095 122.24 62.004 122.24s-31.216-6.266-42.595-17.643S1.766 78.092 1.766 62.001 8.032 30.785 19.41 19.407 45.913 1.764 62.004 1.764" fill="#878789"/><g clip-path="url(#a)" transform="matrix(.35278 0 0 -.35278 -1 125)"><path d="M125.93 113.07h105.13v97.51H125.93zm29.287 72.117c4.74 4.571 11.004 7.11 17.606 7.11s12.696-2.539 17.437-7.11c8.802-8.803 9.48-22.685 2.201-32.334l15.574-15.406-5.079-5.078-15.405 15.575c-4.232-3.217-9.48-5.08-14.728-5.08-6.602 0-12.866 2.709-17.606 7.28-9.65 9.65-9.65 25.393 0 35.043m17.606-35.212c4.57 0 8.972 1.862 12.358 5.248 6.941 6.771 6.941 17.945 0 24.885-3.386 3.386-7.788 5.248-12.358 5.248-4.74 0-9.141-1.862-12.527-5.248-6.942-6.94-6.942-18.114 0-24.885 3.386-3.386 7.787-5.248 12.527-5.248m68.732 113.25H93.935V93.935h169.29v169.29zm3.554-6.941h11.004V242.91h-11.004zm-21.5 0h10.835V242.91h-10.835zm-122.73 0h112.07V242.91h-112.07zm158.79-158.79H97.319v138.31h162.35z" fill="#878789"/></g></svg>