<?xml version="1.0" encoding="UTF-8"?>
<svg width="128px" height="128px" version="1.1" viewBox="0 0 124 124" xmlns="http://www.w3.org/2000/svg">
 <defs>
  <clipPath id="clipPath10198">
   <path d="M 0,357.165 H 357.165 V 0 H 0 Z"/>
  </clipPath>
 </defs>
 <g transform="translate(-69.536 -106.49)">
  <g transform="matrix(.35278 0 0 -.35278 131.54 106.49)" fill="#fff">
   <path d="m0 0c-97.063 0-175.75-78.685-175.75-175.75s78.685-175.75 175.75-175.75 175.75 78.685 175.75 175.75-78.685 175.75-175.75 175.75m0-5c45.608 0 88.486-17.761 120.74-50.011 32.25-32.25 50.011-75.129 50.011-120.74s-17.761-88.487-50.011-120.74c-32.251-32.25-75.129-50.011-120.74-50.011s-88.487 17.761-120.74 50.011-50.011 75.129-50.011 120.74 17.761 88.487 50.011 120.74 75.129 50.011 120.74 50.011" fill="#fff"/>
  </g>
  <g transform="matrix(.35278 0 0 -.35278 68.536 231.49)">
   <g clip-path="url(#clipPath10198)">
    <path d="m125.93 113.07h105.13v97.51h-105.13zm29.287 72.117c4.74 4.571 11.004 7.11 17.606 7.11s12.696-2.539 17.437-7.11c8.802-8.803 9.48-22.685 2.201-32.334l15.574-15.406-5.079-5.078-15.405 15.575c-4.232-3.217-9.48-5.08-14.728-5.08-6.602 0-12.866 2.709-17.606 7.28-9.65 9.65-9.65 25.393 0 35.043m17.606-35.212c4.57 0 8.972 1.862 12.358 5.248 6.941 6.771 6.941 17.945 0 24.885-3.386 3.386-7.788 5.248-12.358 5.248-4.74 0-9.141-1.862-12.527-5.248-6.942-6.94-6.942-18.114 0-24.885 3.386-3.386 7.787-5.248 12.527-5.248m68.732 113.25h-147.62v-169.29h169.29v169.29zm3.554-6.941h11.004v-13.374h-11.004zm-21.5 0h10.835v-13.374h-10.835zm-122.73 0h112.07v-13.374h-112.07zm158.79-158.79h-162.35v138.31h162.35z" fill="#fff"/>
   </g>
  </g>
 </g>
</svg>
