<svg width="128" height="128" viewBox="0 0 124 124" xmlns="http://www.w3.org/2000/svg"><defs><clipPath id="a"><ellipse transform="scale(1 -1)" cx="177.37" cy="-183.56" rx="175.39" ry="175.82" fill="olive"/></clipPath><clipPath id="b"><path d="M0 357.165h357.165V0H0z"/></clipPath></defs><path d="M62.004 0C27.762 0 .003 27.758.003 62.001s27.758 62.001 62.001 62.001 62.001-27.758 62.001-62S96.247 0 62.004 0m0 1.764c16.09 0 31.216 6.266 42.595 17.643C115.976 30.784 122.242 45.91 122.242 62s-6.266 31.217-17.643 42.595C93.22 115.973 78.095 122.24 62.004 122.24s-31.216-6.266-42.595-17.643S1.766 78.092 1.766 62.001 8.032 30.785 19.41 19.407 45.913 1.764 62.004 1.764" fill="#878789"/><g transform="matrix(.35278 0 0 -.35278 -.573 126.73)" clip-path="url(#a)"><g clip-path="url(#b)" fill="#878789"><path d="M-103.06 123.88H140.1V50.601h-243.16zm246.08-5.838h1.689c4.302 0 13.059 7.067 16.284 16.438 3.227 9.525 9.218 15.977 22.583 24.58 11.829 7.681 26.885 25.655 29.035 38.253 0 .614.769 1.075 1.383 1.075.308 0 6.76-.154 10.908-4.916 2.765-2.919 3.84-7.067 3.379-11.983-.768-10.6-7.681-19.049-12.597-25.348-2.458-2.919-4.455-5.531-5.223-7.374-1.383-3.533-1.229-7.221.307-9.525 1.383-1.997 3.994-3.072 7.528-3.072 5.223 0 10.139.307 14.901.614 4.455.307 8.603.615 12.751.615 9.218 0 14.287-4.763 14.287-13.519 0-5.531-3.687-8.757-6.913-10.447 1.844-1.69 4.148-5.07 4.148-10.754 0-6.299-3.072-9.678-5.223-11.215 1.075-1.382 1.843-4.147 1.229-9.063-.768-6.453-4.609-9.372-7.528-10.447.615-2.765.461-8.296-7.681-13.98-6.145-4.455-12.444-5.069-17.052-5.069-2.458 0-5.07.307-7.528.461-2.304.153-4.916.306-7.22.306-5.224 0-10.754.308-16.131.769-5.377.308-11.061.614-16.438.614-5.992 0-19.971.308-30.878.615zm73.893 58.992s3.687 4.302 4.763 8.296c1.228 5.223-4.302 7.681-7.067 8.449-1.076-3.687-2.919-7.681-5.223-11.675 4.455-1.076 7.527-5.07 7.527-5.07M460.23 243.11H217.07v73.279h243.16zm-246.08 5.837h-1.69c-4.301 0-13.058-7.066-16.284-16.438-3.226-9.524-9.217-15.977-22.583-24.58-11.829-7.681-26.884-25.655-29.035-38.252 0-.615-.768-1.076-1.382-1.076-.308 0-6.76.154-10.909 4.916-2.764 2.919-3.839 7.067-3.379 11.983.768 10.6 7.681 19.049 12.597 25.348 2.458 2.919 4.455 5.531 5.224 7.374 1.383 3.534 1.228 7.221-.308 9.525-1.383 1.997-3.994 3.072-7.527 3.072-5.224 0-10.14-.307-14.902-.614-4.455-.307-8.603-.615-12.75-.615-9.218 0-14.289 4.763-14.289 13.52 0 5.53 3.688 8.756 6.915 10.446-1.844 1.69-4.149 5.07-4.149 10.754 0 6.299 3.072 9.678 5.224 11.215-1.075 1.382-1.844 4.147-1.23 9.063.769 6.453 4.61 9.372 7.529 10.447-.616 2.765-.461 8.296 7.68 13.98 6.146 4.455 12.444 5.07 17.053 5.07 2.458 0 5.069-.308 7.527-.461 2.305-.154 4.916-.307 7.221-.307 5.223 0 10.754-.308 16.131-.769 5.377-.307 11.06-.614 16.437-.614 5.992 0 19.972-.307 30.879-.615zm-73.893-58.992s-3.688-4.301-4.763-8.296c-1.229-5.223 4.302-7.681 7.066-8.449 1.076 3.687 2.919 7.681 5.224 11.675-4.455 1.076-7.527 5.07-7.527 5.07"/></g></g></svg>