<?xml version="1.0" encoding="UTF-8"?>
<svg width="128px" height="128px" version="1.1" viewBox="0 0 124 124" xmlns="http://www.w3.org/2000/svg">
 <defs>
  <clipPath id="clipPath12415">
   <ellipse transform="scale(1,-1)" cx="177.37" cy="-183.56" rx="175.39" ry="175.82" fill="#808000"/>
  </clipPath>
  <clipPath id="clipPath10052">
   <path d="M 0,357.165 H 357.165 V 0 H 0 Z"/>
  </clipPath>
 </defs>
 <g transform="translate(-69.536 -106.49)">
  <g transform="matrix(.35278 0 0 -.35278 131.54 106.49)" fill="#878789">
   <path d="m0 0c-97.063 0-175.75-78.685-175.75-175.75s78.685-175.75 175.75-175.75 175.75 78.685 175.75 175.75-78.685 175.75-175.75 175.75m0-5c45.608 0 88.486-17.761 120.74-50.011 32.25-32.25 50.011-75.129 50.011-120.74s-17.761-88.487-50.011-120.74c-32.251-32.25-75.129-50.011-120.74-50.011s-88.487 17.761-120.74 50.011-50.011 75.129-50.011 120.74 17.761 88.487 50.011 120.74 75.129 50.011 120.74 50.011" fill="#878789"/>
  </g>
  <g transform="matrix(.35278 0 0 -.35278 68.963 233.22)" clip-path="url(#clipPath12415)">
   <g clip-path="url(#clipPath10052)" fill="#878789">
    <path d="m-103.06 123.88h243.16v-73.279h-243.16zm246.08-5.838h1.689c4.302 0 13.059 7.067 16.284 16.438 3.227 9.525 9.218 15.977 22.583 24.58 11.829 7.681 26.885 25.655 29.035 38.253 0 0.614 0.769 1.075 1.383 1.075 0.308 0 6.76-0.154 10.908-4.916 2.765-2.919 3.84-7.067 3.379-11.983-0.768-10.6-7.681-19.049-12.597-25.348-2.458-2.919-4.455-5.531-5.223-7.374-1.383-3.533-1.229-7.221 0.307-9.525 1.383-1.997 3.994-3.072 7.528-3.072 5.223 0 10.139 0.307 14.901 0.614 4.455 0.307 8.603 0.615 12.751 0.615 9.218 0 14.287-4.763 14.287-13.519 0-5.531-3.687-8.757-6.913-10.447 1.844-1.69 4.148-5.07 4.148-10.754 0-6.299-3.072-9.678-5.223-11.215 1.075-1.382 1.843-4.147 1.229-9.063-0.768-6.453-4.609-9.372-7.528-10.447 0.615-2.765 0.461-8.296-7.681-13.98-6.145-4.455-12.444-5.069-17.052-5.069-2.458 0-5.07 0.307-7.528 0.461-2.304 0.153-4.916 0.306-7.22 0.306-5.224 0-10.754 0.308-16.131 0.769-5.377 0.308-11.061 0.614-16.438 0.614-5.992 0-19.971 0.308-30.878 0.615zm73.893 58.992s3.687 4.302 4.763 8.296c1.228 5.223-4.302 7.681-7.067 8.449-1.076-3.687-2.919-7.681-5.223-11.675 4.455-1.076 7.527-5.07 7.527-5.07"/>
    <path d="m460.23 243.11h-243.16v73.279h243.16zm-246.08 5.837h-1.69c-4.301 0-13.058-7.066-16.284-16.438-3.226-9.524-9.217-15.977-22.583-24.58-11.829-7.681-26.884-25.655-29.035-38.252 0-0.615-0.768-1.076-1.382-1.076-0.308 0-6.76 0.154-10.909 4.916-2.764 2.919-3.839 7.067-3.379 11.983 0.768 10.6 7.681 19.049 12.597 25.348 2.458 2.919 4.455 5.531 5.224 7.374 1.383 3.534 1.228 7.221-0.308 9.525-1.383 1.997-3.994 3.072-7.527 3.072-5.224 0-10.14-0.307-14.902-0.614-4.455-0.307-8.603-0.615-12.75-0.615-9.218 0-14.289 4.763-14.289 13.52 0 5.53 3.688 8.756 6.915 10.446-1.844 1.69-4.149 5.07-4.149 10.754 0 6.299 3.072 9.678 5.224 11.215-1.075 1.382-1.844 4.147-1.23 9.063 0.769 6.453 4.61 9.372 7.529 10.447-0.616 2.765-0.461 8.296 7.68 13.98 6.146 4.455 12.444 5.07 17.053 5.07 2.458 0 5.069-0.308 7.527-0.461 2.305-0.154 4.916-0.307 7.221-0.307 5.223 0 10.754-0.308 16.131-0.769 5.377-0.307 11.06-0.614 16.437-0.614 5.992 0 19.972-0.307 30.879-0.615zm-73.893-58.992s-3.688-4.301-4.763-8.296c-1.229-5.223 4.302-7.681 7.066-8.449 1.076 3.687 2.919 7.681 5.224 11.675-4.455 1.076-7.527 5.07-7.527 5.07"/>
   </g>
  </g>
 </g>
</svg>
