<svg width="72" height="72" viewBox="0 0 124 124" xmlns="http://www.w3.org/2000/svg"><g fill="#fff"><path d="M86.239 73.73c-.079-.157-.157-.236-.236-.394h-.079L42.09 29.422c-.472-.472-1.338-.472-1.81 0l-9.68 9.76c-.236.235-.393.55-.393.865s.157.708.393.944L42.797 53.19v5.43c-.944.315-1.81.709-2.676 1.181l-6.138-6.139-7.713 7.713 6.139 6.138c-.472.866-.866 1.732-1.102 2.676H22.65v10.94h8.657c.315.865.63 1.81 1.102 2.675l-6.139 6.139 7.713 7.712 6.138-6.138c.866.472 1.732.787 2.676 1.101v8.736h10.94v-8.736c.943-.314 1.81-.63 2.675-1.101l6.138 6.138 7.713-7.712-6.139-6.139c.473-.866.787-1.81 1.102-2.676h5.51l3.698 3.7s0 .078.079.078c.078.079.236.157.315.236l17.786 8.106h.078c.158.079.315.157.472.157h.08c.707 0 1.258-.63 1.258-1.338a1.27 1.27 0 0 0-.236-.708zm-2.99.55l-3.07 2.991-35.65-35.65 3.068-3.07zM33.273 40.048l7.949-7.87 4.565 4.565-7.95 7.948zM63.337 78.53l-.236.944c-.393 1.417-.944 2.676-1.652 3.935l-.473.787 5.667 5.745-4.093 4.093-5.745-5.667-.787.473c-1.259.708-2.518 1.259-3.856 1.574l-.944.314v8.028h-5.903v-8.028l-.944-.314c-1.338-.315-2.597-.866-3.856-1.574l-.866-.473-5.666 5.667-4.093-4.093 5.666-5.745-.472-.787c-.708-1.259-1.259-2.518-1.652-3.935l-.237-.944h-8.027v-5.824h8.027l.237-.944c.393-1.338.944-2.676 1.652-3.857l.472-.865-5.666-5.666 4.093-4.172 5.666 5.745.866-.472c1.259-.708 2.518-1.259 3.856-1.652l.944-.237v-4.879l22.823 22.823zm10.94 2.597l-7.87-7.949-26.759-26.758 3.07-3.069 35.65 35.73-2.99 3.068zm12.12 6.453l-8.894-4.013 7.162-7.162 4.014 8.893zm2.44 1.18l1.022-1.022.787 1.81zM39.176 75.62c0 5.037 4.093 9.129 9.05 9.129 5.037 0 9.13-4.093 9.13-9.13 0-4.957-4.093-9.05-9.13-9.05-4.957 0-9.05 4.093-9.05 9.05zm9.05-6.532c3.62 0 6.611 2.912 6.611 6.532s-2.99 6.532-6.61 6.532c-3.542 0-6.532-2.912-6.532-6.532s2.99-6.532 6.532-6.532zm53.123-24.633v-8.185h-5.982c-.157-.472-.393-.944-.55-1.338l4.17-4.25-5.744-5.745-4.25 4.171c-.394-.157-.866-.393-1.338-.55v-5.903H79.47v5.902c-.393.158-.865.394-1.259.551l-4.25-4.17-5.745 5.744 4.171 4.25c-.157.394-.393.866-.55 1.338h-5.982v8.185h5.981c.158.393.394.865.551 1.338l-4.17 4.17 5.744 5.824 4.25-4.25c.394.237.866.394 1.26.551v5.982h8.184v-5.982c.472-.157.944-.314 1.338-.55l4.25 4.25 5.745-5.824-4.171-4.171c.157-.473.393-.945.55-1.338zm-5.903 5.509l-2.203 2.203-3.778-3.777-.866.472c-.787.472-1.652.866-2.518 1.023l-.945.315v5.351h-3.069V50.2l-.944-.315c-.945-.157-1.732-.55-2.519-1.023l-.865-.472-3.778 3.777-2.204-2.203 3.778-3.778-.472-.866a9.448 9.448 0 0 1-1.023-2.44l-.236-1.022h-5.352v-3.07h5.352l.236-.944c.236-.866.55-1.731 1.023-2.518l.472-.866-3.778-3.778 2.204-2.203 3.778 3.777.865-.472c.787-.472 1.574-.787 2.519-1.023l.944-.236v-5.352h3.07v5.352l.944.236c.866.236 1.731.55 2.518 1.023l.866.472 3.778-3.777 2.203 2.203-3.777 3.778.472.866c.472.787.787 1.652 1.023 2.518l.236.944h5.351v3.07h-5.351l-.236 1.023a9.447 9.447 0 0 1-1.023 2.44l-.472.865zM83.563 33.83c-3.541 0-6.532 2.912-6.532 6.532s2.99 6.532 6.532 6.532c3.62 0 6.532-2.912 6.532-6.532s-2.912-6.532-6.532-6.532zm0 10.467c-2.203 0-3.935-1.732-3.935-3.935s1.732-4.014 3.935-4.014c2.204 0 4.014 1.81 4.014 4.014s-1.81 3.935-4.014 3.935z"/><path d="M62 0C27.758 0-.001 27.758-.001 62.001S27.757 124.002 62 124.002s62.001-27.758 62.001-62S96.243 0 62 0m0 1.764c16.09 0 31.216 6.266 42.595 17.643C115.972 30.784 122.238 45.91 122.238 62s-6.266 31.217-17.643 42.595C93.217 115.973 78.09 122.24 62 122.24s-31.216-6.266-42.595-17.643S1.762 78.092 1.762 62.001s6.266-31.216 17.643-42.594S45.91 1.764 62 1.764"/></g></svg>