<?xml version="1.0" encoding="UTF-8"?>
<svg width="72px" height="72px" version="1.1" viewBox="0 0 124 124" xmlns="http://www.w3.org/2000/svg">
 <g transform="translate(0 -173)" fill="#ffffff">
  <path d="m86.239 246.73c-0.0787-0.1574-0.1574-0.2361-0.2361-0.3935h-0.0787l-43.835-43.914c-0.47219-0.4722-1.3379-0.4722-1.8101 0l-9.68 9.7587c-0.2361 0.2361-0.3935 0.55089-0.3935 0.86569s0.1574 0.70829 0.3935 0.94439l12.198 12.198v5.4302c-0.94439 0.3148-1.8101 0.70829-2.6758 1.1805l-6.1385-6.1385-7.7125 7.7125 6.1385 6.1385c-0.47219 0.86569-0.86569 1.7314-1.1018 2.6758h-8.6569v10.939h8.6569c0.3148 0.8657 0.62959 1.8101 1.1018 2.6758l-6.1385 6.1385 7.7125 7.7125 6.1385-6.1385c0.86569 0.4722 1.7314 0.78699 2.6758 1.1018v8.7356h10.939v-8.7356c0.94439-0.3148 1.8101-0.62959 2.6758-1.1018l6.1385 6.1385 7.7125-7.7125-6.1385-6.1385c0.47219-0.86569 0.78699-1.8101 1.1018-2.6758h5.5089l3.6989 3.6989s0 0.0787 0.0787 0.0787c0.0787 0.0787 0.2361 0.1574 0.3148 0.2361l17.786 8.106h0.0787c0.1574 0.0787 0.3148 0.1574 0.4722 0.1574h0.0787c0.70829 0 1.2592-0.62959 1.2592-1.3379 0-0.2361-0.0787-0.4722-0.2361-0.7083zm-2.9906 0.55089-3.0693 2.9906-35.651-35.651 3.0693-3.0693zm-49.974-34.234 7.9486-7.8699 4.5645 4.5646-7.9486 7.9486zm30.063 38.484-0.2361 0.94439c-0.39349 1.4166-0.94439 2.6758-1.6527 3.935l-0.4722 0.78699 5.6663 5.745-4.0924 4.0924-5.745-5.6663-0.78699 0.47219c-1.2592 0.70829-2.5184 1.2592-3.8563 1.574l-0.94439 0.3148v8.0273h-5.9024v-8.0273l-0.94439-0.3148c-1.3379-0.31479-2.5971-0.86569-3.8563-1.574l-0.86569-0.47219-5.6663 5.6663-4.0924-4.0924 5.6663-5.745-0.4722-0.78699c-0.70829-1.2592-1.2592-2.5184-1.6527-3.935l-0.2361-0.94439h-8.0273v-5.8237h8.0273l0.2361-0.94439c0.39349-1.3379 0.94439-2.6758 1.6527-3.8563l0.4722-0.86569-5.6663-5.6663 4.0924-4.1711 5.6663 5.745 0.86569-0.47219c1.2592-0.70829 2.5184-1.2592 3.8563-1.6527l0.94439-0.2361v-4.8794l22.823 22.823zm10.939 2.5971-7.8699-7.9486-26.758-26.758 3.0693-3.0693 35.651 35.729-2.9906 3.0693zm12.12 6.4533-8.893-4.0137 7.1616-7.1616 4.0137 8.893zm2.4397 1.1805 1.0231-1.0231 0.78699 1.8101zm-49.659-13.143c0 5.0368 4.0924 9.1291 9.0504 9.1291 5.0367 0 9.1291-4.0924 9.1291-9.1291 0-4.958-4.0924-9.0504-9.1291-9.0504-4.958 0-9.0504 4.0924-9.0504 9.0504zm9.0504-6.532c3.6202 0 6.6107 2.9119 6.6107 6.532 0 3.6202-2.9906 6.532-6.6107 6.532-3.5415 0-6.532-2.9119-6.532-6.532 0-3.6202 2.9906-6.532 6.532-6.532zm53.122-24.633v-8.1847h-5.9811c-0.1574-0.47219-0.39349-0.94439-0.55089-1.3379l4.1711-4.2498-5.745-5.745-4.2498 4.171c-0.3935-0.1574-0.86569-0.3935-1.3379-0.55089v-5.9024h-8.1847v5.9024c-0.3935 0.15739-0.86569 0.39349-1.2592 0.55089l-4.2498-4.171-5.745 5.745 4.1711 4.2498c-0.1574 0.39349-0.3935 0.86569-0.55089 1.3379h-5.9811v8.1847h5.9811c0.1574 0.3935 0.3935 0.86569 0.55089 1.3379l-4.1711 4.171 5.745 5.8237 4.2498-4.2498c0.39349 0.23609 0.86569 0.39349 1.2592 0.55089v5.9811h8.1847v-5.9811c0.47219-0.1574 0.94439-0.3148 1.3379-0.55089l4.2498 4.2498 5.745-5.8237-4.1711-4.171c0.1574-0.4722 0.3935-0.94439 0.55089-1.3379zm-5.9024 5.5089-2.2036 2.2036-3.7776-3.7776-0.86569 0.4722c-0.78699 0.47219-1.6527 0.86569-2.5184 1.0231l-0.94439 0.31479v5.3515h-3.0693v-5.3515l-0.94439-0.31479c-0.94439-0.1574-1.7314-0.5509-2.5184-1.0231l-0.86569-0.4722-3.7776 3.7776-2.2036-2.2036 3.7776-3.7776-0.4722-0.86569c-0.47219-0.78699-0.78699-1.574-1.0231-2.4397l-0.2361-1.0231h-5.3515v-3.0693h5.3515l0.2361-0.94439c0.2361-0.86569 0.55089-1.7314 1.0231-2.5184l0.4722-0.86569-3.7776-3.7776 2.2036-2.2036 3.7776 3.7776 0.86569-0.4722c0.78699-0.47219 1.574-0.78699 2.5184-1.0231l0.94439-0.23609v-5.3516h3.0693v5.3516l0.94439 0.23609c0.86569 0.2361 1.7314 0.5509 2.5184 1.0231l0.86569 0.4722 3.7776-3.7776 2.2036 2.2036-3.7776 3.7776 0.47219 0.86569c0.4722 0.787 0.78699 1.6527 1.0231 2.5184l0.2361 0.94439h5.3515v3.0693h-5.3515l-0.2361 1.0231c-0.2361 0.86569-0.55089 1.6527-1.0231 2.4397l-0.47219 0.86569zm-11.884-16.133c-3.5415 0-6.532 2.9119-6.532 6.532s2.9906 6.532 6.532 6.532c3.6202 0 6.532-2.9119 6.532-6.532s-2.9119-6.532-6.532-6.532zm0 10.467c-2.2036 0-3.935-1.7314-3.935-3.935s1.7314-4.0137 3.935-4.0137c2.2036 0 4.0137 1.8101 4.0137 4.0137s-1.8101 3.935-4.0137 3.935z"/>
  <g transform="matrix(.35278 0 0 -.35278 62 173)">
   <path d="m0 0c-97.063 0-175.75-78.685-175.75-175.75s78.685-175.75 175.75-175.75 175.75 78.685 175.75 175.75-78.685 175.75-175.75 175.75m0-5c45.608 0 88.486-17.761 120.74-50.011 32.25-32.25 50.011-75.129 50.011-120.74s-17.761-88.487-50.011-120.74c-32.251-32.25-75.129-50.011-120.74-50.011s-88.487 17.761-120.74 50.011-50.011 75.129-50.011 120.74 17.761 88.487 50.011 120.74 75.129 50.011 120.74 50.011" fill="#ffffff"/>
  </g>
 </g>
</svg>
