<svg xmlns="http://www.w3.org/2000/svg" viewBox="0 0 1300.93 1124.85"><defs><style>.cls-1{fill:#3b67a0;}.cls-2{fill:#f77c10;stroke:#fff;stroke-miterlimit:10;stroke-width:12px;}.cls-3{fill:#8ca4cc;}.cls-4{fill:#d5e2ee;}.cls-5{fill:#fff;}.cls-6{fill:#4c679c;}.cls-7{fill:#f0c62f;}.cls-8{fill:#fcff3c;}.cls-9{fill:#db7b24;}</style></defs><title>Tekengebied 1 kopie</title><g id="Laag_3" data-name="Laag 3"><path class="cls-1" d="M183.27,723.57V949.9H149.12V723.57Z"/><path class="cls-1" d="M229.74,949.9l47.64-243.34,77.7,175.91,80.47-175.91L478.36,949.9h-35L421.48,813.28l-67,147L289.4,813.13,265.07,949.9Z"/><path class="cls-1" d="M659.25,894.93H562.36l-25.22,55H500.35l112-240.55,108,240.55H683Zm-13.93-32.1-33.56-77-35.19,77Z"/><path class="cls-1" d="M1114,894.93h-96.89l-25.22,55H955.07l112-240.55,108,240.55h-37.38Zm-13.92-32.1-33.57-77-35.18,77Z"/><path class="cls-1" d="M958.57,819.85H841v34h83.07a84.57,84.57,0,1,1-13.49-65.18l25.35-23a118.31,118.31,0,1,0-94.48,189.49c59.58,0,108.87-44.41,117.12-101.41a112.47,112.47,0,0,0,1.22-16.92A122.92,122.92,0,0,0,958.57,819.85Z"/><circle class="cls-2" cx="841.45" cy="836.77" r="27.04"/><path class="cls-3" d="M578.52,174l-15.41-40.21q-9,3.47-17.77,7.56l18.18,39Q570.9,176.92,578.52,174Z"/><path class="cls-3" d="M613.67,163.58l-8.94-42.13q-9.48,2-18.73,4.67l11.85,41.4Q605.65,165.29,613.67,163.58Z"/><path class="cls-4" d="M597.85,167.52,586,126.12q-11.64,3.33-22.89,7.64L578.52,174Q588,170.33,597.85,167.52Z"/><path class="cls-3" d="M563.52,180.35l-18.18-39q-11,5.12-21.39,11.15l21.51,37.3Q554.27,184.69,563.52,180.35Z"/><path class="cls-5" d="M545.46,189.77,524,152.47q-8.37,4.84-16.37,10.24l24.06,35.7Q538.39,193.85,545.46,189.77Z"/><path class="cls-6" d="M633.76,160.23l-5.23-42.75c-8,1-16,2.32-23.8,4l8.94,42.13C620.28,162.18,627,161.05,633.76,160.23Z"/><path class="cls-6" d="M670.37,158.7l1.53-43q-12.17-.44-24.13.17l2.23,43Q660.1,158.33,670.37,158.7Z"/><path class="cls-5" d="M706.68,162.85l8.19-42.26c-7.82-1.52-15.94-2.75-23.9-3.59l-4.52,42.82C693.41,160.56,700.07,161.57,706.68,162.85Z"/><path class="cls-5" d="M650,158.84l-2.23-43q-9.69.48-19.24,1.64l5.23,42.75C639.13,159.57,644.55,159.12,650,158.84Z"/><path class="cls-6" d="M686.45,159.82,691,117c-6-.63-12.78-1.11-19.16-1.34l-1.57,43C675.63,158.88,681.48,159.3,686.45,159.82Z"/><path class="cls-4" d="M457.9,278.71l-37.66-20.89q-5.83,10.5-10.77,21.59L448.81,297Q453,287.61,457.9,278.71Z"/><path class="cls-6" d="M448.81,297l-39.34-17.54q-3.9,8.79-7.23,17.9l40.46,14.75Q445.51,304.37,448.81,297Z"/><path class="cls-4" d="M466.31,264.75,430.2,241.28q-5.25,8.07-10,16.54l37.66,20.89Q461.88,271.57,466.31,264.75Z"/><path class="cls-6" d="M442.7,312.06l-40.46-14.75q-4.1,11.28-7.25,23l41.59,11.16Q439.22,321.58,442.7,312.06Z"/><path class="cls-4" d="M488.67,235.72l-32-28.83q-6.45,7.16-12.42,14.77l33.91,26.53Q483.21,241.77,488.67,235.72Z"/><path class="cls-4" d="M503,221.2,473.6,189.69q-8.82,8.22-16.92,17.2l32,28.83Q495.5,228.15,503,221.2Z"/><path class="cls-6" d="M478.17,248.19l-33.91-26.53q-7.44,9.48-14.06,19.62l36.11,23.47Q471.89,256.19,478.17,248.19Z"/><path class="cls-3" d="M515.26,210.51,488.18,177q-7.51,6.06-14.58,12.65L503,221.2Q508.92,215.65,515.26,210.51Z"/><path class="cls-6" d="M531.64,198.41l-24.06-35.7q-10,6.75-19.4,14.33l27.08,33.47Q523.18,204.11,531.64,198.41Z"/><path class="cls-4" d="M873.8,293.46l39-18.18q-5.12-11-11.15-21.4l-37.3,21.51Q869.46,284.21,873.8,293.46Z"/><path class="cls-5" d="M886.63,327.78,928,315.93q-3.35-11.64-7.65-22.89l-40.21,15.42Q883.83,317.94,886.63,327.78Z"/><path class="cls-4" d="M722.66,166.51l11.16-41.59q-9.27-2.48-18.81-4.32l-8.24,42.26Q714.83,164.42,722.66,166.51Z"/><path class="cls-5" d="M880.18,308.46,920.39,293q-3.46-9-7.56-17.76l-39,18.18Q877.24,300.83,880.18,308.46Z"/><path class="cls-5" d="M436.58,331.49,395,320.33q-2.48,9.27-4.32,18.81l42.26,8.24Q434.49,339.33,436.58,331.49Z"/><path class="cls-4" d="M895.31,379.93l43-2.23q-.5-9.69-1.65-19.23l-42.75,5.22Q894.91,371.75,895.31,379.93Z"/><path class="cls-4" d="M895.45,400.3l43,1.53q.43-12.16-.16-24.13l-43,2.23Q895.82,390,895.45,400.3Z"/><path class="cls-6" d="M894.36,416.12l42.82,4.52c.63-6,1.09-12.65,1.32-19l-43-1.64C895.29,405.36,894.88,411.15,894.36,416.12Z"/><path class="cls-5" d="M864.38,275.39l37.3-21.51q-4.84-8.35-10.23-16.36l-35.71,24Q860.3,268.33,864.38,275.39Z"/><path class="cls-3" d="M893.92,363.69l42.75-5.22c-1-8-2.31-16-4-23.8l-42.13,8.93C892,350.21,893.1,356.91,893.92,363.69Z"/><path class="cls-6" d="M890.57,343.6l42.13-8.93q-2-9.48-4.66-18.74l-41.41,11.85Q888.88,335.6,890.57,343.6Z"/><path class="cls-7" d="M757.2,178.74l17.54-39.33q-8.79-3.91-17.9-7.24l-14.75,40.46Q749.79,175.44,757.2,178.74Z"/><path class="cls-6" d="M789.4,196.24l23.47-36.1q-8.07-5.26-16.54-10l-20.89,37.66Q782.58,191.8,789.4,196.24Z"/><path class="cls-6" d="M775.44,187.83l20.89-37.66q-10.5-5.83-21.59-10.76L757.2,178.74Q766.56,182.91,775.44,187.83Z"/><path class="cls-3" d="M855.74,261.57l35.71-24q-6.76-10-14.34-19.41l-33.47,27.08Q850,253.11,855.74,261.57Z"/><path class="cls-6" d="M742.09,172.63l14.75-40.46q-11.28-4.09-23-7.25l-11.16,41.59Q732.58,169.17,742.09,172.63Z"/><path class="cls-6" d="M806,208.11l26.53-33.92q-9.48-7.42-19.62-14.05l-23.47,36.1Q798,201.82,806,208.11Z"/><path class="cls-4" d="M833,232.89l31.51-29.35q-8.22-8.83-17.2-16.92l-28.83,32Q826,225.44,833,232.89Z"/><path class="cls-4" d="M843.64,245.19l33.47-27.08q-6.06-7.5-12.65-14.57L833,232.89Q838.51,238.85,843.64,245.19Z"/><path class="cls-5" d="M818.43,218.6l28.83-32q-7.15-6.47-14.77-12.43L806,208.11Q812.38,213.14,818.43,218.6Z"/><path class="cls-6" d="M891.31,436.48l42.27,8.13c1.52-7.83,2.65-15,3.6-24l-42.82-4.52C893.62,423.08,892.59,429.87,891.31,436.48Z"/><path class="cls-3" d="M760.69,603.73l18.18,39q11-5.12,21.4-11.16l-21.51-37.3Q769.94,599.4,760.69,603.73Z"/><path class="cls-3" d="M745.7,610.11l15.41,40.21q9-3.47,17.76-7.55l-18.18-39C755.78,606,750.78,608.16,745.7,610.11Z"/><path class="cls-3" d="M726.37,616.57,738.22,658q11.64-3.35,22.89-7.65L745.7,610.11Q736.21,613.75,726.37,616.57Z"/><path class="cls-6" d="M792.58,585.67l24,35.71q10-6.75,19.41-14.33L809,573.57Q801,580,792.58,585.67Z"/><path class="cls-7" d="M778.76,594.31l21.51,37.3q8.36-4.83,16.36-10.23l-24-35.71Q785.82,590.23,778.76,594.31Z"/><path class="cls-5" d="M809,573.57,836,607.05q7.5-6.07,14.57-12.66l-29.34-31.51Q815.3,568.45,809,573.57Z"/><path class="cls-3" d="M674.22,625.24l2.23,43q9.69-.5,19.23-1.65l-5.22-42.74Q682.41,624.84,674.22,625.24Z"/><path class="cls-5" d="M710.55,620.5l8.94,42.13q9.48-2,18.73-4.66l-11.85-41.4Q718.56,618.8,710.55,620.5Z"/><path class="cls-3" d="M653.85,625.38l-1.53,43q12.16.45,24.13-.16l-2.23-43Q664.11,625.77,653.85,625.38Z"/><path class="cls-8" d="M690.46,623.86l5.22,42.74c8-1,16-2.31,23.81-4l-8.94-42.13Q700.64,622.6,690.46,623.86Z"/><path class="cls-6" d="M835.55,548.36l32,28.83Q874,570,880,562.42l-33.91-26.53Q841,542.32,835.55,548.36Z"/><path class="cls-6" d="M881.52,472,922,486.77q4.1-11.26,7.25-23l-41.59-11.17Q885,462.51,881.52,472Z"/><path class="cls-3" d="M875.41,487.14l39.33,17.53q3.91-8.79,7.24-17.9L881.52,472Q878.71,479.72,875.41,487.14Z"/><path class="cls-3" d="M891.29,436.71q-1.56,8-3.65,15.88l41.59,11.17q2.47-9.27,4.32-18.82Z"/><path class="cls-4" d="M433,347.15l-42.25-8.34c-1.52,7.83-2.73,15.79-3.57,23.74L430,367.08C430.58,361.11,431.68,353.76,433,347.15Z"/><path class="cls-3" d="M866.32,505.37,904,526.27q5.84-10.51,10.76-21.6l-39.33-17.53Q871.24,496.49,866.32,505.37Z"/><path class="cls-6" d="M637.41,624.22,632.89,667c6,.63,13,1.13,19.34,1.36l1.48-43C648.32,625.17,642.38,624.75,637.41,624.22Z"/><path class="cls-3" d="M846.05,535.89,880,562.42q7.44-9.48,14.06-19.61l-36.11-23.48Q852.33,527.9,846.05,535.89Z"/><path class="cls-6" d="M821.27,562.88l29.34,31.51q8.83-8.22,16.92-17.2l-32-28.83Q828.73,555.93,821.27,562.88Z"/><path class="cls-6" d="M857.91,519.33,894,542.81q5.25-8.09,10-16.54l-37.66-20.9Q862.34,512.51,857.91,519.33Z"/><path class="cls-4" d="M518.26,576,491.73,609.9q9.48,7.43,19.62,14.05l23.47-36.11Q526.26,582.26,518.26,576Z"/><path class="cls-5" d="M437.59,456.3l-41.41,11.85q3.35,11.66,7.65,22.89L444,475.63Q440.4,466.15,437.59,456.3Z"/><path class="cls-4" d="M433.65,440.48l-42.13,8.94q2,9.48,4.66,18.73l41.41-11.85Q435.34,448.5,433.65,440.48Z"/><path class="cls-6" d="M444,475.63,403.83,491q3.46,9,7.56,17.77l39-18.18C448.13,485.71,446,480.71,444,475.63Z"/><path class="cls-6" d="M459.84,508.69l-37.3,21.51q4.84,8.37,10.23,16.37l35.71-24.06Q463.92,515.76,459.84,508.69Z"/><path class="cls-6" d="M450.42,490.63l-39,18.18q5.1,10.95,11.15,21.39l37.3-21.51Q454.76,499.89,450.42,490.63Z"/><path class="cls-5" d="M430.29,420.39l-42.74,5.23c1,8,2.31,16,4,23.8l42.13-8.94Q431.55,430.57,430.29,420.39Z"/><path class="cls-8" d="M428.77,383.78l-43-1.53q-.45,12.17.16,24.13l43-2.23Q428.4,394.06,428.77,383.78Z"/><path class="cls-3" d="M430,367.08l-42.81-4.53c-.74,7-1.14,13.1-1.38,19.48l43,1.41C429,378.05,429.32,373,430,367.08Z"/><path class="cls-6" d="M428.91,404.15l-43,2.23q.5,9.69,1.65,19.24l42.74-5.23Q429.31,412.34,428.91,404.15Z"/><path class="cls-4" d="M468.48,522.51l-35.71,24.06q6.75,10,14.33,19.4l33.48-27.08C476.31,533.62,472.28,528.14,468.48,522.51Z"/><path class="cls-4" d="M567,605.34l-17.54,39.34q8.79,3.92,17.9,7.23l14.75-40.46Q574.43,608.65,567,605.34Z"/><path class="cls-6" d="M582.13,611.45l-14.75,40.46q11.26,4.1,23,7.25l11.17-41.59Q591.65,614.93,582.13,611.45Z"/><path class="cls-3" d="M601.56,617.57l-11.17,41.59q9.27,2.48,18.82,4.32l8.23-42.26Q609.4,619.66,601.56,617.57Z"/><path class="cls-6" d="M548.78,596.25l-20.9,37.66q10.51,5.83,21.6,10.77L567,605.34Q557.66,601.19,548.78,596.25Z"/><path class="cls-5" d="M534.82,587.84,511.35,624q8.07,5.25,16.53,10l20.9-37.66Q541.64,592.29,534.82,587.84Z"/><path class="cls-6" d="M491.27,551.2l-31.51,29.35q8.22,8.82,17.2,16.92l28.83-32Q498.22,558.66,491.27,551.2Z"/><path class="cls-5" d="M480.58,538.89,447.1,566q6.07,7.51,12.66,14.58l31.51-29.35Q485.71,545.23,480.58,538.89Z"/><path class="cls-6" d="M617.35,621.21l-8.28,42.26c7.83,1.51,15.86,2.73,23.82,3.57l4.52-42.82C630.45,623.49,624,622.49,617.35,621.21Z"/><path class="cls-4" d="M505.79,565.48l-28.83,32q7.16,6.45,14.77,12.43L518.26,576Q511.83,570.94,505.79,565.48Z"/><path class="cls-3" d="M593.73,213.64,578.52,174q-7.62,2.94-15,6.38l17.94,38.51Q587.49,216,593.73,213.64Z"/><path class="cls-5" d="M609.54,208.36l-11.69-40.84Q588,170.34,578.52,174l15.21,39.67Q601.48,210.67,609.54,208.36Z"/><path class="cls-3" d="M581.46,218.86l-17.94-38.51q-9.24,4.32-18.06,9.42l21.22,36.8Q573.9,222.4,581.46,218.86Z"/><path class="cls-8" d="M555.38,233.64l-23.74-35.23q-8.45,5.7-16.38,12.1l26.71,33Q548.45,238.3,555.38,233.64Z"/><path class="cls-6" d="M566.68,226.57l-21.22-36.8q-7.07,4.08-13.82,8.64l23.74,35.23Q560.9,229.91,566.68,226.57Z"/><path class="cls-6" d="M622.48,205.14l-8.81-41.56q-8,1.69-15.82,3.94l11.69,40.84Q615.93,206.53,622.48,205.14Z"/><path class="cls-3" d="M698.56,204.55l8.08-41.7c-6.61-1.28-13.23-2.29-20.19-3L682,202.06C688,202.69,693.15,203.5,698.56,204.55Z"/><path class="cls-6" d="M668.87,201.15l1.5-42.45q-10.26-.37-20.37.14l2.21,42.42Q660.46,200.84,668.87,201.15Z"/><path class="cls-3" d="M638.92,202.4l-5.16-42.17c-6.78.82-13.48,2-20.09,3.35l8.81,41.56C627.89,204,633.37,203.07,638.92,202.4Z"/><path class="cls-6" d="M652.21,201.26,650,158.84c-5.45.28-10.87.73-16.24,1.39l5.16,42.17C643.31,201.86,647.74,201.49,652.21,201.26Z"/><path class="cls-5" d="M482.61,326.61,442.7,312.06q-3.46,9.53-6.12,19.43l41,11C479.05,337.1,480.73,331.8,482.61,326.61Z"/><path class="cls-3" d="M495.05,299.33,457.9,278.71Q453,287.59,448.81,297l38.8,17.3Q491,306.6,495.05,299.33Z"/><path class="cls-3" d="M487.61,314.25,448.81,297q-3.3,7.41-6.11,15.11l39.91,14.55Q484.91,320.31,487.61,314.25Z"/><path class="cls-3" d="M477.61,342.51l-41-11q-2.08,7.83-3.65,15.89l41.69,8.12Q475.9,348.92,477.61,342.51Z"/><path class="cls-4" d="M520.22,264.16l-31.55-28.44q-5.46,6-10.5,12.47l33.46,26.17Q515.76,269.1,520.22,264.16Z"/><path class="cls-4" d="M542,243.53l-26.71-33q-6.35,5.13-12.31,10.69l29,31.08Q536.79,247.74,542,243.53Z"/><path class="cls-4" d="M531.91,252.28,503,221.2q-7.44,6.93-14.28,14.52l31.55,28.44Q525.82,258,531.91,252.28Z"/><path class="cls-6" d="M501.93,287.91l-35.62-23.16q-4.44,6.81-8.41,14l37.15,20.62Q498.29,293.48,501.93,287.91Z"/><path class="cls-3" d="M511.63,274.36l-33.46-26.17q-6.27,8-11.86,16.56l35.62,23.16Q506.49,280.9,511.63,274.36Z"/><path class="cls-3" d="M727.54,212.55l14.55-39.92q-9.51-3.45-19.43-6.12l-11,41Q719.75,209.7,727.54,212.55Z"/><path class="cls-3" d="M851.75,368.85l42.17-5.16c-.82-6.78-1.95-13.48-3.35-20.09L849,352.41C850.15,357.82,851.08,363.3,851.75,368.85Z"/><path class="cls-5" d="M849,352.41l41.56-8.81q-1.7-8-3.94-15.82l-40.84,11.69Q847.62,345.86,849,352.41Z"/><path class="cls-4" d="M845.79,339.47l40.84-11.69q-2.82-9.82-6.45-19.32l-39.67,15.2Q843.5,331.42,845.79,339.47Z"/><path class="cls-4" d="M835.29,311.39l38.51-17.93q-4.32-9.25-9.42-18.07l-36.8,21.22Q831.75,303.83,835.29,311.39Z"/><path class="cls-3" d="M840.51,323.66l39.67-15.2q-2.94-7.63-6.38-15l-38.51,17.93Q838.11,317.42,840.51,323.66Z"/><path class="cls-4" d="M474.65,355.28,433,347c-1.28,6.61-2.39,14.07-3,20l42.25,4.46C472.72,366.56,473.6,360.69,474.65,355.28Z"/><path class="cls-4" d="M852.12,411.66l42.24,4.46c.52-5,.92-10.65,1.11-16L853,398.47C852.88,402.88,852.54,407.68,852.12,411.66Z"/><path class="cls-6" d="M852.89,382.14l42.42-2.21q-.4-8.18-1.39-16.24l-42.17,5.16C852.29,373.24,852.66,377.67,852.89,382.14Z"/><path class="cls-6" d="M853,398.8l42.45,1.5q.38-10.26-.14-20.37l-42.42,2.21Q853.31,390.39,853,398.8Z"/><path class="cls-3" d="M711.64,207.54l11-41q-7.83-2.08-15.89-3.65l-8.12,41.69C703,205.41,707.38,206.4,711.64,207.54Z"/><path class="cls-3" d="M766.24,231.86l23.16-35.62q-6.81-4.44-14-8.41L754.82,225Q760.67,228.22,766.24,231.86Z"/><path class="cls-6" d="M779.79,241.57,806,208.11q-8-6.27-16.56-11.87l-23.16,35.62C770.91,234.9,775.43,238.15,779.79,241.57Z"/><path class="cls-5" d="M754.82,225l20.62-37.15q-8.88-4.92-18.24-9.09l-17.3,38.8Q747.55,220.95,754.82,225Z"/><path class="cls-6" d="M739.9,217.54l17.3-38.8q-7.41-3.3-15.11-6.11l-14.55,39.92Q733.84,214.83,739.9,217.54Z"/><path class="cls-3" d="M810.62,271.9l33-26.71q-5.13-6.33-10.69-12.3l-31.08,28.95Q806.42,266.71,810.62,271.9Z"/><path class="cls-4" d="M827.58,296.61l36.8-21.22q-4.08-7-8.64-13.82l-35.22,23.74Q824.24,290.83,827.58,296.61Z"/><path class="cls-6" d="M820.52,285.31l35.22-23.74q-5.7-8.44-12.1-16.38l-33,26.71Q815.86,278.38,820.52,285.31Z"/><path class="cls-6" d="M801.87,261.84,833,232.89q-6.93-7.45-14.52-14.29L790,250.15Q796.19,255.75,801.87,261.84Z"/><path class="cls-4" d="M790,250.15l28.44-31.55q-6-5.46-12.47-10.49l-26.17,33.46Q785.06,245.68,790,250.15Z"/><path class="cls-3" d="M682,202.06l4.46-42.24c-5-.52-10.78-.93-16.17-1.13l-1.55,42.44C673.14,201.29,678,201.64,682,202.06Z"/><path class="cls-6" d="M730.49,570.44l15.21,39.67c5.08-2,10.08-4.09,15-6.38l-17.93-38.51Q736.73,568,730.49,570.44Z"/><path class="cls-4" d="M742.76,565.22l17.93,38.51q9.25-4.32,18.07-9.42l-21.22-36.8Q750.33,561.68,742.76,565.22Z"/><path class="cls-3" d="M757.54,557.51l21.22,36.8q7.07-4.08,13.82-8.64l-23.74-35.22Q763.32,554.17,757.54,557.51Z"/><path class="cls-4" d="M768.84,550.45l23.74,35.22Q801,580,809,573.57l-26.71-33Q775.77,545.79,768.84,550.45Z"/><path class="cls-3" d="M714.68,575.72l11.69,40.85q9.82-2.82,19.33-6.46l-15.21-39.67Q722.74,573.42,714.68,575.72Z"/><path class="cls-3" d="M685.3,581.69l5.16,42.17q10.17-1.25,20.09-3.36l-8.81-41.56Q693.63,580.67,685.3,581.69Z"/><path class="cls-6" d="M655.35,582.93l-1.5,42.45q10.26.38,20.37-.14L672,582.82Q663.76,583.24,655.35,582.93Z"/><path class="cls-6" d="M701.74,578.94l8.81,41.56q8-1.69,15.82-3.93l-11.69-40.85Q708.29,577.55,701.74,578.94Z"/><path class="cls-6" d="M672,582.82l2.21,42.42q8.17-.4,16.24-1.38l-5.16-42.17Q678.71,582.49,672,582.82Z"/><path class="cls-4" d="M782.25,540.55l26.71,33q6.35-5.12,12.31-10.69l-29-31.07Q787.44,536.36,782.25,540.55Z"/><path class="cls-5" d="M836.61,469.84l38.8,17.3q3.3-7.42,6.11-15.12l-39.91-14.55Q839.32,463.77,836.61,469.84Z"/><path class="cls-3" d="M792.31,531.81l29,31.07q7.44-6.93,14.28-14.52L804,519.93Q798.41,526.13,792.31,531.81Z"/><path class="cls-9" d="M841.61,457.47,881.52,472q3.47-9.51,6.12-19.43l-41-11C845.17,447,843.49,452.28,841.61,457.47Z"/><path class="cls-3" d="M641.87,582l-4.46,42.24c5,.53,11,1,16.35,1.15l1.45-42.45C650.8,582.76,645.85,582.4,641.87,582Z"/><path class="cls-4" d="M852.12,411.66c-.63,6-1.45,11.29-2.5,16.7l41.7,8c1.28-6.61,2.3-13.29,3-20.25Z"/><path class="cls-3" d="M846.61,441.58l41,11q2.08-7.83,3.65-15.88l-41.69-8.13Q848.33,435.17,846.61,441.58Z"/><path class="cls-3" d="M812.58,509.72l33.47,26.17q6.27-8,11.86-16.56l-35.62-23.15C819.25,500.85,816,505.36,812.58,509.72Z"/><path class="cls-4" d="M829.17,484.75l37.15,20.62q4.93-8.88,9.09-18.23l-38.8-17.3Q833.21,477.49,829.17,484.75Z"/><path class="cls-3" d="M804,519.93l31.55,28.43q5.46-6,10.5-12.47l-33.47-26.17Q808.47,515,804,519.93Z"/><path class="cls-5" d="M822.29,496.18l35.62,23.15q4.44-6.81,8.41-14l-37.15-20.62Q825.93,490.6,822.29,496.18Z"/><path class="cls-6" d="M569.4,559.1l-20.62,37.15q8.88,4.93,18.24,9.09l17.29-38.8Q576.68,563.14,569.4,559.1Z"/><path class="cls-6" d="M483.71,460.42,444,475.63c1.95,5.08,4.09,10.08,6.38,15l38.51-17.94Q486.11,466.66,483.71,460.42Z"/><path class="cls-3" d="M488.93,472.69l-38.51,17.94q4.32,9.24,9.42,18.06l36.8-21.22Q492.47,480.26,488.93,472.69Z"/><path class="cls-6" d="M503.7,498.77l-35.22,23.74c3.8,5.63,7.83,11.11,12.1,16.38l33-26.71Q508.37,505.7,503.7,498.77Z"/><path class="cls-6" d="M478.43,444.61,437.59,456.3q2.81,9.84,6.45,19.33l39.67-15.21Q480.73,452.67,478.43,444.61Z"/><path class="cls-4" d="M513.6,512.18l-33,26.71q5.13,6.35,10.69,12.31l31.08-29Q517.81,517.36,513.6,512.18Z"/><path class="cls-3" d="M496.64,487.47l-36.8,21.22q4.08,7.06,8.64,13.82l35.22-23.74Q500,493.25,496.64,487.47Z"/><path class="cls-4" d="M471.22,385.28l-42.45-1.5q-.37,10.26.14,20.37l42.42-2.2Q470.91,393.69,471.22,385.28Z"/><path class="cls-3" d="M475.21,431.67l-41.56,8.81q1.69,8,3.94,15.82l40.84-11.69Q476.6,438.22,475.21,431.67Z"/><path class="cls-6" d="M625.48,579.52l-8.17,41.68c6.61,1.28,13.14,2.29,20.1,3L641.87,582C635.9,581.35,630.89,580.57,625.48,579.52Z"/><path class="cls-3" d="M472.46,415.23l-42.17,5.16q1.24,10.17,3.36,20.09l41.56-8.81Q473.49,423.55,472.46,415.23Z"/><path class="cls-6" d="M471.33,402l-42.42,2.2q.4,8.19,1.38,16.24l42.17-5.16Q471.67,408.65,471.33,402Z"/><path class="cls-3" d="M584.31,566.54,567,605.34q7.41,3.31,15.11,6.11l14.55-39.91Q590.38,569.25,584.31,566.54Z"/><path class="cls-4" d="M596.68,571.54l-14.55,39.91q9.51,3.46,19.43,6.12l11-41C607.17,575.1,601.87,573.42,596.68,571.54Z"/><path class="cls-6" d="M522.35,522.25l-31.08,29q6.93,7.45,14.52,14.28l28.43-31.55C530.1,530.2,526.13,526.31,522.35,522.25Z"/><path class="cls-5" d="M472.2,371.54,430,367.08c-.63,6-1,11.08-1.16,16.48L471.25,385C471.41,380.54,471.67,376.51,472.2,371.54Z"/><path class="cls-6" d="M612.57,576.54l-11,41q7.83,2.1,15.88,3.65l8.13-41.69Q619,578.25,612.57,576.54Z"/><path class="cls-4" d="M534.22,533.93l-28.43,31.55q6,5.46,12.47,10.5l26.17-33.46Q539.17,538.4,534.22,533.93Z"/><path class="cls-4" d="M558,552.22l-23.15,35.62q6.81,4.44,14,8.41L569.4,559.1Q563.55,555.86,558,552.22Z"/><path class="cls-5" d="M544.43,542.52,518.26,576q8,6.27,16.56,11.86L558,552.22Q551,547.66,544.43,542.52Z"/><path class="cls-4" d="M624.17,259.47l-14.63-51.11q-8,2.31-15.81,5.28l19,49.64Q618.36,261.14,624.17,259.47Z"/><path class="cls-3" d="M575.4,284.86,542,243.53q-5.18,4.2-10.06,8.75l36.22,38.89Q571.66,287.89,575.4,284.86Z"/><path class="cls-6" d="M612.76,263.28l-19-49.64q-6.24,2.4-12.27,5.22l22.44,48.19Q608.25,265,612.76,263.28Z"/><path class="cls-3" d="M593.23,272.61l-26.55-46q-5.77,3.33-11.3,7.07l29.69,44.07Q589.06,275,593.23,272.61Z"/><path class="cls-4" d="M603.9,267.05l-22.44-48.19q-7.58,3.54-14.78,7.71l26.55,46Q598.44,269.61,603.9,267.05Z"/><path class="cls-6" d="M667,254.26l1.88-53.11q-8.4-.32-16.66.11L655,254.35C658.94,254.14,663,254.12,667,254.26Z"/><path class="cls-4" d="M633.51,257.15l-11-52q-6.56,1.4-12.94,3.22l14.63,51.11C627.24,258.59,630.36,257.81,633.51,257.15Z"/><path class="cls-3" d="M655,254.35l-2.75-53.09c-4.47.23-8.9.6-13.29,1.14l6.45,52.77Q650.13,254.59,655,254.35Z"/><path class="cls-6" d="M645.37,255.17l-6.45-52.77c-5.55.67-11,1.6-16.44,2.74l11,52C637.41,256.32,641.37,255.65,645.37,255.17Z"/><path class="cls-3" d="M585.07,277.71l-29.69-44.07q-6.92,4.65-13.41,9.89l33.43,41.33C578.52,282.33,581.75,280,585.07,277.71Z"/><path class="cls-3" d="M536.16,335.89l-48.55-21.64q-2.7,6.06-5,12.36l49.95,18.21Q534.21,340.28,536.16,335.89Z"/><path class="cls-3" d="M528.94,356.29l-51.33-13.78q-1.71,6.4-3,13l52.17,10.17C527.41,362.5,528.12,359.37,528.94,356.29Z"/><path class="cls-4" d="M532.56,344.82l-49.95-18.21c-1.88,5.19-3.56,10.49-5,15.9l51.33,13.78Q530.52,350.44,532.56,344.82Z"/><path class="cls-6" d="M526.81,365.45l-52.15-10.28c-1.05,5.41-1.94,11.39-2.46,16.37l52.85,5.58C525.47,373.14,526.06,369.35,526.81,365.45Z"/><path class="cls-6" d="M676.41,254.92,682,202.06c-4-.42-8.8-.76-13.21-.92l-1.93,53.11C670,254.37,673.42,254.6,676.41,254.92Z"/><path class="cls-3" d="M546.5,316.88l-44.57-29q-3.63,5.56-6.88,11.42l46.48,25.8Q543.89,320.9,546.5,316.88Z"/><path class="cls-4" d="M553.5,307.1l-41.87-32.74q-5.13,6.54-9.7,13.55l44.57,29C548.69,313.51,551,310.25,553.5,307.1Z"/><path class="cls-6" d="M559.7,299.74l-39.48-35.58q-4.47,4.93-8.59,10.2L553.5,307.1Q556.49,303.3,559.7,299.74Z"/><path class="cls-6" d="M541.53,325.13l-46.48-25.8q-4,7.26-7.44,14.92l48.55,21.64Q538.62,330.37,541.53,325.13Z"/><path class="cls-3" d="M568.13,291.17l-36.22-38.89q-6.1,5.67-11.69,11.88l39.48,35.58Q563.73,295.27,568.13,291.17Z"/><path class="cls-3" d="M799.8,384.89l53.09-2.75c-.23-4.47-.6-8.9-1.14-13.29L799,375.3Q799.56,380.06,799.8,384.89Z"/><path class="cls-3" d="M787.1,333.83l48.19-22.44q-3.54-7.56-7.71-14.78l-46,26.56Q784.54,328.36,787.1,333.83Z"/><path class="cls-3" d="M781.54,323.17l46-26.56q-3.33-5.78-7.06-11.3L776.44,315C778.23,317.66,779.93,320.39,781.54,323.17Z"/><path class="cls-3" d="M790.87,342.69l49.64-19q-2.4-6.24-5.22-12.27L787.1,333.83Q789.14,338.18,790.87,342.69Z"/><path class="cls-6" d="M776.44,315l44.08-29.7q-4.66-6.92-9.9-13.41l-41.33,33.43Q773.09,310,776.44,315Z"/><path class="cls-5" d="M769.29,305.33l41.33-33.43q-4.2-5.17-8.75-10.06L763,298.07Q766.26,301.6,769.29,305.33Z"/><path class="cls-6" d="M799,375.3l52.76-6.45c-.67-5.55-1.6-11-2.74-16.44l-52,11Q798.25,369.29,799,375.3Z"/><path class="cls-4" d="M799.89,396.92,853,398.8q.32-8.4-.11-16.66l-53.09,2.75C800,388.87,800,392.88,799.89,396.92Z"/><path class="cls-4" d="M794.68,354.1l51.11-14.63q-2.31-8-5.28-15.81l-49.64,19Q793,348.29,794.68,354.1Z"/><path class="cls-4" d="M797,363.44l52-11q-1.39-6.54-3.22-12.94L794.68,354.1C795.56,357.17,796.34,360.29,797,363.44Z"/><path class="cls-6" d="M709.33,262.49l18.21-49.94q-7.78-2.84-15.9-5l-13.78,51.34Q703.71,260.44,709.33,262.49Z"/><path class="cls-3" d="M729,271.46,754.82,225q-7.26-4-14.92-7.44L718.26,266.1Q723.78,268.56,729,271.46Z"/><path class="cls-4" d="M718.26,266.1l21.64-48.56q-6.06-2.7-12.36-5l-18.21,49.94Q713.88,264.14,718.26,266.1Z"/><path class="cls-3" d="M688.39,256.71l10.12-52.17c-5.4-1-10.56-1.85-16.52-2.48l-5.58,52.86C680.38,255.34,684.49,256,688.39,256.71Z"/><path class="cls-3" d="M697.86,258.88l13.78-51.34c-4.26-1.14-8.6-2.13-13-3l-10.17,52.17C691.65,257.34,694.78,258.05,697.86,258.88Z"/><path class="cls-6" d="M763,298.07l38.89-36.23q-5.67-6.1-11.88-11.69l-35.58,39.48Q758.88,293.66,763,298.07Z"/><path class="cls-6" d="M754.41,289.63,790,250.15q-4.93-4.46-10.2-8.58l-32.74,41.87Q750.85,286.41,754.41,289.63Z"/><path class="cls-6" d="M525.05,377.12l-52.85-5.58c-.53,5-.8,9.11-1,13.52l53.13,1.77C524.48,383.65,524.63,381.1,525.05,377.12Z"/><path class="cls-6" d="M747.05,283.44l32.74-41.87c-4.36-3.42-8.88-6.67-13.55-9.71l-29,44.57Q742.33,279.73,747.05,283.44Z"/><path class="cls-3" d="M737.27,276.43l29-44.57q-5.57-3.63-11.42-6.88L729,271.46Q733.25,273.81,737.27,276.43Z"/><path class="cls-4" d="M748.82,499.23l33.43,41.32q5.18-4.2,10.06-8.74l-36.23-38.89Q752.56,496.19,748.82,499.23Z"/><path class="cls-6" d="M731,511.47l26.56,46q5.78-3.33,11.3-7.06l-29.7-44.08C736.49,508.16,733.76,509.86,731,511.47Z"/><path class="cls-3" d="M711.46,520.8l19,49.64q6.24-2.4,12.27-5.22L720.32,517Q716,519.07,711.46,520.8Z"/><path class="cls-3" d="M756.08,492.92l36.23,38.89q6.11-5.68,11.69-11.88l-39.48-35.59C761.83,487.32,759,490.19,756.08,492.92Z"/><path class="cls-3" d="M739.14,506.37l29.7,44.08q6.92-4.66,13.41-9.9l-33.43-41.32Q744.14,503,739.14,506.37Z"/><path class="cls-5" d="M720.32,517l22.44,48.19q7.57-3.53,14.78-7.71l-26.56-46Q725.79,514.47,720.32,517Z"/><path class="cls-5" d="M678.85,528.92l6.45,52.77q8.33-1,16.44-2.75l-11-52C686.81,527.76,682.85,528.43,678.85,528.92Z"/><path class="cls-3" d="M700.05,524.61l14.63,51.11q8-2.31,15.81-5.28l-19-49.64C707.73,522.24,703.92,523.5,700.05,524.61Z"/><path class="cls-6" d="M669.26,529.74,672,582.82q6.71-.33,13.29-1.13l-6.45-52.77Q674.09,529.49,669.26,529.74Z"/><path class="cls-6" d="M524.33,387.16l-53.11-1.88q-.32,8.4.11,16.67l53.08-2.76C524.21,395.22,524.19,391.2,524.33,387.16Z"/><path class="cls-3" d="M777.72,467.2l44.57,29q3.63-5.58,6.88-11.43L782.69,459Q780.34,463.17,777.72,467.2Z"/><path class="cls-6" d="M797.45,418.19l52.18,10.06c1-5.41,1.86-10.63,2.49-16.59l-52.86-5.58C798.74,411.05,798.21,414.29,797.45,418.19Z"/><path class="cls-3" d="M795.27,427.79l51.34,13.79q1.71-6.4,3-13l-52.17-10.17C796.81,421.58,796.1,424.71,795.27,427.79Z"/><path class="cls-6" d="M791.66,439.27l50,18.2c1.88-5.19,3.56-10.49,5-15.89l-51.34-13.79Q793.71,433.64,791.66,439.27Z"/><path class="cls-4" d="M799.91,396.7c-.12,3.18-.33,6.39-.65,9.38l52.86,5.58c.42-4,.76-8.78.92-13.19Z"/><path class="cls-3" d="M764.52,484.34,804,519.93q4.47-4.95,8.58-10.21L770.71,477Q767.74,480.78,764.52,484.34Z"/><path class="cls-6" d="M657.23,529.82l-1.88,53.11q8.4.32,16.66-.11l-2.75-53.08Q663.29,530,657.23,529.82Z"/><path class="cls-3" d="M770.71,477l41.87,32.74c3.42-4.36,6.67-8.87,9.71-13.54l-44.57-29C775.53,470.57,773.18,473.83,770.71,477Z"/><path class="cls-6" d="M788.05,448.19l48.56,21.65q2.7-6.07,5-12.37l-50-18.2Q790,443.82,788.05,448.19Z"/><path class="cls-3" d="M782.69,459l46.48,25.79q4-7.26,7.44-14.91l-48.56-21.65Q785.59,453.71,782.69,459Z"/><path class="cls-6" d="M690.71,526.94l11,52q6.56-1.38,12.94-3.22l-14.63-51.11C697,525.49,693.86,526.27,690.71,526.94Z"/><path class="cls-6" d="M554.92,478.75,513.6,512.18q4.2,5.19,8.75,10.07L561.23,486Q558,482.5,554.92,478.75Z"/><path class="cls-6" d="M542.68,460.92l-46,26.55q3.33,5.77,7.06,11.3l44.08-29.69Q545.1,465.09,542.68,460.92Z"/><path class="cls-3" d="M547.78,469.08,503.7,498.77q4.67,6.92,9.9,13.41l41.32-33.43Q551.14,474.07,547.78,469.08Z"/><path class="cls-3" d="M533.35,441.4l-49.64,19q2.4,6.24,5.22,12.27l48.19-22.44Q535.08,445.9,533.35,441.4Z"/><path class="cls-5" d="M537.12,450.25l-48.19,22.44q3.54,7.57,7.71,14.78l46-26.55Q539.68,455.72,537.12,450.25Z"/><path class="cls-6" d="M525.23,408.78l-52.77,6.45q1,8.32,2.75,16.44l52-11Q526,414.79,525.23,408.78Z"/><path class="cls-6" d="M524.41,399.19,471.33,402q.35,6.69,1.13,13.28l52.77-6.45Q524.66,404,524.41,399.19Z"/><path class="cls-6" d="M527.22,420.64l-52,11q1.4,6.56,3.22,12.94L529.54,430C528.66,426.91,527.88,423.8,527.22,420.64Z"/><path class="cls-4" d="M529.54,430l-51.11,14.62q2.31,8,5.28,15.81l49.64-19Q531.2,435.79,529.54,430Z"/><path class="cls-4" d="M561.23,486l-38.88,36.23c3.78,4.06,7.75,8,11.87,11.68l35.59-39.48C566.83,491.76,564,489,561.23,486Z"/><path class="cls-6" d="M626.36,525.21l-13.79,51.33q6.4,1.73,13,3l10.17-52.17Q631,526.44,626.36,525.21Z"/><path class="cls-6" d="M614.88,521.59l-18.2,49.95c5.19,1.88,10.49,3.56,15.89,5l13.79-51.33Q620.51,523.64,614.88,521.59Z"/><path class="cls-5" d="M606,518l-21.65,48.55q6.08,2.7,12.37,5l18.2-49.95Q610.35,519.94,606,518Z"/><path class="cls-6" d="M635.65,527.35l-10.22,52.16c5.41,1,10.47,1.84,16.44,2.47l5.58-52.85C643.47,528.71,639.55,528.11,635.65,527.35Z"/><path class="cls-3" d="M647.45,529.13,641.87,582c4,.42,9,.78,13.39.95l1.83-53.13C653.91,529.69,650.43,529.44,647.45,529.13Z"/><path class="cls-5" d="M577.17,500.65l-32.74,41.87q6.54,5.13,13.54,9.7l29-44.57Q581.9,504.37,577.17,500.65Z"/><path class="cls-4" d="M595.2,512.62,569.4,559.1q7.26,4,14.91,7.44L606,518Q600.44,515.53,595.2,512.62Z"/><path class="cls-4" d="M569.81,494.45l-35.59,39.48q4.95,4.47,10.21,8.59l32.74-41.87Q573.38,497.68,569.81,494.45Z"/><path class="cls-5" d="M587,507.65l-29,44.57q5.58,3.63,11.43,6.88l25.8-46.48Q591,510.28,587,507.65Z"/><path class="cls-7" d="M638.72,281.71l-5.21-24.56c-3.15.66-6.27,1.44-9.34,2.32l6.91,24.14Q634.85,282.53,638.72,281.71Z"/><path class="cls-8" d="M631.08,283.61l-6.91-24.14q-5.8,1.66-11.41,3.81l9,23.45Q626.33,285,631.08,283.61Z"/><path class="cls-9" d="M614.5,289.81l-10.6-22.76q-5.46,2.55-10.67,5.56l12.55,21.75Q610,291.9,614.5,289.81Z"/><path class="cls-7" d="M621.74,286.73l-9-23.45q-4.51,1.74-8.86,3.77l10.6,22.76C616.87,288.7,619.29,287.67,621.74,286.73Z"/><path class="cls-7" d="M673.77,279.89l2.64-25c-3-.32-6.33-.55-9.51-.67L666,279.34C668.57,279.44,670.79,279.57,673.77,279.89Z"/><path class="cls-5" d="M605.78,294.36l-12.55-21.75q-4.17,2.42-8.16,5.1l14,20.82C601.28,297.07,603.5,295.68,605.78,294.36Z"/><path class="cls-9" d="M683.59,281.36l4.76-24.65c-3.91-.76-8-1.37-11.94-1.79l-2.64,25C676.75,280.2,680.4,280.74,683.59,281.36Z"/><path class="cls-5" d="M666.1,279.36l.89-25.1c-4-.14-8-.12-12,.09l1.3,25.07Q661.14,279.18,666.1,279.36Z"/><path class="cls-8" d="M648.42,280.09l-3-24.92c-4,.48-8,1.15-11.86,2l5.21,24.56C641.91,281,645.14,280.49,648.42,280.09Z"/><path class="cls-5" d="M656.26,279.42,655,254.35q-4.83.24-9.59.82l3,24.92C651,279.78,653.63,279.56,656.26,279.42Z"/><path class="cls-5" d="M559.1,346.12l-22.94-10.23q-1.95,4.38-3.6,8.93l23.59,8.6C557.05,350.94,558,348.51,559.1,346.12Z"/><path class="cls-7" d="M567.55,330.57l-21-13.69q-2.62,4-5,8.25l22,12.18Q565.41,333.86,567.55,330.57Z"/><path class="cls-9" d="M563.49,337.31l-22-12.18q-2.91,5.24-5.37,10.76l22.94,10.23Q561.11,341.61,563.49,337.31Z"/><path class="cls-8" d="M599.1,298.53l-14-20.82c-3.32,2.25-6.55,4.62-9.67,7.15l15.79,19.52C593.74,302.31,596.38,300.37,599.1,298.53Z"/><path class="cls-7" d="M556.15,353.42l-23.59-8.6q-2,5.61-3.62,11.47l24.26,6.51Q554.47,358,556.15,353.42Z"/><path class="cls-7" d="M585.25,309.54l-17.12-18.37q-4.39,4.09-8.43,8.57l18.65,16.81Q581.65,312.89,585.25,309.54Z"/><path class="cls-7" d="M573.28,322.57,553.5,307.1c-2.46,3.15-4.81,6.41-7,9.78l21,13.69Q570.25,326.43,573.28,322.57Z"/><path class="cls-9" d="M591.19,304.38,575.4,284.86q-3.74,3-7.27,6.31l17.12,18.37Q588.13,306.86,591.19,304.38Z"/><path class="cls-8" d="M578.35,316.55,559.7,299.74q-3.23,3.57-6.2,7.36l19.78,15.47C574.9,320.5,576.59,318.5,578.35,316.55Z"/><path class="cls-9" d="M723.58,297.49l13.69-21.06q-4-2.62-8.25-5l-12.18,22Q720.29,295.34,723.58,297.49Z"/><path class="cls-9" d="M772.44,368.65,797,363.44c-.66-3.15-1.44-6.27-2.32-9.34L770.54,361Q771.62,364.78,772.44,368.65Z"/><path class="cls-7" d="M770.54,361l24.14-6.91q-1.66-5.81-3.81-11.41l-23.45,9Q769.18,356.26,770.54,361Z"/><path class="cls-9" d="M774.06,378.35,799,375.3q-.74-6-2-11.86l-24.56,5.21C773.11,371.84,773.66,375.08,774.06,378.35Z"/><path class="cls-9" d="M764.34,344.43l22.76-10.6q-2.55-5.46-5.56-10.66l-21.75,12.54Q762.25,340,764.34,344.43Z"/><path class="cls-8" d="M767.42,351.68l23.45-9q-1.73-4.5-3.77-8.86l-22.76,10.6C765.45,346.81,766.48,349.22,767.42,351.68Z"/><path class="cls-9" d="M774.73,386.19l25.07-1.3q-.24-4.83-.81-9.59l-24.93,3.05C774.37,380.94,774.59,383.56,774.73,386.19Z"/><path class="cls-7" d="M774.29,403.44l25,2.64c.32-3,.53-6.2.65-9.38l-25.08-1C774.74,398.3,774.5,401.45,774.29,403.44Z"/><path class="cls-5" d="M772.81,413.39l24.65,4.69c.76-3.9,1.28-7,1.8-12l-25-2.64C773.87,407.42,773.43,410.2,772.81,413.39Z"/><path class="cls-7" d="M759.79,335.71l21.75-12.54c-1.61-2.78-3.31-5.51-5.1-8.16l-20.82,14C757.08,331.21,758.48,333.44,759.79,335.71Z"/><path class="cls-8" d="M774.79,396l25.1.89c.14-4,.12-8.05-.09-12l-25.07,1.3C774.89,389.45,774.92,392.73,774.79,396Z"/><path class="cls-8" d="M737.6,308.28l16.81-18.65q-3.57-3.22-7.36-6.19l-15.47,19.77Q734.69,305.65,737.6,308.28Z"/><path class="cls-7" d="M708,289l10.23-22.93q-4.38-2-8.93-3.61l-8.6,23.59Q704.45,287.45,708,289Z"/><path class="cls-5" d="M553.2,362.8l-24.26-6.51q-1.23,4.62-2.15,9.38l24.64,4.8C551.94,367.88,552.52,365.32,553.2,362.8Z"/><path class="cls-9" d="M716.84,293.42l12.18-22q-5.24-2.91-10.76-5.36L708,289Q712.55,291,716.84,293.42Z"/><path class="cls-8" d="M700.73,286.08l8.6-23.59q-5.61-2-11.47-3.61l-6.51,24.25Q696.14,284.41,700.73,286.08Z"/><path class="cls-9" d="M755.62,329l20.82-14q-3.36-5-7.15-9.68l-19.52,15.79C751.84,323.67,753.78,326.32,755.62,329Z"/><path class="cls-7" d="M744.61,315.18,763,298.07q-4.1-4.41-8.57-8.44L737.6,308.28Q741.26,311.58,744.61,315.18Z"/><path class="cls-9" d="M749.77,321.12l19.52-15.79q-3-3.74-6.31-7.26l-18.37,17.11Q747.3,318.06,749.77,321.12Z"/><path class="cls-7" d="M691.35,283.13l6.51-24.25c-3.08-.83-6.21-1.54-9.38-2.16l-4.8,24.65C686.27,281.87,688.83,282.45,691.35,283.13Z"/><path class="cls-9" d="M731.58,303.21l15.47-19.77q-4.72-3.7-9.78-7l-13.69,21.06C726.34,299.28,729,301.2,731.58,303.21Z"/><path class="cls-7" d="M632.87,501l-6.51,24.26q4.62,1.23,9.38,2.15l4.8-24.64C638,502.21,635.39,501.63,632.87,501Z"/><path class="cls-5" d="M702.47,497.35l9,23.45q4.5-1.72,8.86-3.77l-10.6-22.76C707.34,495.38,704.93,496.41,702.47,497.35Z"/><path class="cls-8" d="M733,479.71l15.79,19.52q3.73-3,7.26-6.31L739,474.55C737.05,476.33,735.07,478.06,733,479.71Z"/><path class="cls-7" d="M725.11,485.55l14,20.82q5-3.36,9.68-7.14L733,479.71Q729.21,482.8,725.11,485.55Z"/><path class="cls-5" d="M693.14,500.47l6.91,24.14c3.87-1.11,7.68-2.37,11.41-3.81l-9-23.45Q697.9,499.1,693.14,500.47Z"/><path class="cls-9" d="M718.44,489.72,731,511.47c2.78-1.61,5.51-3.31,8.16-5.1l-14-20.82C722.94,487,720.71,488.41,718.44,489.72Z"/><path class="cls-9" d="M709.72,494.27,720.32,517q5.46-2.55,10.66-5.56l-12.54-21.75Q714.18,492.18,709.72,494.27Z"/><path class="cls-7" d="M668,504.66l1.3,25.08q4.83-.25,9.59-.82L675.8,504C673.21,504.3,670.59,504.53,668,504.66Z"/><path class="cls-8" d="M685.5,502.37l5.21,24.57c3.15-.67,6.27-1.45,9.34-2.33l-6.91-24.14Q689.38,501.55,685.5,502.37Z"/><path class="cls-7" d="M658.12,504.73l-.89,25.09q6.06.23,12-.08L668,504.66C664.71,504.82,661.42,504.85,658.12,504.73Z"/><path class="cls-9" d="M675.8,504l3.05,24.93c4-.49,8-1.16,11.86-2l-5.21-24.57C682.31,503.05,679.07,503.59,675.8,504Z"/><path class="cls-9" d="M765.12,438l22.93,10.23q2-4.38,3.61-8.92l-23.59-8.6C767.17,433.14,766.18,435.58,765.12,438Z"/><path class="cls-7" d="M772.78,413.61c-.5,2.59-1.08,5.15-1.76,7.67l24.25,6.51c.83-3.08,1.54-6.21,2.16-9.38Z"/><path class="cls-8" d="M768.07,430.67l23.59,8.6q2-5.62,3.61-11.48L771,421.28Q769.74,426.07,768.07,430.67Z"/><path class="cls-9" d="M551.46,370.25l-24.63-4.91c-.76,3.9-1.36,7.8-1.78,11.78l25,2.64C550.34,376.77,550.84,373.44,551.46,370.25Z"/><path class="cls-8" d="M650.09,504.16l-2.64,25c3,.31,6.51.56,9.69.68l.84-25.1C655.38,504.62,653.07,504.47,650.09,504.16Z"/><path class="cls-7" d="M739,474.55l17.11,18.37c2.94-2.73,5.75-5.6,8.44-8.58l-18.65-16.81Q742.57,471.19,739,474.55Z"/><path class="cls-9" d="M760.73,446.77l22,12.19q2.91-5.25,5.36-10.77L765.12,438Q763.11,442.48,760.73,446.77Z"/><path class="cls-8" d="M745.87,467.53l18.65,16.81q3.22-3.57,6.19-7.36l-19.77-15.47C749.32,463.58,747.62,465.59,745.87,467.53Z"/><path class="cls-9" d="M750.94,461.51,770.71,477c2.47-3.15,4.82-6.41,7-9.78l-21.05-13.69C754.87,456.27,753,458.93,750.94,461.51Z"/><path class="cls-7" d="M756.67,453.51l21.05,13.69q2.63-4,5-8.24l-22-12.19C759.45,449.07,758.09,451.32,756.67,453.51Z"/><path class="cls-9" d="M586.62,475.8l-16.81,18.65q3.57,3.23,7.36,6.2l15.47-19.78Q589.54,478.44,586.62,475.8Z"/><path class="cls-9" d="M556.8,432.41l-23.45,9q1.73,4.5,3.77,8.85l22.76-10.6C558.77,437.28,557.74,434.86,556.8,432.41Z"/><path class="cls-8" d="M553.68,423.07,529.54,430q1.66,5.81,3.81,11.42l23.45-9Q555,427.82,553.68,423.07Z"/><path class="cls-7" d="M559.88,439.65l-22.76,10.6q2.55,5.46,5.56,10.67l21.75-12.55Q562,444.13,559.88,439.65Z"/><path class="cls-7" d="M564.43,448.37l-21.75,12.55q2.42,4.17,5.1,8.16l20.82-14C567.13,452.87,565.74,450.65,564.43,448.37Z"/><path class="cls-8" d="M551.78,415.44l-24.56,5.2c.66,3.16,1.44,6.27,2.32,9.34l24.14-6.91C553,420.56,552.33,418,551.78,415.44Z"/><path class="cls-9" d="M640.45,502.71l-4.85,24.64c3.9.75,7.87,1.36,11.85,1.78l2.64-25C647.1,503.84,643.64,503.32,640.45,502.71Z"/><path class="cls-9" d="M549.42,388.05l-25.09-.89c-.14,4-.12,8.06.08,12l25.08-1.3C549.33,394.64,549.3,391.36,549.42,388.05Z"/><path class="cls-8" d="M550.16,405.73l-24.93,3q.74,6,2,11.86l24.56-5.2C551.11,412.24,550.56,409,550.16,405.73Z"/><path class="cls-9" d="M549.49,397.89l-25.08,1.3q.26,4.83.82,9.59l24.93-3C549.85,403.14,549.62,400.52,549.49,397.89Z"/><path class="cls-7" d="M550,379.76l-25-2.64c-.42,4-.58,6.64-.69,9.82l25.1.78C549.55,385.11,549.71,382.74,550,379.76Z"/><path class="cls-7" d="M616.19,495.05,606,518q4.38,1.95,8.92,3.6l8.6-23.59C621,497.1,618.57,496.11,616.19,495.05Z"/><path class="cls-8" d="M607.38,490.66l-12.19,22q5.25,2.91,10.77,5.37l10.23-22.94Q611.67,493,607.38,490.66Z"/><path class="cls-5" d="M600.64,486.6l-13.69,21q4,2.63,8.24,5l12.19-22Q603.93,488.74,600.64,486.6Z"/><path class="cls-9" d="M623.48,498l-8.6,23.59q5.63,2,11.48,3.62L632.87,501Q628.08,499.68,623.48,498Z"/><path class="cls-7" d="M568.6,455.05l-20.82,14q3.36,5,7.14,9.67L574.44,463Q571.35,459.14,568.6,455.05Z"/><path class="cls-8" d="M579.61,468.9,561.23,486c2.73,2.93,5.6,5.74,8.58,8.43l16.81-18.65Q583,472.5,579.61,468.9Z"/><path class="cls-9" d="M592.64,480.87l-15.47,19.78q4.73,3.71,9.78,7l13.69-21Q596.5,483.9,592.64,480.87Z"/><path class="cls-5" d="M574.44,463l-19.52,15.79q3,3.75,6.31,7.27l18.38-17.12C577.82,467,576.09,465,574.44,463Z"/><path class="cls-7" d="M625,312.36l-10.5-22.55q-4.47,2.08-8.72,4.55L618.2,315.9C620.41,314.63,622.68,313.44,625,312.36Z"/><path class="cls-7" d="M618.2,315.9l-12.42-21.54c-2.28,1.32-4.5,2.71-6.68,4.17L613,319.15C614.69,318,616.43,316.93,618.2,315.9Z"/><path class="cls-5" d="M613,319.15l-13.9-20.62c-2.72,1.84-5.36,3.78-7.91,5.85l15.64,19.33Q609.82,321.3,613,319.15Z"/><path class="cls-9" d="M630.65,310l-8.91-23.23c-2.45.94-4.87,2-7.24,3.08L625,312.36Q627.78,311.06,630.65,310Z"/><path class="cls-9" d="M643.87,306l-5.15-24.33q-3.87.82-7.64,1.9l6.84,23.92C639.88,307,641.87,306.47,643.87,306Z"/><path class="cls-7" d="M657.55,304.26l-1.29-24.84c-2.63.14-5.25.36-7.84.67l3,24.69C653.46,304.54,655.5,304.36,657.55,304.26Z"/><path class="cls-9" d="M665.22,304.21l.88-24.85q-5-.18-9.84.06l1.29,24.84C660.09,304.13,662.64,304.11,665.22,304.21Z"/><path class="cls-9" d="M651.44,304.78l-3-24.69c-3.28.4-6.51,1-9.7,1.62L643.87,306C646.36,305.52,648.89,305.09,651.44,304.78Z"/><path class="cls-5" d="M637.92,307.53l-6.84-23.92q-4.76,1.36-9.34,3.12L630.65,310Q634.22,308.58,637.92,307.53Z"/><path class="cls-9" d="M671.16,304.62l2.61-24.73c-3-.32-5.16-.45-7.76-.54l-.93,24.84C667.11,304.27,669.17,304.41,671.16,304.62Z"/><path class="cls-9" d="M585.24,349.38l-21.75-12.07q-2.38,4.29-4.39,8.81l22.72,10.13Q583.38,352.73,585.24,349.38Z"/><path class="cls-8" d="M606.83,323.71l-15.64-19.33q-3.06,2.47-5.94,5.16l17,18.19Q604.45,325.65,606.83,323.71Z"/><path class="cls-7" d="M579.52,361.93l-23.37-8.51q-1.67,4.59-2.95,9.38l24,6.45Q578.21,365.52,579.52,361.93Z"/><path class="cls-9" d="M577.21,369.25l-24-6.45c-.68,2.52-1.26,5.08-1.77,7.67l24.41,4.76C576.23,373.21,576.69,371.21,577.21,369.25Z"/><path class="cls-7" d="M581.82,356.25,559.1,346.12c-1.06,2.39-2.05,4.82-3,7.3l23.37,8.51Q580.57,359,581.82,356.25Z"/><path class="cls-7" d="M596.82,333.2l-18.47-16.65c-1.76,1.95-3.45,3.95-5.07,6l19.59,15.32C594.13,336.28,595.45,334.71,596.82,333.2Z"/><path class="cls-5" d="M602.2,327.73l-17-18.19q-3.6,3.34-6.9,7l18.47,16.65C598.54,331.3,600.33,329.47,602.2,327.73Z"/><path class="cls-5" d="M588.41,344.13l-20.86-13.56q-2.14,3.29-4.06,6.74l21.75,12.07C586.24,347.59,587.29,345.84,588.41,344.13Z"/><path class="cls-4" d="M592.87,337.89l-19.59-15.32q-3,3.87-5.73,8l20.86,13.56C589.8,342,591.3,339.9,592.87,337.89Z"/><path class="cls-9" d="M735,342.93,755.62,329c-1.84-2.72-3.78-5.37-5.85-7.92l-19.33,15.64Q732.85,339.75,735,342.93Z"/><path class="cls-8" d="M749.37,381.37l24.69-3c-.4-3.27-.95-6.51-1.62-9.7l-24.33,5.16C748.63,376.3,749.06,378.82,749.37,381.37Z"/><path class="cls-9" d="M748.11,373.81l24.33-5.16q-.83-3.87-1.9-7.64l-23.91,6.84Q747.47,370.79,748.11,373.81Z"/><path class="cls-9" d="M744.2,360.58l23.22-8.9c-.94-2.46-2-4.87-3.08-7.25l-22.55,10.5Q743.1,357.7,744.2,360.58Z"/><path class="cls-8" d="M741.79,354.93l22.55-10.5q-2.08-4.47-4.55-8.72l-21.54,12.42Q740.17,351.44,741.79,354.93Z"/><path class="cls-9" d="M749.89,387.48l24.84-1.29c-.14-2.63-.36-5.25-.67-7.84l-24.69,3Q749.75,384.4,749.89,387.48Z"/><path class="cls-5" d="M749.56,400.83l24.73,2.61c.21-2,.43-5,.53-7.63l-24.84-1C749.91,396.85,749.77,398.84,749.56,400.83Z"/><path class="cls-9" d="M738.25,348.13l21.54-12.42c-1.31-2.27-2.71-4.5-4.17-6.67L735,342.93Q736.71,345.48,738.25,348.13Z"/><path class="cls-9" d="M678.83,305.76l4.71-24.41c-3.19-.62-6.79-1.15-9.77-1.46l-2.61,24.73C674.14,304.93,676.34,305.28,678.83,305.76Z"/><path class="cls-5" d="M749.94,395.15l24.85.88c.13-3.3.1-6.58-.06-9.84l-24.84,1.29Q750.09,391.29,749.94,395.15Z"/><path class="cls-7" d="M575.86,375l-24.39-4.87c-.62,3.19-1.13,6.63-1.45,9.62l24.73,2.61C575,380.38,575.38,377.49,575.86,375Z"/><path class="cls-9" d="M692.22,309.45l8.51-23.37q-4.59-1.66-9.38-2.95l-6.45,24Q688.64,308.14,692.22,309.45Z"/><path class="cls-9" d="M704.77,315.17l12.07-21.75Q712.55,291,708,289L697.9,311.75C700.25,312.8,702.54,313.93,704.77,315.17Z"/><path class="cls-8" d="M730.44,336.76l19.33-15.64q-2.47-3.06-5.16-5.94l-18.19,16.95C727.81,333.63,729.16,335.17,730.44,336.76Z"/><path class="cls-8" d="M684.9,307.15l6.45-24c-2.52-.68-5.08-1.26-7.67-1.76l-4.76,24.4C680.94,306.17,682.94,306.62,684.9,307.15Z"/><path class="cls-9" d="M697.9,311.75,708,289q-3.59-1.59-7.3-2.95l-8.51,23.37Q695.12,310.5,697.9,311.75Z"/><path class="cls-8" d="M721,326.75l16.65-18.47q-2.91-2.62-6-5.07L716.26,322.8C717.87,324.07,719.44,325.38,721,326.75Z"/><path class="cls-8" d="M726.42,332.13l18.19-16.95q-3.35-3.6-7-6.9L721,326.75C722.85,328.47,724.68,330.26,726.42,332.13Z"/><path class="cls-9" d="M710,318.34l13.56-20.85q-3.29-2.14-6.74-4.07l-12.07,21.75C706.56,316.17,708.31,317.22,710,318.34Z"/><path class="cls-9" d="M716.26,322.8l15.32-19.59c-2.58-2-5.24-3.93-8-5.72L710,318.34Q713.24,320.44,716.26,322.8Z"/><path class="cls-6" d="M746.63,367.85,770.54,361q-1.37-4.75-3.12-9.33l-23.22,8.9C745.11,363,745.92,365.39,746.63,367.85Z"/><path class="cls-9" d="M717.39,460.37,733,479.71c2-1.65,4-3.38,5.94-5.16l-17-18.2C720.52,457.74,719,459.09,717.39,460.37Z"/><path class="cls-5" d="M699.22,471.73l10.5,22.54q4.47-2.08,8.72-4.55L706,468.18Q702.71,470.1,699.22,471.73Z"/><path class="cls-9" d="M693.57,474.13l8.9,23.22c2.46-.94,4.87-2,7.25-3.08l-10.5-22.54Q696.45,473,693.57,474.13Z"/><path class="cls-5" d="M706,468.18l12.42,21.54c2.27-1.31,4.5-2.7,6.67-4.17l-13.89-20.62C709.53,466.07,707.79,467.16,706,468.18Z"/><path class="cls-8" d="M711.22,464.93l13.89,20.62q4.1-2.76,7.92-5.84l-15.64-19.34Q714.41,462.79,711.22,464.93Z"/><path class="cls-7" d="M686.3,476.56l6.84,23.91q4.75-1.37,9.33-3.12l-8.9-23.22Q690,475.5,686.3,476.56Z"/><path class="cls-9" d="M666.67,479.82,668,504.66c2.63-.13,5.25-.36,7.84-.67l-3-24.69Q669.75,479.68,666.67,479.82Z"/><path class="cls-5" d="M680.34,478l5.16,24.33q3.87-.83,7.64-1.9l-6.84-23.91Q683.36,477.4,680.34,478Z"/><path class="cls-9" d="M652.7,479.43l-2.61,24.73c3,.31,5.33.46,7.94.56l.83-24.86C656.83,479.79,654.69,479.64,652.7,479.43Z"/><path class="cls-5" d="M672.78,479.3l3,24.69c3.27-.4,6.51-.94,9.7-1.62L680.34,478C677.86,478.57,675.33,479,672.78,479.3Z"/><path class="cls-9" d="M659,479.88l-.88,24.85c3.3.12,6.59.09,9.84-.07l-1.29-24.84C664.13,480,661.58,480,659,479.88Z"/><path class="cls-5" d="M722,456.35l17,18.2q3.6-3.36,6.9-7L727.4,450.89C725.68,452.78,723.89,454.61,722,456.35Z"/><path class="cls-9" d="M747,414.83l24,6.45c.68-2.52,1.26-5.08,1.76-7.67l-24.4-4.76Q747.8,411.9,747,414.83Z"/><path class="cls-8" d="M749.56,400.83c-.31,3-.68,5.31-1.16,7.8l24.42,4.65c.62-3.19,1-5.86,1.47-9.84Z"/><path class="cls-7" d="M742.4,427.84,765.12,438c1.06-2.38,2-4.82,3-7.29l-23.37-8.52Q743.65,425,742.4,427.84Z"/><path class="cls-9" d="M744.7,422.15l23.37,8.52q1.66-4.6,2.95-9.39l-24-6.45Q746,418.57,744.7,422.15Z"/><path class="cls-8" d="M731.35,446.19l19.59,15.32c2-2.58,3.93-5.24,5.73-8L735.81,440C734.41,442.11,732.92,444.18,731.35,446.19Z"/><path class="cls-8" d="M739,434.7l21.75,12.07q2.37-4.29,4.39-8.81L742.4,427.84Q740.84,431.35,739,434.7Z"/><path class="cls-5" d="M727.4,450.89l18.47,16.64c1.75-1.94,3.45-3.95,5.07-6l-19.59-15.32C730.08,447.8,728.77,449.37,727.4,450.89Z"/><path class="cls-5" d="M735.81,440l20.86,13.55c1.42-2.19,2.78-4.44,4.06-6.74L739,434.7C738,436.49,736.93,438.25,735.81,440Z"/><path class="cls-8" d="M577.59,416.23l-23.91,6.84q1.37,4.76,3.12,9.34l23.22-8.9Q578.66,419.94,577.59,416.23Z"/><path class="cls-7" d="M574.75,382.37,550,379.76c-.31,3-.48,5.47-.57,8.07l24.86.77C574.38,386.57,574.43,385.35,574.75,382.37Z"/><path class="cls-7" d="M582.42,429.15l-22.54,10.5q2.08,4.47,4.55,8.72L586,436Q584.05,432.64,582.42,429.15Z"/><path class="cls-9" d="M580,423.51l-23.22,8.9c.94,2.45,2,4.87,3.08,7.24l22.54-10.5Q581.13,426.38,580,423.51Z"/><path class="cls-9" d="M586,436l-21.54,12.42c1.31,2.28,2.7,4.5,4.17,6.68l20.62-13.9C588.08,439.46,587,437.72,586,436Z"/><path class="cls-9" d="M574.85,402.71l-24.69,3c.4,3.28,1,6.51,1.62,9.71l24.33-5.16Q575.32,406.55,574.85,402.71Z"/><path class="cls-7" d="M574.33,396.6l-24.84,1.29c.13,2.63.36,5.25.67,7.84l24.69-3Q574.48,399.68,574.33,396.6Z"/><path class="cls-9" d="M576.11,410.28l-24.33,5.16c.55,2.57,1.18,5.12,1.9,7.63l23.91-6.84Q576.75,413.29,576.11,410.28Z"/><path class="cls-9" d="M574.27,388.93l-24.85-.88c-.12,3.31-.09,6.59.07,9.84l24.84-1.29Q574.14,392.8,574.27,388.93Z"/><path class="cls-7" d="M589.22,441.15l-20.62,13.9q2.76,4.08,5.84,7.91l19.34-15.64Q591.37,444.34,589.22,441.15Z"/><path class="cls-8" d="M632,474.63,623.48,498q4.6,1.67,9.39,2.95l6.45-24Q635.59,475.93,632,474.63Z"/><path class="cls-7" d="M619.45,468.91l-12.07,21.75q4.29,2.38,8.81,4.39l10.12-22.72Q622.8,470.77,619.45,468.91Z"/><path class="cls-9" d="M645.21,478.3l-4.81,24.4c3.2.62,6.7,1.14,9.69,1.46l2.61-24.73C649.71,479.11,647.69,478.78,645.21,478.3Z"/><path class="cls-7" d="M626.31,472.33l-10.12,22.72c2.38,1.06,4.82,2.05,7.29,2.95L632,474.63Q629.11,473.58,626.31,472.33Z"/><path class="cls-7" d="M593.78,447.32,574.44,463c1.65,2,3.38,4,5.17,5.94L597.8,452C596.41,450.45,595.06,448.91,593.78,447.32Z"/><path class="cls-9" d="M639.32,476.94l-6.45,24c2.52.68,5.08,1.26,7.67,1.77l4.76-24.41C643.28,477.92,641.28,477.46,639.32,476.94Z"/><path class="cls-9" d="M608,461.28l-15.32,19.59q3.87,3,8,5.73l13.55-20.85C612.05,464.35,610,462.85,608,461.28Z"/><path class="cls-9" d="M614.19,465.75,600.64,486.6q3.29,2.14,6.74,4.06l12.07-21.75C617.66,467.92,615.9,466.86,614.19,465.75Z"/><path class="cls-7" d="M603.27,457.33,586.62,475.8q2.91,2.64,6,5.07L608,461.28C606.35,460,604.78,458.7,603.27,457.33Z"/><path class="cls-3" d="M597.8,452,579.61,468.9q3.35,3.6,7,6.9l16.65-18.47C601.37,455.61,599.54,453.82,597.8,452Z"/></g></svg>