<svg xmlns="http://www.w3.org/2000/svg" viewBox="0 0 1033.46 311"><defs><style>.cls-1{fill:#fff}.cls-3{opacity:.2}.cls-5{opacity:.4}.cls-7{fill:#f0c62f}.cls-8{fill:#fcff3c}.cls-9{fill:#db7b24}</style></defs><g id="Laag_3" data-name="Laag 3"><path class="cls-1" d="M352.71 88.63v149.79H330.1V88.63zM383.46 238.42L415 77.37l51.42 116.42 53.25-116.42 28.33 161h-23.19L510.36 148 466 245.31l-43-97.41-16.11 90.52zM667.72 202h-64.13l-16.69 36.42h-24.35l74.12-159.2 71.5 159.2h-24.73zm-9.22-21.25l-22.21-50.93L613 180.79zM968.66 202h-64.12l-16.69 36.38H863.5l74.12-159.2 71.5 159.2h-24.74zm-9.21-21.25l-22.22-50.93L914 180.79zM865.81 153h-58.36a21.81 21.81 0 0 1-.53 22H843a55.26 55.26 0 0 1-54.68 44.5 55.87 55.87 0 1 1 45.75-87.78l16.78-15.26a78.28 78.28 0 1 0 15 58.29 69.86 69.86 0 0 0 .81-10.87 67.23 67.23 0 0 0-.85-10.88z"/><path d="M797.37 153a13.88 13.88 0 1 0 4.86 10.55 13.87 13.87 0 0 0-4.86-10.55z" fill="#f77c10"/><g class="cls-3"><path class="cls-1" d="M192.68 61.76L201 43.17q-4.16-1.85-8.46-3.42l-7 19.13q3.64 1.32 7.14 2.88zM202.87 258.19L213 275.82q4-2.28 7.74-4.84l-11.34-16.87q-3.19 2.15-6.53 4.08z"/></g><g class="cls-3"><path class="cls-1" d="M161.13 272.16l2.47 20.2q5.7-.69 11.25-1.88l-4.22-19.91c-3.13.66-6.29 1.2-9.5 1.59zM37.44 158.68L17.1 158q-.21 5.74.08 11.4l20.32-1.05q-.24-4.82-.06-9.67zM97.28 87.71L86.06 71.06c-2.66 1.8-5.25 3.7-7.74 5.72l12.62 15.61q3.06-2.47 6.34-4.68z"/></g><path d="M232.57 193.51l18.87 6.88q1.63-4.5 2.89-9.19l-19.39-5.2c-.68 2.55-1.48 5.06-2.37 7.51z" opacity=".4" fill="#fff"/><path class="cls-1" d="M134.33 53l-2.47-20.2q-5.7.69-11.25 1.88l4.22 19.91c3.17-.65 6.29-1.19 9.5-1.59zM151.64 52.29l.72-20.29q-5.76-.26-11.36 0l1 20.36c3.19-.16 6.4-.19 9.64-.07z"/><path class="cls-1" d="M159.23 52.82l2.14-20.24c-2.82-.3-6-.52-9.06-.63l-.74 20.33c2.55.1 5.31.29 7.66.54zM46.91 117.64l-18.59-8.29q-1.86 4.16-3.42 8.46l19.12 7c.88-2.46 1.85-4.81 2.89-7.17z"/><path class="cls-1" d="M44 124.78l-19.12-7q-1.93 5.32-3.43 10.88L41.13 134q1.25-4.72 2.87-9.22zM60.79 94.59l-16-12.54q-3.51 4.49-6.64 9.27l17.06 11.1q2.61-4.05 5.58-7.83zM86.06 71.06L74.69 54.18c-3.15 2.13-6.22 4.39-9.17 6.78l12.8 15.82c2.49-2.02 5.08-3.92 7.74-5.72zM257.51 174l20.24 2.14c.29-2.82.51-6 .62-9l-20.37-.81c0 2.55-.25 5.28-.49 7.67zM255.71 139.69l19.92-4.23c-.64-3-1.37-5.94-2.21-8.85l-19.57 5.6q1.07 3.69 1.86 7.48zM207.9 70L219 53q-3.81-2.49-7.82-4.71l-9.87 17.8q3.37 1.85 6.59 3.91zM201.3 66.06l9.87-17.8q-5-2.76-10.2-5.09l-8.29 18.59q4.41 1.98 8.62 4.3zM185.53 58.88l7-19.13c-3.56-1.29-7.18-2.44-10.88-3.42L176.35 56c3.12.82 6.19 1.79 9.18 2.88z"/><path class="cls-1" d="M215.72 75.64l12.54-16Q223.79 56.1 219 53l-11.1 17a126.3 126.3 0 0 1 7.82 5.64zM256.07 183.59l20 3.84c.71-3.7 1.25-7.1 1.7-11.33l-20.26-2.1c-.35 3.25-.84 6.47-1.44 9.59zM209.4 254.11L220.77 271c3.15-2.12 6.22-4.38 9.17-6.77l-12.8-15.82c-2.49 2-5.08 3.9-7.74 5.7zM229.71 236.47l15.12 13.63q3-3.39 5.87-7l-16-12.54c-1.62 2.04-3.27 4.01-4.99 5.91zM251.44 200.39l19.12 7q1.94-5.39 3.44-10.91l-19.66-5.28q-1.26 4.7-2.9 9.19zM136.05 272.33l-2.13 20.24c2.82.3 6.12.53 9.14.64l.7-20.34c-2.55-.09-5.36-.29-7.71-.54z"/><path class="cls-1" d="M223 243.34l13.87 14.89c2.78-2.59 5.45-5.31 8-8.13l-15.12-13.63q-3.26 3.59-6.75 6.87zM240.28 222.75l17.06 11.09q2.49-3.81 4.71-7.81l-17.8-9.88q-1.87 3.38-3.97 6.6zM44.66 202.09l-19 7.29c1.09 2.84 2.29 5.64 3.57 8.39l18.45-8.59c-1.09-2.32-2.1-4.68-3.02-7.09zM52.12 217.72l-17.63 10.17q2.3 3.95 4.84 7.73l16.88-11.37q-2.16-3.19-4.09-6.53z"/><path class="cls-1" d="M47.67 209.18l-18.45 8.59c1.61 3.46 3.38 6.83 5.27 10.12l17.63-10.17q-2.4-4.17-4.45-8.54zM37.5 168.31l-20.32 1.05q.22 4.59.77 9.09L38.16 176q-.46-3.81-.66-7.69zM109.93 266.29l-7 19.13q5.34 1.93 10.88 3.42l5.28-19.66c-3.09-.83-6.17-1.8-9.16-2.89zM94.16 259.11l-9.87 17.8q5 2.76 10.2 5.09l8.29-18.6q-4.41-1.97-8.62-4.29zM67 237.81l-14.91 13.87q3.88 4.19 8.13 8l13.62-15.12c-2.38-2.15-4.68-4.4-6.84-6.75zM126.58 270.9l-3.92 20c3.7.71 7.5 1.29 11.26 1.69l2.13-20.24c-3.29-.35-6.35-.84-9.47-1.45zM102.62 84.37L92.59 67c-2.22 1.28-4.4 2.65-6.53 4.08l11.22 16.63c1.72-1.17 3.52-2.29 5.34-3.34zM129 74.24l-4.17-19.64q-3.78.8-7.47 1.86l5.52 19.3q3.02-.85 6.12-1.52zM150.93 72.36l.71-20.07c-3.24-.12-6.45-.09-9.63.07l1 20q3.99-.14 7.92 0z"/><path class="cls-1" d="M143.05 72.41l-1-20c-2.58.13-5.14.34-7.68.65l2.4 19.94c2.07-.31 4.17-.48 6.28-.59zM72 113.36l-16.82-10.94q-2.1 3.22-4 6.6l17.56 9.74q1.56-2.76 3.26-5.4zM237.91 157.9l20-1q-.19-3.87-.66-7.68l-19.93 2.44q.43 3.08.59 6.24z"/><path class="cls-1" d="M238 165.78l20.06.71q.18-4.86-.06-9.63l-20 1c0 2.65.06 5.27 0 7.92zM203.36 91.46l12.36-15.82c-2.52-2-5.13-3.85-7.82-5.6L197 86.87c2.16 1.44 4.29 2.97 6.36 4.59zM184.5 80.1l8.18-18.34q-3.51-1.56-7.15-2.88l-6.87 18.86q2.97 1.08 5.84 2.36zM222.6 112.13l16.65-11.21q-2.69-4-5.72-7.75l-15.61 12.63c1.66 2.04 3.21 4.2 4.68 6.33zM213.79 101l14.69-13.68c-2.18-2.35-4.48-4.6-6.86-6.76l-13.44 14.96q2.93 2.64 5.61 5.48zM180.05 246.91l7.19 18.75c2.4-.93 4.76-1.93 7.09-3l-8.48-18.2q-2.85 1.32-5.8 2.45zM144.53 252.81l-.71 20.07q4.86.17 9.63-.07l-1-20.05q-3.94.24-7.92.05zM166.46 250.92l4.17 19.65q3.78-.81 7.47-1.86l-5.52-19.31q-3.01.87-6.12 1.52z"/><path class="cls-1" d="M152.41 252.76l1 20.05q3.87-.19 7.68-.65l-2.44-19.94c-2.03.25-4.13.43-6.24.54zM103.91 241.55l-9.75 17.56q4.2 2.33 8.62 4.29l8.22-18.34q-3.65-1.6-7.09-3.51zM63.41 194.91l-18.75 7.18c.92 2.41 1.93 4.77 3 7.09l18.2-8.47c-.86-1.91-1.7-3.84-2.45-5.8zM72.86 213l-16.65 11.25q2.68 4 5.72 7.75l15.61-12.63a82.115 82.115 0 0 1-4.68-6.37z"/><path class="cls-1" d="M60.91 187.43L41.61 193q1.32 4.65 3 9.13l18.75-7.18q-1.36-3.71-2.45-7.52zM130.42 251.2l-3.87 19.7c3.13.61 6.21 1.08 9.5 1.43l2.11-20c-2.82-.26-5.16-.64-7.74-1.13zM57.55 167.27l-20 1q.2 3.87.66 7.67l19.93-2.43q-.42-3.08-.59-6.24zM81.67 224.13L67 237.81c2.18 2.35 4.48 4.6 6.86 6.75l13.44-14.91q-2.95-2.65-5.63-5.52z"/><path class="cls-1" d="M124.32 249.79l-5.21 19.39q3.7 1 7.51 1.73l3.84-19.71q-3.12-.6-6.14-1.41zM124.4 101.72l-9-23.46q-3 1.14-5.8 2.47l10.61 22.77a76.22 76.22 0 0 1 4.19-1.78zM150 97.46l.89-25.1q-4-.15-7.88 0l1.3 25.09c1.92-.05 3.82-.06 5.69.01zM139.82 97.89l-3-24.94a86.8 86.8 0 0 0-7.77 1.29l5.21 24.58q2.74-.58 5.56-.93zM83.78 150l-24.65-4.85c-.5 2.55-.92 5.38-1.17 7.73l25 2.64c.19-1.87.46-3.66.82-5.52z"/><path class="cls-1" d="M154.49 97.77l2.64-25c-1.88-.2-4.16-.36-6.25-.44L150 97.45c1.48.06 3.08.17 4.49.32zM99.32 119l-18.66-16.86c-1.4 1.55-2.76 3.16-4 4.82l19.74 15.48c.93-1.2 1.91-2.36 2.92-3.44zM90.74 131l-22-12.2q-1.92 3.43-3.52 7L88.2 136c.8-1.69 1.62-3.39 2.54-5zM201.77 126.17l20.83-14c-1.47-2.17-3-4.29-4.68-6.33l-19.53 15.8a56.7 56.7 0 0 1 3.38 4.53zM212.43 154.67l24.94-3c-.32-2.62-.76-5.21-1.3-7.77l-24.58 5.21c.39 1.8.71 3.67.94 5.56zM170.05 101.35l8.61-23.61c-2.46-.89-5-1.68-7.52-2.36l-6.51 24.26c1.84.49 3.65 1.07 5.42 1.71zM195.41 118.17L213.79 101q-2.68-2.88-5.61-5.52l-16.82 18.66q2.12 1.95 4.05 4.03z"/><path class="cls-1" d="M191.36 114.18l16.82-18.66q-2.34-2.11-4.82-4.06l-15.48 19.79c1.19.94 2.35 1.91 3.48 2.93zM83 155.53l-25-2.64a97.18 97.18 0 0 0-.45 6.39l25.11.84c.02-1.5.09-2.71.34-4.59zM187.88 111.25l15.48-19.79c-2.07-1.62-4.2-3.15-6.41-4.59l-13.69 21.07q2.39 1.56 4.62 3.31zM180.28 219l12.56 21.77c1.82-1.05 3.6-2.17 5.34-3.34l-14-20.84c-1.29.88-2.58 1.69-3.9 2.41zM151.11 227.67l1.3 25.09c2.11-.11 4.21-.29 6.28-.54l-3.05-24.94q-2.25.27-4.53.39zM82.61 160.28l-25.11-.89c-.1 2.65-.08 5.27 0 7.88L82.65 166c-.1-1.92-.11-3.81-.04-5.72zM211.7 174.94l24.67 4.76c.49-2.56.87-5 1.17-7.84l-25-2.64a54.78 54.78 0 0 1-.84 5.72zM209 184.91l23.61 8.6c.89-2.45 1.69-5 2.37-7.51l-24.27-6.52q-.77 2.78-1.71 5.43zM145.42 227.71l-.89 25.1q4 .15 7.88-.05l-1.3-25.09c-1.88.09-3.78.11-5.69.04z"/><path class="cls-1" d="M207.26 189.12l23 10.23q1.28-2.86 2.36-5.84l-23.62-8.6c-.56 1.43-1.13 2.83-1.74 4.21zM161.25 226.34l5.21 24.58q3.1-.64 6.12-1.52l-6.92-24.15c-1.45.41-2.92.75-4.41 1.09zM97.07 203.57l-19.53 15.8q2 2.44 4.13 4.76L100.05 207a50.442 50.442 0 0 1-2.98-3.43zM91.28 195.14l-21.76 12.55q1.58 2.73 3.34 5.34l20.83-14q-1.27-1.92-2.41-3.89zM83 170.5l-24.94 3.05c.32 2.62.76 5.21 1.3 7.77L84 176.1c-.42-1.84-.74-3.71-1-5.6z"/><path class="cls-1" d="M82.65 166l-25.1 1.31q.16 3.16.54 6.28L83 170.5c-.15-1.5-.28-3.01-.35-4.5zM84 176.1l-24.58 5.22c.44 2.06.94 4.1 1.52 6.11l24.16-6.91c-.45-1.45-.81-2.93-1.1-4.42zM130.83 225.53l-6.51 24.26q3 .81 6.14 1.41l4.8-24.66c-1.49-.29-2.97-.62-4.43-1.01zM125.41 223.82l-8.61 23.61c2.46.89 5 1.68 7.52 2.36l6.51-24.26q-2.76-.75-5.42-1.71z"/><path class="cls-1" d="M135.22 226.54l-4.83 24.66c2.56.49 5 .87 7.77 1.16l2.64-25c-1.88-.18-3.73-.46-5.58-.82z"/><g class="cls-5"><path class="cls-1" d="M108.22 59.51l-7.28-19q-4.27 1.65-8.4 3.58l8.59 18.45q3.5-1.64 7.09-3.03zM124.83 54.6l-4.22-19.91q-4.48.95-8.86 2.2l5.61 19.57q3.64-1.06 7.47-1.86z"/><path class="cls-1" d="M101.13 62.53l-8.59-18.45q-5.17 2.41-10.11 5.27L92.59 67q4.17-2.43 8.54-4.47zM78.32 76.78L65.52 61q-3.55 2.86-6.89 6L72.5 81.83q2.82-2.62 5.82-5.05zM257.3 149.18l20.21-2.47c-.46-3.79-1.1-7.54-1.88-11.25l-19.92 4.23c.67 3.12 1.2 6.31 1.59 9.49zM239.25 100.92l16.88-11.37q-3.19-4.74-6.77-9.18l-15.83 12.8q3.03 3.75 5.72 7.75zM194.33 262.64l8.59 18.45q5.18-2.41 10.11-5.27l-10.16-17.63q-4.17 2.4-8.54 4.45zM187.24 265.66l7.28 19q4.28-1.64 8.4-3.57l-8.59-18.45a113.39 113.39 0 0 1-7.09 3.02z"/><path class="cls-1" d="M178.1 268.71l5.61 19.57q5.49-1.57 10.81-3.62l-7.28-19q-4.48 1.73-9.14 3.05zM153.45 272.81l1.06 20.33c3.05-.16 6.09-.41 9.09-.78l-2.47-20.2q-3.81.45-7.68.65z"/><path class="cls-1" d="M143.82 272.88l-.72 20.33q5.76.21 11.41-.07l-1.06-20.33q-4.77.24-9.63.07zM248.55 207.53l18.59 8.29q1.86-4.15 3.42-8.46l-19.12-7c-.88 2.45-1.85 4.83-2.89 7.17zM256.05 183.7c-.49 2.53-1.06 5-1.72 7.5l19.67 5.28c.78-2.92 1.46-5.89 2-8.89zM244.25 216.15l17.8 9.88q2.76-5 5.09-10.21l-18.59-8.29q-1.96 4.47-4.3 8.62zM234.67 230.58l16 12.54q3.51-4.49 6.64-9.28l-17.06-11.09q-2.61 4.05-5.58 7.83zM38 150.78l-20.24-2.13c-.35 3.29-.54 6.18-.65 9.2l20.34.67c.1-2.52.25-4.92.55-7.74zM119.11 269.18l-5.28 19.66q4.38 1.17 8.9 2l3.89-20q-3.81-.66-7.51-1.66zM115.41 78.26l-7.19-18.75q-3.6 1.38-7.09 3l8.48 18.2q2.85-1.31 5.8-2.45zM109.61 80.73l-8.48-18.2q-4.36 2-8.54 4.45l10 17.39c2.31-1.31 4.63-2.53 7.02-3.64zM165 74l3.82-19.71c-3.13-.6-6.26-1.08-9.55-1.43l-2.1 20c2.83.22 5.23.61 7.83 1.14zM136.77 73l-2.44-20c-3.21.39-6.37.93-9.5 1.59L129 74.24c2.55-.54 5.15-.98 7.77-1.24zM68.77 118.76L51.21 109q-2.34 4.19-4.3 8.62l18.34 8.17q1.6-3.59 3.52-7.03zM65.25 125.81l-18.34-8.17c-1 2.33-2 4.71-2.89 7.14l18.87 6.88q1.11-2.99 2.36-5.85zM60.52 139.17L41.13 134q-1 3.71-1.72 7.51l19.7 3.84q.6-3.14 1.41-6.18zM76.61 107L60.79 94.59q-3 3.78-5.61 7.83L72 113.36c1.45-2.2 3-4.36 4.61-6.36zM178.66 77.74l6.87-18.86c-3-1.09-6.06-2.06-9.18-2.9l-5.21 19.4c2.56.68 5.06 1.47 7.52 2.36zM237.37 151.62l19.93-2.44c-.39-3.2-.92-6.37-1.59-9.49l-19.64 4.16c.54 2.56.98 5.15 1.3 7.77zM232.05 130.26l18.75-7.18c-.92-2.41-1.93-4.77-3-7.09l-18.2 8.47c.87 1.9 1.7 3.84 2.45 5.8z"/><path class="cls-1" d="M171.14 75.38L176.35 56q-3.71-1-7.51-1.72L165 74q3.12.57 6.14 1.38zM197 86.87L207.9 70q-3.22-2.1-6.6-4l-9.75 17.56c1.84 1.08 3.64 2.17 5.45 3.31zM217.92 105.8l15.61-12.63c-1.61-2-3.3-3.93-5.05-5.81L213.79 101q2.15 2.35 4.13 4.8zM157.13 72.79l2.1-20c-2.35-.25-5.09-.44-7.64-.53l-.73 20.06c2.14.1 4.39.27 6.27.47zM192.84 240.8l10 17.39q3.33-1.94 6.53-4.08l-11.22-16.65a81.938 81.938 0 0 1-5.31 3.34zM172.58 249.4l5.52 19.31q4.65-1.33 9.14-3l-7.19-18.75c-2.44.89-4.94 1.72-7.47 2.44zM158.69 252.22l2.44 19.94c3.21-.39 6.37-.93 9.5-1.59l-4.17-19.65c-2.55.55-5.15.98-7.77 1.3zM209.27 228.65L223 243.34q3.53-3.28 6.75-6.87L214.8 223c-1.8 2-3.61 3.86-5.53 5.65zM138.16 252.36l-2.11 20c2.35.25 5.18.45 7.73.54l.69-20.06c-2.08-.11-4.47-.28-6.31-.48zM234.94 186l19.39 5.2c.66-2.46 1.23-5 1.72-7.5l-19.7-3.85q-.6 3.15-1.41 6.15zM218.85 218.21l15.82 12.37q3-3.78 5.61-7.83l-16.84-10.94a93.162 93.162 0 0 1-4.59 6.4z"/><path class="cls-1" d="M214.8 223l14.91 13.44c1.72-1.9 3.37-3.87 5-5.89l-15.82-12.37a84.921 84.921 0 0 1-4.09 4.82zM65.87 200.71l-18.2 8.47q2 4.38 4.45 8.54l17.4-10c-1.32-2.3-2.52-4.63-3.65-7.01z"/><path class="cls-1" d="M69.52 207.69l-17.4 10q1.93 3.33 4.09 6.53L72.86 213q-1.77-2.58-3.34-5.31zM59.39 181.32l-19.64 4.16c.53 2.52 1.15 5 1.86 7.48l19.3-5.53c-.58-2.01-1.08-4.05-1.52-6.11z"/><path class="cls-1" d="M58.09 173.55L38.16 176q.59 4.82 1.59 9.5l19.64-4.16c-.54-2.58-.98-5.17-1.3-7.79zM111 245.06l-8.18 18.34q3.51 1.58 7.15 2.89l6.87-18.86c-2.02-.73-3.97-1.51-5.84-2.37zM106.75 111.92L90.94 92.39q-2.44 2-4.75 4.13l17.12 18.38c1.11-1.03 2.26-2.03 3.44-2.98zM115.18 106.13l-12.56-21.76c-1.82 1-3.6 2.17-5.34 3.34l14 20.83c1.29-.84 2.58-1.65 3.9-2.41zM144.35 97.5l-1.3-25.09c-2.11.11-4.21.28-6.28.54l3 24.94q2.3-.27 4.58-.39z"/><path class="cls-1" d="M111.32 108.54l-14-20.83q-3.32 2.21-6.38 4.68l15.81 19.53c1.47-1.19 3-2.32 4.57-3.38zM88.2 136l-23-10.23q-1.27 2.87-2.36 5.85l23.61 8.6c.55-1.39 1.14-2.8 1.75-4.22zM84.79 145.69l-24.27-6.52q-.81 3-1.41 6.14l24.66 4.81c.29-1.5.63-2.98 1.02-4.43zM93.08 127.06L72 113.36q-1.72 2.64-3.25 5.4l22 12.2q1.1-1.96 2.33-3.9zM103.31 114.9L86.19 96.52a91.624 91.624 0 0 0-5.53 5.62L99.32 119c1.28-1.45 2.6-2.81 3.99-4.1zM212.81 159.21l25.1-1.31q-.16-3.17-.54-6.28l-24.94 3c.18 1.55.31 3.06.38 4.59zM206.81 135.07l22.78-10.61a94.921 94.921 0 0 0-3.65-7L204.18 130q1.43 2.49 2.63 5.07zM204.18 130l21.76-12.55q-1.58-2.73-3.34-5.35l-20.83 14q1.23 1.96 2.41 3.9z"/><path class="cls-1" d="M208.59 139.26l23.46-9c-.75-2-1.58-3.9-2.46-5.8l-22.78 10.61c.64 1.37 1.24 2.77 1.78 4.19zM179.36 105.59l12.19-22q-3.44-1.91-7.05-3.52l-10.23 23c1.73.76 3.44 1.6 5.09 2.52zM160.15 98.62L164.94 74c-2.56-.5-5-.88-7.81-1.17l-2.64 25c1.88.17 3.82.43 5.66.79zM164.63 99.64l6.51-24.26q-3-.81-6.14-1.41l-4.8 24.65c1.49.29 2.97.63 4.43 1.02zM183.26 107.94L197 86.87a91.934 91.934 0 0 0-5.4-3.25l-12.19 22q1.95 1.08 3.85 2.32zM171.06 223.44l9 23.47q3-1.14 5.8-2.47l-10.61-22.78c-1.38.64-2.77 1.24-4.19 1.78zM192.15 210.26l17.12 18.39c1.92-1.79 3.77-3.67 5.53-5.62l-18.66-16.82c-1.28 1.41-2.6 2.79-3.99 4.05zM184.14 216.62l14 20.84q3.27-2.21 6.34-4.68l-15.81-19.53a56.595 56.595 0 0 1-4.53 3.37zM165.66 225.25l6.92 24.15c2.53-.72 5-1.55 7.47-2.49l-9-23.47q-2.65 1.02-5.39 1.81zM202.38 198.11l21.06 13.7q1.73-2.64 3.25-5.4l-22-12.2q-1.08 2-2.31 3.9zM210.67 179.48l24.27 6.52q.81-3 1.41-6.15l-24.66-4.8c-.29 1.5-.63 2.95-1.02 4.43z"/><path class="cls-1" d="M196.14 206.21L214.8 223c1.4-1.56 2.76-3.16 4-4.82l-19.79-15.48c-.88 1.23-1.86 2.39-2.87 3.51zM199.06 202.73l19.79 15.48c1.62-2.06 3.16-4.2 4.59-6.4l-21.06-13.7q-1.56 2.38-3.32 4.62zM204.72 194.21l22 12.2q1.92-3.43 3.52-7.06l-23-10.23a58.69 58.69 0 0 1-2.52 5.09zM93.69 199l-20.83 14c1.47 2.18 3 4.3 4.68 6.34l19.53-15.8a58.737 58.737 0 0 1-3.38-4.54zM86.87 185.91l-23.46 9c.75 2 1.58 3.89 2.46 5.8l22.78-10.61c-.65-1.37-1.24-2.77-1.78-4.19zM140.8 227.38l-2.64 25c1.88.2 4.25.37 6.33.45l.87-25.11c-1.51-.07-3.15-.19-4.56-.34z"/></g><g class="cls-3"><path class="cls-1" d="M117.36 56.46l-5.61-19.57q-5.49 1.57-10.81 3.61l7.28 19q4.48-1.71 9.14-3.04zM51.21 109l-17.8-9.88q-2.76 5-5.09 10.21l18.59 8.29q1.97-4.4 4.3-8.62z"/><path class="cls-1" d="M55.18 102.42l-17.06-11.1q-2.49 3.83-4.71 7.82l17.8 9.86q1.88-3.35 3.97-6.58zM65.75 88.7L50.63 75.07q-3 3.39-5.87 7l16 12.54c1.62-2.04 3.24-4.01 4.99-5.91z"/><path class="cls-1" d="M72.5 81.83L58.63 66.94q-4.17 3.89-8 8.13L65.75 88.7q3.25-3.58 6.75-6.87zM247.79 116l18.45-8.6c-1.61-3.45-3.38-6.82-5.27-10.11l-17.63 10.17q2.4 4.14 4.45 8.54zM176.35 56l5.28-19.65q-4.38-1.17-8.9-2l-3.89 20q3.81.65 7.51 1.65zM258 156.86l20.32-1.05q-.22-4.59-.77-9.1l-20.21 2.47q.43 3.82.66 7.68z"/><path class="cls-1" d="M258 166.49l20.34.72c.14-3.83.11-7.64-.08-11.4L258 156.86q.2 4.77 0 9.63zM228.48 87.36l14.89-13.88q-3.88-4.17-8.13-8L221.62 80.6c2.38 2.16 4.68 4.4 6.86 6.76z"/><path class="cls-1" d="M233.53 93.17l15.83-12.8q-2.88-3.54-6-6.89l-14.88 13.88c1.75 1.88 3.44 3.82 5.05 5.81zM39.42 141.37l-20-4c-.72 3.7-1.29 7.47-1.69 11.23L38 150.78c.3-2.78.81-6.29 1.42-9.41zM79.74 249.52l-12.54 16q4.47 3.51 9.27 6.64l11.09-17.07c-2.69-1.71-5.3-3.59-7.82-5.57zM39.75 185.48l-19.92 4.22c.64 3 1.37 5.94 2.21 8.86L41.61 193c-.71-2.5-1.33-5-1.86-7.52zM56.21 224.25l-16.88 11.37q3.2 4.74 6.77 9.18L61.93 232q-3.03-3.75-5.72-7.75zM102.78 263.4L94.49 282q4.16 1.85 8.46 3.42l7-19.13q-3.66-1.29-7.17-2.89z"/><path class="cls-1" d="M73.84 244.56l-13.62 15.12q3.38 3.06 7 5.88l12.54-16c-2.05-1.62-4.01-3.28-5.92-5zM80.66 102.14L65.75 88.7c-1.72 1.9-3.37 3.87-5 5.89L76.61 107c1.29-1.7 2.65-3.31 4.05-4.86zM90.94 92.39L78.32 76.78q-3 2.43-5.82 5l13.69 14.74q2.31-2.14 4.75-4.13z"/><path class="cls-1" d="M86.19 96.52L72.5 81.83q-3.5 3.29-6.75 6.87l14.91 13.44c1.76-1.95 3.61-3.83 5.53-5.62zM234.55 137.74l19.3-5.53q-1.32-4.65-3-9.13l-18.75 7.18q1.36 3.68 2.45 7.48zM229.59 124.46l18.2-8.47q-2-4.38-4.45-8.54l-17.4 10a97.18 97.18 0 0 1 3.65 7.01zM59.12 145.21l-19.7-3.89c-.6 3.12-1.12 6.64-1.42 9.46l20 2.11c.21-2.35.63-5.13 1.12-7.68zM237.54 171.86l20 2.1c.24-2.35.43-5 .52-7.58l-20-.76c-.16 2.09-.32 4.38-.52 6.24z"/><path class="cls-1" d="M225.94 117.48l17.4-10q-1.93-3.35-4.09-6.53l-16.65 11.18q1.77 2.63 3.34 5.35zM208.18 95.52l13.44-14.92c-1.91-1.72-3.87-3.37-5.9-5l-12.36 15.86q2.47 1.95 4.82 4.06zM185.85 244.44l8.48 18.2q4.36-2 8.54-4.45l-10-17.39a97.268 97.268 0 0 1-7.02 3.64zM198.18 237.46l11.22 16.65c2.66-1.8 5.25-3.7 7.74-5.72l-12.62-15.61q-3.07 2.48-6.34 4.68zM204.52 232.78l12.62 15.61q3-2.43 5.82-5l-13.69-14.69q-2.27 2.1-4.75 4.08zM237.54 171.86c-.3 2.82-.68 5.33-1.18 7.89l19.71 3.79c.61-3.13 1.09-6.29 1.44-9.58zM226.69 206.41l17.56 9.74q2.34-4.2 4.3-8.62l-18.34-8.18q-1.61 3.65-3.52 7.06zM77.54 219.37L61.93 232c1.61 2 3.3 3.93 5.05 5.81l14.69-13.68q-2.15-2.31-4.13-4.76zM57.5 159.39l-20.06-.71q-.18 4.84.06 9.63l20-1c-.08-2.65-.1-5.31 0-7.92zM116.8 247.43l-6.87 18.86c3 1.09 6.06 2.06 9.18 2.89l5.21-19.39c-2.56-.68-5.06-1.47-7.52-2.36zM87.28 229.65l-13.44 14.91c1.91 1.72 3.87 3.38 5.9 5l12.36-15.85q-2.47-1.95-4.82-4.06zM98.51 238.3l-11 16.83q3.22 2.1 6.6 4l9.75-17.56a129.81 129.81 0 0 1-5.35-3.27zM129.8 99.92l-6.92-24.16c-2.53.73-5 1.56-7.47 2.5l9 23.46q2.65-1 5.39-1.8zM120.22 103.5l-10.61-22.77a92.85 92.85 0 0 0-7 3.64l12.56 21.76c1.64-.94 3.33-1.82 5.05-2.63z"/><path class="cls-1" d="M134.21 98.82L129 74.24q-3.1.66-6.12 1.52l6.92 24.16c1.45-.41 2.92-.78 4.41-1.1zM86.5 140.26l-23.61-8.6c-.89 2.45-1.69 5-2.37 7.51l24.27 6.52q.74-2.77 1.71-5.43zM96.4 122.44L76.61 107c-1.62 2.06-3.16 4.2-4.59 6.4l21.06 13.7q1.56-2.42 3.32-4.66zM212.85 164.89l25.11.89c.1-2.65.08-5.27-.05-7.88l-25.1 1.31c.1 1.87.11 3.79.04 5.68zM210.39 144.65l24.16-6.91q-1.1-3.81-2.5-7.48l-23.46 9q1.02 2.64 1.8 5.39z"/><path class="cls-1" d="M211.49 149.06l24.58-5.21c-.44-2.06-.94-4.1-1.52-6.11l-24.16 6.91c.42 1.45.78 2.92 1.1 4.41zM174.27 103.05l10.23-23q-2.87-1.27-5.84-2.36l-8.61 23.61c1.43.57 2.84 1.14 4.22 1.75zM188.71 213.25l15.81 19.53q2.44-2 4.75-4.13l-17.12-18.39c-1.15 1.04-2.26 2.03-3.44 2.99zM212.86 164.79c-.05 1.5-.15 3-.3 4.43l25 2.64c.2-1.88.36-4.15.44-6.24zM85.07 180.52l-24.16 6.91q1.1 3.81 2.5 7.48l23.46-9q-1.02-2.64-1.8-5.39zM100.05 207l-18.38 17.13q2.68 2.88 5.61 5.52L104.1 211q-2.1-1.92-4.05-4zM116.1 219.58l-12.19 22q3.44 1.9 7 3.51l10.23-22.95c-1.69-.8-3.39-1.65-5.04-2.56z"/><path class="cls-1" d="M104.1 211l-16.82 18.65q2.34 2.11 4.82 4.06l15.48-19.79q-1.78-1.41-3.48-2.92z"/></g><path class="cls-1" d="M121.1 116.41l-5.92-10.28a65.8 65.8 0 0 0-3.86 2.41l6.63 9.85c1.05-.7 2.05-1.39 3.15-1.98zM149.62 109.32l.38-11.86c-1.91-.07-3.81-.06-5.69 0l.62 11.85c1.57-.03 3.12-.05 4.69.01z"/><path class="cls-1" d="M145 109.35l-.62-11.85q-2.28.12-4.53.39l1.44 11.78c1.19-.15 2.43-.25 3.71-.32zM99 140.88L88.2 136c-.61 1.38-1.18 2.79-1.7 4.22l11.15 4.07c.42-1.13.89-2.29 1.35-3.41zM200.05 172.67l11.66 2.22c.35-1.84.6-3.32.85-5.67L200.75 168a45.56 45.56 0 0 1-.7 4.67zM96.25 148.76l-11.46-3.07c-.39 1.45-.73 2.93-1 4.43l11.65 2.27c.22-1.23.49-2.39.81-3.63zM166.81 212.36l4.25 11.08c1.42-.54 2.81-1.14 4.18-1.78l-5-10.76c-1.13.53-2.24 1.01-3.43 1.46z"/><path class="cls-1" d="M162.4 213.83l3.26 11.42q2.75-.8 5.4-1.81l-4.25-11.08c-1.44.55-2.92 1.05-4.41 1.47zM118.67 207.28l-6.47 9.95q1.9 1.25 3.9 2.35l5.76-10.38c-1.09-.61-2.15-1.2-3.19-1.92zM106.29 196.1l-9.22 7.47c1 1.18 2 2.32 3 3.43l8.68-8.09c-.86-.91-1.68-1.84-2.46-2.81zM124.52 128.13l-6.52-9.74q-1.94 1.29-3.74 2.76l7.39 9.14c.89-.76 1.86-1.48 2.87-2.16zM136.3 122.64l-3.24-11.31c-1.49.43-3 .92-4.41 1.48l4.21 11c1.14-.46 2.27-.81 3.44-1.17zM119.41 132.19l-8-8.6c-1.13 1-2.22 2.16-3.26 3.31l8.73 7.87c.8-.9 1.65-1.77 2.53-2.58zM112.89 139.94l-9.89-6.41c-.68 1-1.32 2.1-1.92 3.19l10.28 5.7c.51-.85 1.01-1.68 1.53-2.48z"/><path class="cls-1" d="M115 137l-9.26-7.24a52.91 52.91 0 0 0-2.7 3.78l9.85 6.41c.66-1.03 1.37-2.01 2.11-2.95zM189.07 166.74l11.68 1.26c.1-.94.21-2.37.25-3.6l-11.74-.47c-.03.93-.09 1.87-.19 2.81z"/><path class="cls-1" d="M189.25 164.05l11.74.42q.09-2.34 0-4.65l-11.74.61c.03 1.2.04 2.41 0 3.62zM187.68 151.15l11.3-3.23c-.43-1.5-.92-3-1.47-4.42l-11 4.21c.49 1.13.83 2.29 1.17 3.44zM165.27 200.25l5 10.65q2.11-1 4.13-2.15l-5.88-10.18q-1.6.92-3.25 1.68z"/><path class="cls-1" d="M168.48 198.57l5.88 10.18c1.07-.62 2.12-1.27 3.15-2l-6.57-9.75q-1.2.85-2.46 1.57zM156.35 203.23l2.44 11.5c1.22-.26 2.42-.56 3.61-.9l-3.24-11.3c-.92.27-1.86.47-2.81.7z"/><path class="cls-1" d="M152.77 203.83l1.43 11.67c1.55-.19 3.08-.45 4.59-.77l-2.44-11.5c-1.18.25-2.35.45-3.58.6zM176.05 193l8 8.6c1.13-1.05 2.22-2.16 3.26-3.31l-8.73-7.87c-.8.88-1.65 1.74-2.53 2.58zM178.59 190.4l8.73 7.87q1.25-1.38 2.4-2.85l-9.26-7.24c-.6.76-1.22 1.5-1.87 2.22zM182.57 185.23l9.85 6.41c.68-1 1.32-2.1 1.92-3.19l-10.28-5.7c-.47.85-.97 1.67-1.49 2.48z"/><g opacity=".1"><path class="cls-1" d="M133.06 111.33l-3.26-11.41q-2.75.8-5.4 1.8l4.25 11.09a51.86 51.86 0 0 1 4.41-1.48zM141.26 109.67l-1.44-11.78q-2.83.35-5.61.93l2.46 11.62c1.51-.32 3.04-.58 4.59-.77zM118 118.39l-6.63-9.85c-1.57 1.06-3.1 2.19-4.57 3.38l7.46 9.23q1.74-1.47 3.74-2.76zM108.14 126.9l-8.82-7.9c-1 1.12-2 2.28-2.92 3.48l9.34 7.31q1.16-1.51 2.4-2.89zM197.51 143.5l11.08-4.24c-.54-1.42-1.14-2.82-1.78-4.19l-10.76 5c.52 1.13 1.01 2.27 1.46 3.43zM201 164.47l11.86.42c.07-1.91.06-3.81 0-5.68l-11.85.61q.07 2.31-.01 4.65zM183.41 123l8-8.81c-1.13-1-2.29-2-3.48-2.93l-7.31 9.35c.92.75 1.87 1.55 2.79 2.39zM166 112.5l4.06-11.15c-1.77-.64-3.58-1.22-5.42-1.71l-3.08 11.46c1.5.41 2.98.9 4.44 1.4zM181.25 204l7.46 9.23c1.18-1 2.33-1.95 3.44-3l-8.09-8.68c-.91.88-1.85 1.69-2.81 2.45zM158.79 214.73l2.46 11.61c1.49-.31 3-.68 4.41-1.09l-3.26-11.42c-1.19.34-2.4.64-3.61.9zM197.81 180.84l11.19 4.07q1-2.66 1.71-5.43l-11.46-3.07c-.44 1.5-.91 2.98-1.44 4.43zM142.05 215.58l-1.25 11.8c1.41.15 3.08.27 4.58.32l.4-11.86c-1.23-.04-2.32-.11-3.73-.26zM187.32 198.27l8.82 7.94c1-1.12 2-2.28 2.92-3.48l-9.34-7.31q-1.15 1.47-2.4 2.85zM96.48 177.25l-11.41 3.27q.78 2.74 1.8 5.39L98 181.66q-.87-2.16-1.52-4.41z"/><path class="cls-1" d="M95.58 173.64L84 176.1c.32 1.49.68 3 1.1 4.42l11.41-3.27c-.37-1.19-.67-2.39-.93-3.61zM94.82 169.05L83 170.5c.23 1.89.55 3.76.94 5.6l11.61-2.46c-.29-1.51-.55-3.04-.73-4.59zM121.86 209.2l-5.76 10.38c1.65.91 3.35 1.76 5.09 2.53l4.81-10.84q-2.11-.94-4.14-2.07zM108.73 198.91l-8.68 8.09q1.94 2.08 4 4l8-8.82a56.896 56.896 0 0 1-3.32-3.27zM121.6 130.29l-7.39-9.14c-1 .78-1.9 1.59-2.81 2.44l8 8.6c.72-.66 1.45-1.3 2.2-1.9zM189 157.54l11.66-1.43c-.18-1.55-.44-3.07-.76-4.58L188.38 154c.25 1.14.45 2.33.62 3.54zM185.39 145l10.66-5q-1-2.12-2.15-4.12l-10.18 5.87c.6 1.12 1.16 2.25 1.67 3.25zM180 136.46l9.14-7.4c-.78-1-1.6-1.9-2.44-2.81l-8.6 8c.69.75 1.32 1.45 1.9 2.21zM158.5 122.46l3.05-11.36c-1.19-.31-2.4-.59-3.62-.83l-2.25 11.54c.95.19 1.89.4 2.82.65zM175.54 131.72l7.87-8.73c-.92-.83-1.87-1.63-2.84-2.39l-7.25 9.26c.77.59 1.51 1.22 2.22 1.86z"/><path class="cls-1" d="M178.13 134.27l8.6-8q-1.59-1.69-3.32-3.26l-7.87 8.73c.9.8 1.76 1.64 2.59 2.53zM170.94 197l6.57 9.74c1.29-.87 2.54-1.78 3.74-2.76l-7.39-9.14c-.94.8-1.86 1.52-2.92 2.16zM189.07 166.74c-.15 1.41-.33 2.51-.55 3.69l11.54 2.19c.29-1.51.5-2.77.69-4.65zM180.46 188.18l9.26 7.24a52.91 52.91 0 0 0 2.7-3.78l-9.85-6.41c-.66 1.02-1.37 2-2.11 2.95zM184.06 182.75l10.28 5.7q1.13-2 2.08-4.16l-10.74-4.79c-.49 1.11-1.03 2.2-1.62 3.25zM107.78 174l-11.3 3.23q.64 2.25 1.47 4.41l11-4.2c-.45-1.11-.83-2.26-1.17-3.44zM133.5 201.62l-4 11c1.45.52 2.93 1 4.44 1.39l3.06-11.3c-1.22-.31-2.37-.71-3.5-1.09z"/></g><g class="cls-3"><path class="cls-1" d="M125.23 114.26l-5-10.76c-1.72.81-3.41 1.69-5 2.63l5.92 10.28q1.96-1.15 4.08-2.15zM157.88 110.27l2.25-11.65c-1.84-.36-3.76-.65-5.64-.85l-1.25 11.8c1.41.15 3.13.43 4.64.7zM101.12 136.72L90.74 131c-.92 1.65-1.76 3.35-2.54 5.08l10.8 4.8q1-2.13 2.12-4.16zM114.21 121.15l-7.46-9.23c-1.18 1-2.33 2-3.44 3l8.09 8.69c.91-.87 1.85-1.68 2.81-2.46zM176.79 117.89l6.47-10q-1.9-1.25-3.9-2.35L173.6 116c1.09.57 2.15 1.22 3.19 1.89zM199.88 151.53l11.61-2.47c-.32-1.49-.68-3-1.1-4.41L199 147.92c.32 1.18.62 2.39.88 3.61z"/><path class="cls-1" d="M200.64 156.11l11.79-1.44a65.63 65.63 0 0 0-.94-5.61l-11.61 2.47c.32 1.47.58 3.03.76 4.58zM196.05 140.08l10.76-5q-1.2-2.58-2.63-5L193.9 136q1.15 2 2.15 4.08zM201 159.82l11.85-.61c-.07-1.53-.2-3-.38-4.54l-11.79 1.44c.11 1.23.22 2.46.32 3.71zM173.6 116l5.76-10.38c-1.65-.92-3.35-1.76-5.09-2.54l-4.83 10.85q2.13.92 4.16 2.07zM191.93 132.8l9.84-6.63c-1.06-1.57-2.19-3.1-3.38-4.57l-9.22 7.46q1.46 1.82 2.76 3.74zM189.17 129.06l9.22-7.46c-.95-1.18-1.95-2.32-3-3.43l-8.68 8.08c.86.91 1.68 1.85 2.46 2.81zM180.57 120.6l7.31-9.35q-2.24-1.75-4.62-3.31l-6.47 10q1.95 1.23 3.78 2.66zM174.36 208.75l5.92 10.25a56.65 56.65 0 0 0 3.86-2.41l-6.63-9.84c-1.03.73-2.08 1.38-3.15 2zM170.23 210.9l5 10.76c1.72-.8 3.41-1.68 5-2.63l-5.92-10.28q-1.96 1.17-4.08 2.15zM154.2 215.5l1.44 11.78c1.89-.23 3.76-.55 5.61-.94l-2.46-11.61c-1.51.32-3.04.58-4.59.77zM196.42 184.29l10.84 4.83a67.27 67.27 0 0 0 1.7-4.21l-11.15-4.07c-.42 1.16-.89 2.32-1.39 3.45zM95.43 152.28L83.79 150c-.36 1.85-.64 3.69-.84 5.57l11.8 1.25c.15-1.45.39-3.03.68-4.54z"/><path class="cls-1" d="M194.34 188.45l10.38 5.76c.92-1.65 1.76-3.35 2.54-5.09l-10.84-4.83q-.96 2.13-2.08 4.16zM189.72 195.42l9.34 7.31q1.75-2.23 3.32-4.62l-10-6.47c-.8 1.3-1.71 2.56-2.66 3.78zM112.05 202.17l-8 8.82q1.7 1.51 3.48 2.93l7.31-9.35c-.92-.77-1.84-1.57-2.79-2.4zM98 181.66l-11.08 4.25c.54 1.42 1.14 2.82 1.78 4.19l10.76-5c-.57-1.1-1.06-2.28-1.46-3.44zM137.49 214.89l-2.29 11.65q2.78.54 5.6.84l1.25-11.8c-1.41-.15-3.05-.4-4.56-.69zM94.47 160.7l-11.86-.42c-.07 1.91-.06 3.8 0 5.68l11.85-.61q-.08-2.35.01-4.65zM94.5 165.35l-11.85.65c.07 1.53.2 3 .38 4.54l11.79-1.45c-.15-1.26-.26-2.5-.32-3.74zM129.47 212.67l-4.06 11.15q2.66 1 5.42 1.71l3.08-11.47c-1.51-.4-2.99-.87-4.44-1.39zM114.89 204.57l-7.31 9.35q2.23 1.76 4.62 3.31l6.47-9.95a56.41 56.41 0 0 1-3.78-2.71zM132.86 123.78l-4.21-11c-1.16.44-2.3.93-3.42 1.45l5 10.66q1.27-.58 2.63-1.11zM139.11 121.94l-2.44-11.5c-1.22.25-2.42.55-3.61.89l3.24 11.31c.92-.27 1.86-.5 2.81-.7zM149.2 121.07l.42-11.75c-1.57-.06-3.12 0-4.65 0l.61 11.74c1.19-.06 2.42-.06 3.62.01z"/><path class="cls-1" d="M142.69 121.34l-1.43-11.67c-1.55.19-3.08.45-4.59.77l2.44 11.5c1.18-.25 2.37-.45 3.58-.6zM152 121.26l1.23-11.69c-1.41-.15-2.44-.21-3.67-.25l-.43 11.74c.97.04 1.94.1 2.87.2zM111.4 142.42l-10.28-5.7q-1.12 2-2.08 4.16l10.74 4.78c.49-1.1 1.03-2.19 1.62-3.24zM107.6 151.81l-11.35-3.05a53.2 53.2 0 0 0-.83 3.63l11.58 2.25c.14-.96.35-1.9.6-2.83zM182.18 139.37l9.75-6.57q-1.31-1.92-2.76-3.74l-9.14 7.4c.76.93 1.48 1.91 2.15 2.91zM188.38 154l11.5-2.43c-.26-1.22-.56-2.43-.9-3.61l-11.3 3.23c.26.89.5 1.81.7 2.81zM186.53 147.71l11-4.21c-.45-1.16-.94-2.3-1.46-3.42l-10.66 5q.59 1.28 1.12 2.63zM189.22 160.43l11.74-.61c-.06-1.25-.17-2.48-.32-3.71L189 157.54c.09.96.17 1.92.22 2.89zM183.72 141.83L193.9 136a41.93 41.93 0 0 0-2-3.16l-9.75 6.57c.57.76 1.08 1.59 1.57 2.42zM155.63 121.8l2.23-11.53c-1.51-.3-3.21-.55-4.62-.7L152 121.26c1.42.15 2.46.32 3.63.54zM162 123.55l4-11c-1.45-.53-2.93-1-4.44-1.4l-3.05 11.36c1.17.26 2.32.63 3.49 1.04zM167.89 126.25L173.6 116q-2-1.12-4.16-2.07l-4.79 10.73q1.67.72 3.24 1.59z"/><path class="cls-1" d="M164.65 124.63l4.79-10.73c-1.13-.51-2.28-1-3.45-1.4l-4 11c.88.38 1.78.74 2.66 1.13zM170.38 127.75l6.41-9.86c-1-.67-2.1-1.32-3.19-1.92l-5.71 10.28q1.28.75 2.49 1.5zM173.32 129.86l7.25-9.26q-1.83-1.44-3.78-2.71l-6.41 9.86c1.01.66 2 1.36 2.94 2.11zM173.86 194.88l7.39 9.14c1-.78 1.9-1.59 2.81-2.44l-8-8.6c-.72.66-1.45 1.29-2.2 1.9zM162.6 201.38l4.21 11c1.16-.45 2.3-.93 3.42-1.46l-5-10.65c-.83.39-1.72.73-2.63 1.11zM149.88 204.08l.61 11.74c1.25-.07 2.49-.17 3.71-.32l-1.43-11.67c-.95.17-1.91.17-2.89.25zM143.28 203.89l-1.23 11.69c1.41.15 2.52.22 3.75.26l.4-11.75c-.96-.03-1.98-.09-2.92-.2zM146.26 204.1l-.42 11.75q2.35.08 4.65 0l-.61-11.74c-1.19.03-2.4.04-3.62-.01zM187.86 173.36l11.35 3c.32-1.2.59-2.41.83-3.63l-11.53-2.25c-.19 1.01-.4 1.95-.65 2.88zM186.77 176.81l11 4c.53-1.45 1-2.93 1.4-4.43l-11.35-3c-.28 1.15-.64 2.31-1.05 3.43zM108.93 177.46l-11 4.2c.45 1.16.94 2.31 1.46 3.43l10.66-5c-.39-.84-.77-1.73-1.12-2.63zM111.74 183.34l-10.18 5.87c.62 1.07 1.28 2.13 2 3.15l9.75-6.56c-.57-.8-1.08-1.62-1.57-2.46zM106.48 167.63l-11.66 1.42c.18 1.55.44 3.08.76 4.59l11.5-2.44c-.25-1.2-.45-2.37-.6-3.57z"/><path class="cls-1" d="M107.08 171.2l-11.5 2.44c.26 1.22.56 2.42.9 3.61l11.3-3.23c-.26-.93-.5-1.87-.7-2.82zM106.21 161.11l-11.74-.41q-.09 2.34 0 4.65l11.74-.61q-.06-1.8 0-3.63zM139.74 203.36l-2.27 11.53c1.51.29 3.17.54 4.58.69l1.23-11.69c-1.41-.15-2.36-.31-3.54-.53z"/><path class="cls-1" d="M137 202.71l-3.05 11.35c1.19.32 2.4.6 3.62.84l2.25-11.54c-.99-.19-1.93-.36-2.82-.65zM122.14 195.31l-7.25 9.26c1.22 1 2.48 1.86 3.78 2.71l6.41-9.86c-1.01-.66-2-1.37-2.94-2.11z"/><path class="cls-1" d="M125.08 197.42l-6.41 9.86c1 .67 2.1 1.31 3.19 1.92l5.71-10.28q-1.27-.71-2.49-1.5z"/></g><g class="cls-5"><path class="cls-1" d="M136.67 110.44l-2.46-11.62c-1.49.32-3 .69-4.41 1.1l3.26 11.41c1.19-.33 2.39-.64 3.61-.89zM128.65 112.81l-4.25-11.09c-1.42.55-2.81 1.14-4.18 1.78l5 10.76c1.13-.52 2.27-1.01 3.43-1.45zM153.24 109.57l1.25-11.8c-1.41-.15-3-.26-4.5-.31l-.44 11.85c1.23.05 2.28.11 3.69.26zM103 133.53l-10-6.47Q91.85 129 90.74 131l10.38 5.76c.6-1.13 1.24-2.19 1.88-3.23zM97.65 144.33l-11.15-4.07q-1 2.66-1.71 5.43l11.46 3.07c.4-1.51.87-2.98 1.4-4.43zM111.4 123.59l-8.09-8.69a69.682 69.682 0 0 0-4 4.06l8.82 7.94a56.76 56.76 0 0 1 3.27-3.31zM105.74 129.75l-9.34-7.31q-1.75 2.24-3.32 4.62l10 6.47c.8-1.3 1.71-2.53 2.66-3.78zM199 147.92l11.41-3.27q-.78-2.75-1.8-5.39l-11.08 4.24c.53 1.5 1.02 2.92 1.47 4.42zM200.75 168l11.81 1.25c.15-1.41.25-2.93.3-4.43l-11.86-.51c0 1.23-.15 2.69-.25 3.69zM193.9 136l10.28-6q-1.14-2-2.41-3.86l-9.84 6.63c.69 1.06 1.35 2.11 1.97 3.23zM169.44 113.9l4.83-10.85c-1.38-.61-2.79-1.18-4.22-1.7L166 112.5c1.16.43 2.31.89 3.44 1.4zM186.73 126.25l8.68-8.08q-1.93-2.08-4-4l-8 8.81q1.73 1.57 3.32 3.27zM161.55 111.1l3.08-11.46c-1.46-.39-2.94-.73-4.43-1l-2.27 11.65c1.22.22 2.43.5 3.62.81zM133.91 214.06l-3.08 11.47c1.46.39 2.94.72 4.43 1l2.27-11.64c-1.22-.23-2.43-.51-3.62-.83zM177.51 206.78l6.63 9.84c1.57-1.06 3.1-2.18 4.57-3.37l-7.46-9.25c-1.2 1-2.45 1.91-3.74 2.78zM150.49 215.82l.62 11.85q2.28-.12 4.53-.39l-1.44-11.78c-1.2.15-2.46.25-3.71.32zM145.84 215.85l-.42 11.86c1.91.07 3.81 0 5.69 0l-.62-11.85q-2.29.07-4.65-.01zM200 172.78c-.24 1.22-.51 2.43-.83 3.63l11.46 3.07c.39-1.45.73-2.93 1-4.43zM184.06 201.58l8.09 8.68c1.39-1.29 2.71-2.64 4-4l-8.82-7.94c-1.05 1.1-2.14 2.21-3.27 3.26zM192.42 191.64l10 6.47q1.23-1.91 2.34-3.9l-10.38-5.76c-.64 1.09-1.28 2.15-1.96 3.19zM99.41 185.09l-10.76 5q1.2 2.58 2.63 5l10.28-5.93c-.77-1.29-1.49-2.67-2.15-4.07zM101.56 189.21l-10.28 5.93q1.14 2 2.41 3.86l9.84-6.64c-.69-1.02-1.35-2.08-1.97-3.15zM94.75 156.78L83 155.53c-.2 1.88-.28 3.14-.33 4.64l11.86.37c0-1.23.07-2.35.22-3.76zM126 211.27l-4.83 10.84c1.38.62 2.79 1.19 4.22 1.71l4.06-11.15c-1.15-.43-2.3-.89-3.45-1.4z"/><path class="cls-1" d="M103.53 192.36L93.69 199c1.06 1.57 2.19 3.1 3.38 4.57l9.22-7.47q-1.46-1.8-2.76-3.74zM130.19 124.92l-5-10.66q-2.12 1-4.13 2.15L127 126.6q1.54-.91 3.19-1.68z"/><path class="cls-1" d="M127 126.6l-5.88-10.19c-1.07.63-2.12 1.28-3.15 2l6.57 9.74q1.18-.83 2.46-1.55zM145.58 121.09l-.58-11.74c-1.25.07-2.49.17-3.71.32l1.43 11.67c.92-.12 1.88-.2 2.86-.25zM108.69 148.35l-11-4c-.53 1.45-1 2.92-1.4 4.43l11.35 3.05c.28-1.19.64-2.35 1.05-3.48z"/><path class="cls-1" d="M109.78 145.66L99 140.88c-.5 1.13-1 2.28-1.39 3.45l11 4c.39-.89.78-1.79 1.17-2.67zM116.87 134.77l-8.73-7.87q-1.24 1.38-2.4 2.85L115 137c.6-.77 1.22-1.51 1.87-2.23zM107 154.53l-11.54-2.3c-.29 1.51-.53 3.14-.68 4.55l11.66 1.22c.1-.93.3-2.29.56-3.47zM159.16 202.53l3.24 11.3c1.49-.42 3-.92 4.41-1.47l-4.21-11c-1.12.46-2.27.84-3.44 1.17zM185.68 179.5l10.74 4.79c.5-1.13 1-2.28 1.39-3.45l-11-4c-.37.89-.74 1.78-1.13 2.66z"/><path class="cls-1" d="M106.44 158l-11.69-1.23c-.15 1.41-.23 2.58-.27 3.81l11.75.37c.03-.95.06-1.53.21-2.95zM110.07 180.12l-10.66 5c.66 1.4 1.38 2.78 2.15 4.12l10.18-5.87c-.6-1.08-1.16-2.15-1.67-3.25zM106.24 164.74l-11.74.61c.06 1.24.17 2.48.32 3.7l11.66-1.42c-.11-.96-.19-1.92-.24-2.89zM113.28 185.8l-9.75 6.56q1.31 1.94 2.76 3.74l9.14-7.39c-.76-.94-1.43-1.91-2.15-2.91zM127.57 198.92l-5.71 10.28q2 1.13 4.16 2.07l4.79-10.73q-1.67-.75-3.24-1.62z"/><path class="cls-1" d="M130.81 200.54L126 211.27c1.13.51 2.28 1 3.45 1.4l4-11c-.86-.38-1.76-.74-2.64-1.13zM115.43 188.71l-9.14 7.39c.78 1 1.6 1.91 2.44 2.81l8.6-8c-.66-.72-1.33-1.45-1.9-2.2zM119.92 193.44l-7.87 8.73c.92.83 1.87 1.63 2.84 2.4l7.25-9.26c-.77-.6-1.51-1.22-2.22-1.87z"/></g><path class="cls-1" d="M117.33 190.9l-8.6 8c1.06 1.14 2.17 2.22 3.32 3.26l7.87-8.73c-.92-.8-1.76-1.64-2.59-2.53z"/></g><g id="Laag_2" data-name="Laag 2"><path class="cls-7" d="M136.67 110.44l-2.46-11.62c-1.49.32-3 .69-4.41 1.1l3.26 11.41c1.19-.33 2.39-.64 3.61-.89z"/><path class="cls-8" d="M133.06 111.33l-3.26-11.41q-2.75.8-5.4 1.8l4.25 11.09a51.86 51.86 0 0 1 4.41-1.48z"/><path class="cls-9" d="M125.23 114.26l-5-10.76c-1.72.81-3.41 1.69-5 2.63l5.92 10.28q1.96-1.15 4.08-2.15z"/><path class="cls-7" d="M128.65 112.81l-4.25-11.09c-1.42.55-2.81 1.14-4.18 1.78l5 10.76c1.13-.52 2.27-1.01 3.43-1.45zM153.24 109.57l1.25-11.8c-1.41-.15-3-.26-4.5-.31l-.44 11.85c1.23.05 2.28.11 3.69.26z"/><path class="cls-1" d="M121.1 116.41l-5.92-10.28a65.8 65.8 0 0 0-3.86 2.41l6.63 9.85c1.05-.7 2.05-1.39 3.15-1.98z"/><path class="cls-9" d="M157.88 110.27l2.25-11.65c-1.84-.36-3.76-.65-5.64-.85l-1.25 11.8c1.41.15 3.13.43 4.64.7z"/><path class="cls-1" d="M149.62 109.32l.38-11.86c-1.91-.07-3.81-.06-5.69 0l.62 11.85q2.33-.08 4.69.01z"/><path class="cls-8" d="M141.26 109.67l-1.44-11.78q-2.83.35-5.61.93l2.46 11.62c1.51-.32 3.04-.58 4.59-.77z"/><path class="cls-1" d="M145 109.35l-.62-11.85q-2.28.12-4.53.39l1.44 11.78c1.19-.15 2.43-.25 3.71-.32zM99 140.88L88.2 136c-.61 1.38-1.18 2.79-1.7 4.22l11.15 4.07c.42-1.13.89-2.29 1.35-3.41z"/><path class="cls-7" d="M103 133.53l-10-6.47Q91.85 129 90.74 131l10.38 5.76c.6-1.13 1.24-2.19 1.88-3.23z"/><path class="cls-9" d="M101.12 136.72L90.74 131c-.92 1.65-1.76 3.34-2.54 5.08l10.8 4.8q1-2.13 2.12-4.16z"/><path class="cls-8" d="M118 118.39l-6.63-9.85c-1.57 1.06-3.1 2.19-4.57 3.38l7.46 9.23q1.74-1.47 3.74-2.76z"/><path class="cls-7" d="M97.65 144.33l-11.15-4.07q-1 2.66-1.71 5.43l11.46 3.07c.4-1.51.87-2.98 1.4-4.43zM111.4 123.59l-8.09-8.69a69.682 69.682 0 0 0-4 4.06l8.82 7.94a56.76 56.76 0 0 1 3.27-3.31zM105.74 129.75l-9.34-7.31q-1.75 2.24-3.32 4.62l10 6.47c.8-1.3 1.71-2.53 2.66-3.78z"/><path class="cls-9" d="M114.21 121.15l-7.46-9.23c-1.18 1-2.33 2-3.44 3l8.09 8.69c.91-.87 1.85-1.68 2.81-2.46z"/><path class="cls-8" d="M108.14 126.9l-8.82-7.9c-1 1.12-2 2.28-2.92 3.48l9.34 7.31q1.16-1.51 2.4-2.89z"/><path class="cls-9" d="M176.79 117.89l6.47-10q-1.9-1.25-3.9-2.35L173.6 116c1.09.57 2.15 1.22 3.19 1.89zM199.88 151.53l11.61-2.47c-.32-1.49-.68-3-1.1-4.41L199 147.92c.32 1.18.62 2.39.88 3.61z"/><path class="cls-7" d="M199 147.92l11.41-3.27q-.78-2.75-1.8-5.39l-11.08 4.24c.53 1.5 1.02 2.92 1.47 4.42z"/><path class="cls-9" d="M200.64 156.11l11.79-1.44a65.63 65.63 0 0 0-.94-5.61l-11.61 2.47c.32 1.47.58 3.03.76 4.58zM196.05 140.08l10.76-5q-1.2-2.58-2.63-5L193.9 136q1.15 2 2.15 4.08z"/><path class="cls-8" d="M197.51 143.5l11.08-4.24c-.54-1.42-1.14-2.82-1.78-4.19l-10.76 5c.52 1.13 1.01 2.27 1.46 3.43z"/><path class="cls-9" d="M201 159.82l11.85-.61c-.07-1.53-.2-3-.38-4.54l-11.79 1.44c.11 1.23.22 2.46.32 3.71z"/><path class="cls-7" d="M200.75 168l11.81 1.25c.15-1.41.25-2.93.3-4.43l-11.86-.51c0 1.23-.15 2.69-.25 3.69z"/><path class="cls-1" d="M200.05 172.67l11.66 2.22c.35-1.84.6-3.32.85-5.67L200.75 168a45.56 45.56 0 0 1-.7 4.67z"/><path class="cls-7" d="M193.9 136l10.28-6c-.76-1.32-1.56-2.6-2.41-3.86l-9.84 6.63c.69 1.06 1.35 2.11 1.97 3.23z"/><path class="cls-8" d="M201 164.47l11.86.42c.07-1.91.06-3.81 0-5.68l-11.85.61q.07 2.31-.01 4.65zM183.41 123l8-8.81c-1.13-1-2.29-2-3.48-2.93l-7.31 9.35c.92.75 1.87 1.55 2.79 2.39z"/><path class="cls-7" d="M169.44 113.9l4.83-10.85c-1.38-.61-2.79-1.18-4.22-1.7L166 112.5c1.16.43 2.31.89 3.44 1.4z"/><path class="cls-1" d="M96.25 148.76l-11.46-3.07c-.39 1.45-.73 2.93-1 4.43l11.65 2.27c.22-1.23.49-2.39.81-3.63z"/><path class="cls-9" d="M173.6 116l5.76-10.38c-1.65-.92-3.35-1.76-5.09-2.54l-4.83 10.85q2.13.92 4.16 2.07z"/><path class="cls-8" d="M166 112.5l4.06-11.15c-1.77-.64-3.58-1.22-5.42-1.71l-3.08 11.46c1.5.41 2.98.9 4.44 1.4z"/><path class="cls-9" d="M191.93 132.8l9.84-6.63c-1.06-1.57-2.19-3.1-3.38-4.57l-9.22 7.46q1.46 1.82 2.76 3.74z"/><path class="cls-7" d="M186.73 126.25l8.68-8.08q-1.93-2.08-4-4l-8 8.81q1.73 1.57 3.32 3.27z"/><path class="cls-9" d="M189.17 129.06l9.22-7.46c-.95-1.18-1.95-2.32-3-3.43l-8.68 8.08c.86.91 1.68 1.85 2.46 2.81z"/><path class="cls-7" d="M161.55 111.1l3.08-11.46c-1.46-.39-2.94-.73-4.43-1l-2.27 11.65c1.22.22 2.43.5 3.62.81z"/><path class="cls-9" d="M180.57 120.6l7.31-9.35q-2.24-1.75-4.62-3.31l-6.47 10q1.95 1.23 3.78 2.66z"/><path class="cls-7" d="M133.91 214.06l-3.08 11.47c1.46.39 2.94.72 4.43 1l2.27-11.64c-1.22-.23-2.43-.51-3.62-.83z"/><path class="cls-1" d="M166.81 212.36l4.25 11.08c1.42-.54 2.81-1.14 4.18-1.78l-5-10.76c-1.13.53-2.24 1.01-3.43 1.46z"/><path class="cls-8" d="M181.25 204l7.46 9.23c1.18-1 2.33-1.95 3.44-3l-8.09-8.68c-.91.88-1.85 1.69-2.81 2.45z"/><path class="cls-7" d="M177.51 206.78l6.63 9.84c1.57-1.06 3.1-2.18 4.57-3.37l-7.46-9.25c-1.2 1-2.45 1.91-3.74 2.78z"/><path class="cls-1" d="M162.4 213.83l3.26 11.42q2.75-.8 5.4-1.81l-4.25-11.08c-1.44.56-2.92 1.05-4.41 1.47z"/><path class="cls-9" d="M174.36 208.75l5.92 10.25a56.65 56.65 0 0 0 3.86-2.41l-6.63-9.84c-1.03.73-2.08 1.38-3.15 2zM170.23 210.9l5 10.76c1.72-.8 3.41-1.68 5-2.63l-5.92-10.28q-1.96 1.17-4.08 2.15z"/><path class="cls-7" d="M150.49 215.82l.62 11.85q2.28-.12 4.53-.39l-1.44-11.78c-1.2.15-2.46.25-3.71.32z"/><path class="cls-8" d="M158.79 214.73l2.46 11.61c1.49-.31 3-.68 4.41-1.09l-3.26-11.42c-1.19.34-2.4.64-3.61.9z"/><path class="cls-7" d="M145.84 215.85l-.42 11.86c1.91.07 3.81 0 5.69 0l-.62-11.85q-2.29.07-4.65-.01z"/><path class="cls-9" d="M154.2 215.5l1.44 11.78q2.84-.34 5.61-.94l-2.46-11.61c-1.51.32-3.04.58-4.59.77zM196.42 184.29l10.84 4.83a67.27 67.27 0 0 0 1.7-4.21l-11.15-4.07c-.42 1.16-.89 2.32-1.39 3.45z"/><path class="cls-7" d="M200 172.78c-.24 1.22-.51 2.43-.83 3.63l11.46 3.07c.39-1.45.73-2.93 1-4.43z"/><path class="cls-8" d="M197.81 180.84l11.19 4.07q1-2.66 1.71-5.43l-11.46-3.07c-.44 1.5-.91 2.98-1.44 4.43z"/><path class="cls-9" d="M95.43 152.28L83.79 150c-.36 1.85-.64 3.69-.84 5.57l11.8 1.25c.15-1.45.39-3.03.68-4.54z"/><path class="cls-8" d="M142.05 215.58l-1.25 11.8c1.41.15 3.08.27 4.58.32l.4-11.86c-1.23-.04-2.32-.11-3.73-.26z"/><path class="cls-7" d="M184.06 201.58l8.09 8.68c1.39-1.29 2.71-2.64 4-4l-8.82-7.94c-1.05 1.1-2.14 2.21-3.27 3.26z"/><path class="cls-9" d="M194.34 188.45l10.38 5.76c.92-1.65 1.76-3.35 2.54-5.09l-10.84-4.83q-.96 2.13-2.08 4.16z"/><path class="cls-8" d="M187.32 198.27l8.82 7.94c1-1.12 2-2.28 2.92-3.48l-9.34-7.31q-1.15 1.47-2.4 2.85z"/><path class="cls-9" d="M189.72 195.42l9.34 7.31q1.75-2.23 3.32-4.62l-10-6.47c-.8 1.3-1.71 2.56-2.66 3.78z"/><path class="cls-7" d="M192.42 191.64l10 6.47q1.23-1.91 2.34-3.9l-10.38-5.76c-.64 1.09-1.28 2.15-1.96 3.19z"/><path class="cls-9" d="M112.05 202.17l-8 8.82q1.7 1.51 3.48 2.93l7.31-9.35c-.92-.77-1.84-1.57-2.79-2.4zM98 181.66l-11.08 4.25c.54 1.42 1.14 2.82 1.78 4.19l10.76-5c-.57-1.1-1.06-2.28-1.46-3.44z"/><path class="cls-8" d="M96.48 177.25l-11.41 3.27q.78 2.74 1.8 5.39L98 181.66q-.87-2.16-1.52-4.41z"/><path class="cls-7" d="M99.41 185.09l-10.76 5q1.2 2.58 2.63 5l10.28-5.93c-.77-1.29-1.49-2.67-2.15-4.07zM101.56 189.21l-10.28 5.93q1.14 2 2.41 3.86l9.84-6.64c-.69-1.02-1.35-2.08-1.97-3.15z"/><path class="cls-8" d="M95.58 173.64L84 176.1c.32 1.49.68 3 1.1 4.42l11.41-3.27c-.37-1.19-.67-2.39-.93-3.61z"/><path class="cls-9" d="M137.49 214.89l-2.29 11.65q2.78.54 5.6.84l1.25-11.8c-1.41-.15-3.05-.4-4.56-.69zM94.47 160.7l-11.86-.42c-.07 1.91-.06 3.8 0 5.68l11.85-.61q-.08-2.35.01-4.65z"/><path class="cls-8" d="M94.82 169.05L83 170.5c.23 1.89.55 3.76.94 5.6l11.61-2.46c-.29-1.51-.55-3.04-.73-4.59z"/><path class="cls-9" d="M94.5 165.35l-11.85.65c.07 1.53.2 3 .38 4.54l11.79-1.45c-.15-1.26-.26-2.5-.32-3.74z"/><path class="cls-7" d="M94.75 156.78L83 155.53c-.2 1.88-.28 3.14-.33 4.64l11.86.37c0-1.23.07-2.35.22-3.76zM126 211.27l-4.83 10.84c1.38.62 2.79 1.19 4.22 1.71l4.06-11.15c-1.15-.43-2.3-.89-3.45-1.4z"/><path class="cls-8" d="M121.86 209.2l-5.76 10.38c1.65.91 3.35 1.76 5.09 2.53l4.81-10.84q-2.11-.94-4.14-2.07z"/><path class="cls-1" d="M118.67 207.28l-6.47 9.95q1.9 1.25 3.9 2.35l5.76-10.38c-1.09-.61-2.15-1.2-3.19-1.92z"/><path class="cls-9" d="M129.47 212.67l-4.06 11.15q2.66 1 5.42 1.71l3.08-11.47c-1.51-.4-2.99-.87-4.44-1.39z"/><path class="cls-7" d="M103.53 192.36L93.69 199c1.06 1.57 2.19 3.1 3.38 4.57l9.22-7.47q-1.46-1.8-2.76-3.74z"/><path class="cls-8" d="M108.73 198.91l-8.68 8.09q1.94 2.08 4 4l8-8.82a56.896 56.896 0 0 1-3.32-3.27z"/><path class="cls-9" d="M114.89 204.57l-7.31 9.35q2.23 1.76 4.62 3.31l6.47-9.95a56.41 56.41 0 0 1-3.78-2.71z"/><path class="cls-1" d="M106.29 196.1l-9.22 7.47c1 1.18 2 2.32 3 3.43l8.68-8.09c-.86-.91-1.68-1.84-2.46-2.81z"/><path class="cls-7" d="M130.19 124.92l-5-10.66q-2.12 1-4.13 2.15L127 126.6q1.54-.91 3.19-1.68z"/><path class="cls-7" d="M127 126.6l-5.88-10.19c-1.07.63-2.12 1.28-3.15 2l6.57 9.74q1.18-.83 2.46-1.55z"/><path class="cls-1" d="M124.52 128.13l-6.52-9.74q-1.94 1.29-3.74 2.76l7.39 9.14c.89-.76 1.86-1.48 2.87-2.16z"/><path class="cls-9" d="M132.86 123.78l-4.21-11c-1.16.44-2.3.93-3.42 1.45l5 10.66q1.27-.58 2.63-1.11zM139.11 121.94l-2.44-11.5c-1.22.25-2.42.55-3.61.89l3.24 11.31c.92-.27 1.86-.5 2.81-.7z"/><path class="cls-7" d="M145.58 121.09l-.58-11.74c-1.25.07-2.49.17-3.71.32l1.43 11.67c.92-.12 1.88-.2 2.86-.25z"/><path class="cls-9" d="M149.2 121.07l.42-11.75q-2.35-.09-4.65 0l.61 11.74c1.19-.06 2.42-.06 3.62.01zM142.69 121.34l-1.43-11.67c-1.55.19-3.08.45-4.59.77l2.44 11.5c1.18-.25 2.37-.45 3.58-.6z"/><path class="cls-1" d="M136.3 122.64l-3.24-11.31c-1.49.43-3 .92-4.41 1.48l4.21 11c1.14-.46 2.27-.81 3.44-1.17z"/><path class="cls-9" d="M152 121.26l1.23-11.69c-1.41-.15-2.44-.21-3.67-.25l-.43 11.74c.97.04 1.94.1 2.87.2zM111.4 142.42l-10.28-5.7q-1.12 2-2.08 4.16l10.74 4.78c.49-1.1 1.03-2.19 1.62-3.24z"/><path class="cls-8" d="M121.6 130.29l-7.39-9.14c-1 .78-1.9 1.59-2.81 2.44l8 8.6c.72-.66 1.45-1.3 2.2-1.9z"/><path class="cls-7" d="M108.69 148.35l-11-4c-.53 1.45-1 2.92-1.4 4.43l11.35 3.05c.28-1.19.64-2.35 1.05-3.48z"/><path class="cls-9" d="M107.6 151.81l-11.35-3.05a53.2 53.2 0 0 0-.83 3.63l11.58 2.25c.14-.96.35-1.9.6-2.83z"/><path class="cls-7" d="M109.78 145.66L99 140.88c-.5 1.13-1 2.28-1.39 3.45l11 4c.39-.89.78-1.79 1.17-2.67zM116.87 134.77l-8.73-7.87q-1.24 1.38-2.4 2.85L115 137c.6-.77 1.22-1.51 1.87-2.23z"/><path class="cls-1" d="M119.41 132.19l-8-8.6c-1.13 1-2.22 2.16-3.26 3.31l8.73 7.87c.8-.9 1.65-1.77 2.53-2.58zM112.89 139.94l-9.89-6.41c-.68 1-1.32 2.1-1.92 3.19l10.28 5.7c.51-.85 1.01-1.68 1.53-2.48z"/><path d="M115 137l-9.26-7.24a52.91 52.91 0 0 0-2.7 3.78l9.85 6.41c.66-1.03 1.37-2.01 2.11-2.95z" fill="#d5e2ee"/><path class="cls-9" d="M182.18 139.37l9.75-6.57q-1.31-1.92-2.76-3.74l-9.14 7.4c.76.93 1.48 1.91 2.15 2.91z"/><path class="cls-8" d="M189 157.54l11.66-1.43c-.18-1.55-.44-3.07-.76-4.58L188.38 154c.25 1.14.45 2.33.62 3.54z"/><path class="cls-9" d="M188.38 154l11.5-2.43c-.26-1.22-.56-2.43-.9-3.61l-11.3 3.23c.26.89.5 1.81.7 2.81zM186.53 147.71l11-4.21c-.45-1.16-.94-2.3-1.46-3.42l-10.66 5q.59 1.28 1.12 2.63z"/><path class="cls-8" d="M185.39 145l10.66-5q-1-2.12-2.15-4.12l-10.18 5.87c.6 1.12 1.16 2.25 1.67 3.25z"/><path class="cls-9" d="M189.22 160.43l11.74-.61c-.06-1.25-.17-2.48-.32-3.71L189 157.54c.09.96.17 1.92.22 2.89z"/><path class="cls-1" d="M189.07 166.74l11.68 1.26c.1-.94.21-2.37.25-3.6l-11.74-.47c-.03.93-.09 1.87-.19 2.81z"/><path class="cls-9" d="M183.72 141.83L193.9 136a41.93 41.93 0 0 0-2-3.16l-9.75 6.57c.57.76 1.08 1.59 1.57 2.42zM155.63 121.8l2.23-11.54c-1.51-.29-3.21-.54-4.62-.69L152 121.26c1.42.15 2.46.32 3.63.54z"/><path class="cls-1" d="M189.25 164.05l11.74.42q.09-2.34 0-4.65l-11.74.61c.03 1.2.04 2.41 0 3.62z"/><path class="cls-7" d="M107 154.53l-11.54-2.3c-.29 1.51-.53 3.14-.68 4.55l11.66 1.22c.1-.93.3-2.29.56-3.47z"/><path class="cls-9" d="M162 123.55l4-11c-1.45-.53-2.93-1-4.44-1.4l-3.05 11.36c1.17.26 2.32.63 3.49 1.04zM167.89 126.25L173.6 116q-2-1.12-4.16-2.07l-4.79 10.73q1.67.72 3.24 1.59z"/><path class="cls-8" d="M180 136.46l9.14-7.4c-.78-1-1.6-1.9-2.44-2.81l-8.6 8c.69.75 1.32 1.45 1.9 2.21zM158.5 122.46l3.05-11.36c-1.19-.31-2.4-.59-3.62-.83l-2.25 11.54c.95.19 1.89.4 2.82.65z"/><path class="cls-9" d="M164.65 124.63l4.79-10.73c-1.13-.51-2.28-1-3.45-1.4l-4 11c.88.38 1.78.74 2.66 1.13z"/><path class="cls-8" d="M175.54 131.72l7.87-8.73c-.92-.83-1.87-1.63-2.84-2.39l-7.25 9.26c.77.59 1.51 1.22 2.22 1.86zM178.13 134.27l8.6-8q-1.59-1.69-3.32-3.26l-7.87 8.73c.9.8 1.76 1.64 2.59 2.53z"/><path class="cls-9" d="M170.38 127.75l6.41-9.86c-1-.67-2.1-1.32-3.19-1.92l-5.71 10.28q1.28.75 2.49 1.5zM173.32 129.86l7.25-9.26q-1.83-1.44-3.78-2.71l-6.41 9.86c1.01.66 2 1.36 2.94 2.11z"/><path d="M187.68 151.15l11.3-3.23c-.43-1.5-.92-3-1.47-4.42l-11 4.21c.49 1.13.83 2.29 1.17 3.44z" fill="#4c679c"/><path class="cls-9" d="M173.86 194.88l7.39 9.14c1-.78 1.9-1.59 2.81-2.44l-8-8.6c-.72.66-1.45 1.29-2.2 1.9z"/><path class="cls-1" d="M165.27 200.25l5 10.65q2.11-1 4.13-2.15l-5.88-10.18q-1.6.92-3.25 1.68z"/><path class="cls-9" d="M162.6 201.38l4.21 11c1.16-.45 2.3-.93 3.42-1.46l-5-10.65c-.83.39-1.72.73-2.63 1.11z"/><path class="cls-1" d="M168.48 198.57l5.88 10.18c1.07-.62 2.12-1.27 3.15-2l-6.57-9.75q-1.2.85-2.46 1.57z"/><path class="cls-8" d="M170.94 197l6.57 9.74c1.29-.87 2.54-1.78 3.74-2.76l-7.39-9.14c-.94.8-1.86 1.52-2.92 2.16z"/><path class="cls-7" d="M159.16 202.53l3.24 11.3c1.49-.42 3-.91 4.41-1.47l-4.21-11c-1.12.46-2.27.84-3.44 1.17z"/><path class="cls-9" d="M149.88 204.08l.61 11.74c1.25-.07 2.49-.17 3.71-.32l-1.43-11.67c-.95.17-1.91.17-2.89.25z"/><path class="cls-1" d="M156.35 203.23l2.44 11.5c1.22-.26 2.42-.56 3.61-.9l-3.24-11.3c-.92.27-1.86.47-2.81.7z"/><path class="cls-9" d="M143.28 203.89l-1.23 11.69c1.41.15 2.52.22 3.75.26l.4-11.75c-.96-.03-1.98-.09-2.92-.2z"/><path class="cls-1" d="M152.77 203.83l1.43 11.67c1.55-.19 3.08-.45 4.59-.77l-2.44-11.5c-1.18.25-2.35.45-3.58.6z"/><path class="cls-9" d="M146.26 204.1l-.42 11.75q2.35.08 4.65 0l-.61-11.74c-1.19.03-2.4.04-3.62-.01z"/><path class="cls-1" d="M176.05 193l8 8.6c1.13-1.05 2.22-2.16 3.26-3.31l-8.73-7.87c-.8.88-1.65 1.74-2.53 2.58z"/><path class="cls-9" d="M187.86 173.36l11.35 3c.32-1.2.59-2.41.83-3.63l-11.53-2.25c-.19 1.01-.4 1.95-.65 2.88z"/><path class="cls-8" d="M189.07 166.74c-.15 1.41-.33 2.51-.55 3.69l11.54 2.19c.29-1.51.5-2.77.69-4.65z"/><path class="cls-7" d="M185.68 179.5l10.74 4.79c.5-1.13 1-2.28 1.39-3.45l-11-4c-.37.89-.74 1.78-1.13 2.66z"/><path class="cls-9" d="M186.77 176.81l11 4c.53-1.45 1-2.93 1.4-4.43l-11.35-3c-.28 1.15-.64 2.31-1.05 3.43z"/><path class="cls-8" d="M180.46 188.18l9.26 7.24a52.91 52.91 0 0 0 2.7-3.78l-9.85-6.41c-.66 1.02-1.37 2-2.11 2.95zM184.06 182.75l10.28 5.7q1.13-2 2.08-4.16l-10.74-4.79c-.49 1.11-1.03 2.2-1.62 3.25z"/><path class="cls-1" d="M178.59 190.4l8.73 7.87q1.25-1.38 2.4-2.85l-9.26-7.24c-.6.76-1.22 1.5-1.87 2.22zM182.57 185.23l9.85 6.41c.68-1 1.32-2.1 1.92-3.19l-10.28-5.7c-.47.85-.97 1.67-1.49 2.48z"/><path class="cls-8" d="M107.78 174l-11.3 3.23q.64 2.25 1.47 4.41l11-4.2c-.45-1.11-.83-2.26-1.17-3.44z"/><path class="cls-7" d="M106.44 158l-11.69-1.23c-.15 1.41-.23 2.58-.27 3.81l11.75.37c.03-.95.06-1.53.21-2.95zM110.07 180.12l-10.66 5c.66 1.4 1.38 2.78 2.15 4.12l10.18-5.87c-.6-1.08-1.16-2.15-1.67-3.25z"/><path class="cls-9" d="M108.93 177.46l-11 4.2c.45 1.16.94 2.31 1.46 3.43l10.66-5c-.39-.84-.77-1.73-1.12-2.63zM111.74 183.34l-10.18 5.87c.62 1.07 1.28 2.13 2 3.15l9.75-6.56c-.57-.8-1.08-1.62-1.57-2.46zM106.48 167.63l-11.66 1.42c.18 1.55.44 3.08.76 4.59l11.5-2.44c-.25-1.2-.45-2.37-.6-3.57z"/><path class="cls-7" d="M106.24 164.74l-11.74.61c.06 1.24.17 2.48.32 3.7l11.66-1.42c-.11-.96-.19-1.92-.24-2.89z"/><path class="cls-9" d="M107.08 171.2l-11.5 2.44c.26 1.22.56 2.42.9 3.61l11.3-3.23c-.26-.93-.5-1.87-.7-2.82zM106.21 161.11l-11.74-.41q-.09 2.34 0 4.65l11.74-.61q-.06-1.8 0-3.63z"/><path class="cls-7" d="M113.28 185.8l-9.75 6.56q1.31 1.94 2.76 3.74l9.14-7.39c-.76-.94-1.43-1.91-2.15-2.91z"/><path class="cls-8" d="M133.5 201.62l-4 11c1.45.52 2.93 1 4.44 1.39l3.06-11.3c-1.22-.31-2.37-.71-3.5-1.09z"/><path class="cls-7" d="M127.57 198.92l-5.71 10.28q2 1.13 4.16 2.07l4.79-10.73q-1.67-.75-3.24-1.62z"/><path class="cls-9" d="M139.74 203.36l-2.27 11.53c1.51.29 3.17.54 4.58.69l1.23-11.69c-1.41-.15-2.36-.31-3.54-.53z"/><path class="cls-7" d="M130.81 200.54L126 211.27c1.13.51 2.28 1 3.45 1.4l4-11c-.86-.38-1.76-.74-2.64-1.13zM115.43 188.71l-9.14 7.39c.78 1 1.6 1.91 2.44 2.81l8.6-8c-.66-.72-1.33-1.45-1.9-2.2z"/><path class="cls-9" d="M137 202.71l-3.05 11.35c1.19.32 2.4.6 3.62.84l2.25-11.54c-.99-.19-1.93-.36-2.82-.65zM122.14 195.31l-7.25 9.26c1.22 1 2.48 1.86 3.78 2.71l6.41-9.86c-1.01-.66-2-1.37-2.94-2.11z"/><path class="cls-9" d="M125.08 197.42l-6.41 9.86c1 .67 2.1 1.31 3.19 1.92l5.71-10.28q-1.27-.71-2.49-1.5z"/><path class="cls-7" d="M119.92 193.44l-7.87 8.73c.92.83 1.87 1.63 2.84 2.4l7.25-9.26c-.77-.6-1.51-1.22-2.22-1.87z"/><path d="M117.33 190.9l-8.6 8c1.06 1.14 2.17 2.22 3.32 3.26l7.87-8.73c-.92-.8-1.76-1.64-2.59-2.53z" fill="#8ca4cc"/></g></svg>