<svg xmlns="http://www.w3.org/2000/svg" viewBox="0 0 1033.46 311"><defs><style>.cls-1,.cls-4{fill:#fff;}.cls-2{fill:#f77c10;}.cls-3{opacity:0.2;}.cls-4,.cls-5{opacity:0.4;}.cls-6{opacity:0.1;}.cls-7{fill:#f0c62f;}.cls-8{fill:#fcff3c;}.cls-9{fill:#db7b24;}.cls-10{fill:#d5e2ee;}.cls-11{fill:#4c679c;}.cls-12{fill:#8ca4cc;}</style></defs><title>Tekengebied 1 kopie</title><g id="Laag_3" data-name="Laag 3"><path class="cls-1" d="M352.71,88.63V238.42H330.1V88.63Z"/><path class="cls-1" d="M383.46,238.42,415,77.37l51.42,116.42L519.67,77.37l28.33,161H524.81L510.36,148,466,245.31,423,147.9l-16.11,90.52Z"/><path class="cls-1" d="M667.72,202H603.59L586.9,238.42H562.55l74.12-159.2,71.5,159.2H683.44Zm-9.22-21.25-22.21-50.93L613,180.79Z"/><path class="cls-1" d="M968.66,202H904.54l-16.69,36.38H863.5l74.12-159.2,71.5,159.2H984.38Zm-9.21-21.25-22.22-50.93L914,180.79Z"/><path class="cls-1" d="M865.81,153H807.45a21.81,21.81,0,0,1-.53,22H843a55.26,55.26,0,0,1-54.68,44.5,55.87,55.87,0,1,1,45.75-87.78l16.78-15.26a78.28,78.28,0,1,0,15,58.29,69.86,69.86,0,0,0,.81-10.87A67.23,67.23,0,0,0,865.81,153Z"/><path class="cls-2" d="M797.37,153a13.88,13.88,0,1,0,4.86,10.55A13.87,13.87,0,0,0,797.37,153Z"/><g class="cls-3"><path class="cls-1" d="M192.68,61.76,201,43.17q-4.16-1.85-8.46-3.42l-7,19.13Q189.18,60.2,192.68,61.76Z"/><path class="cls-1" d="M202.87,258.19,213,275.82q4-2.28,7.74-4.84L209.4,254.11Q206.21,256.26,202.87,258.19Z"/></g><g class="cls-3"><path class="cls-1" d="M161.13,272.16l2.47,20.2q5.7-.69,11.25-1.88l-4.22-19.91C167.5,271.23,164.34,271.77,161.13,272.16Z"/><path class="cls-1" d="M37.44,158.68,17.1,158q-.21,5.74.08,11.4l20.32-1.05Q37.26,163.53,37.44,158.68Z"/><path class="cls-1" d="M97.28,87.71,86.06,71.06c-2.66,1.8-5.25,3.7-7.74,5.72L90.94,92.39Q94,89.92,97.28,87.71Z"/></g><path class="cls-4" d="M232.57,193.51l18.87,6.88q1.63-4.5,2.89-9.19L234.94,186C234.26,188.55,233.46,191.06,232.57,193.51Z"/><path class="cls-1" d="M134.33,53l-2.47-20.2q-5.7.69-11.25,1.88l4.22,19.91C128,53.94,131.12,53.4,134.33,53Z"/><path class="cls-1" d="M151.64,52.29,152.36,32Q146.6,31.74,141,32L142,52.36C145.19,52.2,148.4,52.17,151.64,52.29Z"/><path class="cls-1" d="M159.23,52.82l2.14-20.24c-2.82-.3-6-.52-9.06-.63l-.74,20.33C154.12,52.38,156.88,52.57,159.23,52.82Z"/><path class="cls-1" d="M46.91,117.64l-18.59-8.29q-1.86,4.16-3.42,8.46l19.12,7C44.9,122.35,45.87,120,46.91,117.64Z"/><path class="cls-1" d="M44,124.78l-19.12-7q-1.93,5.32-3.43,10.88L41.13,134Q42.38,129.28,44,124.78Z"/><path class="cls-1" d="M60.79,94.59l-16-12.54q-3.51,4.49-6.64,9.27l17.06,11.1Q57.82,98.37,60.79,94.59Z"/><path class="cls-1" d="M86.06,71.06,74.69,54.18c-3.15,2.13-6.22,4.39-9.17,6.78l12.8,15.82C80.81,74.76,83.4,72.86,86.06,71.06Z"/><path class="cls-1" d="M257.51,174l20.24,2.14c.29-2.82.51-6,.62-9L258,166.33C258,168.88,257.75,171.61,257.51,174Z"/><path class="cls-1" d="M255.71,139.69l19.92-4.23c-.64-3-1.37-5.94-2.21-8.85l-19.57,5.6Q254.92,135.9,255.71,139.69Z"/><path class="cls-1" d="M207.9,70,219,53q-3.81-2.49-7.82-4.71l-9.87,17.8Q204.68,67.94,207.9,70Z"/><path class="cls-1" d="M201.3,66.06l9.87-17.8q-5-2.76-10.2-5.09l-8.29,18.59Q197.09,63.74,201.3,66.06Z"/><path class="cls-1" d="M185.53,58.88l7-19.13c-3.56-1.29-7.18-2.44-10.88-3.42L176.35,56C179.47,56.82,182.54,57.79,185.53,58.88Z"/><path class="cls-1" d="M215.72,75.64l12.54-16Q223.79,56.1,219,53L207.9,70C210.59,71.79,213.2,73.67,215.72,75.64Z"/><path class="cls-1" d="M256.07,183.59l20,3.84c.71-3.7,1.25-7.1,1.7-11.33L257.51,174C257.16,177.25,256.67,180.47,256.07,183.59Z"/><path class="cls-1" d="M209.4,254.11,220.77,271c3.15-2.12,6.22-4.38,9.17-6.77l-12.8-15.82C214.65,250.41,212.06,252.31,209.4,254.11Z"/><path class="cls-1" d="M229.71,236.47l15.12,13.63q3-3.39,5.87-7l-16-12.54C233.08,232.6,231.43,234.57,229.71,236.47Z"/><path class="cls-1" d="M251.44,200.39l19.12,7Q272.5,202,274,196.48l-19.66-5.28Q253.08,195.9,251.44,200.39Z"/><path class="cls-1" d="M136.05,272.33l-2.13,20.24c2.82.3,6.12.53,9.14.64l.7-20.34C141.21,272.78,138.4,272.58,136.05,272.33Z"/><path class="cls-1" d="M223,243.34l13.87,14.89c2.78-2.59,5.45-5.31,8-8.13l-15.12-13.63Q226.49,240.06,223,243.34Z"/><path class="cls-1" d="M240.28,222.75l17.06,11.09q2.49-3.81,4.71-7.81l-17.8-9.88Q242.38,219.53,240.28,222.75Z"/><path class="cls-1" d="M44.66,202.09l-19,7.29c1.09,2.84,2.29,5.64,3.57,8.39l18.45-8.59C46.59,206.86,45.58,204.5,44.66,202.09Z"/><path class="cls-1" d="M52.12,217.72,34.49,227.89q2.3,3.95,4.84,7.73l16.88-11.37Q54.05,221.06,52.12,217.72Z"/><path class="cls-1" d="M47.67,209.18l-18.45,8.59c1.61,3.46,3.38,6.83,5.27,10.12l17.63-10.17Q49.72,213.55,47.67,209.18Z"/><path class="cls-1" d="M37.5,168.31l-20.32,1.05q.22,4.59.77,9.09L38.16,176Q37.7,172.19,37.5,168.31Z"/><path class="cls-1" d="M109.93,266.29l-7,19.13q5.34,1.93,10.88,3.42l5.28-19.66C116,268.35,112.92,267.38,109.93,266.29Z"/><path class="cls-1" d="M94.16,259.11l-9.87,17.8q5,2.76,10.2,5.09l8.29-18.6Q98.37,261.43,94.16,259.11Z"/><path class="cls-1" d="M67,237.81,52.09,251.68q3.88,4.19,8.13,8l13.62-15.12C71.46,242.41,69.16,240.16,67,237.81Z"/><path class="cls-1" d="M126.58,270.9l-3.92,20c3.7.71,7.5,1.29,11.26,1.69l2.13-20.24C132.76,272,129.7,271.51,126.58,270.9Z"/><path class="cls-1" d="M102.62,84.37,92.59,67c-2.22,1.28-4.4,2.65-6.53,4.08L97.28,87.71C99,86.54,100.8,85.42,102.62,84.37Z"/><path class="cls-1" d="M129,74.24,124.83,54.6q-3.78.8-7.47,1.86l5.52,19.3Q125.9,74.91,129,74.24Z"/><path class="cls-1" d="M150.93,72.36l.71-20.07c-3.24-.12-6.45-.09-9.63.07l1,20Q147,72.22,150.93,72.36Z"/><path class="cls-1" d="M143.05,72.41l-1-20c-2.58.13-5.14.34-7.68.65L136.77,73C138.84,72.69,140.94,72.52,143.05,72.41Z"/><path class="cls-1" d="M72,113.36,55.18,102.42q-2.1,3.22-4,6.6l17.56,9.74Q70.3,116,72,113.36Z"/><path class="cls-1" d="M237.91,157.9l20-1q-.19-3.87-.66-7.68l-19.93,2.44Q237.75,154.74,237.91,157.9Z"/><path class="cls-1" d="M238,165.78l20.06.71q.18-4.86-.06-9.63l-20,1C238,160.51,238.06,163.13,238,165.78Z"/><path class="cls-1" d="M203.36,91.46l12.36-15.82c-2.52-2-5.13-3.85-7.82-5.6L197,86.87C199.16,88.31,201.29,89.84,203.36,91.46Z"/><path class="cls-1" d="M184.5,80.1l8.18-18.34q-3.51-1.56-7.15-2.88l-6.87,18.86Q181.63,78.82,184.5,80.1Z"/><path class="cls-1" d="M222.6,112.13l16.65-11.21q-2.69-4-5.72-7.75L217.92,105.8C219.58,107.84,221.13,110,222.6,112.13Z"/><path class="cls-1" d="M213.79,101l14.69-13.68c-2.18-2.35-4.48-4.6-6.86-6.76L208.18,95.52Q211.11,98.16,213.79,101Z"/><path class="cls-1" d="M180.05,246.91l7.19,18.75c2.4-.93,4.76-1.93,7.09-3l-8.48-18.2Q183,245.78,180.05,246.91Z"/><path class="cls-1" d="M144.53,252.81l-.71,20.07q4.86.17,9.63-.07l-1-20.05Q148.51,253,144.53,252.81Z"/><path class="cls-1" d="M166.46,250.92l4.17,19.65q3.78-.81,7.47-1.86l-5.52-19.31Q169.57,250.27,166.46,250.92Z"/><path class="cls-1" d="M152.41,252.76l1,20.05q3.87-.19,7.68-.65l-2.44-19.94C156.62,252.47,154.52,252.65,152.41,252.76Z"/><path class="cls-1" d="M103.91,241.55l-9.75,17.56q4.2,2.33,8.62,4.29L111,245.06Q107.35,243.46,103.91,241.55Z"/><path class="cls-1" d="M63.41,194.91l-18.75,7.18c.92,2.41,1.93,4.77,3,7.09l18.2-8.47C65,198.8,64.16,196.87,63.41,194.91Z"/><path class="cls-1" d="M72.86,213,56.21,224.25q2.68,4,5.72,7.75l15.61-12.63C75.88,217.33,74.33,215.21,72.86,213Z"/><path class="cls-1" d="M60.91,187.43,41.61,193q1.32,4.65,3,9.13l18.75-7.18Q62,191.24,60.91,187.43Z"/><path class="cls-1" d="M130.42,251.2l-3.87,19.7c3.13.61,6.21,1.08,9.5,1.43l2.11-20C135.34,252.07,133,251.69,130.42,251.2Z"/><path class="cls-1" d="M57.55,167.27l-20,1q.2,3.87.66,7.67l19.93-2.43Q57.72,170.43,57.55,167.27Z"/><path class="cls-1" d="M81.67,224.13,67,237.81c2.18,2.35,4.48,4.6,6.86,6.75l13.44-14.91Q84.35,227,81.67,224.13Z"/><path class="cls-1" d="M124.32,249.79l-5.21,19.39q3.7,1,7.51,1.73l3.84-19.71Q127.34,250.6,124.32,249.79Z"/><path class="cls-1" d="M124.4,101.72l-9-23.46q-3,1.14-5.8,2.47l10.61,22.77C121.59,102.86,123,102.27,124.4,101.72Z"/><path class="cls-1" d="M150,97.46l.89-25.1q-4-.15-7.88,0l1.3,25.09C146.23,97.4,148.13,97.39,150,97.46Z"/><path class="cls-1" d="M139.82,97.89l-3-24.94c-2.62.31-5.22.75-7.77,1.29l5.21,24.58Q137,98.24,139.82,97.89Z"/><path class="cls-1" d="M83.78,150l-24.65-4.85c-.5,2.55-.92,5.38-1.17,7.73l25,2.64C83.15,153.65,83.42,151.86,83.78,150Z"/><path class="cls-1" d="M154.49,97.77l2.64-25c-1.88-.2-4.16-.36-6.25-.44L150,97.45C151.48,97.51,153.08,97.62,154.49,97.77Z"/><path class="cls-1" d="M99.32,119,80.66,102.14c-1.4,1.55-2.76,3.16-4,4.82L96.4,122.44C97.33,121.24,98.31,120.08,99.32,119Z"/><path class="cls-1" d="M90.74,131l-22-12.2q-1.92,3.43-3.52,7L88.2,136C89,134.31,89.82,132.61,90.74,131Z"/><path class="cls-1" d="M201.77,126.17l20.83-14c-1.47-2.17-3-4.29-4.68-6.33l-19.53,15.8C199.58,123.07,200.71,124.6,201.77,126.17Z"/><path class="cls-1" d="M212.43,154.67l24.94-3c-.32-2.62-.76-5.21-1.3-7.77l-24.58,5.21C211.88,150.91,212.2,152.78,212.43,154.67Z"/><path class="cls-1" d="M170.05,101.35l8.61-23.61c-2.46-.89-5-1.68-7.52-2.36l-6.51,24.26C166.47,100.13,168.28,100.71,170.05,101.35Z"/><path class="cls-1" d="M195.41,118.17,213.79,101q-2.68-2.88-5.61-5.52l-16.82,18.66Q193.48,116.09,195.41,118.17Z"/><path class="cls-1" d="M191.36,114.18l16.82-18.66q-2.34-2.11-4.82-4.06l-15.48,19.79C189.07,112.19,190.23,113.16,191.36,114.18Z"/><path class="cls-1" d="M83,155.53l-25-2.64c-.24,2.35-.37,4.31-.45,6.39l25.11.84C82.68,158.62,82.75,157.41,83,155.53Z"/><path class="cls-1" d="M187.88,111.25l15.48-19.79c-2.07-1.62-4.2-3.15-6.41-4.59l-13.69,21.07Q185.65,109.5,187.88,111.25Z"/><path class="cls-1" d="M180.28,219l12.56,21.77c1.82-1.05,3.6-2.17,5.34-3.34l-14-20.84C182.89,217.47,181.6,218.28,180.28,219Z"/><path class="cls-1" d="M151.11,227.67l1.3,25.09c2.11-.11,4.21-.29,6.28-.54l-3.05-24.94Q153.39,227.55,151.11,227.67Z"/><path class="cls-1" d="M82.61,160.28l-25.11-.89c-.1,2.65-.08,5.27,0,7.88L82.65,166C82.55,164.08,82.54,162.19,82.61,160.28Z"/><path class="cls-1" d="M211.7,174.94l24.67,4.76c.49-2.56.87-5,1.17-7.84l-25-2.64C212.31,171.57,212.06,173.1,211.7,174.94Z"/><path class="cls-1" d="M209,184.91l23.61,8.6c.89-2.45,1.69-5,2.37-7.51l-24.27-6.52Q209.94,182.26,209,184.91Z"/><path class="cls-1" d="M145.42,227.71l-.89,25.1q4,.15,7.88-.05l-1.3-25.09C149.23,227.76,147.33,227.78,145.42,227.71Z"/><path class="cls-1" d="M207.26,189.12l23,10.23q1.28-2.86,2.36-5.84L209,184.91C208.44,186.34,207.87,187.74,207.26,189.12Z"/><path class="cls-1" d="M161.25,226.34l5.21,24.58q3.1-.64,6.12-1.52l-6.92-24.15C164.21,225.66,162.74,226,161.25,226.34Z"/><path class="cls-1" d="M97.07,203.57l-19.53,15.8q2,2.44,4.13,4.76L100.05,207C99,205.89,98,204.75,97.07,203.57Z"/><path class="cls-1" d="M91.28,195.14,69.52,207.69q1.58,2.73,3.34,5.34l20.83-14Q92.42,197.11,91.28,195.14Z"/><path class="cls-1" d="M83,170.5l-24.94,3.05c.32,2.62.76,5.21,1.3,7.77L84,176.1C83.58,174.26,83.26,172.39,83,170.5Z"/><path class="cls-1" d="M82.65,166l-25.1,1.31q.16,3.16.54,6.28L83,170.5C82.85,169,82.72,167.49,82.65,166Z"/><path class="cls-1" d="M84,176.1l-24.58,5.22c.44,2.06.94,4.1,1.52,6.11l24.16-6.91C84.65,179.07,84.29,177.59,84,176.1Z"/><path class="cls-1" d="M130.83,225.53l-6.51,24.26q3,.81,6.14,1.41l4.8-24.66C133.77,226.25,132.29,225.92,130.83,225.53Z"/><path class="cls-1" d="M125.41,223.82l-8.61,23.61c2.46.89,5,1.68,7.52,2.36l6.51-24.26Q128.07,224.78,125.41,223.82Z"/><path class="cls-1" d="M135.22,226.54l-4.83,24.66c2.56.49,5,.87,7.77,1.16l2.64-25C138.92,227.18,137.07,226.9,135.22,226.54Z"/><g class="cls-5"><path class="cls-1" d="M108.22,59.51l-7.28-19q-4.27,1.65-8.4,3.58l8.59,18.45Q104.63,60.9,108.22,59.51Z"/><path class="cls-1" d="M124.83,54.6l-4.22-19.91q-4.48.95-8.86,2.2l5.61,19.57Q121,55.4,124.83,54.6Z"/><path class="cls-1" d="M101.13,62.53,92.54,44.08q-5.17,2.41-10.11,5.27L92.59,67Q96.76,64.57,101.13,62.53Z"/><path class="cls-1" d="M78.32,76.78,65.52,61q-3.55,2.86-6.89,6L72.5,81.83Q75.32,79.21,78.32,76.78Z"/><path class="cls-1" d="M257.3,149.18l20.21-2.47c-.46-3.79-1.1-7.54-1.88-11.25l-19.92,4.23C256.38,142.81,256.91,146,257.3,149.18Z"/><path class="cls-1" d="M239.25,100.92l16.88-11.37q-3.19-4.74-6.77-9.18l-15.83,12.8Q236.56,96.92,239.25,100.92Z"/><path class="cls-1" d="M194.33,262.64l8.59,18.45q5.18-2.41,10.11-5.27l-10.16-17.63Q198.7,260.59,194.33,262.64Z"/><path class="cls-1" d="M187.24,265.66l7.28,19q4.28-1.64,8.4-3.57l-8.59-18.45C192,263.73,189.64,264.73,187.24,265.66Z"/><path class="cls-1" d="M178.1,268.71l5.61,19.57q5.49-1.57,10.81-3.62l-7.28-19Q182.76,267.39,178.1,268.71Z"/><path class="cls-1" d="M153.45,272.81l1.06,20.33c3.05-.16,6.09-.41,9.09-.78l-2.47-20.2Q157.32,272.61,153.45,272.81Z"/><path class="cls-1" d="M143.82,272.88l-.72,20.33q5.76.21,11.41-.07l-1.06-20.33Q148.68,273.05,143.82,272.88Z"/><path class="cls-1" d="M248.55,207.53l18.59,8.29q1.86-4.15,3.42-8.46l-19.12-7C250.56,202.81,249.59,205.19,248.55,207.53Z"/><path class="cls-1" d="M256.05,183.7c-.49,2.53-1.06,5-1.72,7.5L274,196.48c.78-2.92,1.46-5.89,2-8.89Z"/><path class="cls-1" d="M244.25,216.15l17.8,9.88q2.76-5,5.09-10.21l-18.59-8.29Q246.59,212,244.25,216.15Z"/><path class="cls-1" d="M234.67,230.58l16,12.54q3.51-4.49,6.64-9.28l-17.06-11.09Q237.64,226.8,234.67,230.58Z"/><path class="cls-1" d="M38,150.78l-20.24-2.13c-.35,3.29-.54,6.18-.65,9.2l20.34.67C37.55,156,37.7,153.6,38,150.78Z"/><path class="cls-1" d="M119.11,269.18l-5.28,19.66q4.38,1.17,8.9,2l3.89-20Q122.81,270.18,119.11,269.18Z"/><path class="cls-1" d="M115.41,78.26l-7.19-18.75q-3.6,1.38-7.09,3l8.48,18.2Q112.46,79.4,115.41,78.26Z"/><path class="cls-1" d="M109.61,80.73l-8.48-18.2q-4.36,2-8.54,4.45l10,17.39C104.9,83.06,107.22,81.84,109.61,80.73Z"/><path class="cls-1" d="M165,74l3.82-19.71c-3.13-.6-6.26-1.08-9.55-1.43l-2.1,20C160,73.08,162.4,73.47,165,74Z"/><path class="cls-1" d="M136.77,73,134.33,53c-3.21.39-6.37.93-9.5,1.59L129,74.24C131.55,73.7,134.15,73.26,136.77,73Z"/><path class="cls-1" d="M68.77,118.76,51.21,109q-2.34,4.19-4.3,8.62l18.34,8.17Q66.85,122.2,68.77,118.76Z"/><path class="cls-1" d="M65.25,125.81l-18.34-8.17c-1,2.33-2,4.71-2.89,7.14l18.87,6.88Q64,128.67,65.25,125.81Z"/><path class="cls-1" d="M60.52,139.17,41.13,134q-1,3.71-1.72,7.51l19.7,3.84Q59.71,142.21,60.52,139.17Z"/><path class="cls-1" d="M76.61,107,60.79,94.59q-3,3.78-5.61,7.83L72,113.36C73.45,111.16,75,109,76.61,107Z"/><path class="cls-1" d="M178.66,77.74l6.87-18.86c-3-1.09-6.06-2.06-9.18-2.9l-5.21,19.4C173.7,76.06,176.2,76.85,178.66,77.74Z"/><path class="cls-1" d="M237.37,151.62l19.93-2.44c-.39-3.2-.92-6.37-1.59-9.49l-19.64,4.16C236.61,146.41,237.05,149,237.37,151.62Z"/><path class="cls-1" d="M232.05,130.26l18.75-7.18c-.92-2.41-1.93-4.77-3-7.09l-18.2,8.47C230.47,126.36,231.3,128.3,232.05,130.26Z"/><path class="cls-1" d="M171.14,75.38,176.35,56q-3.71-1-7.51-1.72L165,74Q168.12,74.57,171.14,75.38Z"/><path class="cls-1" d="M197,86.87,207.9,70q-3.22-2.1-6.6-4l-9.75,17.56C193.39,84.64,195.19,85.73,197,86.87Z"/><path class="cls-1" d="M217.92,105.8l15.61-12.63c-1.61-2-3.3-3.93-5.05-5.81L213.79,101Q215.94,103.35,217.92,105.8Z"/><path class="cls-1" d="M157.13,72.79l2.1-20c-2.35-.25-5.09-.44-7.64-.53l-.73,20.06C153,72.42,155.25,72.59,157.13,72.79Z"/><path class="cls-1" d="M192.84,240.8l10,17.39q3.33-1.94,6.53-4.08l-11.22-16.65C196.44,238.63,194.66,239.75,192.84,240.8Z"/><path class="cls-1" d="M172.58,249.4l5.52,19.31q4.65-1.33,9.14-3l-7.19-18.75C177.61,247.85,175.11,248.68,172.58,249.4Z"/><path class="cls-1" d="M158.69,252.22l2.44,19.94c3.21-.39,6.37-.93,9.5-1.59l-4.17-19.65C163.91,251.47,161.31,251.9,158.69,252.22Z"/><path class="cls-1" d="M209.27,228.65,223,243.34q3.53-3.28,6.75-6.87L214.8,223C213,225,211.19,226.86,209.27,228.65Z"/><path class="cls-1" d="M138.16,252.36l-2.11,20c2.35.25,5.18.45,7.73.54l.69-20.06C142.39,252.73,140,252.56,138.16,252.36Z"/><path class="cls-1" d="M234.94,186l19.39,5.2c.66-2.46,1.23-5,1.72-7.5l-19.7-3.85Q235.75,183,234.94,186Z"/><path class="cls-1" d="M218.85,218.21l15.82,12.37q3-3.78,5.61-7.83l-16.84-10.94C222,214,220.47,216.15,218.85,218.21Z"/><path class="cls-1" d="M214.8,223l14.91,13.44c1.72-1.9,3.37-3.87,5-5.89l-15.82-12.37C217.56,219.87,216.2,221.47,214.8,223Z"/><path class="cls-1" d="M65.87,200.71l-18.2,8.47q2,4.38,4.45,8.54l17.4-10C68.2,205.42,67,203.09,65.87,200.71Z"/><path class="cls-1" d="M69.52,207.69l-17.4,10q1.93,3.33,4.09,6.53L72.86,213Q71.09,210.42,69.52,207.69Z"/><path class="cls-1" d="M59.39,181.32l-19.64,4.16c.53,2.52,1.15,5,1.86,7.48l19.3-5.53C60.33,185.42,59.83,183.38,59.39,181.32Z"/><path class="cls-1" d="M58.09,173.55,38.16,176q.59,4.82,1.59,9.5l19.64-4.16C58.85,178.76,58.41,176.17,58.09,173.55Z"/><path class="cls-1" d="M111,245.06l-8.18,18.34q3.51,1.58,7.15,2.89l6.87-18.86C114.82,246.7,112.87,245.92,111,245.06Z"/><path class="cls-1" d="M106.75,111.92,90.94,92.39q-2.44,2-4.75,4.13l17.12,18.38C104.42,113.87,105.57,112.87,106.75,111.92Z"/><path class="cls-1" d="M115.18,106.13,102.62,84.37c-1.82,1-3.6,2.17-5.34,3.34l14,20.83C112.57,107.7,113.86,106.89,115.18,106.13Z"/><path class="cls-1" d="M144.35,97.5l-1.3-25.09c-2.11.11-4.21.28-6.28.54l3,24.94Q142.07,97.62,144.35,97.5Z"/><path class="cls-1" d="M111.32,108.54l-14-20.83Q94,89.92,90.94,92.39l15.81,19.53C108.22,110.73,109.75,109.6,111.32,108.54Z"/><path class="cls-1" d="M88.2,136l-23-10.23q-1.27,2.87-2.36,5.85l23.61,8.6C87,138.83,87.59,137.42,88.2,136Z"/><path class="cls-1" d="M84.79,145.69l-24.27-6.52q-.81,3-1.41,6.14l24.66,4.81C84.06,148.62,84.4,147.14,84.79,145.69Z"/><path class="cls-1" d="M93.08,127.06,72,113.36q-1.72,2.64-3.25,5.4l22,12.2Q91.85,129,93.08,127.06Z"/><path class="cls-1" d="M103.31,114.9,86.19,96.52c-1.92,1.79-3.77,3.67-5.53,5.62L99.32,119C100.6,117.55,101.92,116.19,103.31,114.9Z"/><path class="cls-1" d="M212.81,159.21l25.1-1.31q-.16-3.17-.54-6.28l-24.94,3C212.61,156.17,212.74,157.68,212.81,159.21Z"/><path class="cls-1" d="M206.81,135.07l22.78-10.61c-1.12-2.38-2.33-4.71-3.65-7L204.18,130Q205.61,132.49,206.81,135.07Z"/><path class="cls-1" d="M204.18,130l21.76-12.55q-1.58-2.73-3.34-5.35l-20.83,14Q203,128.06,204.18,130Z"/><path class="cls-1" d="M208.59,139.26l23.46-9c-.75-2-1.58-3.9-2.46-5.8l-22.78,10.61C207.45,136.44,208.05,137.84,208.59,139.26Z"/><path class="cls-1" d="M179.36,105.59l12.19-22q-3.44-1.91-7.05-3.52l-10.23,23C176,103.83,177.71,104.67,179.36,105.59Z"/><path class="cls-1" d="M160.15,98.62,164.94,74c-2.56-.5-5-.88-7.81-1.17l-2.64,25C156.37,98,158.31,98.26,160.15,98.62Z"/><path class="cls-1" d="M164.63,99.64l6.51-24.26q-3-.81-6.14-1.41l-4.8,24.65C161.69,98.91,163.17,99.25,164.63,99.64Z"/><path class="cls-1" d="M183.26,107.94,197,86.87c-1.76-1.14-3.56-2.23-5.4-3.25l-12.19,22Q181.36,106.7,183.26,107.94Z"/><path class="cls-1" d="M171.06,223.44l9,23.47q3-1.14,5.8-2.47l-10.61-22.78C173.87,222.3,172.48,222.9,171.06,223.44Z"/><path class="cls-1" d="M192.15,210.26l17.12,18.39c1.92-1.79,3.77-3.67,5.53-5.62l-18.66-16.82C194.86,207.62,193.54,209,192.15,210.26Z"/><path class="cls-1" d="M184.14,216.62l14,20.84q3.27-2.21,6.34-4.68l-15.81-19.53C187.24,214.44,185.71,215.56,184.14,216.62Z"/><path class="cls-1" d="M165.66,225.25l6.92,24.15c2.53-.72,5-1.55,7.47-2.49l-9-23.47Q168.4,224.46,165.66,225.25Z"/><path class="cls-1" d="M202.38,198.11l21.06,13.7q1.73-2.64,3.25-5.4l-22-12.2Q203.61,196.21,202.38,198.11Z"/><path class="cls-1" d="M210.67,179.48,234.94,186q.81-3,1.41-6.15l-24.66-4.8C211.4,176.55,211.06,178,210.67,179.48Z"/><path class="cls-1" d="M196.14,206.21,214.8,223c1.4-1.56,2.76-3.16,4-4.82l-19.79-15.48C198.13,203.93,197.15,205.09,196.14,206.21Z"/><path class="cls-1" d="M199.06,202.73l19.79,15.48c1.62-2.06,3.16-4.2,4.59-6.4l-21.06-13.7Q200.82,200.49,199.06,202.73Z"/><path class="cls-1" d="M204.72,194.21l22,12.2q1.92-3.43,3.52-7.06l-23-10.23C206.48,190.86,205.64,192.56,204.72,194.21Z"/><path class="cls-1" d="M93.69,199,72.86,213c1.47,2.18,3,4.3,4.68,6.34l19.53-15.8C95.88,202.1,94.75,200.57,93.69,199Z"/><path class="cls-1" d="M86.87,185.91l-23.46,9c.75,2,1.58,3.89,2.46,5.8L88.65,190.1C88,188.73,87.41,187.33,86.87,185.91Z"/><path class="cls-1" d="M140.8,227.38l-2.64,25c1.88.2,4.25.37,6.33.45l.87-25.11C143.85,227.65,142.21,227.53,140.8,227.38Z"/></g><g class="cls-3"><path class="cls-1" d="M117.36,56.46l-5.61-19.57q-5.49,1.57-10.81,3.61l7.28,19Q112.7,57.79,117.36,56.46Z"/><path class="cls-1" d="M51.21,109l-17.8-9.88q-2.76,5-5.09,10.21l18.59,8.29Q48.88,113.22,51.21,109Z"/><path class="cls-1" d="M55.18,102.42,38.12,91.32q-2.49,3.83-4.71,7.82L51.21,109Q53.09,105.65,55.18,102.42Z"/><path class="cls-1" d="M65.75,88.7,50.63,75.07q-3,3.39-5.87,7l16,12.54C62.38,92.57,64,90.6,65.75,88.7Z"/><path class="cls-1" d="M72.5,81.83,58.63,66.94q-4.17,3.89-8,8.13L65.75,88.7Q69,85.12,72.5,81.83Z"/><path class="cls-1" d="M247.79,116l18.45-8.6c-1.61-3.45-3.38-6.82-5.27-10.11l-17.63,10.17Q245.74,111.6,247.79,116Z"/><path class="cls-1" d="M176.35,56l5.28-19.65q-4.38-1.17-8.9-2l-3.89,20Q172.65,55,176.35,56Z"/><path class="cls-1" d="M258,156.86l20.32-1.05q-.22-4.59-.77-9.1l-20.21,2.47Q257.77,153,258,156.86Z"/><path class="cls-1" d="M258,166.49l20.34.72c.14-3.83.11-7.64-.08-11.4L258,156.86Q258.2,161.63,258,166.49Z"/><path class="cls-1" d="M228.48,87.36l14.89-13.88q-3.88-4.17-8.13-8L221.62,80.6C224,82.76,226.3,85,228.48,87.36Z"/><path class="cls-1" d="M233.53,93.17l15.83-12.8q-2.88-3.54-6-6.89L228.48,87.36C230.23,89.24,231.92,91.18,233.53,93.17Z"/><path class="cls-1" d="M39.42,141.37l-20-4c-.72,3.7-1.29,7.47-1.69,11.23L38,150.78C38.3,148,38.81,144.49,39.42,141.37Z"/><path class="cls-1" d="M79.74,249.52l-12.54,16q4.47,3.51,9.27,6.64l11.09-17.07C84.87,253.38,82.26,251.5,79.74,249.52Z"/><path class="cls-1" d="M39.75,185.48,19.83,189.7c.64,3,1.37,5.94,2.21,8.86L41.61,193C40.9,190.5,40.28,188,39.75,185.48Z"/><path class="cls-1" d="M56.21,224.25,39.33,235.62q3.2,4.74,6.77,9.18L61.93,232Q58.9,228.25,56.21,224.25Z"/><path class="cls-1" d="M102.78,263.4,94.49,282q4.16,1.85,8.46,3.42l7-19.13Q106.29,265,102.78,263.4Z"/><path class="cls-1" d="M73.84,244.56,60.22,259.68q3.38,3.06,7,5.88l12.54-16C77.71,247.94,75.75,246.28,73.84,244.56Z"/><path class="cls-1" d="M80.66,102.14,65.75,88.7c-1.72,1.9-3.37,3.87-5,5.89L76.61,107C77.9,105.3,79.26,103.69,80.66,102.14Z"/><path class="cls-1" d="M90.94,92.39,78.32,76.78q-3,2.43-5.82,5L86.19,96.52Q88.5,94.38,90.94,92.39Z"/><path class="cls-1" d="M86.19,96.52,72.5,81.83Q69,85.12,65.75,88.7l14.91,13.44C82.42,100.19,84.27,98.31,86.19,96.52Z"/><path class="cls-1" d="M234.55,137.74l19.3-5.53q-1.32-4.65-3-9.13l-18.75,7.18Q233.46,133.94,234.55,137.74Z"/><path class="cls-1" d="M229.59,124.46l18.2-8.47q-2-4.38-4.45-8.54l-17.4,10C227.26,119.75,228.47,122.08,229.59,124.46Z"/><path class="cls-1" d="M59.12,145.21l-19.7-3.89c-.6,3.12-1.12,6.64-1.42,9.46l20,2.11C58.21,150.54,58.63,147.76,59.12,145.21Z"/><path class="cls-1" d="M237.54,171.86l20,2.1c.24-2.35.43-5,.52-7.58l-20-.76C237.9,167.71,237.74,170,237.54,171.86Z"/><path class="cls-1" d="M225.94,117.48l17.4-10q-1.93-3.35-4.09-6.53L222.6,112.13Q224.37,114.76,225.94,117.48Z"/><path class="cls-1" d="M208.18,95.52,221.62,80.6c-1.91-1.72-3.87-3.37-5.9-5L203.36,91.46Q205.83,93.41,208.18,95.52Z"/><path class="cls-1" d="M185.85,244.44l8.48,18.2q4.36-2,8.54-4.45l-10-17.39C190.56,242.11,188.24,243.33,185.85,244.44Z"/><path class="cls-1" d="M198.18,237.46l11.22,16.65c2.66-1.8,5.25-3.7,7.74-5.72l-12.62-15.61Q201.45,235.26,198.18,237.46Z"/><path class="cls-1" d="M204.52,232.78l12.62,15.61q3-2.43,5.82-5l-13.69-14.69Q207,230.8,204.52,232.78Z"/><path class="cls-1" d="M237.54,171.86c-.3,2.82-.68,5.33-1.18,7.89l19.71,3.79c.61-3.13,1.09-6.29,1.44-9.58Z"/><path class="cls-1" d="M226.69,206.41l17.56,9.74q2.34-4.2,4.3-8.62l-18.34-8.18Q228.6,203,226.69,206.41Z"/><path class="cls-1" d="M77.54,219.37,61.93,232c1.61,2,3.3,3.93,5.05,5.81l14.69-13.68Q79.52,221.82,77.54,219.37Z"/><path class="cls-1" d="M57.5,159.39l-20.06-.71q-.18,4.84.06,9.63l20-1C57.42,164.66,57.4,162,57.5,159.39Z"/><path class="cls-1" d="M116.8,247.43l-6.87,18.86c3,1.09,6.06,2.06,9.18,2.89l5.21-19.39C121.76,249.11,119.26,248.32,116.8,247.43Z"/><path class="cls-1" d="M87.28,229.65,73.84,244.56c1.91,1.72,3.87,3.38,5.9,5L92.1,233.71Q89.63,231.76,87.28,229.65Z"/><path class="cls-1" d="M98.51,238.3l-11,16.83q3.22,2.1,6.6,4l9.75-17.56C102.07,240.53,100.27,239.44,98.51,238.3Z"/><path class="cls-1" d="M129.8,99.92l-6.92-24.16c-2.53.73-5,1.56-7.47,2.5l9,23.46Q127.06,100.72,129.8,99.92Z"/><path class="cls-1" d="M120.22,103.5,109.61,80.73c-2.39,1.11-4.71,2.33-7,3.64l12.56,21.76C116.81,105.19,118.5,104.31,120.22,103.5Z"/><path class="cls-1" d="M134.21,98.82,129,74.24q-3.1.66-6.12,1.52l6.92,24.16C131.25,99.51,132.72,99.14,134.21,98.82Z"/><path class="cls-1" d="M86.5,140.26l-23.61-8.6c-.89,2.45-1.69,5-2.37,7.51l24.27,6.52Q85.53,142.92,86.5,140.26Z"/><path class="cls-1" d="M96.4,122.44,76.61,107c-1.62,2.06-3.16,4.2-4.59,6.4l21.06,13.7Q94.64,124.68,96.4,122.44Z"/><path class="cls-1" d="M212.85,164.89l25.11.89c.1-2.65.08-5.27-.05-7.88l-25.1,1.31C212.91,161.08,212.92,163,212.85,164.89Z"/><path class="cls-1" d="M210.39,144.65l24.16-6.91q-1.1-3.81-2.5-7.48l-23.46,9Q209.61,141.9,210.39,144.65Z"/><path class="cls-1" d="M211.49,149.06l24.58-5.21c-.44-2.06-.94-4.1-1.52-6.11l-24.16,6.91C210.81,146.1,211.17,147.57,211.49,149.06Z"/><path class="cls-1" d="M174.27,103.05l10.23-23q-2.87-1.27-5.84-2.36l-8.61,23.61C171.48,101.87,172.89,102.44,174.27,103.05Z"/><path class="cls-1" d="M188.71,213.25l15.81,19.53q2.44-2,4.75-4.13l-17.12-18.39C191,211.3,189.89,212.29,188.71,213.25Z"/><path class="cls-1" d="M212.86,164.79c-.05,1.5-.15,3-.3,4.43l25,2.64c.2-1.88.36-4.15.44-6.24Z"/><path class="cls-1" d="M85.07,180.52l-24.16,6.91q1.1,3.81,2.5,7.48l23.46-9Q85.85,183.27,85.07,180.52Z"/><path class="cls-1" d="M100.05,207,81.67,224.13q2.68,2.88,5.61,5.52L104.1,211Q102,209.08,100.05,207Z"/><path class="cls-1" d="M116.1,219.58l-12.19,22q3.44,1.9,7,3.51l10.23-22.95C119.45,221.34,117.75,220.49,116.1,219.58Z"/><path class="cls-1" d="M104.1,211,87.28,229.65q2.34,2.11,4.82,4.06l15.48-19.79Q105.8,212.51,104.1,211Z"/></g><path class="cls-1" d="M121.1,116.41l-5.92-10.28c-1.32.76-2.61,1.57-3.86,2.41l6.63,9.85C119,117.69,120,117,121.1,116.41Z"/><path class="cls-1" d="M149.62,109.32,150,97.46c-1.91-.07-3.81-.06-5.69,0l.62,11.85C146.5,109.28,148.05,109.26,149.62,109.32Z"/><path class="cls-1" d="M145,109.35l-.62-11.85q-2.28.12-4.53.39l1.44,11.78C142.48,109.52,143.72,109.42,145,109.35Z"/><path class="cls-1" d="M99,140.88,88.2,136c-.61,1.38-1.18,2.79-1.7,4.22l11.15,4.07C98.07,143.16,98.54,142,99,140.88Z"/><path class="cls-1" d="M200.05,172.67l11.66,2.22c.35-1.84.6-3.32.85-5.67L200.75,168A45.56,45.56,0,0,1,200.05,172.67Z"/><path class="cls-1" d="M96.25,148.76l-11.46-3.07c-.39,1.45-.73,2.93-1,4.43l11.65,2.27C95.66,151.16,95.93,150,96.25,148.76Z"/><path class="cls-1" d="M166.81,212.36l4.25,11.08c1.42-.54,2.81-1.14,4.18-1.78l-5-10.76C169.11,211.43,168,211.91,166.81,212.36Z"/><path class="cls-1" d="M162.4,213.83l3.26,11.42q2.75-.8,5.4-1.81l-4.25-11.08C165.37,212.91,163.89,213.41,162.4,213.83Z"/><path class="cls-1" d="M118.67,207.28l-6.47,9.95q1.9,1.25,3.9,2.35l5.76-10.38C120.77,208.59,119.71,208,118.67,207.28Z"/><path class="cls-1" d="M106.29,196.1l-9.22,7.47c1,1.18,2,2.32,3,3.43l8.68-8.09C107.89,198,107.07,197.07,106.29,196.1Z"/><path class="cls-1" d="M124.52,128.13,118,118.39q-1.94,1.29-3.74,2.76l7.39,9.14C122.54,129.53,123.51,128.81,124.52,128.13Z"/><path class="cls-1" d="M136.3,122.64l-3.24-11.31c-1.49.43-3,.92-4.41,1.48l4.21,11C134,123.35,135.13,123,136.3,122.64Z"/><path class="cls-1" d="M119.41,132.19l-8-8.6c-1.13,1-2.22,2.16-3.26,3.31l8.73,7.87C117.68,133.87,118.53,133,119.41,132.19Z"/><path class="cls-1" d="M112.89,139.94,103,133.53c-.68,1-1.32,2.1-1.92,3.19l10.28,5.7C111.87,141.57,112.37,140.74,112.89,139.94Z"/><path class="cls-1" d="M115,137l-9.26-7.24c-.95,1.22-1.86,2.48-2.7,3.78l9.85,6.41C113.55,138.92,114.26,137.94,115,137Z"/><path class="cls-1" d="M189.07,166.74,200.75,168c.1-.94.21-2.37.25-3.6l-11.74-.47C189.23,164.86,189.17,165.8,189.07,166.74Z"/><path class="cls-1" d="M189.25,164.05l11.74.42q.09-2.34,0-4.65l-11.74.61C189.28,161.63,189.29,162.84,189.25,164.05Z"/><path class="cls-1" d="M187.68,151.15l11.3-3.23c-.43-1.5-.92-3-1.47-4.42l-11,4.21C187,148.84,187.34,150,187.68,151.15Z"/><path class="cls-1" d="M165.27,200.25l5,10.65q2.11-1,4.13-2.15l-5.88-10.18Q166.92,199.49,165.27,200.25Z"/><path class="cls-1" d="M168.48,198.57l5.88,10.18c1.07-.62,2.12-1.27,3.15-2L170.94,197Q169.74,197.85,168.48,198.57Z"/><path class="cls-1" d="M156.35,203.23l2.44,11.5c1.22-.26,2.42-.56,3.61-.9l-3.24-11.3C158.24,202.8,157.3,203,156.35,203.23Z"/><path class="cls-1" d="M152.77,203.83l1.43,11.67c1.55-.19,3.08-.45,4.59-.77l-2.44-11.5C155.17,203.48,154,203.68,152.77,203.83Z"/><path class="cls-1" d="M176.05,193l8,8.6c1.13-1.05,2.22-2.16,3.26-3.31l-8.73-7.87C177.78,191.3,176.93,192.16,176.05,193Z"/><path class="cls-1" d="M178.59,190.4l8.73,7.87q1.25-1.38,2.4-2.85l-9.26-7.24C179.86,188.94,179.24,189.68,178.59,190.4Z"/><path class="cls-1" d="M182.57,185.23l9.85,6.41c.68-1,1.32-2.1,1.92-3.19l-10.28-5.7C183.59,183.6,183.09,184.42,182.57,185.23Z"/><g class="cls-6"><path class="cls-1" d="M133.06,111.33,129.8,99.92q-2.75.8-5.4,1.8l4.25,11.09C130.09,112.25,131.57,111.76,133.06,111.33Z"/><path class="cls-1" d="M141.26,109.67l-1.44-11.78q-2.83.35-5.61.93l2.46,11.62C138.18,110.12,139.71,109.86,141.26,109.67Z"/><path class="cls-1" d="M118,118.39l-6.63-9.85c-1.57,1.06-3.1,2.19-4.57,3.38l7.46,9.23Q116,119.68,118,118.39Z"/><path class="cls-1" d="M108.14,126.9,99.32,119c-1,1.12-2,2.28-2.92,3.48l9.34,7.31Q106.9,128.28,108.14,126.9Z"/><path class="cls-1" d="M197.51,143.5l11.08-4.24c-.54-1.42-1.14-2.82-1.78-4.19l-10.76,5C196.57,141.2,197.06,142.34,197.51,143.5Z"/><path class="cls-1" d="M201,164.47l11.86.42c.07-1.91.06-3.81,0-5.68l-11.85.61Q201.08,162.13,201,164.47Z"/><path class="cls-1" d="M183.41,123l8-8.81c-1.13-1-2.29-2-3.48-2.93l-7.31,9.35C181.54,121.36,182.49,122.16,183.41,123Z"/><path class="cls-1" d="M166,112.5l4.06-11.15c-1.77-.64-3.58-1.22-5.42-1.71l-3.08,11.46C163.06,111.51,164.54,112,166,112.5Z"/><path class="cls-1" d="M181.25,204l7.46,9.23c1.18-1,2.33-1.95,3.44-3l-8.09-8.68C183.15,202.43,182.21,203.24,181.25,204Z"/><path class="cls-1" d="M158.79,214.73l2.46,11.61c1.49-.31,3-.68,4.41-1.09l-3.26-11.42C161.21,214.17,160,214.47,158.79,214.73Z"/><path class="cls-1" d="M197.81,180.84,209,184.91q1-2.66,1.71-5.43l-11.46-3.07C198.81,177.91,198.34,179.39,197.81,180.84Z"/><path class="cls-1" d="M142.05,215.58l-1.25,11.8c1.41.15,3.08.27,4.58.32l.4-11.86C144.55,215.8,143.46,215.73,142.05,215.58Z"/><path class="cls-1" d="M187.32,198.27l8.82,7.94c1-1.12,2-2.28,2.92-3.48l-9.34-7.31Q188.57,196.89,187.32,198.27Z"/><path class="cls-1" d="M96.48,177.25l-11.41,3.27q.78,2.74,1.8,5.39L98,181.66Q97.13,179.5,96.48,177.25Z"/><path class="cls-1" d="M95.58,173.64,84,176.1c.32,1.49.68,3,1.1,4.42l11.41-3.27C96.14,176.06,95.84,174.86,95.58,173.64Z"/><path class="cls-1" d="M94.82,169.05,83,170.5c.23,1.89.55,3.76.94,5.6l11.61-2.46C95.26,172.13,95,170.6,94.82,169.05Z"/><path class="cls-1" d="M121.86,209.2l-5.76,10.38c1.65.91,3.35,1.76,5.09,2.53L126,211.27Q123.89,210.33,121.86,209.2Z"/><path class="cls-1" d="M108.73,198.91,100.05,207q1.94,2.08,4,4l8-8.82C110.9,201.13,109.79,200.05,108.73,198.91Z"/><path class="cls-1" d="M121.6,130.29l-7.39-9.14c-1,.78-1.9,1.59-2.81,2.44l8,8.6C120.12,131.53,120.85,130.89,121.6,130.29Z"/><path class="cls-1" d="M189,157.54l11.66-1.43c-.18-1.55-.44-3.07-.76-4.58L188.38,154C188.63,155.14,188.83,156.33,189,157.54Z"/><path class="cls-1" d="M185.39,145l10.66-5q-1-2.12-2.15-4.12l-10.18,5.87C184.32,142.87,184.88,144,185.39,145Z"/><path class="cls-1" d="M180,136.46l9.14-7.4c-.78-1-1.6-1.9-2.44-2.81l-8.6,8C178.79,135,179.42,135.7,180,136.46Z"/><path class="cls-1" d="M158.5,122.46l3.05-11.36c-1.19-.31-2.4-.59-3.62-.83l-2.25,11.54C156.63,122,157.57,122.21,158.5,122.46Z"/><path class="cls-1" d="M175.54,131.72l7.87-8.73c-.92-.83-1.87-1.63-2.84-2.39l-7.25,9.26C174.09,130.45,174.83,131.08,175.54,131.72Z"/><path class="cls-1" d="M178.13,134.27l8.6-8q-1.59-1.69-3.32-3.26l-7.87,8.73C176.44,132.54,177.3,133.38,178.13,134.27Z"/><path class="cls-1" d="M170.94,197l6.57,9.74c1.29-.87,2.54-1.78,3.74-2.76l-7.39-9.14C172.92,195.64,172,196.36,170.94,197Z"/><path class="cls-1" d="M189.07,166.74c-.15,1.41-.33,2.51-.55,3.69l11.54,2.19c.29-1.51.5-2.77.69-4.65Z"/><path class="cls-1" d="M180.46,188.18l9.26,7.24c.95-1.22,1.86-2.48,2.7-3.78l-9.85-6.41C181.91,186.25,181.2,187.23,180.46,188.18Z"/><path class="cls-1" d="M184.06,182.75l10.28,5.7q1.13-2,2.08-4.16l-10.74-4.79C185.19,180.61,184.65,181.7,184.06,182.75Z"/><path class="cls-1" d="M107.78,174l-11.3,3.23q.64,2.25,1.47,4.41l11-4.2C108.5,176.33,108.12,175.18,107.78,174Z"/><path class="cls-1" d="M133.5,201.62l-4,11c1.45.52,2.93,1,4.44,1.39L137,202.71C135.78,202.4,134.63,202,133.5,201.62Z"/></g><g class="cls-3"><path class="cls-1" d="M125.23,114.26l-5-10.76c-1.72.81-3.41,1.69-5,2.63l5.92,10.28Q123.11,115.26,125.23,114.26Z"/><path class="cls-1" d="M157.88,110.27l2.25-11.65c-1.84-.36-3.76-.65-5.64-.85l-1.25,11.8C154.65,109.72,156.37,110,157.88,110.27Z"/><path class="cls-1" d="M101.12,136.72,90.74,131c-.92,1.65-1.76,3.35-2.54,5.08L99,140.88Q100,138.75,101.12,136.72Z"/><path class="cls-1" d="M114.21,121.15l-7.46-9.23c-1.18,1-2.33,2-3.44,3l8.09,8.69C112.31,122.74,113.25,121.93,114.21,121.15Z"/><path class="cls-1" d="M176.79,117.89l6.47-10q-1.9-1.25-3.9-2.35L173.6,116C174.69,116.57,175.75,117.22,176.79,117.89Z"/><path class="cls-1" d="M199.88,151.53l11.61-2.47c-.32-1.49-.68-3-1.1-4.41L199,147.92C199.32,149.1,199.62,150.31,199.88,151.53Z"/><path class="cls-1" d="M200.64,156.11l11.79-1.44c-.23-1.89-.55-3.76-.94-5.61l-11.61,2.47C200.2,153,200.46,154.56,200.64,156.11Z"/><path class="cls-1" d="M196.05,140.08l10.76-5q-1.2-2.58-2.63-5L193.9,136Q195.05,138,196.05,140.08Z"/><path class="cls-1" d="M201,159.82l11.85-.61c-.07-1.53-.2-3-.38-4.54l-11.79,1.44C200.79,157.34,200.9,158.57,201,159.82Z"/><path class="cls-1" d="M173.6,116l5.76-10.38c-1.65-.92-3.35-1.76-5.09-2.54l-4.83,10.85Q171.57,114.85,173.6,116Z"/><path class="cls-1" d="M191.93,132.8l9.84-6.63c-1.06-1.57-2.19-3.1-3.38-4.57l-9.22,7.46Q190.63,130.88,191.93,132.8Z"/><path class="cls-1" d="M189.17,129.06l9.22-7.46c-.95-1.18-1.95-2.32-3-3.43l-8.68,8.08C187.57,127.16,188.39,128.1,189.17,129.06Z"/><path class="cls-1" d="M180.57,120.6l7.31-9.35q-2.24-1.75-4.62-3.31l-6.47,10Q178.74,119.17,180.57,120.6Z"/><path class="cls-1" d="M174.36,208.75,180.28,219c1.32-.75,2.61-1.56,3.86-2.41l-6.63-9.84C176.48,207.48,175.43,208.13,174.36,208.75Z"/><path class="cls-1" d="M170.23,210.9l5,10.76c1.72-.8,3.41-1.68,5-2.63l-5.92-10.28Q172.35,209.92,170.23,210.9Z"/><path class="cls-1" d="M154.2,215.5l1.44,11.78c1.89-.23,3.76-.55,5.61-.94l-2.46-11.61C157.28,215.05,155.75,215.31,154.2,215.5Z"/><path class="cls-1" d="M196.42,184.29l10.84,4.83c.61-1.38,1.18-2.78,1.7-4.21l-11.15-4.07C197.39,182,196.92,183.16,196.42,184.29Z"/><path class="cls-1" d="M95.43,152.28,83.79,150c-.36,1.85-.64,3.69-.84,5.57l11.8,1.25C94.9,155.37,95.14,153.79,95.43,152.28Z"/><path class="cls-1" d="M194.34,188.45l10.38,5.76c.92-1.65,1.76-3.35,2.54-5.09l-10.84-4.83Q195.46,186.42,194.34,188.45Z"/><path class="cls-1" d="M189.72,195.42l9.34,7.31q1.75-2.23,3.32-4.62l-10-6.47C191.58,192.94,190.67,194.2,189.72,195.42Z"/><path class="cls-1" d="M112.05,202.17l-8,8.82q1.7,1.51,3.48,2.93l7.31-9.35C113.92,203.8,113,203,112.05,202.17Z"/><path class="cls-1" d="M98,181.66l-11.08,4.25c.54,1.42,1.14,2.82,1.78,4.19l10.76-5C98.89,184,98.4,182.82,98,181.66Z"/><path class="cls-1" d="M137.49,214.89l-2.29,11.65q2.78.54,5.6.84l1.25-11.8C140.64,215.43,139,215.18,137.49,214.89Z"/><path class="cls-1" d="M94.47,160.7l-11.86-.42c-.07,1.91-.06,3.8,0,5.68l11.85-.61Q94.38,163,94.47,160.7Z"/><path class="cls-1" d="M94.5,165.35,82.65,166c.07,1.53.2,3,.38,4.54l11.79-1.45C94.67,167.83,94.56,166.59,94.5,165.35Z"/><path class="cls-1" d="M129.47,212.67l-4.06,11.15q2.66,1,5.42,1.71l3.08-11.47C132.4,213.66,130.92,213.19,129.47,212.67Z"/><path class="cls-1" d="M114.89,204.57l-7.31,9.35q2.23,1.76,4.62,3.31l6.47-9.95C117.37,206.43,116.11,205.52,114.89,204.57Z"/><path class="cls-1" d="M132.86,123.78l-4.21-11c-1.16.44-2.3.93-3.42,1.45l5,10.66Q131.5,124.31,132.86,123.78Z"/><path class="cls-1" d="M139.11,121.94l-2.44-11.5c-1.22.25-2.42.55-3.61.89l3.24,11.31C137.22,122.37,138.16,122.14,139.11,121.94Z"/><path class="cls-1" d="M149.2,121.07l.42-11.75c-1.57-.06-3.12,0-4.65,0l.61,11.74C146.77,121,148,121,149.2,121.07Z"/><path class="cls-1" d="M142.69,121.34l-1.43-11.67c-1.55.19-3.08.45-4.59.77l2.44,11.5C140.29,121.69,141.48,121.49,142.69,121.34Z"/><path class="cls-1" d="M152,121.26l1.23-11.69c-1.41-.15-2.44-.21-3.67-.25l-.43,11.74C150.1,121.1,151.07,121.16,152,121.26Z"/><path class="cls-1" d="M111.4,142.42l-10.28-5.7q-1.12,2-2.08,4.16l10.74,4.78C110.27,144.56,110.81,143.47,111.4,142.42Z"/><path class="cls-1" d="M107.6,151.81l-11.35-3.05c-.32,1.19-.59,2.4-.83,3.63L107,154.64C107.14,153.68,107.35,152.74,107.6,151.81Z"/><path class="cls-1" d="M182.18,139.37l9.75-6.57q-1.31-1.92-2.76-3.74l-9.14,7.4C180.79,137.39,181.51,138.37,182.18,139.37Z"/><path class="cls-1" d="M188.38,154l11.5-2.43c-.26-1.22-.56-2.43-.9-3.61l-11.3,3.23C187.94,152.08,188.18,153,188.38,154Z"/><path class="cls-1" d="M186.53,147.71l11-4.21c-.45-1.16-.94-2.3-1.46-3.42l-10.66,5Q186,146.36,186.53,147.71Z"/><path class="cls-1" d="M189.22,160.43l11.74-.61c-.06-1.25-.17-2.48-.32-3.71L189,157.54C189.09,158.5,189.17,159.46,189.22,160.43Z"/><path class="cls-1" d="M183.72,141.83,193.9,136c-.62-1.08-1.28-2.13-2-3.16l-9.75,6.57C182.72,140.17,183.23,141,183.72,141.83Z"/><path class="cls-1" d="M155.63,121.8l2.23-11.53c-1.51-.3-3.21-.55-4.62-.7L152,121.26C153.42,121.41,154.46,121.58,155.63,121.8Z"/><path class="cls-1" d="M162,123.55l4-11c-1.45-.53-2.93-1-4.44-1.4l-3.05,11.36C159.68,122.77,160.83,123.14,162,123.55Z"/><path class="cls-1" d="M167.89,126.25,173.6,116q-2-1.12-4.16-2.07l-4.79,10.73Q166.32,125.38,167.89,126.25Z"/><path class="cls-1" d="M164.65,124.63l4.79-10.73c-1.13-.51-2.28-1-3.45-1.4l-4,11C162.87,123.88,163.77,124.24,164.65,124.63Z"/><path class="cls-1" d="M170.38,127.75l6.41-9.86c-1-.67-2.1-1.32-3.19-1.92l-5.71,10.28Q169.17,127,170.38,127.75Z"/><path class="cls-1" d="M173.32,129.86l7.25-9.26q-1.83-1.44-3.78-2.71l-6.41,9.86C171.39,128.41,172.38,129.11,173.32,129.86Z"/><path class="cls-1" d="M173.86,194.88l7.39,9.14c1-.78,1.9-1.59,2.81-2.44l-8-8.6C175.34,193.64,174.61,194.27,173.86,194.88Z"/><path class="cls-1" d="M162.6,201.38l4.21,11c1.16-.45,2.3-.93,3.42-1.46l-5-10.65C164.4,200.66,163.51,201,162.6,201.38Z"/><path class="cls-1" d="M149.88,204.08l.61,11.74c1.25-.07,2.49-.17,3.71-.32l-1.43-11.67C151.82,204,150.86,204,149.88,204.08Z"/><path class="cls-1" d="M143.28,203.89l-1.23,11.69c1.41.15,2.52.22,3.75.26l.4-11.75C145.24,204.06,144.22,204,143.28,203.89Z"/><path class="cls-1" d="M146.26,204.1l-.42,11.75q2.35.08,4.65,0l-.61-11.74C148.69,204.14,147.48,204.15,146.26,204.1Z"/><path class="cls-1" d="M187.86,173.36l11.35,3c.32-1.2.59-2.41.83-3.63l-11.53-2.25C188.32,171.49,188.11,172.43,187.86,173.36Z"/><path class="cls-1" d="M186.77,176.81l11,4c.53-1.45,1-2.93,1.4-4.43l-11.35-3C187.54,174.53,187.18,175.69,186.77,176.81Z"/><path class="cls-1" d="M108.93,177.46l-11,4.2c.45,1.16.94,2.31,1.46,3.43l10.66-5C109.66,179.25,109.28,178.36,108.93,177.46Z"/><path class="cls-1" d="M111.74,183.34l-10.18,5.87c.62,1.07,1.28,2.13,2,3.15l9.75-6.56C112.74,185,112.23,184.18,111.74,183.34Z"/><path class="cls-1" d="M106.48,167.63l-11.66,1.42c.18,1.55.44,3.08.76,4.59l11.5-2.44C106.83,170,106.63,168.83,106.48,167.63Z"/><path class="cls-1" d="M107.08,171.2l-11.5,2.44c.26,1.22.56,2.42.9,3.61l11.3-3.23C107.52,173.09,107.28,172.15,107.08,171.2Z"/><path class="cls-1" d="M106.21,161.11l-11.74-.41q-.09,2.34,0,4.65l11.74-.61Q106.15,162.94,106.21,161.11Z"/><path class="cls-1" d="M139.74,203.36l-2.27,11.53c1.51.29,3.17.54,4.58.69l1.23-11.69C141.87,203.74,140.92,203.58,139.74,203.36Z"/><path class="cls-1" d="M137,202.71l-3.05,11.35c1.19.32,2.4.6,3.62.84l2.25-11.54C138.83,203.17,137.89,203,137,202.71Z"/><path class="cls-1" d="M122.14,195.31l-7.25,9.26c1.22,1,2.48,1.86,3.78,2.71l6.41-9.86C124.07,196.76,123.08,196.05,122.14,195.31Z"/><path class="cls-1" d="M125.08,197.42l-6.41,9.86c1,.67,2.1,1.31,3.19,1.92l5.71-10.28Q126.3,198.21,125.08,197.42Z"/></g><g class="cls-5"><path class="cls-1" d="M136.67,110.44l-2.46-11.62c-1.49.32-3,.69-4.41,1.1l3.26,11.41C134.25,111,135.45,110.69,136.67,110.44Z"/><path class="cls-1" d="M128.65,112.81l-4.25-11.09c-1.42.55-2.81,1.14-4.18,1.78l5,10.76C126.35,113.74,127.49,113.25,128.65,112.81Z"/><path class="cls-1" d="M153.24,109.57l1.25-11.8c-1.41-.15-3-.26-4.5-.31l-.44,11.85C150.78,109.36,151.83,109.42,153.24,109.57Z"/><path class="cls-1" d="M103,133.53l-10-6.47Q91.85,129,90.74,131l10.38,5.76C101.72,135.63,102.36,134.57,103,133.53Z"/><path class="cls-1" d="M97.65,144.33,86.5,140.26q-1,2.66-1.71,5.43l11.46,3.07C96.65,147.25,97.12,145.78,97.65,144.33Z"/><path class="cls-1" d="M111.4,123.59l-8.09-8.69c-1.39,1.29-2.71,2.65-4,4.06l8.82,7.94C109.18,125.75,110.27,124.64,111.4,123.59Z"/><path class="cls-1" d="M105.74,129.75l-9.34-7.31q-1.75,2.24-3.32,4.62l10,6.47C103.88,132.23,104.79,131,105.74,129.75Z"/><path class="cls-1" d="M199,147.92l11.41-3.27q-.78-2.75-1.8-5.39l-11.08,4.24C198.06,145,198.55,146.42,199,147.92Z"/><path class="cls-1" d="M200.75,168l11.81,1.25c.15-1.41.25-2.93.3-4.43L201,164.31C201,165.54,200.85,167,200.75,168Z"/><path class="cls-1" d="M193.9,136,204.18,130q-1.14-2-2.41-3.86l-9.84,6.63C192.62,133.83,193.28,134.88,193.9,136Z"/><path class="cls-1" d="M169.44,113.9l4.83-10.85c-1.38-.61-2.79-1.18-4.22-1.7L166,112.5C167.16,112.93,168.31,113.39,169.44,113.9Z"/><path class="cls-1" d="M186.73,126.25l8.68-8.08q-1.93-2.08-4-4l-8,8.81Q185.14,124.55,186.73,126.25Z"/><path class="cls-1" d="M161.55,111.1l3.08-11.46c-1.46-.39-2.94-.73-4.43-1l-2.27,11.65C159.15,110.51,160.36,110.79,161.55,111.1Z"/><path class="cls-1" d="M133.91,214.06l-3.08,11.47c1.46.39,2.94.72,4.43,1l2.27-11.64C136.31,214.66,135.1,214.38,133.91,214.06Z"/><path class="cls-1" d="M177.51,206.78l6.63,9.84c1.57-1.06,3.1-2.18,4.57-3.37L181.25,204C180.05,205,178.8,205.91,177.51,206.78Z"/><path class="cls-1" d="M150.49,215.82l.62,11.85q2.28-.12,4.53-.39L154.2,215.5C153,215.65,151.74,215.75,150.49,215.82Z"/><path class="cls-1" d="M145.84,215.85l-.42,11.86c1.91.07,3.81,0,5.69,0l-.62-11.85Q148.2,215.93,145.84,215.85Z"/><path class="cls-1" d="M200,172.78c-.24,1.22-.51,2.43-.83,3.63l11.46,3.07c.39-1.45.73-2.93,1-4.43Z"/><path class="cls-1" d="M184.06,201.58l8.09,8.68c1.39-1.29,2.71-2.64,4-4l-8.82-7.94C186.28,199.42,185.19,200.53,184.06,201.58Z"/><path class="cls-1" d="M192.42,191.64l10,6.47q1.23-1.91,2.34-3.9l-10.38-5.76C193.74,189.54,193.1,190.6,192.42,191.64Z"/><path class="cls-1" d="M99.41,185.09l-10.76,5q1.2,2.58,2.63,5l10.28-5.93C100.79,187.87,100.07,186.49,99.41,185.09Z"/><path class="cls-1" d="M101.56,189.21l-10.28,5.93q1.14,2,2.41,3.86l9.84-6.64C102.84,191.34,102.18,190.28,101.56,189.21Z"/><path class="cls-1" d="M94.75,156.78,83,155.53c-.2,1.88-.28,3.14-.33,4.64l11.86.37C94.53,159.31,94.6,158.19,94.75,156.78Z"/><path class="cls-1" d="M126,211.27l-4.83,10.84c1.38.62,2.79,1.19,4.22,1.71l4.06-11.15C128.3,212.24,127.15,211.78,126,211.27Z"/><path class="cls-1" d="M103.53,192.36,93.69,199c1.06,1.57,2.19,3.1,3.38,4.57l9.22-7.47Q104.83,194.3,103.53,192.36Z"/><path class="cls-1" d="M130.19,124.92l-5-10.66q-2.12,1-4.13,2.15L127,126.6Q128.54,125.69,130.19,124.92Z"/><path class="cls-1" d="M127,126.6l-5.88-10.19c-1.07.63-2.12,1.28-3.15,2l6.57,9.74Q125.72,127.32,127,126.6Z"/><path class="cls-1" d="M145.58,121.09,145,109.35c-1.25.07-2.49.17-3.71.32l1.43,11.67C143.64,121.22,144.6,121.14,145.58,121.09Z"/><path class="cls-1" d="M108.69,148.35l-11-4c-.53,1.45-1,2.92-1.4,4.43l11.35,3.05C107.92,150.64,108.28,149.48,108.69,148.35Z"/><path class="cls-1" d="M109.78,145.66,99,140.88c-.5,1.13-1,2.28-1.39,3.45l11,4C109,147.44,109.39,146.54,109.78,145.66Z"/><path class="cls-1" d="M116.87,134.77l-8.73-7.87q-1.24,1.38-2.4,2.85L115,137C115.6,136.23,116.22,135.49,116.87,134.77Z"/><path class="cls-1" d="M107,154.53l-11.54-2.3c-.29,1.51-.53,3.14-.68,4.55L106.44,158C106.54,157.07,106.74,155.71,107,154.53Z"/><path class="cls-1" d="M159.16,202.53l3.24,11.3c1.49-.42,3-.92,4.41-1.47l-4.21-11C161.48,201.82,160.33,202.2,159.16,202.53Z"/><path class="cls-1" d="M185.68,179.5l10.74,4.79c.5-1.13,1-2.28,1.39-3.45l-11-4C186.44,177.73,186.07,178.62,185.68,179.5Z"/><path class="cls-1" d="M106.44,158l-11.69-1.23c-.15,1.41-.23,2.58-.27,3.81l11.75.37C106.26,160,106.29,159.42,106.44,158Z"/><path class="cls-1" d="M110.07,180.12l-10.66,5c.66,1.4,1.38,2.78,2.15,4.12l10.18-5.87C111.14,182.29,110.58,181.22,110.07,180.12Z"/><path class="cls-1" d="M106.24,164.74l-11.74.61c.06,1.24.17,2.48.32,3.7l11.66-1.42C106.37,166.67,106.29,165.71,106.24,164.74Z"/><path class="cls-1" d="M113.28,185.8l-9.75,6.56q1.31,1.94,2.76,3.74l9.14-7.39C114.67,187.77,114,186.8,113.28,185.8Z"/><path class="cls-1" d="M127.57,198.92l-5.71,10.28q2,1.13,4.16,2.07l4.79-10.73Q129.14,199.79,127.57,198.92Z"/><path class="cls-1" d="M130.81,200.54,126,211.27c1.13.51,2.28,1,3.45,1.4l4-11C132.59,201.29,131.69,200.93,130.81,200.54Z"/><path class="cls-1" d="M115.43,188.71l-9.14,7.39c.78,1,1.6,1.91,2.44,2.81l8.6-8C116.67,190.19,116,189.46,115.43,188.71Z"/><path class="cls-1" d="M119.92,193.44l-7.87,8.73c.92.83,1.87,1.63,2.84,2.4l7.25-9.26C121.37,194.71,120.63,194.09,119.92,193.44Z"/></g><path class="cls-1" d="M117.33,190.9l-8.6,8c1.06,1.14,2.17,2.22,3.32,3.26l7.87-8.73C119,192.63,118.16,191.79,117.33,190.9Z"/></g><g id="Laag_2" data-name="Laag 2"><path class="cls-7" d="M136.67,110.44l-2.46-11.62c-1.49.32-3,.69-4.41,1.1l3.26,11.41C134.25,111,135.45,110.69,136.67,110.44Z"/><path class="cls-8" d="M133.06,111.33,129.8,99.92q-2.75.8-5.4,1.8l4.25,11.09C130.09,112.25,131.57,111.76,133.06,111.33Z"/><path class="cls-9" d="M125.23,114.26l-5-10.76c-1.72.81-3.41,1.69-5,2.63l5.92,10.28Q123.11,115.26,125.23,114.26Z"/><path class="cls-7" d="M128.65,112.81l-4.25-11.09c-1.42.55-2.81,1.14-4.18,1.78l5,10.76C126.35,113.74,127.49,113.25,128.65,112.81Z"/><path class="cls-7" d="M153.24,109.57l1.25-11.8c-1.41-.15-3-.26-4.5-.31l-.44,11.85C150.78,109.36,151.83,109.42,153.24,109.57Z"/><path class="cls-1" d="M121.1,116.41l-5.92-10.28c-1.32.76-2.61,1.57-3.86,2.41l6.63,9.85C119,117.69,120,117,121.1,116.41Z"/><path class="cls-9" d="M157.88,110.27l2.25-11.65c-1.84-.36-3.76-.65-5.64-.85l-1.25,11.8C154.65,109.72,156.37,110,157.88,110.27Z"/><path class="cls-1" d="M149.62,109.32,150,97.46c-1.91-.07-3.81-.06-5.69,0l.62,11.85Q147.26,109.23,149.62,109.32Z"/><path class="cls-8" d="M141.26,109.67l-1.44-11.78q-2.83.35-5.61.93l2.46,11.62C138.18,110.12,139.71,109.86,141.26,109.67Z"/><path class="cls-1" d="M145,109.35l-.62-11.85q-2.28.12-4.53.39l1.44,11.78C142.48,109.52,143.72,109.42,145,109.35Z"/><path class="cls-1" d="M99,140.88,88.2,136c-.61,1.38-1.18,2.79-1.7,4.22l11.15,4.07C98.07,143.16,98.54,142,99,140.88Z"/><path class="cls-7" d="M103,133.53l-10-6.47Q91.85,129,90.74,131l10.38,5.76C101.72,135.63,102.36,134.57,103,133.53Z"/><path class="cls-9" d="M101.12,136.72,90.74,131c-.92,1.65-1.76,3.34-2.54,5.08L99,140.88Q100,138.75,101.12,136.72Z"/><path class="cls-8" d="M118,118.39l-6.63-9.85c-1.57,1.06-3.1,2.19-4.57,3.38l7.46,9.23Q116,119.68,118,118.39Z"/><path class="cls-7" d="M97.65,144.33,86.5,140.26q-1,2.66-1.71,5.43l11.46,3.07C96.65,147.25,97.12,145.78,97.65,144.33Z"/><path class="cls-7" d="M111.4,123.59l-8.09-8.69c-1.39,1.29-2.71,2.65-4,4.06l8.82,7.94C109.18,125.75,110.27,124.64,111.4,123.59Z"/><path class="cls-7" d="M105.74,129.75l-9.34-7.31q-1.75,2.24-3.32,4.62l10,6.47C103.88,132.23,104.79,131,105.74,129.75Z"/><path class="cls-9" d="M114.21,121.15l-7.46-9.23c-1.18,1-2.33,2-3.44,3l8.09,8.69C112.31,122.74,113.25,121.93,114.21,121.15Z"/><path class="cls-8" d="M108.14,126.9,99.32,119c-1,1.12-2,2.28-2.92,3.48l9.34,7.31Q106.9,128.28,108.14,126.9Z"/><path class="cls-9" d="M176.79,117.89l6.47-10q-1.9-1.25-3.9-2.35L173.6,116C174.69,116.57,175.75,117.22,176.79,117.89Z"/><path class="cls-9" d="M199.88,151.53l11.61-2.47c-.32-1.49-.68-3-1.1-4.41L199,147.92C199.32,149.1,199.62,150.31,199.88,151.53Z"/><path class="cls-7" d="M199,147.92l11.41-3.27q-.78-2.75-1.8-5.39l-11.08,4.24C198.06,145,198.55,146.42,199,147.92Z"/><path class="cls-9" d="M200.64,156.11l11.79-1.44c-.23-1.89-.55-3.76-.94-5.61l-11.61,2.47C200.2,153,200.46,154.56,200.64,156.11Z"/><path class="cls-9" d="M196.05,140.08l10.76-5q-1.2-2.58-2.63-5L193.9,136Q195.05,138,196.05,140.08Z"/><path class="cls-8" d="M197.51,143.5l11.08-4.24c-.54-1.42-1.14-2.82-1.78-4.19l-10.76,5C196.57,141.2,197.06,142.34,197.51,143.5Z"/><path class="cls-9" d="M201,159.82l11.85-.61c-.07-1.53-.2-3-.38-4.54l-11.79,1.44C200.79,157.34,200.9,158.57,201,159.82Z"/><path class="cls-7" d="M200.75,168l11.81,1.25c.15-1.41.25-2.93.3-4.43L201,164.31C201,165.54,200.85,167,200.75,168Z"/><path class="cls-1" d="M200.05,172.67l11.66,2.22c.35-1.84.6-3.32.85-5.67L200.75,168A45.56,45.56,0,0,1,200.05,172.67Z"/><path class="cls-7" d="M193.9,136,204.18,130c-.76-1.32-1.56-2.6-2.41-3.86l-9.84,6.63C192.62,133.83,193.28,134.88,193.9,136Z"/><path class="cls-8" d="M201,164.47l11.86.42c.07-1.91.06-3.81,0-5.68l-11.85.61Q201.08,162.13,201,164.47Z"/><path class="cls-8" d="M183.41,123l8-8.81c-1.13-1-2.29-2-3.48-2.93l-7.31,9.35C181.54,121.36,182.49,122.16,183.41,123Z"/><path class="cls-7" d="M169.44,113.9l4.83-10.85c-1.38-.61-2.79-1.18-4.22-1.7L166,112.5C167.16,112.93,168.31,113.39,169.44,113.9Z"/><path class="cls-1" d="M96.25,148.76l-11.46-3.07c-.39,1.45-.73,2.93-1,4.43l11.65,2.27C95.66,151.16,95.93,150,96.25,148.76Z"/><path class="cls-9" d="M173.6,116l5.76-10.38c-1.65-.92-3.35-1.76-5.09-2.54l-4.83,10.85Q171.57,114.85,173.6,116Z"/><path class="cls-8" d="M166,112.5l4.06-11.15c-1.77-.64-3.58-1.22-5.42-1.71l-3.08,11.46C163.06,111.51,164.54,112,166,112.5Z"/><path class="cls-9" d="M191.93,132.8l9.84-6.63c-1.06-1.57-2.19-3.1-3.38-4.57l-9.22,7.46Q190.63,130.88,191.93,132.8Z"/><path class="cls-7" d="M186.73,126.25l8.68-8.08q-1.93-2.08-4-4l-8,8.81Q185.14,124.55,186.73,126.25Z"/><path class="cls-9" d="M189.17,129.06l9.22-7.46c-.95-1.18-1.95-2.32-3-3.43l-8.68,8.08C187.57,127.16,188.39,128.1,189.17,129.06Z"/><path class="cls-7" d="M161.55,111.1l3.08-11.46c-1.46-.39-2.94-.73-4.43-1l-2.27,11.65C159.15,110.51,160.36,110.79,161.55,111.1Z"/><path class="cls-9" d="M180.57,120.6l7.31-9.35q-2.24-1.75-4.62-3.31l-6.47,10Q178.74,119.17,180.57,120.6Z"/><path class="cls-7" d="M133.91,214.06l-3.08,11.47c1.46.39,2.94.72,4.43,1l2.27-11.64C136.31,214.66,135.1,214.38,133.91,214.06Z"/><path class="cls-1" d="M166.81,212.36l4.25,11.08c1.42-.54,2.81-1.14,4.18-1.78l-5-10.76C169.11,211.43,168,211.91,166.81,212.36Z"/><path class="cls-8" d="M181.25,204l7.46,9.23c1.18-1,2.33-1.95,3.44-3l-8.09-8.68C183.15,202.43,182.21,203.24,181.25,204Z"/><path class="cls-7" d="M177.51,206.78l6.63,9.84c1.57-1.06,3.1-2.18,4.57-3.37L181.25,204C180.05,205,178.8,205.91,177.51,206.78Z"/><path class="cls-1" d="M162.4,213.83l3.26,11.42q2.75-.8,5.4-1.81l-4.25-11.08C165.37,212.92,163.89,213.41,162.4,213.83Z"/><path class="cls-9" d="M174.36,208.75,180.28,219c1.32-.75,2.61-1.56,3.86-2.41l-6.63-9.84C176.48,207.48,175.43,208.13,174.36,208.75Z"/><path class="cls-9" d="M170.23,210.9l5,10.76c1.72-.8,3.41-1.68,5-2.63l-5.92-10.28Q172.35,209.92,170.23,210.9Z"/><path class="cls-7" d="M150.49,215.82l.62,11.85q2.28-.12,4.53-.39L154.2,215.5C153,215.65,151.74,215.75,150.49,215.82Z"/><path class="cls-8" d="M158.79,214.73l2.46,11.61c1.49-.31,3-.68,4.41-1.09l-3.26-11.42C161.21,214.17,160,214.47,158.79,214.73Z"/><path class="cls-7" d="M145.84,215.85l-.42,11.86c1.91.07,3.81,0,5.69,0l-.62-11.85Q148.2,215.93,145.84,215.85Z"/><path class="cls-9" d="M154.2,215.5l1.44,11.78q2.84-.34,5.61-.94l-2.46-11.61C157.28,215.05,155.75,215.31,154.2,215.5Z"/><path class="cls-9" d="M196.42,184.29l10.84,4.83c.61-1.38,1.18-2.78,1.7-4.21l-11.15-4.07C197.39,182,196.92,183.16,196.42,184.29Z"/><path class="cls-7" d="M200,172.78c-.24,1.22-.51,2.43-.83,3.63l11.46,3.07c.39-1.45.73-2.93,1-4.43Z"/><path class="cls-8" d="M197.81,180.84,209,184.91q1-2.66,1.71-5.43l-11.46-3.07C198.81,177.91,198.34,179.39,197.81,180.84Z"/><path class="cls-9" d="M95.43,152.28,83.79,150c-.36,1.85-.64,3.69-.84,5.57l11.8,1.25C94.9,155.37,95.14,153.79,95.43,152.28Z"/><path class="cls-8" d="M142.05,215.58l-1.25,11.8c1.41.15,3.08.27,4.58.32l.4-11.86C144.55,215.8,143.46,215.73,142.05,215.58Z"/><path class="cls-7" d="M184.06,201.58l8.09,8.68c1.39-1.29,2.71-2.64,4-4l-8.82-7.94C186.28,199.42,185.19,200.53,184.06,201.58Z"/><path class="cls-9" d="M194.34,188.45l10.38,5.76c.92-1.65,1.76-3.35,2.54-5.09l-10.84-4.83Q195.46,186.42,194.34,188.45Z"/><path class="cls-8" d="M187.32,198.27l8.82,7.94c1-1.12,2-2.28,2.92-3.48l-9.34-7.31Q188.57,196.89,187.32,198.27Z"/><path class="cls-9" d="M189.72,195.42l9.34,7.31q1.75-2.23,3.32-4.62l-10-6.47C191.58,192.94,190.67,194.2,189.72,195.42Z"/><path class="cls-7" d="M192.42,191.64l10,6.47q1.23-1.91,2.34-3.9l-10.38-5.76C193.74,189.54,193.1,190.6,192.42,191.64Z"/><path class="cls-9" d="M112.05,202.17l-8,8.82q1.7,1.51,3.48,2.93l7.31-9.35C113.92,203.8,113,203,112.05,202.17Z"/><path class="cls-9" d="M98,181.66l-11.08,4.25c.54,1.42,1.14,2.82,1.78,4.19l10.76-5C98.89,184,98.4,182.82,98,181.66Z"/><path class="cls-8" d="M96.48,177.25l-11.41,3.27q.78,2.74,1.8,5.39L98,181.66Q97.13,179.5,96.48,177.25Z"/><path class="cls-7" d="M99.41,185.09l-10.76,5q1.2,2.58,2.63,5l10.28-5.93C100.79,187.87,100.07,186.49,99.41,185.09Z"/><path class="cls-7" d="M101.56,189.21l-10.28,5.93q1.14,2,2.41,3.86l9.84-6.64C102.84,191.34,102.18,190.28,101.56,189.21Z"/><path class="cls-8" d="M95.58,173.64,84,176.1c.32,1.49.68,3,1.1,4.42l11.41-3.27C96.14,176.06,95.84,174.86,95.58,173.64Z"/><path class="cls-9" d="M137.49,214.89l-2.29,11.65q2.78.54,5.6.84l1.25-11.8C140.64,215.43,139,215.18,137.49,214.89Z"/><path class="cls-9" d="M94.47,160.7l-11.86-.42c-.07,1.91-.06,3.8,0,5.68l11.85-.61Q94.38,163,94.47,160.7Z"/><path class="cls-8" d="M94.82,169.05,83,170.5c.23,1.89.55,3.76.94,5.6l11.61-2.46C95.26,172.13,95,170.6,94.82,169.05Z"/><path class="cls-9" d="M94.5,165.35,82.65,166c.07,1.53.2,3,.38,4.54l11.79-1.45C94.67,167.83,94.56,166.59,94.5,165.35Z"/><path class="cls-7" d="M94.75,156.78,83,155.53c-.2,1.88-.28,3.14-.33,4.64l11.86.37C94.53,159.31,94.6,158.19,94.75,156.78Z"/><path class="cls-7" d="M126,211.27l-4.83,10.84c1.38.62,2.79,1.19,4.22,1.71l4.06-11.15C128.3,212.24,127.15,211.78,126,211.27Z"/><path class="cls-8" d="M121.86,209.2l-5.76,10.38c1.65.91,3.35,1.76,5.09,2.53L126,211.27Q123.89,210.33,121.86,209.2Z"/><path class="cls-1" d="M118.67,207.28l-6.47,9.95q1.9,1.25,3.9,2.35l5.76-10.38C120.77,208.59,119.71,208,118.67,207.28Z"/><path class="cls-9" d="M129.47,212.67l-4.06,11.15q2.66,1,5.42,1.71l3.08-11.47C132.4,213.66,130.92,213.19,129.47,212.67Z"/><path class="cls-7" d="M103.53,192.36,93.69,199c1.06,1.57,2.19,3.1,3.38,4.57l9.22-7.47Q104.83,194.3,103.53,192.36Z"/><path class="cls-8" d="M108.73,198.91,100.05,207q1.94,2.08,4,4l8-8.82C110.9,201.13,109.79,200.05,108.73,198.91Z"/><path class="cls-9" d="M114.89,204.57l-7.31,9.35q2.23,1.76,4.62,3.31l6.47-9.95C117.37,206.43,116.11,205.52,114.89,204.57Z"/><path class="cls-1" d="M106.29,196.1l-9.22,7.47c1,1.18,2,2.32,3,3.43l8.68-8.09C107.89,198,107.07,197.07,106.29,196.1Z"/><path class="cls-7" d="M130.19,124.92l-5-10.66q-2.12,1-4.13,2.15L127,126.6Q128.54,125.69,130.19,124.92Z"/><path class="cls-7" d="M127,126.6l-5.88-10.19c-1.07.63-2.12,1.28-3.15,2l6.57,9.74Q125.72,127.32,127,126.6Z"/><path class="cls-1" d="M124.52,128.13,118,118.39q-1.94,1.29-3.74,2.76l7.39,9.14C122.54,129.53,123.51,128.81,124.52,128.13Z"/><path class="cls-9" d="M132.86,123.78l-4.21-11c-1.16.44-2.3.93-3.42,1.45l5,10.66Q131.5,124.31,132.86,123.78Z"/><path class="cls-9" d="M139.11,121.94l-2.44-11.5c-1.22.25-2.42.55-3.61.89l3.24,11.31C137.22,122.37,138.16,122.14,139.11,121.94Z"/><path class="cls-7" d="M145.58,121.09,145,109.35c-1.25.07-2.49.17-3.71.32l1.43,11.67C143.64,121.22,144.6,121.14,145.58,121.09Z"/><path class="cls-9" d="M149.2,121.07l.42-11.75q-2.35-.09-4.65,0l.61,11.74C146.77,121,148,121,149.2,121.07Z"/><path class="cls-9" d="M142.69,121.34l-1.43-11.67c-1.55.19-3.08.45-4.59.77l2.44,11.5C140.29,121.69,141.48,121.49,142.69,121.34Z"/><path class="cls-1" d="M136.3,122.64l-3.24-11.31c-1.49.43-3,.92-4.41,1.48l4.21,11C134,123.35,135.13,123,136.3,122.64Z"/><path class="cls-9" d="M152,121.26l1.23-11.69c-1.41-.15-2.44-.21-3.67-.25l-.43,11.74C150.1,121.1,151.07,121.16,152,121.26Z"/><path class="cls-9" d="M111.4,142.42l-10.28-5.7q-1.12,2-2.08,4.16l10.74,4.78C110.27,144.56,110.81,143.47,111.4,142.42Z"/><path class="cls-8" d="M121.6,130.29l-7.39-9.14c-1,.78-1.9,1.59-2.81,2.44l8,8.6C120.12,131.53,120.85,130.89,121.6,130.29Z"/><path class="cls-7" d="M108.69,148.35l-11-4c-.53,1.45-1,2.92-1.4,4.43l11.35,3.05C107.92,150.64,108.28,149.48,108.69,148.35Z"/><path class="cls-9" d="M107.6,151.81l-11.35-3.05c-.32,1.19-.59,2.4-.83,3.63L107,154.64C107.14,153.68,107.35,152.74,107.6,151.81Z"/><path class="cls-7" d="M109.78,145.66,99,140.88c-.5,1.13-1,2.28-1.39,3.45l11,4C109,147.44,109.39,146.54,109.78,145.66Z"/><path class="cls-7" d="M116.87,134.77l-8.73-7.87q-1.24,1.38-2.4,2.85L115,137C115.6,136.23,116.22,135.49,116.87,134.77Z"/><path class="cls-1" d="M119.41,132.19l-8-8.6c-1.13,1-2.22,2.16-3.26,3.31l8.73,7.87C117.68,133.87,118.53,133,119.41,132.19Z"/><path class="cls-1" d="M112.89,139.94,103,133.53c-.68,1-1.32,2.1-1.92,3.19l10.28,5.7C111.87,141.57,112.37,140.74,112.89,139.94Z"/><path class="cls-10" d="M115,137l-9.26-7.24c-.95,1.22-1.86,2.48-2.7,3.78l9.85,6.41C113.55,138.92,114.26,137.94,115,137Z"/><path class="cls-9" d="M182.18,139.37l9.75-6.57q-1.31-1.92-2.76-3.74l-9.14,7.4C180.79,137.39,181.51,138.37,182.18,139.37Z"/><path class="cls-8" d="M189,157.54l11.66-1.43c-.18-1.55-.44-3.07-.76-4.58L188.38,154C188.63,155.14,188.83,156.33,189,157.54Z"/><path class="cls-9" d="M188.38,154l11.5-2.43c-.26-1.22-.56-2.43-.9-3.61l-11.3,3.23C187.94,152.08,188.18,153,188.38,154Z"/><path class="cls-9" d="M186.53,147.71l11-4.21c-.45-1.16-.94-2.3-1.46-3.42l-10.66,5Q186,146.36,186.53,147.71Z"/><path class="cls-8" d="M185.39,145l10.66-5q-1-2.12-2.15-4.12l-10.18,5.87C184.32,142.87,184.88,144,185.39,145Z"/><path class="cls-9" d="M189.22,160.43l11.74-.61c-.06-1.25-.17-2.48-.32-3.71L189,157.54C189.09,158.5,189.17,159.46,189.22,160.43Z"/><path class="cls-1" d="M189.07,166.74,200.75,168c.1-.94.21-2.37.25-3.6l-11.74-.47C189.23,164.86,189.17,165.8,189.07,166.74Z"/><path class="cls-9" d="M183.72,141.83,193.9,136c-.62-1.08-1.28-2.13-2-3.16l-9.75,6.57C182.72,140.17,183.23,141,183.72,141.83Z"/><path class="cls-9" d="M155.63,121.8l2.23-11.54c-1.51-.29-3.21-.54-4.62-.69L152,121.26C153.42,121.41,154.46,121.58,155.63,121.8Z"/><path class="cls-1" d="M189.25,164.05l11.74.42q.09-2.34,0-4.65l-11.74.61C189.28,161.63,189.29,162.84,189.25,164.05Z"/><path class="cls-7" d="M107,154.53l-11.54-2.3c-.29,1.51-.53,3.14-.68,4.55L106.44,158C106.54,157.07,106.74,155.71,107,154.53Z"/><path class="cls-9" d="M162,123.55l4-11c-1.45-.53-2.93-1-4.44-1.4l-3.05,11.36C159.68,122.77,160.83,123.14,162,123.55Z"/><path class="cls-9" d="M167.89,126.25,173.6,116q-2-1.12-4.16-2.07l-4.79,10.73Q166.32,125.38,167.89,126.25Z"/><path class="cls-8" d="M180,136.46l9.14-7.4c-.78-1-1.6-1.9-2.44-2.81l-8.6,8C178.79,135,179.42,135.7,180,136.46Z"/><path class="cls-8" d="M158.5,122.46l3.05-11.36c-1.19-.31-2.4-.59-3.62-.83l-2.25,11.54C156.63,122,157.57,122.21,158.5,122.46Z"/><path class="cls-9" d="M164.65,124.63l4.79-10.73c-1.13-.51-2.28-1-3.45-1.4l-4,11C162.87,123.88,163.77,124.24,164.65,124.63Z"/><path class="cls-8" d="M175.54,131.72l7.87-8.73c-.92-.83-1.87-1.63-2.84-2.39l-7.25,9.26C174.09,130.45,174.83,131.08,175.54,131.72Z"/><path class="cls-8" d="M178.13,134.27l8.6-8q-1.59-1.69-3.32-3.26l-7.87,8.73C176.44,132.54,177.3,133.38,178.13,134.27Z"/><path class="cls-9" d="M170.38,127.75l6.41-9.86c-1-.67-2.1-1.32-3.19-1.92l-5.71,10.28Q169.17,127,170.38,127.75Z"/><path class="cls-9" d="M173.32,129.86l7.25-9.26q-1.83-1.44-3.78-2.71l-6.41,9.86C171.39,128.41,172.38,129.11,173.32,129.86Z"/><path class="cls-11" d="M187.68,151.15l11.3-3.23c-.43-1.5-.92-3-1.47-4.42l-11,4.21C187,148.84,187.34,150,187.68,151.15Z"/><path class="cls-9" d="M173.86,194.88l7.39,9.14c1-.78,1.9-1.59,2.81-2.44l-8-8.6C175.34,193.64,174.61,194.27,173.86,194.88Z"/><path class="cls-1" d="M165.27,200.25l5,10.65q2.11-1,4.13-2.15l-5.88-10.18Q166.92,199.49,165.27,200.25Z"/><path class="cls-9" d="M162.6,201.38l4.21,11c1.16-.45,2.3-.93,3.42-1.46l-5-10.65C164.4,200.66,163.51,201,162.6,201.38Z"/><path class="cls-1" d="M168.48,198.57l5.88,10.18c1.07-.62,2.12-1.27,3.15-2L170.94,197Q169.74,197.85,168.48,198.57Z"/><path class="cls-8" d="M170.94,197l6.57,9.74c1.29-.87,2.54-1.78,3.74-2.76l-7.39-9.14C172.92,195.64,172,196.36,170.94,197Z"/><path class="cls-7" d="M159.16,202.53l3.24,11.3c1.49-.42,3-.91,4.41-1.47l-4.21-11C161.48,201.82,160.33,202.2,159.16,202.53Z"/><path class="cls-9" d="M149.88,204.08l.61,11.74c1.25-.07,2.49-.17,3.71-.32l-1.43-11.67C151.82,204,150.86,204,149.88,204.08Z"/><path class="cls-1" d="M156.35,203.23l2.44,11.5c1.22-.26,2.42-.56,3.61-.9l-3.24-11.3C158.24,202.8,157.3,203,156.35,203.23Z"/><path class="cls-9" d="M143.28,203.89l-1.23,11.69c1.41.15,2.52.22,3.75.26l.4-11.75C145.24,204.06,144.22,204,143.28,203.89Z"/><path class="cls-1" d="M152.77,203.83l1.43,11.67c1.55-.19,3.08-.45,4.59-.77l-2.44-11.5C155.17,203.48,154,203.68,152.77,203.83Z"/><path class="cls-9" d="M146.26,204.1l-.42,11.75q2.35.08,4.65,0l-.61-11.74C148.69,204.14,147.48,204.15,146.26,204.1Z"/><path class="cls-1" d="M176.05,193l8,8.6c1.13-1.05,2.22-2.16,3.26-3.31l-8.73-7.87C177.78,191.3,176.93,192.16,176.05,193Z"/><path class="cls-9" d="M187.86,173.36l11.35,3c.32-1.2.59-2.41.83-3.63l-11.53-2.25C188.32,171.49,188.11,172.43,187.86,173.36Z"/><path class="cls-8" d="M189.07,166.74c-.15,1.41-.33,2.51-.55,3.69l11.54,2.19c.29-1.51.5-2.77.69-4.65Z"/><path class="cls-7" d="M185.68,179.5l10.74,4.79c.5-1.13,1-2.28,1.39-3.45l-11-4C186.44,177.73,186.07,178.62,185.68,179.5Z"/><path class="cls-9" d="M186.77,176.81l11,4c.53-1.45,1-2.93,1.4-4.43l-11.35-3C187.54,174.53,187.18,175.69,186.77,176.81Z"/><path class="cls-8" d="M180.46,188.18l9.26,7.24c.95-1.22,1.86-2.48,2.7-3.78l-9.85-6.41C181.91,186.25,181.2,187.23,180.46,188.18Z"/><path class="cls-8" d="M184.06,182.75l10.28,5.7q1.13-2,2.08-4.16l-10.74-4.79C185.19,180.61,184.65,181.7,184.06,182.75Z"/><path class="cls-1" d="M178.59,190.4l8.73,7.87q1.25-1.38,2.4-2.85l-9.26-7.24C179.86,188.94,179.24,189.68,178.59,190.4Z"/><path class="cls-1" d="M182.57,185.23l9.85,6.41c.68-1,1.32-2.1,1.92-3.19l-10.28-5.7C183.59,183.6,183.09,184.42,182.57,185.23Z"/><path class="cls-8" d="M107.78,174l-11.3,3.23q.64,2.25,1.47,4.41l11-4.2C108.5,176.33,108.12,175.18,107.78,174Z"/><path class="cls-7" d="M106.44,158l-11.69-1.23c-.15,1.41-.23,2.58-.27,3.81l11.75.37C106.26,160,106.29,159.42,106.44,158Z"/><path class="cls-7" d="M110.07,180.12l-10.66,5c.66,1.4,1.38,2.78,2.15,4.12l10.18-5.87C111.14,182.29,110.58,181.22,110.07,180.12Z"/><path class="cls-9" d="M108.93,177.46l-11,4.2c.45,1.16.94,2.31,1.46,3.43l10.66-5C109.66,179.25,109.28,178.36,108.93,177.46Z"/><path class="cls-9" d="M111.74,183.34l-10.18,5.87c.62,1.07,1.28,2.13,2,3.15l9.75-6.56C112.74,185,112.23,184.18,111.74,183.34Z"/><path class="cls-9" d="M106.48,167.63l-11.66,1.42c.18,1.55.44,3.08.76,4.59l11.5-2.44C106.83,170,106.63,168.83,106.48,167.63Z"/><path class="cls-7" d="M106.24,164.74l-11.74.61c.06,1.24.17,2.48.32,3.7l11.66-1.42C106.37,166.67,106.29,165.71,106.24,164.74Z"/><path class="cls-9" d="M107.08,171.2l-11.5,2.44c.26,1.22.56,2.42.9,3.61l11.3-3.23C107.52,173.09,107.28,172.15,107.08,171.2Z"/><path class="cls-9" d="M106.21,161.11l-11.74-.41q-.09,2.34,0,4.65l11.74-.61Q106.15,162.94,106.21,161.11Z"/><path class="cls-7" d="M113.28,185.8l-9.75,6.56q1.31,1.94,2.76,3.74l9.14-7.39C114.67,187.77,114,186.8,113.28,185.8Z"/><path class="cls-8" d="M133.5,201.62l-4,11c1.45.52,2.93,1,4.44,1.39L137,202.71C135.78,202.4,134.63,202,133.5,201.62Z"/><path class="cls-7" d="M127.57,198.92l-5.71,10.28q2,1.13,4.16,2.07l4.79-10.73Q129.14,199.79,127.57,198.92Z"/><path class="cls-9" d="M139.74,203.36l-2.27,11.53c1.51.29,3.17.54,4.58.69l1.23-11.69C141.87,203.74,140.92,203.58,139.74,203.36Z"/><path class="cls-7" d="M130.81,200.54,126,211.27c1.13.51,2.28,1,3.45,1.4l4-11C132.59,201.29,131.69,200.93,130.81,200.54Z"/><path class="cls-7" d="M115.43,188.71l-9.14,7.39c.78,1,1.6,1.91,2.44,2.81l8.6-8C116.67,190.19,116,189.46,115.43,188.71Z"/><path class="cls-9" d="M137,202.71l-3.05,11.35c1.19.32,2.4.6,3.62.84l2.25-11.54C138.83,203.17,137.89,203,137,202.71Z"/><path class="cls-9" d="M122.14,195.31l-7.25,9.26c1.22,1,2.48,1.86,3.78,2.71l6.41-9.86C124.07,196.76,123.08,196.05,122.14,195.31Z"/><path class="cls-9" d="M125.08,197.42l-6.41,9.86c1,.67,2.1,1.31,3.19,1.92l5.71-10.28Q126.3,198.21,125.08,197.42Z"/><path class="cls-7" d="M119.92,193.44l-7.87,8.73c.92.83,1.87,1.63,2.84,2.4l7.25-9.26C121.37,194.71,120.63,194.09,119.92,193.44Z"/><path class="cls-12" d="M117.33,190.9l-8.6,8c1.06,1.14,2.17,2.22,3.32,3.26l7.87-8.73C119,192.63,118.16,191.79,117.33,190.9Z"/></g></svg>