<svg xmlns="http://www.w3.org/2000/svg" viewBox="0 0 1046.46 354"><defs><style>.cls-1{fill:#8ca4cc}.cls-2{fill:#d5e2ee}.cls-3{fill:#fff}.cls-4{fill:#4c679c}.cls-5{fill:#f0c62f}.cls-6{fill:#fcff3c}.cls-7{fill:#db7b24}.cls-8{fill:#3b67a0}</style></defs><g id="Laag_3" data-name="Laag 3"><path class="cls-1" d="M121.42 77.51l-7.28-19q-4.27 1.65-8.4 3.57l8.59 18.46a96.79 96.79 0 0 1 7.09-3.03zM138 72.6l-4.22-19.91q-4.49.95-8.86 2.2l5.6 19.57q3.74-1.06 7.48-1.86z"/><path class="cls-2" d="M130.55 74.46L125 54.89q-5.51 1.57-10.81 3.61l7.28 19q4.44-1.71 9.08-3.04z"/><path class="cls-1" d="M114.33 80.53l-8.59-18.46c-3.45 1.62-6.83 3.38-10.11 5.28L105.79 85q4.21-2.43 8.54-4.47z"/><path class="cls-3" d="M105.79 85L95.63 67.35q-4 2.28-7.74 4.83l11.37 16.88c2.13-1.43 4.31-2.8 6.53-4.06z"/><path class="cls-4" d="M147.53 71l-2.47-20.2q-5.7.69-11.25 1.88L138 72.6c3.16-.66 6.32-1.2 9.53-1.6zM164.83 70.29l.72-20.29q-5.75-.21-11.4.08l1.06 20.33c3.18-.21 6.39-.24 9.62-.12z"/><path class="cls-3" d="M182 72.25l3.87-20c-3.7-.72-7.54-1.3-11.3-1.7l-2.14 20.24c3.29.38 6.44.86 9.57 1.46zM155.21 70.36L154.15 50c-3.05.16-6.09.41-9.09.78L147.53 71c2.54-.3 5.1-.51 7.68-.64z"/><path class="cls-4" d="M172.43 70.82l2.14-20.24c-2.82-.3-6-.52-9.06-.63l-.74 20.33c2.55.1 5.31.29 7.66.54z"/><path class="cls-2" d="M64.41 127l-17.8-9.88q-2.76 5-5.09 10.21l18.59 8.29q1.97-4.4 4.3-8.62z"/><path class="cls-4" d="M60.11 135.64l-18.59-8.29q-1.86 4.16-3.42 8.46l19.12 7c.88-2.46 1.85-4.81 2.89-7.17z"/><path class="cls-2" d="M68.38 120.42l-17.07-11.1q-2.48 3.83-4.7 7.82l17.8 9.86q1.88-3.35 3.97-6.58z"/><path class="cls-4" d="M57.22 142.78l-19.12-7q-1.93 5.33-3.43 10.88L54.33 152q1.25-4.72 2.89-9.22z"/><path class="cls-2" d="M79 106.7L63.83 93.07q-3.06 3.39-5.87 7l16 12.54c1.61-2.04 3.27-4.01 5.04-5.91z"/><path class="cls-2" d="M85.7 99.83L71.83 84.94q-4.17 3.89-8 8.13L79 106.7q3.17-3.58 6.7-6.87z"/><path class="cls-4" d="M74 112.59l-16-12.54q-3.51 4.49-6.65 9.27l17.07 11.1q2.58-4.05 5.58-7.83z"/><path class="cls-1" d="M91.52 94.78L78.72 79q-3.56 2.87-6.89 6L85.7 99.83q2.82-2.62 5.82-5.05z"/><path class="cls-4" d="M99.26 89.06L87.89 72.18c-3.15 2.13-6.22 4.39-9.17 6.78l12.8 15.82c2.48-2.02 5.08-3.92 7.74-5.72z"/><path class="cls-2" d="M261 134l18.45-8.6a131.02 131.02 0 0 0-5.28-10.11l-17.63 10.17q2.41 4.14 4.46 8.54z"/><path class="cls-3" d="M267.05 150.21l19.57-5.6Q285 139.1 283 133.79l-19 7.29q1.72 4.47 3.05 9.13z"/><path class="cls-2" d="M189.55 74l5.28-19.65q-4.38-1.17-8.9-2l-3.89 20q3.81.65 7.51 1.65z"/><path class="cls-3" d="M264 141.08l19-7.29c-1.09-2.85-2.29-5.65-3.57-8.4L261 134a111.3 111.3 0 0 1 3 7.08zM54.33 152l-19.66-5.27q-1.17 4.38-2 8.89l20 3.89c.43-2.58 1-5.08 1.66-7.51z"/><path class="cls-2" d="M271.16 174.86l20.32-1.05q-.23-4.59-.77-9.1l-20.21 2.47q.5 3.82.66 7.68z"/><path class="cls-2" d="M271.22 184.49l20.34.72c.14-3.83.11-7.64-.08-11.4l-20.32 1.05q.24 4.77.06 9.63z"/><path class="cls-4" d="M270.71 192l20.23 2.14c.3-2.82.52-6 .63-9l-20.33-.78c-.09 2.52-.24 5.25-.53 7.64z"/><path class="cls-3" d="M256.53 125.45l17.63-10.17q-2.28-3.94-4.83-7.74l-16.88 11.38q2.16 3.18 4.08 6.53z"/><path class="cls-1" d="M270.5 167.18l20.21-2.47q-.7-5.69-1.88-11.25l-19.92 4.23c.67 3.12 1.2 6.31 1.59 9.49z"/><path class="cls-4" d="M268.91 157.69l19.92-4.23c-.64-3-1.37-5.94-2.21-8.85l-19.57 5.6q1.07 3.69 1.86 7.48z"/><path class="cls-5" d="M205.88 79.76l8.28-18.59q-4.14-1.85-8.46-3.42l-7 19.13q3.68 1.32 7.18 2.88z"/><path class="cls-4" d="M221.1 88l11.09-17q-3.81-2.49-7.82-4.71l-9.88 17.8q3.39 1.85 6.61 3.91zM214.49 84.06l9.88-17.8q-5-2.76-10.21-5.09l-8.28 18.59c2.94 1.32 5.82 2.75 8.61 4.3z"/><path class="cls-1" d="M252.45 118.92l16.88-11.38c-2.13-3.15-4.38-6.21-6.78-9.17l-15.82 12.8q3.03 3.75 5.72 7.75z"/><path class="cls-4" d="M198.73 76.88l7-19.13c-3.55-1.29-7.17-2.44-10.87-3.42L189.55 74q4.68 1.24 9.18 2.88zM228.92 93.64l12.54-16Q237 74.1 232.19 71L221.1 88a126.3 126.3 0 0 1 7.82 5.64z"/><path class="cls-2" d="M241.68 105.36l14.89-13.88q-3.88-4.17-8.13-8L234.82 98.6c2.38 2.16 4.68 4.4 6.86 6.76z"/><path class="cls-2" d="M246.73 111.17l15.82-12.8q-2.87-3.54-6-6.89l-14.89 13.88c1.77 1.88 3.46 3.82 5.07 5.81z"/><path class="cls-3" d="M234.82 98.6l13.62-15.11q-3.37-3.06-7-5.88l-12.54 16c2.1 1.62 4.01 3.27 5.92 4.99z"/><path class="cls-4" d="M269.26 201.59l20 3.84c.71-3.7 1.25-7.1 1.69-11.33l-20.24-2.1c-.35 3.25-.84 6.47-1.45 9.59z"/><path class="cls-1" d="M207.53 280.64l8.59 18.45q5.17-2.41 10.11-5.27l-10.17-17.63q-4.16 2.4-8.53 4.45z"/><path class="cls-1" d="M200.44 283.66l7.28 19q4.28-1.65 8.4-3.58l-8.59-18.45c-2.33 1.1-4.69 2.1-7.09 3.03zM191.3 286.71l5.6 19.57q5.5-1.57 10.82-3.61l-7.28-19q-4.44 1.72-9.14 3.04z"/><path class="cls-4" d="M222.6 272.11L234 289c3.15-2.12 6.22-4.38 9.17-6.77l-12.8-15.82c-2.52 2-5.11 3.9-7.77 5.7z"/><path class="cls-5" d="M216.06 276.19l10.17 17.63q4-2.28 7.74-4.84l-11.37-16.87q-3.19 2.15-6.54 4.08z"/><path class="cls-3" d="M230.34 266.39l12.8 15.82q3.56-2.86 6.89-6l-13.87-14.89q-2.82 2.68-5.82 5.07z"/><path class="cls-1" d="M166.65 290.81l1.06 20.33c3-.16 6.08-.41 9.09-.78l-2.47-20.2q-3.81.45-7.68.65z"/><path class="cls-3" d="M183.83 288.57l4.22 19.91c3-.63 5.94-1.37 8.85-2.2l-5.6-19.57q-3.69 1.05-7.47 1.86z"/><path class="cls-1" d="M157 290.88l-.72 20.33c3.83.14 7.64.12 11.41-.07l-1.06-20.33q-4.75.24-9.63.07z"/><path class="cls-6" d="M174.33 290.16l2.47 20.2q5.7-.69 11.25-1.88l-4.22-19.91c-3.13.66-6.3 1.2-9.5 1.59z"/><path class="cls-4" d="M242.91 254.47L258 268.1q3-3.39 5.87-7l-16-12.54c-1.59 2.04-3.24 4.01-4.96 5.91zM264.64 218.39l19.12 7q1.94-5.33 3.43-10.88l-19.66-5.28q-1.25 4.67-2.89 9.16z"/><path class="cls-1" d="M261.75 225.53l18.59 8.29c1.23-2.77 2.38-5.59 3.42-8.46l-19.12-7q-1.33 3.64-2.89 7.17zM269.25 201.7c-.49 2.53-1.06 5-1.72 7.5l19.66 5.28c.78-2.92 1.46-5.89 2-8.89z"/><path class="cls-2" d="M52.62 159.37l-20-4c-.72 3.7-1.3 7.47-1.69 11.23l20.24 2.13c.32-2.73.83-6.24 1.45-9.36z"/><path class="cls-1" d="M257.45 234.15l17.8 9.88q2.76-5 5.09-10.21l-18.59-8.29q-1.97 4.47-4.3 8.62z"/><path class="cls-4" d="M149.25 290.33l-2.13 20.24c2.82.3 6.12.53 9.14.64l.7-20.34c-2.55-.09-5.36-.29-7.71-.54z"/><path class="cls-1" d="M247.87 248.58l16 12.54q3.51-4.49 6.64-9.27l-17.06-11.1q-2.61 4.05-5.58 7.83z"/><path class="cls-4" d="M236.16 261.34L250 276.23c2.78-2.59 5.45-5.31 8-8.13l-15.12-13.63c-2.12 2.39-4.38 4.68-6.72 6.87zM253.48 240.75l17.06 11.1Q273 248 275.25 244l-17.8-9.88q-1.87 3.41-3.97 6.63z"/><path class="cls-2" d="M92.93 267.52l-12.53 16q4.47 3.51 9.27 6.64l11.09-17.07c-2.7-1.71-5.3-3.59-7.83-5.57z"/><path class="cls-3" d="M54.8 211l-19.57 5.6q1.59 5.5 3.62 10.82l19-7.29q-1.71-4.52-3.05-9.13z"/><path class="cls-2" d="M52.94 203.48L33 207.7c.63 3 1.37 5.94 2.2 8.86L54.8 211c-.7-2.5-1.32-5-1.86-7.52z"/><path class="cls-4" d="M57.85 220.09l-19 7.29c1.09 2.84 2.29 5.64 3.57 8.39l18.45-8.59q-1.62-3.48-3.02-7.09zM65.32 235.72l-17.63 10.17q2.3 3.95 4.84 7.73l16.88-11.37c-1.41-2.13-2.8-4.25-4.09-6.53z"/><path class="cls-4" d="M60.87 227.18l-18.45 8.59q2.41 5.19 5.27 10.12l17.63-10.17q-2.4-4.17-4.45-8.54z"/><path class="cls-3" d="M51.36 194l-20.21 2.47c.46 3.8 1.1 7.55 1.88 11.25l19.91-4.22q-.94-4.7-1.58-9.5z"/><path class="cls-6" d="M50.64 176.68L30.3 176c-.14 3.83-.12 7.63.08 11.4l20.32-1.05q-.24-4.82-.06-9.67z"/><path class="cls-1" d="M51.2 168.78L31 166.65c-.35 3.29-.54 6.18-.65 9.2l20.34.67c.06-2.52.21-4.92.51-7.74z"/><path class="cls-4" d="M50.7 186.31l-20.32 1.05q.23 4.59.77 9.09L51.36 194q-.46-3.81-.66-7.69z"/><path class="cls-2" d="M69.41 242.25l-16.88 11.37q3.19 4.74 6.77 9.18L75.13 250q-3.03-3.75-5.72-7.75zM116 281.4l-8.31 18.6q4.16 1.85 8.46 3.42l7-19.13q-3.66-1.29-7.15-2.89z"/><path class="cls-4" d="M123.12 284.29l-7 19.13q5.34 1.93 10.88 3.42l5.28-19.66q-4.65-1.24-9.16-2.89z"/><path class="cls-1" d="M132.31 287.18L127 306.84c2.92.78 5.89 1.46 8.89 2l3.9-20q-3.79-.66-7.48-1.66z"/><path class="cls-4" d="M107.36 277.11l-9.87 17.8q5 2.76 10.2 5.09l8.31-18.6q-4.43-1.97-8.64-4.29z"/><path class="cls-3" d="M100.76 273.13L89.67 290.2c2.54 1.65 5.15 3.23 7.82 4.71l9.87-17.8q-3.36-1.87-6.6-3.98z"/><path class="cls-4" d="M80.18 255.81l-14.89 13.87c2.58 2.79 5.3 5.45 8.13 8L87 262.56q-3.54-3.22-6.82-6.75z"/><path class="cls-3" d="M75.13 250L59.3 262.8q2.88 3.54 6 6.88l14.89-13.87a103.13 103.13 0 0 1-5.06-5.81z"/><path class="cls-4" d="M139.77 288.9l-3.91 20c3.7.71 7.5 1.29 11.26 1.69l2.13-20.24c-3.25-.35-6.35-.84-9.48-1.45z"/><path class="cls-2" d="M87 262.56l-13.58 15.12q3.38 3.06 7 5.88l12.53-16c-2.04-1.62-4.01-3.28-5.95-5z"/><path class="cls-1" d="M128.61 96.26l-7.19-18.75c-2.4.92-4.77 1.93-7.09 3l8.48 18.2q2.85-1.31 5.8-2.45z"/><path class="cls-3" d="M136.08 93.76l-5.53-19.3q-4.64 1.33-9.13 3.05l7.19 18.75c2.44-.94 4.94-1.77 7.47-2.5z"/><path class="cls-1" d="M122.81 98.73l-8.48-18.2q-4.36 2-8.54 4.45l10 17.39c2.3-1.31 4.63-2.53 7.02-3.64z"/><path class="cls-6" d="M110.48 105.71L99.26 89.06c-2.66 1.8-5.25 3.7-7.74 5.72l12.62 15.61c2.04-1.65 4.16-3.21 6.34-4.68z"/><path class="cls-4" d="M115.82 102.37L105.79 85c-2.22 1.28-4.4 2.65-6.53 4.08l11.22 16.65c1.74-1.19 3.52-2.31 5.34-3.36zM142.2 92.24L138 72.6q-3.78.8-7.48 1.86l5.53 19.3q3.05-.85 6.15-1.52z"/><path class="cls-1" d="M178.16 92L182 72.25c-3.13-.6-6.26-1.08-9.55-1.43l-2.11 20c2.81.26 5.26.65 7.82 1.18z"/><path class="cls-4" d="M164.12 90.36l.71-20.07c-3.23-.12-6.44-.09-9.62.07l1 20c2.64-.08 5.27-.1 7.91 0z"/><path class="cls-1" d="M150 90.94L147.53 71c-3.21.39-6.37.93-9.5 1.59l4.17 19.64c2.55-.53 5.14-.97 7.8-1.29z"/><path class="cls-4" d="M156.25 90.41l-1-20c-2.58.13-5.14.34-7.68.65L150 90.94c2-.25 4.14-.42 6.25-.53z"/><path class="cls-3" d="M76.09 149.66l-18.87-6.88q-1.63 4.5-2.89 9.18l19.39 5.21c.68-2.55 1.47-5.06 2.37-7.51z"/><path class="cls-1" d="M82 136.76L64.41 127q-2.34 4.19-4.3 8.62l18.34 8.17q1.6-3.59 3.55-7.03zM78.45 143.81l-18.34-8.17c-1 2.33-2 4.71-2.89 7.14l18.87 6.88q1.08-2.99 2.36-5.85zM73.72 157.17L54.33 152c-.66 2.47-1.23 5-1.73 7.51l19.71 3.84q.6-3.14 1.41-6.18z"/><path class="cls-2" d="M93.86 120.14L79 106.7c-1.72 1.9-3.38 3.87-5 5.89L89.8 125c1.3-1.7 2.66-3.31 4.06-4.86zM104.14 110.39L91.52 94.78q-3 2.43-5.82 5l13.69 14.69c1.53-1.38 3.12-2.76 4.75-4.08z"/><path class="cls-2" d="M99.39 114.52L85.7 99.83q-3.53 3.28-6.75 6.87l14.91 13.44c1.76-1.95 3.6-3.83 5.53-5.62z"/><path class="cls-4" d="M85.22 131.36l-16.84-10.94q-2.1 3.22-4 6.6L82 136.76c1-1.84 2.07-3.64 3.22-5.4z"/><path class="cls-1" d="M89.8 125L74 112.59q-3 3.78-5.61 7.83l16.84 10.94A75.49 75.49 0 0 1 89.8 125zM191.86 95.74l6.87-18.86q-4.5-1.63-9.18-2.9l-5.21 19.4c2.56.68 5.06 1.47 7.52 2.36zM250.57 169.62l19.93-2.44c-.39-3.2-.92-6.37-1.59-9.49l-19.64 4.16c.54 2.56.98 5.15 1.3 7.77z"/><path class="cls-3" d="M249.27 161.85l19.64-4.16q-.8-3.8-1.86-7.48l-19.3 5.53c.58 2.01 1.08 4.05 1.52 6.11z"/><path class="cls-2" d="M247.75 155.74l19.3-5.53q-1.32-4.65-3.05-9.13l-18.75 7.18q1.41 3.68 2.5 7.48zM242.79 142.46L261 134q-2-4.38-4.46-8.54l-17.39 10q1.96 3.43 3.64 7z"/><path class="cls-1" d="M245.25 148.26l18.75-7.18c-.92-2.41-1.93-4.77-3-7.09l-18.2 8.47c.87 1.9 1.7 3.84 2.45 5.8z"/><path class="cls-2" d="M72.32 163.21l-19.7-3.89c-.6 3.12-1.13 6.64-1.42 9.46l20 2.11c.21-2.35.63-5.13 1.12-7.68zM250.74 189.86l20 2.1c.24-2.35.43-5 .52-7.58l-20.06-.76c-.1 2.09-.26 4.38-.46 6.24z"/><path class="cls-4" d="M251.1 175.9l20.06-1q-.2-3.87-.66-7.68l-19.93 2.44q.38 3.08.53 6.24z"/><path class="cls-4" d="M251.16 183.78l20.06.71q.18-4.86-.06-9.63l-20.06 1c.14 2.65.15 5.27.06 7.92z"/><path class="cls-1" d="M184.34 93.38L189.55 74q-3.7-1-7.51-1.72L178.2 92c2.08.37 4.12.84 6.14 1.38zM210.15 104.87L221.1 88q-3.22-2.1-6.61-4l-9.74 17.56c1.84 1.08 3.64 2.17 5.4 3.31z"/><path class="cls-4" d="M216.55 109.46l12.37-15.82c-2.52-2-5.13-3.85-7.82-5.6l-10.95 16.83q3.32 2.13 6.4 4.59z"/><path class="cls-3" d="M204.75 101.62l9.74-17.56c-2.79-1.55-5.67-3-8.61-4.3L197.7 98.1q3.62 1.62 7.05 3.52z"/><path class="cls-4" d="M197.7 98.1l8.18-18.34q-3.51-1.56-7.15-2.88l-6.87 18.86q2.97 1.08 5.84 2.36z"/><path class="cls-1" d="M231.12 123.8l15.61-12.63c-1.61-2-3.3-3.93-5-5.81L227 119q2.14 2.35 4.12 4.8z"/><path class="cls-2" d="M239.14 135.48l17.39-10q-1.92-3.35-4.08-6.53l-16.65 11.18q1.77 2.63 3.34 5.35z"/><path class="cls-4" d="M235.8 130.13l16.65-11.21q-2.69-4-5.72-7.75l-15.61 12.63c1.65 2.04 3.21 4.2 4.68 6.33zM227 119l14.69-13.68c-2.18-2.35-4.48-4.6-6.86-6.76l-13.44 14.92q2.92 2.68 5.61 5.52z"/><path class="cls-2" d="M221.38 113.52l13.44-14.92c-1.91-1.72-3.87-3.37-5.9-5l-12.37 15.82q2.45 1.99 4.83 4.1z"/><path class="cls-1" d="M170.32 90.79l2.11-20c-2.35-.25-5.09-.44-7.64-.53l-.73 20.06c2.08.1 4.38.27 6.26.47z"/><path class="cls-4" d="M193.25 264.91l7.19 18.75c2.4-.93 4.76-1.93 7.09-3l-8.48-18.2q-2.85 1.31-5.8 2.45z"/><path class="cls-2" d="M199.05 262.44l8.48 18.2q4.36-2 8.53-4.45L206 258.8a84.783 84.783 0 0 1-6.95 3.64z"/><path class="cls-1" d="M206 258.8l10 17.39q3.34-1.94 6.54-4.08l-11.22-16.65a66.68 66.68 0 0 1-5.32 3.34z"/><path class="cls-2" d="M211.38 255.46l11.22 16.65c2.66-1.8 5.25-3.7 7.74-5.72l-12.63-15.61q-3.06 2.48-6.33 4.68z"/><path class="cls-1" d="M185.78 267.4l5.52 19.31q4.65-1.33 9.14-3l-7.19-18.75c-2.44.89-4.94 1.72-7.47 2.44zM171.89 270.22l2.44 19.94c3.2-.39 6.37-.93 9.5-1.59l-4.17-19.64q-3.84.81-7.77 1.29z"/><path class="cls-4" d="M157.73 270.81l-.73 20.07q4.86.17 9.63-.07l-1-20.05q-3.92.24-7.9.05zM179.66 268.93l4.17 19.64q3.78-.81 7.47-1.86l-5.52-19.31q-3.03.87-6.12 1.53z"/><path class="cls-4" d="M165.61 270.76l1 20.05q3.87-.19 7.68-.65l-2.44-19.94c-2.03.25-4.13.43-6.24.54z"/><path class="cls-2" d="M217.71 250.78l12.63 15.61q3-2.43 5.82-5.05l-13.69-14.69a89.101 89.101 0 0 1-4.76 4.13z"/><path class="cls-3" d="M243.41 217.36l18.34 8.17q1.56-3.51 2.89-7.14l-18.87-6.88q-1.08 2.97-2.36 5.85z"/><path class="cls-1" d="M222.47 246.65l13.69 14.69c2.34-2.19 4.6-4.48 6.75-6.87L228 241c-1.77 2-3.61 3.86-5.53 5.65z"/><path class="cls-7" d="M245.77 211.51l18.87 6.88q1.64-4.5 2.89-9.19l-19.39-5.2c-.69 2.55-1.48 5.06-2.37 7.51z"/><path class="cls-1" d="M151.36 270.36l-2.11 20c2.35.25 5.18.45 7.73.54l.69-20.06c-2.09-.11-4.43-.28-6.31-.48z"/><path class="cls-2" d="M250.74 189.86c-.3 2.82-.69 5.33-1.18 7.89l19.71 3.79c.61-3.13 1.09-6.29 1.44-9.58z"/><path class="cls-1" d="M248.14 204l19.39 5.2c.66-2.46 1.23-5 1.72-7.5l-19.7-3.84Q249 201 248.14 204zM232.05 236.21l15.82 12.37q3-3.78 5.61-7.83l-16.84-10.94a93.162 93.162 0 0 1-4.59 6.4z"/><path class="cls-2" d="M239.89 224.41l17.56 9.74q2.34-4.2 4.3-8.62l-18.34-8.17q-1.62 3.64-3.52 7.05z"/><path class="cls-1" d="M228 241l14.91 13.44c1.72-1.9 3.37-3.87 5-5.89l-15.82-12.37A84.921 84.921 0 0 1 228 241z"/><path class="cls-3" d="M236.64 229.81l16.84 10.94q2.1-3.23 4-6.6l-17.56-9.74q-1.56 2.76-3.28 5.4z"/><path class="cls-4" d="M117.11 259.55l-9.75 17.56q4.2 2.33 8.62 4.29l8.18-18.34a84.111 84.111 0 0 1-7.05-3.51zM76.61 212.91l-18.76 7.18q1.4 3.61 3 7.09l18.2-8.47c-.86-1.91-1.69-3.84-2.44-5.8z"/><path class="cls-1" d="M79.07 218.71l-18.2 8.47q2 4.38 4.45 8.54l17.4-10a97.18 97.18 0 0 1-3.65-7.01z"/><path class="cls-4" d="M86.06 231l-16.65 11.25q2.69 4 5.72 7.75l15.6-12.63a82 82 0 0 1-4.67-6.37zM74.11 205.43L54.8 211q1.34 4.65 3.05 9.13l18.76-7.18q-1.41-3.71-2.5-7.52z"/><path class="cls-2" d="M90.73 237.37L75.13 250c1.61 2 3.3 3.93 5.05 5.81l14.69-13.68a93.406 93.406 0 0 1-4.14-4.76z"/><path class="cls-1" d="M82.72 225.69l-17.4 10c1.29 2.23 2.65 4.4 4.09 6.53L86.06 231q-1.77-2.58-3.34-5.31z"/><path class="cls-2" d="M70.7 177.39l-20.06-.71q-.18 4.84.06 9.63l20-1c-.08-2.65-.1-5.31 0-7.92z"/><path class="cls-1" d="M72.59 199.32l-19.65 4.16c.54 2.52 1.16 5 1.86 7.48l19.31-5.53q-.87-3.02-1.52-6.11z"/><path class="cls-4" d="M143.61 269.2l-3.86 19.7c3.13.61 6.21 1.08 9.5 1.43l2.11-20c-2.82-.26-5.19-.64-7.75-1.13z"/><path class="cls-1" d="M71.29 191.55L51.36 194q.59 4.82 1.58 9.5l19.65-4.16c-.54-2.58-.98-5.17-1.3-7.79z"/><path class="cls-4" d="M70.75 185.27l-20 1q.19 3.87.66 7.67l19.93-2.43q-.42-3.08-.59-6.24z"/><path class="cls-1" d="M124.16 263.06L116 281.4q3.51 1.58 7.14 2.89l6.86-18.86c-2-.73-3.93-1.51-5.84-2.37z"/><path class="cls-2" d="M130 265.43l-6.88 18.86q4.5 1.63 9.19 2.89l5.21-19.39q-3.84-1.02-7.52-2.36z"/><path class="cls-4" d="M94.87 242.13l-14.69 13.68q3.27 3.53 6.86 6.75l13.44-14.91c-1.95-1.76-3.83-3.6-5.61-5.52z"/><path class="cls-3" d="M71.16 170.89l-20-2.11c-.3 2.82-.46 5.24-.55 7.79l20.07.66c.11-2.08.23-3.99.48-6.34z"/><path class="cls-4" d="M137.52 267.79l-5.21 19.39q3.7 1 7.51 1.73l3.84-19.71q-3.12-.6-6.14-1.41z"/><path class="cls-2" d="M100.48 247.65L87 262.56c1.9 1.72 3.87 3.38 5.89 5l12.37-15.81q-2.43-1.99-4.78-4.1zM111.71 256.3l-10.95 16.83q3.22 2.1 6.6 4l9.75-17.56c-1.84-1.04-3.65-2.13-5.4-3.27z"/><path class="cls-3" d="M105.3 251.71l-12.37 15.81c2.53 2 5.13 3.86 7.83 5.61l10.95-16.83a90.972 90.972 0 0 1-6.41-4.59z"/><path class="cls-2" d="M143 117.92l-6.91-24.16c-2.53.73-5 1.56-7.47 2.5l9 23.46q2.64-1 5.38-1.8z"/><path class="cls-1" d="M119.94 129.92l-15.8-19.53c-1.63 1.32-3.22 2.7-4.75 4.13l17.12 18.38c1.11-1.03 2.26-2.03 3.43-2.98z"/><path class="cls-4" d="M137.6 119.72l-9-23.46q-3 1.14-5.8 2.47l10.6 22.77a73.36 73.36 0 0 1 4.2-1.78z"/><path class="cls-1" d="M128.37 124.13l-12.55-21.76c-1.82 1-3.6 2.17-5.34 3.34l14 20.83c1.29-.84 2.58-1.65 3.89-2.41z"/><path class="cls-2" d="M133.41 121.5l-10.6-22.77a90.974 90.974 0 0 0-7 3.64l12.55 21.76q2.47-1.41 5.05-2.63z"/><path class="cls-4" d="M163.24 115.46l.88-25.1c-2.64-.1-5.27-.08-7.87 0l1.3 25.09c1.88-.05 3.77-.06 5.69.01z"/><path class="cls-2" d="M147.41 116.82l-5.21-24.58q-3.1.66-6.12 1.52l6.92 24.16c1.45-.41 2.92-.78 4.41-1.1z"/><path class="cls-1" d="M157.55 115.5l-1.3-25.09c-2.11.11-4.21.28-6.28.53l3.05 25q2.25-.32 4.53-.44z"/><path class="cls-4" d="M153 115.89l-3.05-25c-2.63.32-5.22.76-7.77 1.3l5.21 24.58q2.78-.53 5.61-.88z"/><path class="cls-1" d="M124.52 126.54l-14-20.83c-2.18 1.47-4.3 3-6.34 4.68l15.8 19.53c1.44-1.19 2.96-2.32 4.54-3.38zM101.4 154l-23-10.23q-1.28 2.87-2.36 5.85l23.6 8.6c.58-1.39 1.14-2.8 1.76-4.22zM98 163.69l-24.27-6.52q-.81 3-1.41 6.14L97 168.12c.26-1.5.6-2.98 1-4.43z"/><path class="cls-2" d="M99.69 158.26l-23.6-8.6c-.9 2.45-1.69 5-2.37 7.51L98 163.69q.73-2.77 1.69-5.43z"/><path class="cls-4" d="M97 168l-24.65-4.85c-.5 2.55-.92 5.38-1.17 7.73l25 2.64c.16-1.87.44-3.66.82-5.52zM167.69 115.77l2.63-25c-1.88-.2-4.15-.36-6.24-.44l-.91 25.1c1.51.08 3.11.19 4.52.34z"/><path class="cls-1" d="M106.28 145.06l-21.06-13.7a92.079 92.079 0 0 0-3.26 5.4l22 12.2c.71-1.33 1.5-2.63 2.32-3.9z"/><path class="cls-2" d="M109.59 140.44L89.8 125c-1.61 2.06-3.15 4.2-4.58 6.4l21.06 13.7c1.04-1.63 2.15-3.17 3.31-4.66z"/><path class="cls-4" d="M112.52 137l-18.66-16.86c-1.4 1.55-2.76 3.16-4.06 4.82l19.79 15.48q1.41-1.8 2.93-3.44zM103.94 149l-22-12.2q-1.9 3.44-3.51 7.05l23 10.23c.74-1.77 1.57-3.47 2.51-5.08z"/><path class="cls-1" d="M116.51 132.9l-17.12-18.38a88.828 88.828 0 0 0-5.53 5.62L112.52 137c1.27-1.45 2.6-2.81 3.99-4.1zM226 177.21l25.09-1.31q-.15-3.17-.53-6.28l-24.94 3c.19 1.55.32 3.06.38 4.59zM220 153.07l22.78-10.61q-1.68-3.57-3.65-7L217.38 148q1.43 2.49 2.62 5.07zM217.38 148l21.76-12.55q-1.57-2.73-3.34-5.35l-20.83 14c.85 1.33 1.65 2.61 2.41 3.9zM221.79 157.26l23.46-9c-.75-2-1.58-3.9-2.46-5.8L220 153.07c.65 1.37 1.24 2.77 1.79 4.19z"/><path class="cls-4" d="M215 144.17l20.83-14c-1.47-2.17-3-4.29-4.68-6.33l-19.53 15.8c1.16 1.43 2.29 2.96 3.38 4.53z"/><path class="cls-3" d="M211.59 139.6l19.53-15.8q-2-2.44-4.13-4.76l-18.38 17.13c1.03 1.11 2.03 2.25 2.98 3.43z"/><path class="cls-4" d="M225.63 172.67l24.94-3c-.32-2.62-.76-5.21-1.3-7.77l-24.58 5.21c.39 1.8.71 3.67.94 5.56z"/><path class="cls-2" d="M226.05 182.89l25.11.89c.09-2.65.08-5.27-.06-7.88l-25.1 1.31c.11 1.87.12 3.79.05 5.68zM223.59 162.65l24.16-6.91q-1.09-3.81-2.5-7.48l-23.46 9q1.02 2.64 1.8 5.39z"/><path class="cls-2" d="M224.69 167.06l24.58-5.21c-.44-2.06-.94-4.1-1.52-6.11l-24.16 6.91c.41 1.45.78 2.92 1.1 4.41z"/><path class="cls-4" d="M183.25 119.35l8.61-23.61c-2.46-.89-5-1.68-7.52-2.36l-6.51 24.26c1.84.49 3.65 1.07 5.42 1.71z"/><path class="cls-1" d="M192.56 123.59l12.19-22q-3.44-1.91-7.05-3.52l-10.23 23c1.74.76 3.44 1.6 5.09 2.52z"/><path class="cls-2" d="M187.47 121.05l10.23-23q-2.87-1.27-5.84-2.36l-8.61 23.61c1.43.57 2.84 1.14 4.22 1.75z"/><path class="cls-1" d="M173.35 116.62L178.14 92c-2.56-.5-5-.88-7.82-1.17l-2.63 25c1.88.17 3.82.43 5.66.79zM177.83 117.64l6.51-24.26c-2-.54-4.06-1-6.14-1.41l-4.81 24.65q2.25.44 4.44 1.02z"/><path class="cls-4" d="M208.61 136.17L227 119q-2.69-2.88-5.61-5.52l-16.82 18.66q2.11 1.94 4.04 4.03z"/><path class="cls-4" d="M204.56 132.18l16.82-18.66q-2.34-2.11-4.83-4.06l-15.47 19.79c1.19.94 2.35 1.91 3.48 2.93zM96.15 173.53l-25-2.64c-.25 2.35-.37 4.31-.45 6.39l25.11.84c.07-1.5.19-2.71.34-4.59z"/><path class="cls-4" d="M201.08 129.25l15.47-19.79q-3.09-2.43-6.4-4.59l-13.7 21.07q2.4 1.56 4.63 3.31z"/><path class="cls-1" d="M196.45 125.94l13.7-21.07a91.934 91.934 0 0 0-5.4-3.25l-12.19 22q1.99 1.08 3.89 2.32z"/><path class="cls-2" d="M201.91 231.25l15.8 19.53c1.64-1.32 3.22-2.7 4.76-4.13l-17.12-18.39a65.161 65.161 0 0 1-3.44 2.99z"/><path class="cls-4" d="M193.48 237L206 258.8c1.83-1.05 3.61-2.17 5.35-3.34l-14-20.84c-1.27.85-2.55 1.66-3.87 2.38z"/><path class="cls-1" d="M184.26 241.44l9 23.47q3-1.14 5.8-2.47l-10.61-22.78c-1.38.64-2.77 1.24-4.19 1.78zM205.35 228.26l17.12 18.39c1.92-1.79 3.76-3.67 5.53-5.62l-18.67-16.82q-1.9 2.12-3.98 4.05zM197.34 234.62l14 20.84q3.27-2.21 6.33-4.68l-15.8-19.53a56.595 56.595 0 0 1-4.53 3.37z"/><path class="cls-3" d="M188.44 239.66l10.61 22.78c2.38-1.11 4.71-2.33 7-3.64L193.48 237q-2.48 1.46-5.04 2.66zM168.84 245.28l3 24.94q3.93-.48 7.77-1.29l-5.21-24.59q-2.72.6-5.56.94z"/><path class="cls-1" d="M178.86 243.25l6.92 24.15c2.53-.72 5-1.55 7.47-2.49l-9-23.47q-2.64 1.02-5.39 1.81z"/><path class="cls-4" d="M164.31 245.67l1.3 25.09c2.11-.11 4.21-.29 6.28-.54l-3-24.94q-2.3.27-4.58.39zM95.81 178.28l-25.11-.89c-.1 2.65-.08 5.27 0 7.88L95.84 184c-.09-1.92-.1-3.81-.03-5.72z"/><path class="cls-1" d="M215.57 216.11l21.07 13.7q1.73-2.64 3.25-5.4l-22-12.2q-1.08 2-2.32 3.9z"/><path class="cls-4" d="M224.9 192.94l24.66 4.76c.5-2.56.88-5 1.18-7.84l-25-2.64a54.78 54.78 0 0 1-.84 5.72z"/><path class="cls-1" d="M223.87 197.48l24.27 6.52q.81-3 1.41-6.14l-24.66-4.81c-.29 1.5-.63 2.95-1.02 4.43z"/><path class="cls-4" d="M222.16 202.91l23.61 8.6c.89-2.45 1.68-5 2.37-7.51l-24.27-6.52q-.73 2.78-1.71 5.43z"/><path class="cls-2" d="M226.06 182.79c-.05 1.5-.16 3-.3 4.43l25 2.64c.2-1.88.36-4.15.43-6.24z"/><path class="cls-1" d="M209.33 224.21L228 241c1.4-1.56 2.76-3.16 4.05-4.82l-19.79-15.48q-1.39 1.83-2.93 3.51z"/><path class="cls-4" d="M158.62 245.71l-.89 25.1q4 .15 7.88-.05l-1.3-25.09c-1.88.09-3.78.11-5.69.04z"/><path class="cls-1" d="M212.26 220.73l19.79 15.48c1.62-2.06 3.15-4.2 4.59-6.4l-21.07-13.7a62.613 62.613 0 0 1-3.31 4.62z"/><path class="cls-4" d="M220.46 207.12l22.95 10.24q1.28-2.88 2.36-5.85l-23.61-8.6a67.27 67.27 0 0 1-1.7 4.21z"/><path class="cls-1" d="M217.92 212.21l22 12.2q1.91-3.43 3.52-7l-22.95-10.24c-.81 1.69-1.65 3.39-2.57 5.04z"/><path class="cls-4" d="M174.45 244.34l5.21 24.59q3.09-.66 6.12-1.53l-6.92-24.15c-1.45.41-2.92.75-4.41 1.09zM110.27 221.57l-19.54 15.8c1.33 1.63 2.7 3.22 4.14 4.76L113.25 225a64.759 64.759 0 0 1-2.98-3.43zM104.48 213.14l-21.76 12.55q1.57 2.73 3.34 5.34l20.83-14q-1.27-1.92-2.41-3.89z"/><path class="cls-1" d="M106.89 217l-20.83 14c1.46 2.18 3 4.3 4.67 6.34l19.54-15.8c-1.2-1.44-2.27-2.97-3.38-4.54zM100.07 203.91l-23.46 9c.75 2 1.58 3.89 2.46 5.8l22.78-10.61c-.64-1.37-1.24-2.77-1.78-4.19z"/><path class="cls-3" d="M101.85 208.1l-22.78 10.61c1.12 2.38 2.33 4.71 3.65 7l21.76-12.55q-1.42-2.48-2.63-5.06z"/><path class="cls-4" d="M96.23 188.5l-24.94 3.05c.32 2.62.76 5.21 1.3 7.77l24.58-5.22a64.75 64.75 0 0 1-.94-5.6z"/><path class="cls-4" d="M95.84 184l-25.09 1.31q.16 3.16.54 6.28l24.94-3.05c-.18-1.54-.31-3.05-.39-4.54zM97.17 194.1l-24.58 5.22q.64 3.09 1.52 6.11l24.16-6.91a59.43 59.43 0 0 1-1.1-4.42z"/><path class="cls-2" d="M98.27 198.52l-24.16 6.91q1.1 3.81 2.5 7.48l23.46-9q-1.02-2.64-1.8-5.39zM113.25 225l-18.38 17.13c1.78 1.92 3.66 3.76 5.61 5.52L117.3 229q-2.11-1.92-4.05-4z"/><path class="cls-4" d="M144 243.53l-6.51 24.26q3 .81 6.14 1.41l4.8-24.66a81.77 81.77 0 0 1-4.43-1.01z"/><path class="cls-4" d="M138.61 241.82L130 265.43q3.67 1.33 7.52 2.36l6.48-24.26q-2.73-.75-5.39-1.71z"/><path class="cls-3" d="M134.39 240.11l-10.23 22.95c1.91.86 3.86 1.64 5.84 2.37l8.61-23.61c-1.43-.52-2.84-1.09-4.22-1.71z"/><path class="cls-4" d="M148.42 244.54l-4.83 24.66c2.56.49 4.95.87 7.77 1.16l2.64-25c-1.88-.18-3.73-.46-5.58-.82z"/><path class="cls-1" d="M154 245.38l-2.64 25c1.88.2 4.25.37 6.33.45l.87-25.11c-1.51-.07-3.15-.19-4.56-.34z"/><path class="cls-3" d="M120.78 231.92l-15.48 19.79c2.07 1.62 4.2 3.15 6.41 4.59l13.69-21.07q-2.4-1.56-4.62-3.31z"/><path class="cls-2" d="M129.3 237.58l-12.19 22c2.28 1.27 4.64 2.44 7 3.51l10.23-22.95c-1.69-.8-3.34-1.65-5.04-2.56zM117.3 229l-16.82 18.66q2.34 2.11 4.82 4.06l15.48-19.79q-1.78-1.42-3.48-2.93z"/><path class="cls-3" d="M125.4 235.23l-13.69 21.07c1.75 1.14 3.56 2.23 5.4 3.25l12.19-22q-1.99-1.08-3.9-2.32z"/><path class="cls-5" d="M149.87 128.44l-2.46-11.62c-1.49.32-3 .69-4.42 1.1l3.27 11.41c1.19-.33 2.39-.64 3.61-.89z"/><path class="cls-6" d="M146.26 129.33L143 117.92q-2.73.8-5.39 1.8l4.25 11.09c1.43-.56 2.9-1.05 4.4-1.48z"/><path class="cls-7" d="M138.43 132.26l-5-10.76q-2.58 1.22-5 2.63l5.93 10.28q1.95-1.15 4.07-2.15z"/><path class="cls-5" d="M141.85 130.81l-4.25-11.09a70.17 70.17 0 0 0-4.19 1.78l5 10.76c1.14-.52 2.28-1.01 3.44-1.45zM166.44 127.57l1.25-11.8c-1.41-.15-3-.26-4.5-.31l-.44 11.85c1.25.05 2.25.11 3.69.26z"/><path class="cls-3" d="M134.3 134.41l-5.93-10.28c-1.31.76-2.6 1.57-3.85 2.41l6.63 9.85c1.03-.7 2.08-1.39 3.15-1.98z"/><path class="cls-7" d="M171.08 128.27l2.25-11.65c-1.84-.36-3.76-.65-5.64-.85l-1.25 11.8c1.41.15 3.13.43 4.64.7z"/><path class="cls-3" d="M162.81 127.32l.43-11.86c-1.92-.07-3.81-.06-5.69 0l.62 11.85c1.53-.04 3.08-.05 4.64.01z"/><path class="cls-6" d="M154.46 127.67L153 115.89q-2.85.35-5.61.93l2.46 11.62c1.53-.32 3.06-.58 4.61-.77z"/><path class="cls-3" d="M158.17 127.35l-.62-11.85q-2.28.12-4.53.39l1.44 11.78c1.22-.15 2.46-.25 3.71-.32zM112.24 158.88L101.4 154c-.62 1.38-1.19 2.79-1.71 4.22l11.16 4.07c.42-1.13.89-2.29 1.39-3.41z"/><path class="cls-5" d="M116.24 151.53l-10-6.47c-.82 1.27-1.61 2.57-2.34 3.9l10.38 5.76c.64-1.09 1.28-2.15 1.96-3.19z"/><path class="cls-7" d="M114.32 154.72L103.94 149q-1.38 2.47-2.54 5.08l10.84 4.84c.63-1.46 1.33-2.85 2.08-4.2z"/><path class="cls-6" d="M131.15 136.39l-6.63-9.85c-1.58 1.06-3.1 2.19-4.58 3.38l7.47 9.23q1.8-1.47 3.74-2.76z"/><path class="cls-5" d="M110.85 162.33l-11.16-4.07q-1 2.66-1.7 5.43l11.46 3.07c.4-1.51.87-2.98 1.4-4.43zM124.6 141.59l-8.09-8.69a66.632 66.632 0 0 0-4 4.06l8.82 7.94a56.76 56.76 0 0 1 3.27-3.31zM118.94 147.75l-9.35-7.31c-1.16 1.49-2.27 3-3.31 4.62l10 6.47c.8-1.3 1.72-2.53 2.66-3.78z"/><path class="cls-7" d="M127.41 139.15l-7.47-9.23c-1.17 1-2.32 2-3.43 3l8.09 8.69c.91-.87 1.84-1.68 2.81-2.46z"/><path class="cls-6" d="M121.34 144.9l-8.82-7.9q-1.51 1.68-2.93 3.48l9.35 7.31q1.16-1.51 2.4-2.89z"/><path class="cls-7" d="M190 135.89l6.47-9.95q-1.89-1.25-3.89-2.35L186.8 134c1.08.57 2.2 1.22 3.2 1.89zM213.08 169.53l11.61-2.47c-.32-1.49-.68-3-1.1-4.41l-11.41 3.27c.34 1.18.64 2.39.9 3.61z"/><path class="cls-5" d="M212.18 165.92l11.41-3.27q-.78-2.75-1.8-5.39l-11.08 4.24c.55 1.5 1.04 2.92 1.47 4.42z"/><path class="cls-7" d="M213.84 174.11l11.79-1.44a65.63 65.63 0 0 0-.94-5.61l-11.61 2.47c.32 1.47.58 3.03.76 4.58zM209.25 158.08l10.76-5q-1.2-2.58-2.63-5L207.1 154q1.16 2 2.15 4.08z"/><path class="cls-6" d="M210.71 161.5l11.08-4.24c-.55-1.42-1.14-2.82-1.78-4.19l-10.76 5c.52 1.13 1.01 2.27 1.46 3.43z"/><path class="cls-7" d="M214.16 177.82l11.85-.61c-.07-1.53-.2-3-.38-4.54l-11.79 1.44c.16 1.23.26 2.46.32 3.71z"/><path class="cls-5" d="M214 186l11.81 1.25c.14-1.41.25-2.93.3-4.43l-11.85-.48c-.1 1.2-.21 2.66-.26 3.66z"/><path class="cls-3" d="M213.25 190.67l11.66 2.22c.35-1.84.6-3.32.85-5.67L214 186c-.24 1.85-.46 3.17-.75 4.67z"/><path class="cls-5" d="M207.1 154l10.28-6c-.76-1.32-1.56-2.6-2.41-3.86l-9.84 6.63c.69 1.06 1.35 2.11 1.97 3.23z"/><path class="cls-6" d="M214.19 182.47l11.86.42c.07-1.91.06-3.81 0-5.68l-11.85.61q.08 2.31-.01 4.65zM196.61 141l7.95-8.81c-1.13-1-2.29-2-3.48-2.93l-7.32 9.35c.98.75 1.93 1.55 2.85 2.39z"/><path class="cls-5" d="M182.63 131.9l4.84-10.85c-1.38-.61-2.79-1.18-4.22-1.7l-4.06 11.15c1.17.43 2.32.89 3.44 1.4z"/><path class="cls-3" d="M109.45 166.76L98 163.69c-.39 1.45-.73 2.93-1 4.43l11.65 2.27c.2-1.23.48-2.39.8-3.63z"/><path class="cls-7" d="M186.8 134l5.76-10.38c-1.65-.92-3.35-1.76-5.09-2.54l-4.84 10.85q2.15.92 4.17 2.07z"/><path class="cls-6" d="M179.19 130.5l4.06-11.15c-1.77-.64-3.58-1.22-5.42-1.71l-3.08 11.46c1.51.41 2.99.9 4.44 1.4z"/><path class="cls-7" d="M205.13 150.8l9.84-6.63c-1.06-1.57-2.19-3.1-3.38-4.57l-9.22 7.46q1.46 1.82 2.76 3.74z"/><path class="cls-5" d="M199.93 144.25l8.68-8.08q-1.94-2.08-4.05-4l-7.95 8.83q1.72 1.55 3.32 3.25z"/><path class="cls-7" d="M202.37 147.06l9.22-7.46c-1-1.18-2-2.32-3-3.43l-8.68 8.08c.86.91 1.68 1.85 2.46 2.81z"/><path class="cls-5" d="M174.75 129.1l3.08-11.46q-2.19-.58-4.44-1l-2.27 11.65c1.23.22 2.44.5 3.63.81z"/><path class="cls-7" d="M193.76 138.6l7.32-9.35q-2.24-1.75-4.63-3.31l-6.45 9.95q1.95 1.28 3.76 2.71z"/><path class="cls-5" d="M147.11 232.06L144 243.53c1.46.39 2.94.72 4.43 1l2.27-11.64c-1.19-.23-2.4-.51-3.59-.83z"/><path class="cls-3" d="M180 230.36l4.25 11.08c1.42-.54 2.81-1.14 4.18-1.78l-5-10.76c-1.12.53-2.26 1.01-3.43 1.46z"/><path class="cls-6" d="M194.45 222l7.46 9.23c1.18-1 2.33-1.95 3.44-3l-8.09-8.68c-.91.88-1.85 1.69-2.81 2.45z"/><path class="cls-5" d="M190.71 224.78l6.63 9.84c1.57-1.06 3.1-2.18 4.57-3.37l-7.46-9.25c-1.21 1-2.45 1.91-3.74 2.78z"/><path class="cls-3" d="M175.6 231.83l3.26 11.42q2.74-.8 5.4-1.81L180 230.36c-1.43.56-2.91 1.05-4.4 1.47z"/><path class="cls-7" d="M187.55 226.75l5.93 10.25c1.32-.75 2.6-1.56 3.86-2.41l-6.63-9.84c-1.03.73-2.08 1.38-3.16 2zM183.43 228.9l5 10.76q2.58-1.2 5-2.63l-5.93-10.28q-1.96 1.17-4.07 2.15z"/><path class="cls-5" d="M163.69 233.82l.62 11.85q2.28-.12 4.53-.39l-1.44-11.78c-1.23.15-2.46.25-3.71.32z"/><path class="cls-6" d="M172 232.73l2.46 11.61c1.49-.31 3-.68 4.41-1.09l-3.26-11.42c-1.2.34-2.41.64-3.61.9z"/><path class="cls-5" d="M159 233.85l-.42 11.86c1.91.07 3.81 0 5.69 0l-.62-11.85c-1.49.03-3.05.04-4.65-.01z"/><path class="cls-7" d="M167.4 233.5l1.44 11.78q2.83-.34 5.61-.94L172 232.73c-1.52.32-3 .58-4.6.77zM209.62 202.29l10.84 4.83a67.27 67.27 0 0 0 1.7-4.21L211 198.84c-.41 1.16-.88 2.32-1.38 3.45z"/><path class="cls-5" d="M213.24 190.78c-.24 1.22-.51 2.43-.83 3.63l11.46 3.07c.39-1.45.73-2.93 1-4.43z"/><path class="cls-6" d="M211 198.84l11.15 4.07q1-2.66 1.71-5.43l-11.46-3.07c-.4 1.5-.86 2.98-1.4 4.43z"/><path class="cls-7" d="M108.63 170.28L97 168c-.35 1.85-.64 3.69-.83 5.57l11.8 1.25c.13-1.45.37-3.03.66-4.54z"/><path class="cls-6" d="M155.25 233.58l-1.25 11.8c1.41.15 3.08.27 4.58.32l.4-11.86c-1.23-.04-2.32-.11-3.73-.26z"/><path class="cls-5" d="M197.26 219.58l8.09 8.68q2.07-1.94 4-4l-8.81-7.94c-1.06 1.1-2.15 2.21-3.28 3.26z"/><path class="cls-7" d="M207.54 206.45l10.38 5.76c.92-1.65 1.76-3.35 2.54-5.09l-10.84-4.83q-.96 2.13-2.08 4.16z"/><path class="cls-6" d="M200.52 216.27l8.81 7.94q1.53-1.68 2.93-3.48l-9.35-7.31c-.76.98-1.56 1.93-2.39 2.85z"/><path class="cls-7" d="M202.91 213.42l9.35 7.31c1.17-1.49 2.28-3 3.31-4.62l-9.95-6.47q-1.27 1.95-2.71 3.78z"/><path class="cls-5" d="M205.62 209.64l9.95 6.47q1.25-1.91 2.35-3.9l-10.38-5.76c-.6 1.09-1.24 2.15-1.92 3.19z"/><path class="cls-7" d="M125.25 220.17l-8 8.82q1.7 1.51 3.48 2.93l7.31-9.35c-.92-.77-1.87-1.57-2.79-2.4zM111.15 199.66l-11.08 4.25c.54 1.42 1.14 2.82 1.78 4.19l10.76-5c-.53-1.1-1.01-2.28-1.46-3.44z"/><path class="cls-6" d="M109.68 195.25l-11.41 3.27q.78 2.74 1.8 5.39l11.08-4.25q-.83-2.16-1.47-4.41z"/><path class="cls-5" d="M112.61 203.09l-10.76 5q1.2 2.58 2.63 5l10.28-5.93a50.54 50.54 0 0 1-2.15-4.07zM114.76 207.21l-10.28 5.93q1.14 2 2.41 3.86l9.84-6.64c-.73-1.02-1.35-2.08-1.97-3.15z"/><path class="cls-6" d="M108.78 191.64l-11.61 2.46c.31 1.49.68 3 1.1 4.42l11.41-3.27c-.34-1.19-.68-2.39-.9-3.61z"/><path class="cls-7" d="M150.69 232.89l-2.29 11.65c1.84.36 3.72.64 5.6.84l1.25-11.8c-1.41-.15-3.05-.4-4.56-.69zM107.67 178.7l-11.86-.42c-.07 1.91-.06 3.8 0 5.68l11.86-.61q-.09-2.35 0-4.65z"/><path class="cls-6" d="M108 187.05l-11.77 1.45c.23 1.89.55 3.76.94 5.6l11.61-2.46c-.32-1.51-.58-3.04-.78-4.59z"/><path class="cls-7" d="M107.7 183.35l-11.86.65c.08 1.53.21 3 .39 4.54l11.77-1.49c-.13-1.22-.24-2.46-.3-3.7z"/><path class="cls-5" d="M108 174.78l-11.8-1.25c-.2 1.88-.28 3.14-.33 4.64l11.86.37c0-1.23.07-2.35.27-3.76zM139.22 229.27l-4.83 10.84c1.38.62 2.79 1.19 4.22 1.71l4.06-11.15c-1.17-.43-2.32-.89-3.45-1.4z"/><path class="cls-6" d="M135.06 227.2l-5.76 10.38c1.65.91 3.35 1.76 5.09 2.53l4.83-10.84q-2.13-.94-4.16-2.07z"/><path class="cls-3" d="M131.87 225.28l-6.47 9.95q1.91 1.25 3.9 2.35l5.76-10.38c-1.06-.61-2.15-1.2-3.19-1.92z"/><path class="cls-7" d="M142.67 230.67l-4.06 11.15q2.65 1 5.42 1.71l3.08-11.47c-1.51-.4-2.99-.87-4.44-1.39z"/><path class="cls-5" d="M116.73 210.36l-9.84 6.64c1.06 1.57 2.18 3.1 3.38 4.57l9.22-7.47q-1.49-1.8-2.76-3.74z"/><path class="cls-6" d="M121.93 216.91l-8.68 8.09q1.94 2.08 4 4l8-8.82a56.896 56.896 0 0 1-3.32-3.27z"/><path class="cls-7" d="M128.09 222.57l-7.31 9.35q2.23 1.76 4.62 3.31l6.47-9.95a56.41 56.41 0 0 1-3.78-2.71z"/><path class="cls-3" d="M119.49 214.1l-9.22 7.47c1 1.18 2 2.32 3 3.43l8.68-8.09c-.86-.91-1.68-1.84-2.46-2.81z"/><path class="cls-5" d="M143.39 142.92l-5-10.66q-2.12 1-4.13 2.15l5.87 10.19c1.09-.6 2.16-1.17 3.26-1.68z"/><path class="cls-5" d="M140.17 144.6l-5.87-10.19c-1.07.63-2.12 1.28-3.15 2l6.57 9.74c.8-.56 1.62-1.07 2.45-1.55z"/><path class="cls-3" d="M137.72 146.13l-6.57-9.74q-1.93 1.29-3.74 2.76l7.39 9.14c.94-.76 1.91-1.48 2.92-2.16z"/><path class="cls-7" d="M146.06 141.78l-4.21-11c-1.16.44-2.3.93-3.42 1.45l5 10.66q1.27-.58 2.63-1.11zM152.31 139.94l-2.44-11.5c-1.22.25-2.42.55-3.61.89l3.24 11.31c.92-.27 1.86-.5 2.81-.7z"/><path class="cls-5" d="M158.77 139.09l-.6-11.74c-1.25.07-2.49.17-3.71.32l1.43 11.67c.95-.12 1.91-.2 2.88-.25z"/><path class="cls-7" d="M162.4 139.07l.41-11.75c-1.56-.06-3.11 0-4.64 0l.6 11.74c1.23-.06 2.41-.06 3.63.01zM155.89 139.34l-1.43-11.67c-1.55.19-3.08.45-4.59.77l2.44 11.5c1.18-.25 2.37-.45 3.58-.6z"/><path class="cls-3" d="M149.5 140.64l-3.24-11.31c-1.5.43-3 .92-4.41 1.48l4.21 11c1.12-.46 2.27-.81 3.44-1.17z"/><path class="cls-7" d="M165.21 139.26l1.23-11.69c-1.41-.15-2.44-.21-3.67-.25l-.44 11.74c.96.04 1.94.1 2.88.2zM124.59 160.42l-10.27-5.7c-.75 1.35-1.45 2.74-2.08 4.16l10.76 4.78c.47-1.1 1-2.19 1.59-3.24z"/><path class="cls-6" d="M134.8 148.29l-7.39-9.14c-1 .78-1.9 1.59-2.81 2.44l8 8.6c.72-.66 1.45-1.3 2.2-1.9z"/><path class="cls-5" d="M121.89 166.35l-11-4c-.53 1.45-1 2.92-1.4 4.43l11.35 3.05c.28-1.19.64-2.35 1.05-3.48z"/><path class="cls-7" d="M120.8 169.81l-11.35-3.05c-.32 1.19-.6 2.4-.83 3.63l11.53 2.25c.19-.96.4-1.9.65-2.83z"/><path class="cls-5" d="M123 163.66l-10.74-4.78c-.5 1.13-1 2.28-1.39 3.45l11 4c.35-.89.72-1.79 1.13-2.67zM130.07 152.77l-8.73-7.87q-1.25 1.38-2.4 2.85l9.26 7.25c.6-.77 1.22-1.51 1.87-2.23z"/><path class="cls-3" d="M132.61 150.19l-8-8.6c-1.13 1-2.22 2.16-3.26 3.31l8.73 7.87c.8-.9 1.65-1.77 2.53-2.58zM126.09 157.94l-9.85-6.41c-.68 1-1.32 2.1-1.92 3.19l10.27 5.7c.48-.85.97-1.68 1.5-2.48z"/><path class="cls-2" d="M128.2 155l-9.26-7.24c-1 1.22-1.86 2.48-2.7 3.78l9.85 6.41c.66-1.03 1.37-2.01 2.11-2.95z"/><path class="cls-7" d="M195.38 157.37l9.75-6.57q-1.31-1.92-2.76-3.74l-9.14 7.4c.77.93 1.47 1.91 2.15 2.91z"/><path class="cls-6" d="M202.17 175.54l11.67-1.43c-.18-1.55-.44-3.07-.76-4.58l-11.5 2.47c.25 1.14.42 2.33.59 3.54z"/><path class="cls-7" d="M201.58 172l11.5-2.43c-.26-1.22-.56-2.43-.9-3.61l-11.3 3.23c.26.89.5 1.81.7 2.81zM199.73 165.71l11-4.21c-.45-1.16-.94-2.3-1.46-3.42l-10.66 5q.6 1.28 1.12 2.63z"/><path class="cls-6" d="M198.59 163l10.66-5q-1-2.12-2.15-4.12l-10.18 5.87c.6 1.12 1.16 2.25 1.67 3.25z"/><path class="cls-7" d="M202.42 178.43l11.74-.61c-.06-1.25-.17-2.48-.32-3.71l-11.67 1.43c.12.96.2 1.92.25 2.89z"/><path class="cls-3" d="M202.27 184.74L214 186c.1-.94.21-2.37.25-3.6l-11.74-.47c-.08.93-.15 1.87-.24 2.81z"/><path class="cls-7" d="M196.92 159.83L207.1 154a41.93 41.93 0 0 0-2-3.16l-9.75 6.57c.57.76 1.08 1.59 1.57 2.42zM168.83 139.8l2.23-11.54c-1.51-.29-3.21-.54-4.62-.69l-1.23 11.69c1.41.15 2.45.32 3.62.54z"/><path class="cls-3" d="M202.45 182.05l11.74.42q.09-2.34 0-4.65l-11.74.61c.03 1.2.04 2.41 0 3.62z"/><path class="cls-5" d="M120.16 172.53l-11.53-2.3c-.29 1.51-.53 3.14-.68 4.55l11.69 1.22c.1-.93.3-2.29.52-3.47z"/><path class="cls-7" d="M175.16 141.55l4-11.05c-1.45-.53-2.93-1-4.44-1.4l-3.05 11.36c1.21.31 2.33.68 3.49 1.09zM181.09 144.25L186.8 134q-2-1.12-4.17-2.07l-4.78 10.73q1.67.72 3.24 1.59z"/><path class="cls-6" d="M193.23 154.46l9.14-7.4c-.78-1-1.6-1.9-2.44-2.81l-8.6 8c.67.75 1.29 1.45 1.9 2.21zM171.7 140.46l3.05-11.36c-1.19-.31-2.4-.59-3.63-.83l-2.24 11.54c.95.19 1.89.4 2.82.65z"/><path class="cls-7" d="M177.85 142.63l4.78-10.73c-1.12-.51-2.27-1-3.44-1.4l-4 11.05c.88.33 1.81.69 2.66 1.08z"/><path class="cls-6" d="M188.74 149.72l7.87-8.73a50.04 50.04 0 0 0-2.85-2.39l-7.24 9.26c.77.59 1.48 1.22 2.22 1.86zM191.33 152.27l8.6-8q-1.59-1.69-3.32-3.26l-7.87 8.73c.9.8 1.76 1.64 2.59 2.53z"/><path class="cls-7" d="M183.58 145.75l6.4-9.86c-1-.67-2.1-1.32-3.18-1.92l-5.71 10.28q1.28.75 2.49 1.5zM186.52 147.86l7.24-9.26q-1.81-1.44-3.78-2.71l-6.4 9.86a40.4 40.4 0 0 1 2.94 2.11z"/><path class="cls-4" d="M200.88 169.15l11.3-3.23c-.43-1.5-.92-3-1.47-4.42l-11 4.21c.45 1.13.83 2.29 1.17 3.44z"/><path class="cls-7" d="M187.06 212.88l7.39 9.14c1-.78 1.9-1.59 2.81-2.44l-8-8.6c-.72.66-1.45 1.29-2.2 1.9z"/><path class="cls-3" d="M178.47 218.25l5 10.65q2.12-1 4.12-2.15l-5.87-10.18q-1.6.92-3.25 1.68z"/><path class="cls-7" d="M175.8 219.38l4.21 11c1.16-.45 2.3-.93 3.42-1.46l-5-10.65c-.84.39-1.72.73-2.63 1.11z"/><path class="cls-3" d="M181.68 216.57l5.87 10.18c1.08-.62 2.13-1.27 3.16-2l-6.57-9.75q-1.2.85-2.46 1.57z"/><path class="cls-6" d="M184.14 215l6.57 9.74c1.29-.87 2.53-1.78 3.74-2.76l-7.39-9.14c-.94.8-1.92 1.52-2.92 2.16z"/><path class="cls-5" d="M172.36 220.53l3.24 11.3c1.49-.42 3-.91 4.41-1.47l-4.21-11c-1.12.46-2.27.84-3.44 1.17z"/><path class="cls-7" d="M163.08 222.08l.61 11.74c1.25-.07 2.48-.17 3.71-.32l-1.4-11.67c-1 .17-1.95.17-2.92.25z"/><path class="cls-3" d="M169.55 221.23l2.44 11.5c1.21-.26 2.42-.56 3.61-.9l-3.24-11.3c-.92.27-1.86.47-2.81.7z"/><path class="cls-7" d="M156.48 221.89l-1.23 11.69c1.41.15 2.52.22 3.75.26l.39-11.75c-.95-.03-1.97-.09-2.91-.2z"/><path class="cls-3" d="M166 221.83l1.43 11.67c1.55-.19 3.08-.45 4.59-.77l-2.44-11.5c-1.21.25-2.4.45-3.58.6z"/><path class="cls-7" d="M159.46 222.1l-.46 11.75c1.56.05 3.12 0 4.65 0l-.61-11.74c-1.15.03-2.36.04-3.58-.01z"/><path class="cls-3" d="M189.25 211l8 8.6c1.13-1.05 2.22-2.16 3.26-3.31l-8.73-7.87c-.78.88-1.65 1.74-2.53 2.58z"/><path class="cls-7" d="M201.06 191.36l11.35 3c.32-1.2.59-2.41.83-3.63l-11.54-2.25c-.18 1.01-.4 1.95-.64 2.88z"/><path class="cls-6" d="M202.27 184.74c-.15 1.41-.33 2.51-.55 3.69l11.54 2.19c.29-1.51.5-2.77.69-4.65z"/><path class="cls-5" d="M198.88 197.5l10.74 4.79c.5-1.13 1-2.28 1.39-3.45l-11-4c-.38.89-.74 1.78-1.13 2.66z"/><path class="cls-7" d="M200 194.81l11 4c.53-1.45 1-2.93 1.4-4.43l-11.35-3c-.31 1.15-.67 2.31-1.05 3.43z"/><path class="cls-6" d="M193.66 206.18l9.25 7.24q1.44-1.83 2.71-3.78l-9.85-6.41c-.67 1.02-1.37 2-2.11 2.95zM197.26 200.75l10.28 5.7q1.13-2 2.08-4.16l-10.74-4.79c-.49 1.11-1.03 2.2-1.62 3.25z"/><path class="cls-3" d="M191.79 208.4l8.73 7.87c.83-.92 1.63-1.87 2.39-2.85l-9.25-7.24c-.6.76-1.22 1.5-1.87 2.22zM195.77 203.23l9.85 6.41c.68-1 1.32-2.1 1.92-3.19l-10.28-5.7c-.47.85-.97 1.67-1.49 2.48z"/><path class="cls-6" d="M121 192l-11.3 3.23q.64 2.25 1.47 4.41l11-4.2c-.47-1.11-.86-2.26-1.17-3.44z"/><path class="cls-5" d="M119.64 176L108 174.78c-.15 1.41-.23 2.58-.27 3.81l11.75.37c-.02-.96.01-1.54.16-2.96zM123.26 198.12l-10.65 5c.66 1.4 1.37 2.78 2.15 4.12l10.18-5.87a55.61 55.61 0 0 1-1.68-3.25z"/><path class="cls-7" d="M122.13 195.46l-11 4.2c.45 1.16.93 2.31 1.46 3.43l10.65-5c-.38-.84-.76-1.73-1.11-2.63zM124.94 201.34l-10.18 5.87c.62 1.07 1.28 2.13 2 3.15l9.75-6.56c-.57-.8-1.09-1.62-1.57-2.46zM119.68 185.63L108 187.05c.19 1.55.45 3.08.77 4.59l11.5-2.44c-.27-1.2-.44-2.37-.59-3.57z"/><path class="cls-5" d="M119.44 182.74l-11.74.61c.06 1.24.17 2.48.31 3.7l11.67-1.42c-.11-.96-.19-1.92-.24-2.89z"/><path class="cls-7" d="M120.28 189.2l-11.5 2.44c.26 1.22.56 2.42.9 3.61L121 192c-.28-.91-.52-1.85-.72-2.8zM119.41 179.11l-11.74-.41q-.09 2.34 0 4.65l11.74-.61q-.06-1.8 0-3.63z"/><path class="cls-5" d="M126.48 203.8l-9.75 6.56q1.3 1.94 2.76 3.74l9.14-7.39c-.76-.94-1.48-1.91-2.15-2.91z"/><path class="cls-6" d="M146.7 219.62l-4 11c1.45.52 2.93 1 4.44 1.39l3-11.35c-1.14-.26-2.31-.66-3.44-1.04z"/><path class="cls-5" d="M140.77 216.92l-5.71 10.28q2 1.13 4.16 2.07l4.78-10.73q-1.65-.75-3.23-1.62z"/><path class="cls-7" d="M152.94 221.36l-2.27 11.53c1.51.29 3.17.54 4.58.69l1.23-11.69c-1.41-.15-2.36-.31-3.54-.53z"/><path class="cls-5" d="M144 218.54l-4.79 10.73c1.13.51 2.28 1 3.45 1.4l4-11c-.87-.38-1.77-.74-2.66-1.13zM128.63 206.71l-9.14 7.39c.78 1 1.6 1.91 2.44 2.81l8.6-8c-.66-.72-1.29-1.45-1.9-2.2z"/><path class="cls-7" d="M150.16 220.71l-3 11.35c1.19.32 2.4.6 3.62.84l2.22-11.54c-1-.19-1.92-.36-2.84-.65zM135.33 213.31l-7.24 9.26c1.22 1 2.48 1.86 3.78 2.71l6.41-9.86c-1.01-.66-2-1.37-2.95-2.11z"/><path class="cls-7" d="M138.28 215.42l-6.41 9.86c1 .67 2.1 1.31 3.19 1.92l5.71-10.28q-1.28-.71-2.49-1.5z"/><path class="cls-5" d="M133.12 211.44l-7.87 8.73c.92.83 1.87 1.63 2.84 2.4l7.24-9.26c-.76-.6-1.5-1.22-2.21-1.87z"/><path class="cls-1" d="M130.53 208.9l-8.6 8c1.06 1.14 2.16 2.22 3.32 3.26l7.87-8.73c-.9-.8-1.77-1.64-2.59-2.53z"/><path class="cls-8" d="M353.71 106.63v149.79H331.1V106.63zM384.46 256.42L416 95.37l51.42 116.42 53.25-116.42L549 256.42h-23.19L511.36 166 467 263.31l-43-97.41-16.11 90.52zM668.72 220h-64.13l-16.69 36.42h-24.35l74.12-159.2 71.5 159.2h-24.73zm-9.22-21.25l-22.21-50.93L614 198.79zM969.66 220h-64.12l-16.69 36.38H864.5l74.12-159.2 71.5 159.2h-24.74zm-9.21-21.25l-22.22-50.93L915 198.79zM866.81 171h-58.36a21.81 21.81 0 0 1-.53 22H844a55.26 55.26 0 0 1-54.68 44.5 55.87 55.87 0 1 1 45.75-87.78l16.78-15.26a78.28 78.28 0 1 0 15 58.29 69.86 69.86 0 0 0 .81-10.87 67.23 67.23 0 0 0-.85-10.88z"/><path d="M798.37 171a13.88 13.88 0 1 0 4.86 10.55 13.87 13.87 0 0 0-4.86-10.55z" fill="#f77c10"/></g></svg>