<svg xmlns="http://www.w3.org/2000/svg" viewBox="0 0 1300.93 1124.85"><defs><style>.cls-1{fill:#3b67a0}.cls-3{fill:#8ca4cc}.cls-4{fill:#d5e2ee}.cls-5{fill:#fff}.cls-6{fill:#4c679c}.cls-7{fill:#f0c62f}.cls-8{fill:#fcff3c}.cls-9{fill:#db7b24}</style></defs><g id="Laag_3" data-name="Laag 3"><path class="cls-1" d="M183.27 723.57V949.9h-34.15V723.57zM229.74 949.9l47.64-243.34 77.7 175.91 80.47-175.91 42.81 243.34h-35l-21.88-136.62-67 147-65.08-147.15-24.33 136.77zM659.25 894.93h-96.89l-25.22 55h-36.79l112-240.55 108 240.55H683zm-13.93-32.1l-33.56-77-35.19 77zM1114 894.93h-96.89l-25.22 55h-36.82l112-240.55 108 240.55h-37.38zm-13.92-32.1l-33.57-77-35.18 77zM958.57 819.85H841v34h83.07a84.57 84.57 0 1 1-13.49-65.18l25.35-23a118.31 118.31 0 1 0-94.48 189.49c59.58 0 108.87-44.41 117.12-101.41a112.47 112.47 0 0 0 1.22-16.92 122.92 122.92 0 0 0-1.22-16.98z"/><circle cx="841.45" cy="836.77" r="27.04" fill="#f77c10" stroke="#fff" stroke-miterlimit="10" stroke-width="12"/><path class="cls-3" d="M578.52 174l-15.41-40.21q-9 3.47-17.77 7.56l18.18 39q7.38-3.43 15-6.35zM613.67 163.58l-8.94-42.13q-9.48 2-18.73 4.67l11.85 41.4q7.8-2.23 15.82-3.94z"/><path class="cls-4" d="M597.85 167.52L586 126.12q-11.64 3.33-22.89 7.64L578.52 174q9.48-3.67 19.33-6.48z"/><path class="cls-3" d="M563.52 180.35l-18.18-39q-11 5.12-21.39 11.15l21.51 37.3q8.81-5.11 18.06-9.45z"/><path class="cls-5" d="M545.46 189.77L524 152.47q-8.37 4.84-16.37 10.24l24.06 35.7q6.7-4.56 13.77-8.64z"/><path class="cls-6" d="M633.76 160.23l-5.23-42.75c-8 1-16 2.32-23.8 4l8.94 42.13c6.61-1.43 13.33-2.56 20.09-3.38zM670.37 158.7l1.53-43q-12.17-.44-24.13.17l2.23 43q10.1-.54 20.37-.17z"/><path class="cls-5" d="M706.68 162.85l8.19-42.26c-7.82-1.52-15.94-2.75-23.9-3.59l-4.52 42.82c6.96.74 13.62 1.75 20.23 3.03zM650 158.84l-2.23-43q-9.69.48-19.24 1.64l5.23 42.75c5.37-.66 10.79-1.11 16.24-1.39z"/><path class="cls-6" d="M686.45 159.82L691 117c-6-.63-12.78-1.11-19.16-1.34l-1.57 43c5.36.22 11.21.64 16.18 1.16z"/><path class="cls-4" d="M457.9 278.71l-37.66-20.89q-5.83 10.5-10.77 21.59L448.81 297q4.19-9.39 9.09-18.29z"/><path class="cls-6" d="M448.81 297l-39.34-17.54q-3.9 8.79-7.23 17.9l40.46 14.75q2.81-7.74 6.11-15.11z"/><path class="cls-4" d="M466.31 264.75l-36.11-23.47q-5.25 8.07-10 16.54l37.66 20.89q4.02-7.14 8.45-13.96z"/><path class="cls-6" d="M442.7 312.06l-40.46-14.75q-4.1 11.28-7.25 23l41.59 11.16q2.64-9.89 6.12-19.41z"/><path class="cls-4" d="M488.67 235.72l-32-28.83q-6.45 7.16-12.42 14.77l33.91 26.53q5.05-6.42 10.51-12.47zM503 221.2l-29.4-31.51q-8.82 8.22-16.92 17.2l32 28.83q6.82-7.57 14.32-14.52z"/><path class="cls-6" d="M478.17 248.19l-33.91-26.53q-7.44 9.48-14.06 19.62l36.11 23.47q5.58-8.56 11.86-16.56z"/><path class="cls-3" d="M515.26 210.51L488.18 177q-7.51 6.06-14.58 12.65L503 221.2q5.92-5.55 12.26-10.69z"/><path class="cls-6" d="M531.64 198.41l-24.06-35.7q-10 6.75-19.4 14.33l27.08 33.47q7.92-6.4 16.38-12.1z"/><path class="cls-4" d="M873.8 293.46l39-18.18q-5.12-11-11.15-21.4l-37.3 21.51q5.11 8.82 9.45 18.07z"/><path class="cls-5" d="M886.63 327.78L928 315.93q-3.35-11.64-7.65-22.89l-40.21 15.42q3.69 9.48 6.49 19.32z"/><path class="cls-4" d="M722.66 166.51l11.16-41.59q-9.27-2.48-18.81-4.32l-8.24 42.26q8.06 1.56 15.89 3.65z"/><path class="cls-5" d="M880.18 308.46L920.39 293q-3.46-9-7.56-17.76l-39 18.18q3.41 7.41 6.35 15.04zM436.58 331.49L395 320.33q-2.48 9.27-4.32 18.81l42.26 8.24q1.55-8.05 3.64-15.89z"/><path class="cls-4" d="M895.31 379.93l43-2.23q-.5-9.69-1.65-19.23l-42.75 5.22q1 8.06 1.4 16.24z"/><path class="cls-4" d="M895.45 400.3l43 1.53q.43-12.16-.16-24.13l-43 2.23q.53 10.07.16 20.37z"/><path class="cls-6" d="M894.36 416.12l42.82 4.52c.63-6 1.09-12.65 1.32-19l-43-1.64a258.5 258.5 0 0 1-1.14 16.12z"/><path class="cls-5" d="M864.38 275.39l37.3-21.51q-4.84-8.35-10.23-16.36l-35.71 24q4.56 6.81 8.64 13.87z"/><path class="cls-3" d="M893.92 363.69l42.75-5.22c-1-8-2.31-16-4-23.8l-42.13 8.93c1.46 6.61 2.56 13.31 3.38 20.09z"/><path class="cls-6" d="M890.57 343.6l42.13-8.93q-2-9.48-4.66-18.74l-41.41 11.85q2.25 7.82 3.94 15.82z"/><path class="cls-7" d="M757.2 178.74l17.54-39.33q-8.79-3.91-17.9-7.24l-14.75 40.46q7.7 2.81 15.11 6.11z"/><path class="cls-6" d="M789.4 196.24l23.47-36.1q-8.07-5.26-16.54-10l-20.89 37.66q7.14 4 13.96 8.44z"/><path class="cls-6" d="M775.44 187.83l20.89-37.66q-10.5-5.83-21.59-10.76l-17.54 39.33q9.36 4.17 18.24 9.09z"/><path class="cls-3" d="M855.74 261.57l35.71-24q-6.76-10-14.34-19.41l-33.47 27.08q6.36 7.87 12.1 16.33z"/><path class="cls-6" d="M742.09 172.63l14.75-40.46q-11.28-4.09-23-7.25l-11.16 41.59q9.9 2.66 19.41 6.12zM806 208.11l26.53-33.92q-9.48-7.42-19.62-14.05l-23.47 36.1q8.56 5.58 16.56 11.87z"/><path class="cls-4" d="M833 232.89l31.51-29.35q-8.22-8.83-17.2-16.92l-28.83 32q7.52 6.82 14.52 14.27z"/><path class="cls-4" d="M843.64 245.19l33.47-27.08q-6.06-7.5-12.65-14.57L833 232.89q5.51 5.96 10.64 12.3z"/><path class="cls-5" d="M818.43 218.6l28.83-32q-7.15-6.47-14.77-12.43L806 208.11q6.38 5.03 12.43 10.49z"/><path class="cls-6" d="M891.31 436.48l42.27 8.13c1.52-7.83 2.65-15 3.6-24l-42.82-4.52c-.74 6.99-1.77 13.78-3.05 20.39z"/><path class="cls-3" d="M760.69 603.73l18.18 39q11-5.12 21.4-11.16l-21.51-37.3q-8.82 5.13-18.07 9.46zM745.7 610.11l15.41 40.21q9-3.47 17.76-7.55l-18.18-39c-4.91 2.23-9.91 4.39-14.99 6.34z"/><path class="cls-3" d="M726.37 616.57L738.22 658q11.64-3.35 22.89-7.65l-15.41-40.24q-9.49 3.64-19.33 6.46z"/><path class="cls-6" d="M792.58 585.67l24 35.71q10-6.75 19.41-14.33L809 573.57q-8 6.43-16.42 12.1z"/><path class="cls-7" d="M778.76 594.31l21.51 37.3q8.36-4.83 16.36-10.23l-24-35.71q-6.81 4.56-13.87 8.64z"/><path class="cls-5" d="M809 573.57l27 33.48q7.5-6.07 14.57-12.66l-29.34-31.51q-5.93 5.57-12.23 10.69z"/><path class="cls-3" d="M674.22 625.24l2.23 43q9.69-.5 19.23-1.65l-5.22-42.74q-8.05.99-16.24 1.39z"/><path class="cls-5" d="M710.55 620.5l8.94 42.13q9.48-2 18.73-4.66l-11.85-41.4q-7.81 2.23-15.82 3.93z"/><path class="cls-3" d="M653.85 625.38l-1.53 43q12.16.45 24.13-.16l-2.23-43q-10.11.55-20.37.16z"/><path class="cls-8" d="M690.46 623.86l5.22 42.74c8-1 16-2.31 23.81-4l-8.94-42.13q-9.91 2.13-20.09 3.39z"/><path class="cls-6" d="M835.55 548.36l32 28.83Q874 570 880 562.42l-33.91-26.53q-5.09 6.43-10.54 12.47zM881.52 472L922 486.77q4.1-11.26 7.25-23l-41.59-11.17q-2.66 9.91-6.14 19.4z"/><path class="cls-3" d="M875.41 487.14l39.33 17.53q3.91-8.79 7.24-17.9L881.52 472q-2.81 7.72-6.11 15.14zM891.29 436.71q-1.56 8-3.65 15.88l41.59 11.17q2.47-9.27 4.32-18.82z"/><path class="cls-4" d="M433 347.15l-42.25-8.34c-1.52 7.83-2.73 15.79-3.57 23.74l42.82 4.53c.58-5.97 1.68-13.32 3-19.93z"/><path class="cls-3" d="M866.32 505.37l37.68 20.9q5.84-10.51 10.76-21.6l-39.33-17.53q-4.19 9.35-9.11 18.23z"/><path class="cls-6" d="M637.41 624.22L632.89 667c6 .63 13 1.13 19.34 1.36l1.48-43c-5.39-.19-11.33-.61-16.3-1.14z"/><path class="cls-3" d="M846.05 535.89L880 562.42q7.44-9.48 14.06-19.61l-36.11-23.48q-5.62 8.57-11.9 16.56z"/><path class="cls-6" d="M821.27 562.88l29.34 31.51q8.83-8.22 16.92-17.2l-32-28.83q-6.8 7.57-14.26 14.52zM857.91 519.33L894 542.81q5.25-8.09 10-16.54l-37.66-20.9q-4 7.14-8.43 13.96z"/><path class="cls-4" d="M518.26 576l-26.53 33.9q9.48 7.43 19.62 14.05l23.47-36.11q-8.56-5.58-16.56-11.84z"/><path class="cls-5" d="M437.59 456.3l-41.41 11.85q3.35 11.66 7.65 22.89L444 475.63q-3.6-9.48-6.41-19.33z"/><path class="cls-4" d="M433.65 440.48l-42.13 8.94q2 9.48 4.66 18.73l41.41-11.85q-2.25-7.8-3.94-15.82z"/><path class="cls-6" d="M444 475.63L403.83 491q3.46 9 7.56 17.77l39-18.18c-2.26-4.88-4.39-9.88-6.39-14.96zM459.84 508.69l-37.3 21.51q4.84 8.37 10.23 16.37l35.71-24.06q-4.56-6.75-8.64-13.82z"/><path class="cls-6" d="M450.42 490.63l-39 18.18q5.1 10.95 11.15 21.39l37.3-21.51q-5.11-8.8-9.45-18.06z"/><path class="cls-5" d="M430.29 420.39l-42.74 5.23c1 8 2.31 16 4 23.8l42.13-8.94q-2.13-9.91-3.39-20.09z"/><path class="cls-8" d="M428.77 383.78l-43-1.53q-.45 12.17.16 24.13l43-2.23q-.53-10.09-.16-20.37z"/><path class="cls-3" d="M430 367.08l-42.81-4.53c-.74 7-1.14 13.1-1.38 19.48l43 1.41c.19-5.39.51-10.44 1.19-16.36z"/><path class="cls-6" d="M428.91 404.15l-43 2.23q.5 9.69 1.65 19.24l42.74-5.23q-.99-8.05-1.39-16.24z"/><path class="cls-4" d="M468.48 522.51l-35.71 24.06q6.75 10 14.33 19.4l33.48-27.08c-4.27-5.27-8.3-10.75-12.1-16.38zM567 605.34l-17.54 39.34q8.79 3.92 17.9 7.23l14.75-40.46q-7.68-2.8-15.11-6.11z"/><path class="cls-6" d="M582.13 611.45l-14.75 40.46q11.26 4.1 23 7.25l11.17-41.59q-9.9-2.64-19.42-6.12z"/><path class="cls-3" d="M601.56 617.57l-11.17 41.59q9.27 2.48 18.82 4.32l8.23-42.26q-8.04-1.56-15.88-3.65z"/><path class="cls-6" d="M548.78 596.25l-20.9 37.66q10.51 5.83 21.6 10.77L567 605.34q-9.34-4.15-18.22-9.09z"/><path class="cls-5" d="M534.82 587.84L511.35 624q8.07 5.25 16.53 10l20.9-37.66q-7.14-4.05-13.96-8.5z"/><path class="cls-6" d="M491.27 551.2l-31.51 29.35q8.22 8.82 17.2 16.92l28.83-32q-7.57-6.81-14.52-14.27z"/><path class="cls-5" d="M480.58 538.89L447.1 566q6.07 7.51 12.66 14.58l31.51-29.35q-5.56-6-10.69-12.34z"/><path class="cls-6" d="M617.35 621.21l-8.28 42.26a283.73 283.73 0 0 0 23.82 3.57l4.52-42.82c-6.96-.73-13.41-1.73-20.06-3.01z"/><path class="cls-4" d="M505.79 565.48l-28.83 32q7.16 6.45 14.77 12.43L518.26 576q-6.43-5.06-12.47-10.52z"/><path class="cls-3" d="M593.73 213.64L578.52 174q-7.62 2.94-15 6.38l17.94 38.51q6.03-2.89 12.27-5.25z"/><path class="cls-5" d="M609.54 208.36l-11.69-40.84q-9.85 2.82-19.33 6.48l15.21 39.67q7.75-3 15.81-5.31z"/><path class="cls-3" d="M581.46 218.86l-17.94-38.51q-9.24 4.32-18.06 9.42l21.22 36.8q7.22-4.17 14.78-7.71z"/><path class="cls-8" d="M555.38 233.64l-23.74-35.23q-8.45 5.7-16.38 12.1l26.71 33q6.48-5.21 13.41-9.87z"/><path class="cls-6" d="M566.68 226.57l-21.22-36.8q-7.07 4.08-13.82 8.64l23.74 35.23q5.52-3.73 11.3-7.07zM622.48 205.14l-8.81-41.56q-8 1.69-15.82 3.94l11.69 40.84q6.39-1.83 12.94-3.22z"/><path class="cls-3" d="M698.56 204.55l8.08-41.7c-6.61-1.28-13.23-2.29-20.19-3L682 202.06c6 .63 11.15 1.44 16.56 2.49z"/><path class="cls-6" d="M668.87 201.15l1.5-42.45q-10.26-.37-20.37.14l2.21 42.42q8.25-.42 16.66-.11z"/><path class="cls-3" d="M638.92 202.4l-5.16-42.17c-6.78.82-13.48 2-20.09 3.35l8.81 41.56c5.41-1.14 10.89-2.07 16.44-2.74z"/><path class="cls-6" d="M652.21 201.26L650 158.84c-5.45.28-10.87.73-16.24 1.39l5.16 42.17c4.39-.54 8.82-.91 13.29-1.14z"/><path class="cls-5" d="M482.61 326.61l-39.91-14.55q-3.46 9.53-6.12 19.43l41 11c1.47-5.39 3.15-10.69 5.03-15.88z"/><path class="cls-3" d="M495.05 299.33l-37.15-20.62q-4.9 8.88-9.09 18.29l38.8 17.3q3.39-7.7 7.44-14.97z"/><path class="cls-3" d="M487.61 314.25L448.81 297q-3.3 7.41-6.11 15.11l39.91 14.55q2.3-6.35 5-12.41zM477.61 342.51l-41-11q-2.08 7.83-3.65 15.89l41.69 8.12q1.25-6.6 2.96-13.01z"/><path class="cls-4" d="M520.22 264.16l-31.55-28.44q-5.46 6-10.5 12.47l33.46 26.17q4.13-5.26 8.59-10.2zM542 243.53l-26.71-33q-6.35 5.13-12.31 10.69l29 31.08q4.81-4.56 10.02-8.77z"/><path class="cls-4" d="M531.91 252.28L503 221.2q-7.44 6.93-14.28 14.52l31.55 28.44q5.55-6.16 11.64-11.88z"/><path class="cls-6" d="M501.93 287.91l-35.62-23.16q-4.44 6.81-8.41 14l37.15 20.62q3.24-5.89 6.88-11.46z"/><path class="cls-3" d="M511.63 274.36l-33.46-26.17q-6.27 8-11.86 16.56l35.62 23.16q4.56-7.01 9.7-13.55zM727.54 212.55l14.55-39.92q-9.51-3.45-19.43-6.12l-11 41q8.09 2.19 15.88 5.04zM851.75 368.85l42.17-5.16c-.82-6.78-1.95-13.48-3.35-20.09L849 352.41c1.15 5.41 2.08 10.89 2.75 16.44z"/><path class="cls-5" d="M849 352.41l41.56-8.81q-1.7-8-3.94-15.82l-40.84 11.69q1.84 6.39 3.22 12.94z"/><path class="cls-4" d="M845.79 339.47l40.84-11.69q-2.82-9.82-6.45-19.32l-39.67 15.2q2.99 7.76 5.28 15.81zM835.29 311.39l38.51-17.93q-4.32-9.25-9.42-18.07l-36.8 21.22q4.17 7.22 7.71 14.78z"/><path class="cls-3" d="M840.51 323.66l39.67-15.2q-2.94-7.63-6.38-15l-38.51 17.93q2.82 6.03 5.22 12.27z"/><path class="cls-4" d="M474.65 355.28L433 347c-1.28 6.61-2.39 14.07-3 20l42.25 4.46c.47-4.9 1.35-10.77 2.4-16.18zM852.12 411.66l42.24 4.46c.52-5 .92-10.65 1.11-16L853 398.47c-.12 4.41-.46 9.21-.88 13.19z"/><path class="cls-6" d="M852.89 382.14l42.42-2.21q-.4-8.18-1.39-16.24l-42.17 5.16c.54 4.39.91 8.82 1.14 13.29z"/><path class="cls-6" d="M853 398.8l42.45 1.5q.38-10.26-.14-20.37l-42.42 2.21q.42 8.25.11 16.66z"/><path class="cls-3" d="M711.64 207.54l11-41q-7.83-2.08-15.89-3.65l-8.12 41.69c4.37.83 8.75 1.82 13.01 2.96zM766.24 231.86l23.16-35.62q-6.81-4.44-14-8.41L754.82 225q5.85 3.22 11.42 6.86z"/><path class="cls-6" d="M779.79 241.57L806 208.11q-8-6.27-16.56-11.87l-23.16 35.62c4.63 3.04 9.15 6.29 13.51 9.71z"/><path class="cls-5" d="M754.82 225l20.62-37.15q-8.88-4.92-18.24-9.09l-17.3 38.8q7.65 3.39 14.92 7.44z"/><path class="cls-6" d="M739.9 217.54l17.3-38.8q-7.41-3.3-15.11-6.11l-14.55 39.92q6.3 2.28 12.36 4.99z"/><path class="cls-3" d="M810.62 271.9l33-26.71q-5.13-6.33-10.69-12.3l-31.08 28.95q4.57 4.87 8.77 10.06z"/><path class="cls-4" d="M827.58 296.61l36.8-21.22q-4.08-7-8.64-13.82l-35.22 23.74q3.72 5.52 7.06 11.3z"/><path class="cls-6" d="M820.52 285.31l35.22-23.74q-5.7-8.44-12.1-16.38l-33 26.71q5.22 6.48 9.88 13.41zM801.87 261.84L833 232.89q-6.93-7.45-14.52-14.29L790 250.15q6.19 5.6 11.87 11.69z"/><path class="cls-4" d="M790 250.15l28.44-31.55q-6-5.46-12.47-10.49l-26.17 33.46q5.26 4.11 10.2 8.58z"/><path class="cls-3" d="M682 202.06l4.46-42.24c-5-.52-10.78-.93-16.17-1.13l-1.55 42.44c4.4.16 9.26.51 13.26.93z"/><path class="cls-6" d="M730.49 570.44l15.21 39.67c5.08-2 10.08-4.09 15-6.38l-17.93-38.51q-6.04 2.78-12.28 5.22z"/><path class="cls-4" d="M742.76 565.22l17.93 38.51q9.25-4.32 18.07-9.42l-21.22-36.8q-7.21 4.17-14.78 7.71z"/><path class="cls-3" d="M757.54 557.51l21.22 36.8q7.07-4.08 13.82-8.64l-23.74-35.22q-5.52 3.72-11.3 7.06z"/><path class="cls-4" d="M768.84 550.45l23.74 35.22Q801 580 809 573.57l-26.71-33q-6.52 5.22-13.45 9.88z"/><path class="cls-3" d="M714.68 575.72l11.69 40.85q9.82-2.82 19.33-6.46l-15.21-39.67q-7.75 2.98-15.81 5.28zM685.3 581.69l5.16 42.17q10.17-1.25 20.09-3.36l-8.81-41.56q-8.11 1.73-16.44 2.75z"/><path class="cls-6" d="M655.35 582.93l-1.5 42.45q10.26.38 20.37-.14L672 582.82q-8.24.42-16.65.11zM701.74 578.94l8.81 41.56q8-1.69 15.82-3.93l-11.69-40.85q-6.39 1.83-12.94 3.22z"/><path class="cls-6" d="M672 582.82l2.21 42.42q8.17-.4 16.24-1.38l-5.16-42.17q-6.58.8-13.29 1.13z"/><path class="cls-4" d="M782.25 540.55l26.71 33q6.35-5.12 12.31-10.69l-29-31.07q-4.83 4.57-10.02 8.76z"/><path class="cls-5" d="M836.61 469.84l38.8 17.3q3.3-7.42 6.11-15.12l-39.91-14.55q-2.29 6.3-5 12.37z"/><path class="cls-3" d="M792.31 531.81l29 31.07q7.44-6.93 14.28-14.52L804 519.93q-5.59 6.2-11.69 11.88z"/><path class="cls-9" d="M841.61 457.47L881.52 472q3.47-9.51 6.12-19.43l-41-11c-1.47 5.43-3.15 10.71-5.03 15.9z"/><path class="cls-3" d="M641.87 582l-4.46 42.24c5 .53 11 1 16.35 1.15l1.45-42.45c-4.41-.18-9.36-.54-13.34-.94z"/><path class="cls-4" d="M852.12 411.66c-.63 6-1.45 11.29-2.5 16.7l41.7 8c1.28-6.61 2.3-13.29 3-20.25z"/><path class="cls-3" d="M846.61 441.58l41 11q2.08-7.83 3.65-15.88l-41.69-8.13q-1.24 6.6-2.96 13.01zM812.58 509.72l33.47 26.17q6.27-8 11.86-16.56l-35.62-23.15c-3.04 4.67-6.29 9.18-9.71 13.54z"/><path class="cls-4" d="M829.17 484.75l37.15 20.62q4.93-8.88 9.09-18.23l-38.8-17.3q-3.4 7.65-7.44 14.91z"/><path class="cls-3" d="M804 519.93l31.55 28.43q5.46-6 10.5-12.47l-33.47-26.17q-4.11 5.28-8.58 10.21z"/><path class="cls-5" d="M822.29 496.18l35.62 23.15q4.44-6.81 8.41-14l-37.15-20.62q-3.24 5.89-6.88 11.47z"/><path class="cls-6" d="M569.4 559.1l-20.62 37.15q8.88 4.93 18.24 9.09l17.29-38.8q-7.63-3.4-14.91-7.44zM483.71 460.42L444 475.63c1.95 5.08 4.09 10.08 6.38 15l38.51-17.94q-2.78-6.03-5.18-12.27z"/><path class="cls-3" d="M488.93 472.69l-38.51 17.94q4.32 9.24 9.42 18.06l36.8-21.22q-4.17-7.21-7.71-14.78z"/><path class="cls-6" d="M503.7 498.77l-35.22 23.74c3.8 5.63 7.83 11.11 12.1 16.38l33-26.71q-5.21-6.48-9.88-13.41zM478.43 444.61l-40.84 11.69q2.81 9.84 6.45 19.33l39.67-15.21q-2.98-7.75-5.28-15.81z"/><path class="cls-4" d="M513.6 512.18l-33 26.71q5.13 6.35 10.69 12.31l31.08-29q-4.56-4.84-8.77-10.02z"/><path class="cls-3" d="M496.64 487.47l-36.8 21.22q4.08 7.06 8.64 13.82l35.22-23.74q-3.7-5.52-7.06-11.3z"/><path class="cls-4" d="M471.22 385.28l-42.45-1.5q-.37 10.26.14 20.37l42.42-2.2q-.42-8.26-.11-16.67z"/><path class="cls-3" d="M475.21 431.67l-41.56 8.81q1.69 8 3.94 15.82l40.84-11.69q-1.83-6.39-3.22-12.94z"/><path class="cls-6" d="M625.48 579.52l-8.17 41.68c6.61 1.28 13.14 2.29 20.1 3l4.46-42.2c-5.97-.65-10.98-1.43-16.39-2.48z"/><path class="cls-3" d="M472.46 415.23l-42.17 5.16q1.24 10.17 3.36 20.09l41.56-8.81q-1.72-8.12-2.75-16.44z"/><path class="cls-6" d="M471.33 402l-42.42 2.2q.4 8.19 1.38 16.24l42.17-5.16q-.79-6.63-1.13-13.28z"/><path class="cls-3" d="M584.31 566.54L567 605.34q7.41 3.31 15.11 6.11l14.55-39.91q-6.28-2.29-12.35-5z"/><path class="cls-4" d="M596.68 571.54l-14.55 39.91q9.51 3.46 19.43 6.12l11-41c-5.39-1.47-10.69-3.15-15.88-5.03z"/><path class="cls-6" d="M522.35 522.25l-31.08 29q6.93 7.45 14.52 14.28l28.43-31.55c-4.12-3.78-8.09-7.67-11.87-11.73z"/><path class="cls-5" d="M472.2 371.54l-42.2-4.46c-.63 6-1 11.08-1.16 16.48l42.41 1.44c.16-4.46.42-8.49.95-13.46z"/><path class="cls-6" d="M612.57 576.54l-11 41q7.83 2.1 15.88 3.65l8.13-41.69q-6.58-1.25-13.01-2.96z"/><path class="cls-4" d="M534.22 533.93l-28.43 31.55q6 5.46 12.47 10.5l26.17-33.46q-5.26-4.12-10.21-8.59zM558 552.22l-23.15 35.62q6.81 4.44 14 8.41l20.55-37.15q-5.85-3.24-11.4-6.88z"/><path class="cls-5" d="M544.43 542.52L518.26 576q8 6.27 16.56 11.86L558 552.22q-7-4.56-13.57-9.7z"/><path class="cls-4" d="M624.17 259.47l-14.63-51.11q-8 2.31-15.81 5.28l19 49.64q5.63-2.14 11.44-3.81z"/><path class="cls-3" d="M575.4 284.86L542 243.53q-5.18 4.2-10.06 8.75l36.22 38.89q3.5-3.28 7.24-6.31z"/><path class="cls-6" d="M612.76 263.28l-19-49.64q-6.24 2.4-12.27 5.22l22.44 48.19q4.32-2.05 8.83-3.77z"/><path class="cls-3" d="M593.23 272.61l-26.55-46q-5.77 3.33-11.3 7.07l29.69 44.07q3.99-2.75 8.16-5.14z"/><path class="cls-4" d="M603.9 267.05l-22.44-48.19q-7.58 3.54-14.78 7.71l26.55 46q5.21-2.96 10.67-5.52z"/><path class="cls-6" d="M667 254.26l1.88-53.11q-8.4-.32-16.66.11l2.78 53.09c3.94-.21 8-.23 12-.09z"/><path class="cls-4" d="M633.51 257.15l-11-52q-6.56 1.4-12.94 3.22l14.63 51.11c3.04-.89 6.16-1.67 9.31-2.33z"/><path class="cls-3" d="M655 254.35l-2.75-53.09c-4.47.23-8.9.6-13.29 1.14l6.45 52.77q4.72-.58 9.59-.82z"/><path class="cls-6" d="M645.37 255.17l-6.45-52.77c-5.55.67-11 1.6-16.44 2.74l11 52c3.93-.82 7.89-1.49 11.89-1.97z"/><path class="cls-3" d="M585.07 277.71l-29.69-44.07q-6.92 4.65-13.41 9.89l33.43 41.33c3.12-2.53 6.35-4.86 9.67-7.15zM536.16 335.89l-48.55-21.64q-2.7 6.06-5 12.36l49.95 18.21q1.65-4.54 3.6-8.93zM528.94 356.29l-51.33-13.78q-1.71 6.4-3 13l52.17 10.17c.63-3.18 1.34-6.31 2.16-9.39z"/><path class="cls-4" d="M532.56 344.82l-49.95-18.21c-1.88 5.19-3.56 10.49-5 15.9l51.33 13.78q1.58-5.85 3.62-11.47z"/><path class="cls-6" d="M526.81 365.45l-52.15-10.28c-1.05 5.41-1.94 11.39-2.46 16.37l52.85 5.58c.42-3.98 1.01-7.77 1.76-11.67zM676.41 254.92l5.59-52.86c-4-.42-8.8-.76-13.21-.92l-1.93 53.11c3.14.12 6.56.35 9.55.67z"/><path class="cls-3" d="M546.5 316.88l-44.57-29q-3.63 5.56-6.88 11.42l46.48 25.8q2.36-4.2 4.97-8.22z"/><path class="cls-4" d="M553.5 307.1l-41.87-32.74q-5.13 6.54-9.7 13.55l44.57 29c2.19-3.4 4.5-6.66 7-9.81z"/><path class="cls-6" d="M559.7 299.74l-39.48-35.58q-4.47 4.93-8.59 10.2l41.87 32.74q2.99-3.8 6.2-7.36zM541.53 325.13l-46.48-25.8q-4 7.26-7.44 14.92l48.55 21.64q2.46-5.52 5.37-10.76z"/><path class="cls-3" d="M568.13 291.17l-36.22-38.89q-6.1 5.67-11.69 11.88l39.48 35.58q4.03-4.47 8.43-8.57zM799.8 384.89l53.09-2.75c-.23-4.47-.6-8.9-1.14-13.29L799 375.3q.56 4.76.8 9.59zM787.1 333.83l48.19-22.44q-3.54-7.56-7.71-14.78l-46 26.56q2.96 5.19 5.52 10.66zM781.54 323.17l46-26.56q-3.33-5.78-7.06-11.3L776.44 315c1.79 2.66 3.49 5.39 5.1 8.17zM790.87 342.69l49.64-19q-2.4-6.24-5.22-12.27l-48.19 22.41q2.04 4.35 3.77 8.86z"/><path class="cls-6" d="M776.44 315l44.08-29.7q-4.66-6.92-9.9-13.41l-41.33 33.43q3.8 4.68 7.15 9.68z"/><path class="cls-5" d="M769.29 305.33l41.33-33.43q-4.2-5.17-8.75-10.06L763 298.07q3.26 3.53 6.29 7.26z"/><path class="cls-6" d="M799 375.3l52.76-6.45c-.67-5.55-1.6-11-2.74-16.44l-52 11q1.23 5.88 1.98 11.89z"/><path class="cls-4" d="M799.89 396.92L853 398.8q.32-8.4-.11-16.66l-53.09 2.75c.2 3.98.2 7.99.09 12.03zM794.68 354.1l51.11-14.63q-2.31-8-5.28-15.81l-49.64 19q2.13 5.63 3.81 11.44zM797 363.44l52-11q-1.39-6.54-3.22-12.94l-51.1 14.6c.88 3.07 1.66 6.19 2.32 9.34z"/><path class="cls-6" d="M709.33 262.49l18.21-49.94q-7.78-2.84-15.9-5l-13.78 51.34q5.85 1.55 11.47 3.6z"/><path class="cls-3" d="M729 271.46L754.82 225q-7.26-4-14.92-7.44l-21.64 48.54q5.52 2.46 10.74 5.36z"/><path class="cls-4" d="M718.26 266.1l21.64-48.56q-6.06-2.7-12.36-5l-18.21 49.94q4.55 1.66 8.93 3.62z"/><path class="cls-3" d="M688.39 256.71l10.12-52.17c-5.4-1-10.56-1.85-16.52-2.48l-5.58 52.86c3.97.42 8.08 1.08 11.98 1.79zM697.86 258.88l13.78-51.34c-4.26-1.14-8.6-2.13-13-3l-10.17 52.17c3.18.63 6.31 1.34 9.39 2.17z"/><path class="cls-6" d="M763 298.07l38.89-36.23q-5.67-6.1-11.88-11.69l-35.58 39.48q4.45 4.03 8.57 8.44zM754.41 289.63L790 250.15q-4.93-4.46-10.2-8.58l-32.74 41.87q3.79 2.97 7.35 6.19zM525.05 377.12l-52.85-5.58c-.53 5-.8 9.11-1 13.52l53.13 1.77c.15-3.18.3-5.73.72-9.71zM747.05 283.44l32.74-41.87c-4.36-3.42-8.88-6.67-13.55-9.71l-29 44.57q5.09 3.3 9.81 7.01z"/><path class="cls-3" d="M737.27 276.43l29-44.57q-5.57-3.63-11.42-6.88L729 271.46q4.25 2.35 8.27 4.97z"/><path class="cls-4" d="M748.82 499.23l33.43 41.32q5.18-4.2 10.06-8.74l-36.23-38.89q-3.52 3.27-7.26 6.31z"/><path class="cls-6" d="M731 511.47l26.56 46q5.78-3.33 11.3-7.06l-29.7-44.08c-2.67 1.83-5.4 3.53-8.16 5.14z"/><path class="cls-3" d="M711.46 520.8l19 49.64q6.24-2.4 12.27-5.22L720.32 517q-4.32 2.07-8.86 3.8zM756.08 492.92l36.23 38.89q6.11-5.68 11.69-11.88l-39.48-35.59c-2.69 2.98-5.52 5.85-8.44 8.58zM739.14 506.37l29.7 44.08q6.92-4.66 13.41-9.9l-33.43-41.32q-4.68 3.77-9.68 7.14z"/><path class="cls-5" d="M720.32 517l22.44 48.19q7.57-3.53 14.78-7.71l-26.56-46q-5.19 2.99-10.66 5.52zM678.85 528.92l6.45 52.77q8.33-1 16.44-2.75l-11-52c-3.93.82-7.89 1.49-11.89 1.98z"/><path class="cls-3" d="M700.05 524.61l14.63 51.11q8-2.31 15.81-5.28l-19-49.64c-3.76 1.44-7.57 2.7-11.44 3.81z"/><path class="cls-6" d="M669.26 529.74l2.74 53.08q6.71-.33 13.29-1.13l-6.45-52.77q-4.75.57-9.58.82zM524.33 387.16l-53.11-1.88q-.32 8.4.11 16.67l53.08-2.76c-.2-3.97-.22-7.99-.08-12.03z"/><path class="cls-3" d="M777.72 467.2l44.57 29q3.63-5.58 6.88-11.43L782.69 459q-2.35 4.17-4.97 8.2z"/><path class="cls-6" d="M797.45 418.19l52.18 10.06c1-5.41 1.86-10.63 2.49-16.59l-52.86-5.58c-.52 4.97-1.05 8.21-1.81 12.11z"/><path class="cls-3" d="M795.27 427.79l51.34 13.79q1.71-6.4 3-13l-52.17-10.17c-.63 3.17-1.34 6.3-2.17 9.38z"/><path class="cls-6" d="M791.66 439.27l50 18.2c1.88-5.19 3.56-10.49 5-15.89l-51.34-13.79q-1.61 5.85-3.66 11.48z"/><path class="cls-4" d="M799.91 396.7c-.12 3.18-.33 6.39-.65 9.38l52.86 5.58c.42-4 .76-8.78.92-13.19z"/><path class="cls-3" d="M764.52 484.34L804 519.93q4.47-4.95 8.58-10.21L770.71 477q-2.97 3.78-6.19 7.34z"/><path class="cls-6" d="M657.23 529.82l-1.88 53.11q8.4.32 16.66-.11l-2.75-53.08q-5.97.26-12.03.08z"/><path class="cls-3" d="M770.71 477l41.87 32.74c3.42-4.36 6.67-8.87 9.71-13.54l-44.57-29c-2.19 3.37-4.54 6.63-7.01 9.8z"/><path class="cls-6" d="M788.05 448.19l48.56 21.65q2.7-6.07 5-12.37l-50-18.2q-1.61 4.55-3.56 8.92z"/><path class="cls-3" d="M782.69 459l46.48 25.79q4-7.26 7.44-14.91l-48.56-21.65q-2.46 5.48-5.36 10.77z"/><path class="cls-6" d="M690.71 526.94l11 52q6.56-1.38 12.94-3.22l-14.63-51.11c-3.02.88-6.16 1.66-9.31 2.33zM554.92 478.75l-41.32 33.43q4.2 5.19 8.75 10.07L561.23 486q-3.23-3.5-6.31-7.25zM542.68 460.92l-46 26.55q3.33 5.77 7.06 11.3l44.08-29.69q-2.72-3.99-5.14-8.16z"/><path class="cls-3" d="M547.78 469.08l-44.08 29.69q4.67 6.92 9.9 13.41l41.32-33.43q-3.78-4.68-7.14-9.67zM533.35 441.4l-49.64 19q2.4 6.24 5.22 12.27l48.19-22.44q-2.04-4.33-3.77-8.83z"/><path class="cls-5" d="M537.12 450.25l-48.19 22.44q3.54 7.57 7.71 14.78l46-26.55q-2.96-5.2-5.52-10.67z"/><path class="cls-6" d="M525.23 408.78l-52.77 6.45q1 8.32 2.75 16.44l52-11q-1.21-5.88-1.98-11.89z"/><path class="cls-6" d="M524.41 399.19L471.33 402q.35 6.69 1.13 13.28l52.77-6.45q-.57-4.83-.82-9.64zM527.22 420.64l-52 11q1.4 6.56 3.22 12.94l51.1-14.58c-.88-3.09-1.66-6.2-2.32-9.36z"/><path class="cls-4" d="M529.54 430l-51.11 14.62q2.31 8 5.28 15.81l49.64-19q-2.15-5.64-3.81-11.43zM561.23 486l-38.88 36.23c3.78 4.06 7.75 8 11.87 11.68l35.59-39.48c-2.98-2.67-5.81-5.43-8.58-8.43z"/><path class="cls-6" d="M626.36 525.21l-13.79 51.33q6.4 1.73 13 3l10.17-52.17q-4.74-.93-9.38-2.16zM614.88 521.59l-18.2 49.95c5.19 1.88 10.49 3.56 15.89 5l13.79-51.33q-5.85-1.57-11.48-3.62z"/><path class="cls-5" d="M606 518l-21.65 48.55q6.08 2.7 12.37 5l18.2-49.95q-4.57-1.66-8.92-3.6z"/><path class="cls-6" d="M635.65 527.35l-10.22 52.16c5.41 1 10.47 1.84 16.44 2.47l5.58-52.85c-3.98-.42-7.9-1.02-11.8-1.78z"/><path class="cls-3" d="M647.45 529.13L641.87 582c4 .42 9 .78 13.39.95l1.83-53.13c-3.18-.13-6.66-.38-9.64-.69z"/><path class="cls-5" d="M577.17 500.65l-32.74 41.87q6.54 5.13 13.54 9.7l29-44.57q-5.07-3.28-9.8-7z"/><path class="cls-4" d="M595.2 512.62l-25.8 46.48q7.26 4 14.91 7.44L606 518q-5.56-2.47-10.8-5.38zM569.81 494.45l-35.59 39.48q4.95 4.47 10.21 8.59l32.74-41.87q-3.79-2.97-7.36-6.2z"/><path class="cls-5" d="M587 507.65l-29 44.57q5.58 3.63 11.43 6.88l25.8-46.48q-4.23-2.34-8.23-4.97z"/><path class="cls-7" d="M638.72 281.71l-5.21-24.56c-3.15.66-6.27 1.44-9.34 2.32l6.91 24.14q3.77-1.08 7.64-1.9z"/><path class="cls-8" d="M631.08 283.61l-6.91-24.14q-5.8 1.66-11.41 3.81l9 23.45q4.57-1.73 9.32-3.12z"/><path class="cls-9" d="M614.5 289.81l-10.6-22.76q-5.46 2.55-10.67 5.56l12.55 21.75q4.22-2.46 8.72-4.55z"/><path class="cls-7" d="M621.74 286.73l-9-23.45q-4.51 1.74-8.86 3.77l10.6 22.76c2.39-1.11 4.81-2.14 7.26-3.08zM673.77 279.89l2.64-25c-3-.32-6.33-.55-9.51-.67l-.9 25.12c2.57.1 4.79.23 7.77.55z"/><path class="cls-5" d="M605.78 294.36l-12.55-21.75q-4.17 2.42-8.16 5.1l14 20.82c2.21-1.46 4.43-2.85 6.71-4.17z"/><path class="cls-9" d="M683.59 281.36l4.76-24.65c-3.91-.76-8-1.37-11.94-1.79l-2.64 25c2.98.28 6.63.82 9.82 1.44z"/><path class="cls-5" d="M666.1 279.36l.89-25.1c-4-.14-8-.12-12 .09l1.3 25.07q4.85-.24 9.81-.06z"/><path class="cls-8" d="M648.42 280.09l-3-24.92c-4 .48-8 1.15-11.86 2l5.21 24.56c3.14-.73 6.37-1.24 9.65-1.64z"/><path class="cls-5" d="M656.26 279.42L655 254.35q-4.83.24-9.59.82l3 24.92c2.59-.31 5.22-.53 7.85-.67zM559.1 346.12l-22.94-10.23q-1.95 4.38-3.6 8.93l23.59 8.6c.9-2.48 1.85-4.91 2.95-7.3z"/><path class="cls-7" d="M567.55 330.57l-21-13.69q-2.62 4-5 8.25l22 12.18q1.86-3.45 4-6.74z"/><path class="cls-9" d="M563.49 337.31l-22-12.18q-2.91 5.24-5.37 10.76l22.94 10.23q2.05-4.51 4.43-8.81z"/><path class="cls-8" d="M599.1 298.53l-14-20.82c-3.32 2.25-6.55 4.62-9.67 7.15l15.79 19.52c2.52-2.07 5.16-4.01 7.88-5.85z"/><path class="cls-7" d="M556.15 353.42l-23.59-8.6q-2 5.61-3.62 11.47l24.26 6.51q1.27-4.8 2.95-9.38zM585.25 309.54l-17.12-18.37q-4.39 4.09-8.43 8.57l18.65 16.81q3.3-3.66 6.9-7.01zM573.28 322.57L553.5 307.1c-2.46 3.15-4.81 6.41-7 9.78l21 13.69q2.75-4.14 5.78-8z"/><path class="cls-9" d="M591.19 304.38l-15.79-19.52q-3.74 3-7.27 6.31l17.12 18.37q2.88-2.68 5.94-5.16z"/><path class="cls-8" d="M578.35 316.55l-18.65-16.81q-3.23 3.57-6.2 7.36l19.78 15.47c1.62-2.07 3.31-4.07 5.07-6.02z"/><path class="cls-9" d="M723.58 297.49l13.69-21.06q-4-2.62-8.25-5l-12.18 22q3.45 1.91 6.74 4.06zM772.44 368.65l24.56-5.21c-.66-3.15-1.44-6.27-2.32-9.34l-24.14 6.9q1.08 3.78 1.9 7.65z"/><path class="cls-7" d="M770.54 361l24.14-6.91q-1.66-5.81-3.81-11.41l-23.45 9q1.76 4.58 3.12 9.32z"/><path class="cls-9" d="M774.06 378.35L799 375.3q-.74-6-2-11.86l-24.56 5.21c.67 3.19 1.22 6.43 1.62 9.7zM764.34 344.43l22.76-10.6q-2.55-5.46-5.56-10.66l-21.75 12.54q2.46 4.29 4.55 8.72z"/><path class="cls-8" d="M767.42 351.68l23.45-9q-1.73-4.5-3.77-8.86l-22.76 10.6c1.11 2.39 2.14 4.8 3.08 7.26z"/><path class="cls-9" d="M774.73 386.19l25.07-1.3q-.24-4.83-.81-9.59l-24.93 3.05c.31 2.59.53 5.21.67 7.84z"/><path class="cls-7" d="M774.29 403.44l25 2.64c.32-3 .53-6.2.65-9.38l-25.08-1c-.12 2.6-.36 5.75-.57 7.74z"/><path class="cls-5" d="M772.81 413.39l24.65 4.69c.76-3.9 1.28-7 1.8-12l-25-2.64c-.39 3.98-.83 6.76-1.45 9.95z"/><path class="cls-7" d="M759.79 335.71l21.75-12.54c-1.61-2.78-3.31-5.51-5.1-8.16l-20.82 14c1.46 2.2 2.86 4.43 4.17 6.7z"/><path class="cls-8" d="M774.79 396l25.1.89c.14-4 .12-8.05-.09-12l-25.07 1.3c.16 3.26.19 6.54.06 9.81zM737.6 308.28l16.81-18.65q-3.57-3.22-7.36-6.19l-15.47 19.77q3.11 2.44 6.02 5.07z"/><path class="cls-7" d="M708 289l10.23-22.93q-4.38-2-8.93-3.61l-8.6 23.59q3.75 1.4 7.3 2.95z"/><path class="cls-5" d="M553.2 362.8l-24.26-6.51q-1.23 4.62-2.15 9.38l24.64 4.8a113.9 113.9 0 0 1 1.77-7.67z"/><path class="cls-9" d="M716.84 293.42l12.18-22q-5.24-2.91-10.76-5.36L708 289q4.55 2 8.84 4.42z"/><path class="cls-8" d="M700.73 286.08l8.6-23.59q-5.61-2-11.47-3.61l-6.51 24.25q4.79 1.28 9.38 2.95z"/><path class="cls-9" d="M755.62 329l20.82-14q-3.36-5-7.15-9.68l-19.52 15.79c2.07 2.56 4.01 5.21 5.85 7.89z"/><path class="cls-7" d="M744.61 315.18L763 298.07q-4.1-4.41-8.57-8.44l-16.83 18.65q3.66 3.3 7.01 6.9z"/><path class="cls-9" d="M749.77 321.12l19.52-15.79q-3-3.74-6.31-7.26l-18.37 17.11q2.69 2.88 5.16 5.94z"/><path class="cls-7" d="M691.35 283.13l6.51-24.25c-3.08-.83-6.21-1.54-9.38-2.16l-4.8 24.65c2.59.5 5.15 1.08 7.67 1.76z"/><path class="cls-9" d="M731.58 303.21l15.47-19.77q-4.72-3.7-9.78-7l-13.69 21.06c2.76 1.78 5.42 3.7 8 5.71z"/><path class="cls-7" d="M632.87 501l-6.51 24.26q4.62 1.23 9.38 2.15l4.8-24.64c-2.54-.56-5.15-1.14-7.67-1.77z"/><path class="cls-5" d="M702.47 497.35l9 23.45q4.5-1.72 8.86-3.77l-10.6-22.76c-2.39 1.11-4.8 2.14-7.26 3.08z"/><path class="cls-8" d="M733 479.71l15.79 19.52q3.73-3 7.26-6.31L739 474.55c-1.95 1.78-3.93 3.51-6 5.16z"/><path class="cls-7" d="M725.11 485.55l14 20.82q5-3.36 9.68-7.14L733 479.71q-3.79 3.09-7.89 5.84z"/><path class="cls-5" d="M693.14 500.47l6.91 24.14c3.87-1.11 7.68-2.37 11.41-3.81l-9-23.45q-4.56 1.75-9.32 3.12z"/><path class="cls-9" d="M718.44 489.72L731 511.47c2.78-1.61 5.51-3.31 8.16-5.1l-14-20.82c-2.22 1.45-4.45 2.86-6.72 4.17z"/><path class="cls-9" d="M709.72 494.27l10.6 22.73q5.46-2.55 10.66-5.56l-12.54-21.75q-4.26 2.49-8.72 4.58z"/><path class="cls-7" d="M668 504.66l1.3 25.08q4.83-.25 9.59-.82L675.8 504c-2.59.3-5.21.53-7.8.66z"/><path class="cls-8" d="M685.5 502.37l5.21 24.57c3.15-.67 6.27-1.45 9.34-2.33l-6.91-24.14q-3.76 1.08-7.64 1.9z"/><path class="cls-7" d="M658.12 504.73l-.89 25.09q6.06.23 12-.08L668 504.66c-3.29.16-6.58.19-9.88.07z"/><path class="cls-9" d="M675.8 504l3.05 24.93c4-.49 8-1.16 11.86-2l-5.21-24.57c-3.19.69-6.43 1.23-9.7 1.64zM765.12 438l22.93 10.23q2-4.38 3.61-8.92l-23.59-8.6c-.9 2.43-1.89 4.87-2.95 7.29z"/><path class="cls-7" d="M772.78 413.61c-.5 2.59-1.08 5.15-1.76 7.67l24.25 6.51c.83-3.08 1.54-6.21 2.16-9.38z"/><path class="cls-8" d="M768.07 430.67l23.59 8.6q2-5.62 3.61-11.48L771 421.28q-1.26 4.79-2.93 9.39z"/><path class="cls-9" d="M551.46 370.25l-24.63-4.91c-.76 3.9-1.36 7.8-1.78 11.78l25 2.64c.29-2.99.79-6.32 1.41-9.51z"/><path class="cls-8" d="M650.09 504.16l-2.64 25c3 .31 6.51.56 9.69.68l.84-25.1c-2.6-.12-4.91-.27-7.89-.58z"/><path class="cls-7" d="M739 474.55l17.11 18.37c2.94-2.73 5.75-5.6 8.44-8.58l-18.65-16.81q-3.33 3.66-6.9 7.02z"/><path class="cls-9" d="M760.73 446.77l22 12.19q2.91-5.25 5.36-10.77L765.12 438q-2.01 4.48-4.39 8.77z"/><path class="cls-8" d="M745.87 467.53l18.65 16.81q3.22-3.57 6.19-7.36l-19.77-15.47c-1.62 2.07-3.32 4.08-5.07 6.02z"/><path class="cls-9" d="M750.94 461.51L770.71 477c2.47-3.15 4.82-6.41 7-9.78l-21.05-13.69c-1.79 2.74-3.66 5.4-5.72 7.98z"/><path class="cls-7" d="M756.67 453.51l21.05 13.69q2.63-4 5-8.24l-22-12.19c-1.27 2.3-2.63 4.55-4.05 6.74z"/><path class="cls-9" d="M586.62 475.8l-16.81 18.65q3.57 3.23 7.36 6.2l15.47-19.78q-3.1-2.43-6.02-5.07zM556.8 432.41l-23.45 9q1.73 4.5 3.77 8.85l22.76-10.6c-1.11-2.38-2.14-4.8-3.08-7.25z"/><path class="cls-8" d="M553.68 423.07L529.54 430q1.66 5.81 3.81 11.42l23.45-9q-1.8-4.6-3.12-9.35z"/><path class="cls-7" d="M559.88 439.65l-22.76 10.6q2.55 5.46 5.56 10.67l21.75-12.55q-2.43-4.24-4.55-8.72z"/><path class="cls-7" d="M564.43 448.37l-21.75 12.55q2.42 4.17 5.1 8.16l20.82-14c-1.47-2.21-2.86-4.43-4.17-6.71z"/><path class="cls-8" d="M551.78 415.44l-24.56 5.2a131.3 131.3 0 0 0 2.32 9.34l24.14-6.91c-.68-2.51-1.35-5.07-1.9-7.63z"/><path class="cls-9" d="M640.45 502.71l-4.85 24.64c3.9.75 7.87 1.36 11.85 1.78l2.64-25c-2.99-.29-6.45-.81-9.64-1.42zM549.42 388.05l-25.09-.89c-.14 4-.12 8.06.08 12l25.08-1.3c-.16-3.22-.19-6.5-.07-9.81z"/><path class="cls-8" d="M550.16 405.73l-24.93 3q.74 6 2 11.86l24.56-5.2c-.68-3.15-1.23-6.39-1.63-9.66z"/><path class="cls-9" d="M549.49 397.89l-25.08 1.3q.26 4.83.82 9.59l24.93-3c-.31-2.64-.54-5.26-.67-7.89z"/><path class="cls-7" d="M550 379.76l-25-2.64c-.42 4-.58 6.64-.69 9.82l25.1.78c.14-2.61.3-4.98.59-7.96zM616.19 495.05L606 518q4.38 1.95 8.92 3.6l8.6-23.59c-2.52-.91-4.95-1.9-7.33-2.96z"/><path class="cls-8" d="M607.38 490.66l-12.19 22q5.25 2.91 10.77 5.37l10.23-22.94q-4.52-2.09-8.81-4.43z"/><path class="cls-5" d="M600.64 486.6l-13.69 21q4 2.63 8.24 5l12.19-22q-3.45-1.86-6.74-4z"/><path class="cls-9" d="M623.48 498l-8.6 23.59q5.63 2 11.48 3.62l6.51-24.21q-4.79-1.32-9.39-3z"/><path class="cls-7" d="M568.6 455.05l-20.82 14q3.36 5 7.14 9.67L574.44 463q-3.09-3.86-5.84-7.95z"/><path class="cls-8" d="M579.61 468.9L561.23 486c2.73 2.93 5.6 5.74 8.58 8.43l16.81-18.65q-3.62-3.28-7.01-6.88z"/><path class="cls-9" d="M592.64 480.87l-15.47 19.78q4.73 3.71 9.78 7l13.69-21q-4.14-2.75-8-5.78z"/><path class="cls-5" d="M574.44 463l-19.52 15.79q3 3.75 6.31 7.27l18.38-17.12c-1.79-1.94-3.52-3.94-5.17-5.94z"/><path class="cls-7" d="M625 312.36l-10.5-22.55q-4.47 2.08-8.72 4.55l12.42 21.54c2.21-1.27 4.48-2.46 6.8-3.54z"/><path class="cls-7" d="M618.2 315.9l-12.42-21.54c-2.28 1.32-4.5 2.71-6.68 4.17l13.9 20.62c1.69-1.15 3.43-2.22 5.2-3.25z"/><path class="cls-5" d="M613 319.15l-13.9-20.62a112.86 112.86 0 0 0-7.91 5.85l15.64 19.33q2.99-2.41 6.17-4.56z"/><path class="cls-9" d="M630.65 310l-8.91-23.23c-2.45.94-4.87 2-7.24 3.08l10.5 22.51q2.78-1.3 5.65-2.36zM643.87 306l-5.15-24.33q-3.87.82-7.64 1.9l6.84 23.92c1.96-.49 3.95-1.02 5.95-1.49z"/><path class="cls-7" d="M657.55 304.26l-1.29-24.84c-2.63.14-5.25.36-7.84.67l3 24.69c2.04-.24 4.08-.42 6.13-.52z"/><path class="cls-9" d="M665.22 304.21l.88-24.85q-5-.18-9.84.06l1.29 24.84c2.54-.13 5.09-.15 7.67-.05zM651.44 304.78l-3-24.69c-3.28.4-6.51 1-9.7 1.62l5.13 24.29c2.49-.48 5.02-.91 7.57-1.22z"/><path class="cls-5" d="M637.92 307.53l-6.84-23.92q-4.76 1.36-9.34 3.12l8.91 23.27q3.57-1.42 7.27-2.47z"/><path class="cls-9" d="M671.16 304.62l2.61-24.73c-3-.32-5.16-.45-7.76-.54l-.93 24.84c2.03.08 4.09.22 6.08.43zM585.24 349.38l-21.75-12.07q-2.38 4.29-4.39 8.81l22.72 10.13q1.56-3.52 3.42-6.87z"/><path class="cls-8" d="M606.83 323.71l-15.64-19.33q-3.06 2.47-5.94 5.16l17 18.19q2.2-2.08 4.58-4.02z"/><path class="cls-7" d="M579.52 361.93l-23.37-8.51q-1.67 4.59-2.95 9.38l24 6.45q1.01-3.73 2.32-7.32z"/><path class="cls-9" d="M577.21 369.25l-24-6.45a113.9 113.9 0 0 0-1.77 7.67l24.41 4.76c.38-2.02.84-4.02 1.36-5.98z"/><path class="cls-7" d="M581.82 356.25l-22.72-10.13c-1.06 2.39-2.05 4.82-3 7.3l23.37 8.51q1.1-2.93 2.35-5.68zM596.82 333.2l-18.47-16.65a119.98 119.98 0 0 0-5.07 6l19.59 15.32c1.26-1.59 2.58-3.16 3.95-4.67z"/><path class="cls-5" d="M602.2 327.73l-17-18.19q-3.6 3.34-6.9 7l18.47 16.65c1.77-1.89 3.56-3.72 5.43-5.46zM588.41 344.13l-20.86-13.56q-2.14 3.29-4.06 6.74l21.75 12.07c1-1.79 2.05-3.54 3.17-5.25z"/><path class="cls-4" d="M592.87 337.89l-19.59-15.32q-3 3.87-5.73 8l20.86 13.56c1.39-2.13 2.89-4.23 4.46-6.24z"/><path class="cls-9" d="M735 342.93L755.62 329c-1.84-2.72-3.78-5.37-5.85-7.92l-19.33 15.64q2.41 3.03 4.56 6.21z"/><path class="cls-8" d="M749.37 381.37l24.69-3c-.4-3.27-.95-6.51-1.62-9.7l-24.33 5.16c.52 2.47.95 4.99 1.26 7.54z"/><path class="cls-9" d="M748.11 373.81l24.33-5.16q-.83-3.87-1.9-7.64l-23.91 6.84q.84 2.94 1.48 5.96zM744.2 360.58l23.22-8.9c-.94-2.46-2-4.87-3.08-7.25l-22.55 10.5q1.31 2.77 2.41 5.65z"/><path class="cls-8" d="M741.79 354.93l22.55-10.5q-2.08-4.47-4.55-8.72l-21.54 12.42q1.92 3.31 3.54 6.8z"/><path class="cls-9" d="M749.89 387.48l24.84-1.29c-.14-2.63-.36-5.25-.67-7.84l-24.69 3q.38 3.05.52 6.13z"/><path class="cls-5" d="M749.56 400.83l24.73 2.61c.21-2 .43-5 .53-7.63l-24.84-1a84.83 84.83 0 0 1-.42 6.02z"/><path class="cls-9" d="M738.25 348.13l21.54-12.42c-1.31-2.27-2.71-4.5-4.17-6.67L735 342.93q1.71 2.55 3.25 5.2zM678.83 305.76l4.71-24.41c-3.19-.62-6.79-1.15-9.77-1.46l-2.61 24.73c2.98.31 5.18.66 7.67 1.14z"/><path class="cls-5" d="M749.94 395.15l24.85.88c.13-3.3.1-6.58-.06-9.84l-24.84 1.29q.2 3.81.05 7.67z"/><path class="cls-7" d="M575.86 375l-24.39-4.87c-.62 3.19-1.13 6.63-1.45 9.62l24.73 2.61c.25-1.98.63-4.87 1.11-7.36z"/><path class="cls-9" d="M692.22 309.45l8.51-23.37q-4.59-1.66-9.38-2.95l-6.45 24q3.74 1.01 7.32 2.32zM704.77 315.17l12.07-21.75Q712.55 291 708 289l-10.1 22.75a87.85 87.85 0 0 1 6.87 3.42z"/><path class="cls-8" d="M730.44 336.76l19.33-15.64q-2.47-3.06-5.16-5.94l-18.19 16.95c1.39 1.5 2.74 3.04 4.02 4.63zM684.9 307.15l6.45-24c-2.52-.68-5.08-1.26-7.67-1.76l-4.76 24.4c2.02.38 4.02.83 5.98 1.36z"/><path class="cls-9" d="M697.9 311.75L708 289q-3.59-1.59-7.3-2.95l-8.51 23.37q2.93 1.08 5.71 2.33z"/><path class="cls-8" d="M721 326.75l16.65-18.47q-2.91-2.62-6-5.07l-15.39 19.59c1.61 1.27 3.18 2.58 4.74 3.95z"/><path class="cls-8" d="M726.42 332.13l18.19-16.95q-3.35-3.6-7-6.9L721 326.75c1.85 1.72 3.68 3.51 5.42 5.38z"/><path class="cls-9" d="M710 318.34l13.56-20.85q-3.29-2.14-6.74-4.07l-12.07 21.75c1.81 1 3.56 2.05 5.25 3.17zM716.26 322.8l15.32-19.59c-2.58-2-5.24-3.93-8-5.72L710 318.34q3.24 2.1 6.26 4.46z"/><path class="cls-6" d="M746.63 367.85l23.91-6.85q-1.37-4.75-3.12-9.33l-23.22 8.9c.91 2.43 1.72 4.82 2.43 7.28z"/><path class="cls-9" d="M717.39 460.37L733 479.71c2-1.65 4-3.38 5.94-5.16l-17-18.2a59.043 59.043 0 0 1-4.55 4.02z"/><path class="cls-5" d="M699.22 471.73l10.5 22.54q4.47-2.08 8.72-4.55L706 468.18q-3.29 1.92-6.78 3.55z"/><path class="cls-9" d="M693.57 474.13l8.9 23.22c2.46-.94 4.87-2 7.25-3.08l-10.5-22.54q-2.77 1.27-5.65 2.4z"/><path class="cls-5" d="M706 468.18l12.42 21.54c2.27-1.31 4.5-2.7 6.67-4.17l-13.89-20.62a75.829 75.829 0 0 1-5.2 3.25z"/><path class="cls-8" d="M711.22 464.93l13.89 20.62q4.1-2.76 7.92-5.84l-15.64-19.34q-2.98 2.42-6.17 4.56z"/><path class="cls-7" d="M686.3 476.56l6.84 23.91q4.75-1.37 9.33-3.12l-8.9-23.22q-3.57 1.37-7.27 2.43z"/><path class="cls-9" d="M666.67 479.82l1.33 24.84c2.63-.13 5.25-.36 7.84-.67l-3-24.69q-3.09.38-6.17.52z"/><path class="cls-5" d="M680.34 478l5.16 24.33q3.87-.83 7.64-1.9l-6.84-23.91q-2.94.88-5.96 1.48z"/><path class="cls-9" d="M652.7 479.43l-2.61 24.73c3 .31 5.33.46 7.94.56l.83-24.86c-2.03-.07-4.17-.22-6.16-.43z"/><path class="cls-5" d="M672.78 479.3l3 24.69c3.27-.4 6.51-.94 9.7-1.62L680.34 478c-2.48.57-5.01 1-7.56 1.3z"/><path class="cls-9" d="M659 479.88l-.88 24.85c3.3.12 6.59.09 9.84-.07l-1.29-24.84c-2.54.18-5.09.18-7.67.06z"/><path class="cls-5" d="M722 456.35l17 18.2q3.6-3.36 6.9-7l-18.5-16.66a86.887 86.887 0 0 1-5.4 5.46z"/><path class="cls-9" d="M747 414.83l24 6.45c.68-2.52 1.26-5.08 1.76-7.67l-24.4-4.76q-.56 3.05-1.36 5.98z"/><path class="cls-8" d="M749.56 400.83c-.31 3-.68 5.31-1.16 7.8l24.42 4.65c.62-3.19 1-5.86 1.47-9.84z"/><path class="cls-7" d="M742.4 427.84L765.12 438c1.06-2.38 2-4.82 3-7.29l-23.37-8.52q-1.1 2.81-2.35 5.65z"/><path class="cls-9" d="M744.7 422.15l23.37 8.52q1.66-4.6 2.95-9.39l-24-6.45q-1.02 3.74-2.32 7.32z"/><path class="cls-8" d="M731.35 446.19l19.59 15.32c2-2.58 3.93-5.24 5.73-8L735.81 440c-1.4 2.11-2.89 4.18-4.46 6.19zM739 434.7l21.75 12.07q2.37-4.29 4.39-8.81l-22.74-10.12q-1.56 3.51-3.4 6.86z"/><path class="cls-5" d="M727.4 450.89l18.47 16.64c1.75-1.94 3.45-3.95 5.07-6l-19.59-15.32c-1.27 1.59-2.58 3.16-3.95 4.68zM735.81 440l20.86 13.55c1.42-2.19 2.78-4.44 4.06-6.74L739 434.7c-1 1.79-2.07 3.55-3.19 5.3z"/><path class="cls-8" d="M577.59 416.23l-23.91 6.84q1.37 4.76 3.12 9.34l23.22-8.9q-1.36-3.57-2.43-7.28z"/><path class="cls-7" d="M574.75 382.37L550 379.76c-.31 3-.48 5.47-.57 8.07l24.86.77c.09-2.03.14-3.25.46-6.23zM582.42 429.15l-22.54 10.5q2.08 4.47 4.55 8.72L586 436q-1.95-3.36-3.58-6.85z"/><path class="cls-9" d="M580 423.51l-23.22 8.9c.94 2.45 2 4.87 3.08 7.24l22.54-10.5q-1.27-2.77-2.4-5.64zM586 436l-21.54 12.42c1.31 2.28 2.7 4.5 4.17 6.68l20.62-13.9A93.856 93.856 0 0 1 586 436zM574.85 402.71l-24.69 3c.4 3.28 1 6.51 1.62 9.71l24.33-5.16q-.79-3.71-1.26-7.55z"/><path class="cls-7" d="M574.33 396.6l-24.84 1.29c.13 2.63.36 5.25.67 7.84l24.69-3q-.37-3.05-.52-6.13z"/><path class="cls-9" d="M576.11 410.28l-24.33 5.16c.55 2.57 1.18 5.12 1.9 7.63l23.91-6.84q-.84-2.94-1.48-5.95zM574.27 388.93l-24.85-.88c-.12 3.31-.09 6.59.07 9.84l24.84-1.29q-.19-3.8-.06-7.67z"/><path class="cls-7" d="M589.22 441.15l-20.62 13.9q2.76 4.08 5.84 7.91l19.34-15.64q-2.41-2.98-4.56-6.17z"/><path class="cls-8" d="M632 474.63L623.48 498q4.6 1.67 9.39 2.95l6.45-24q-3.73-1.02-7.32-2.32z"/><path class="cls-7" d="M619.45 468.91l-12.07 21.75q4.29 2.38 8.81 4.39l10.12-22.72q-3.51-1.56-6.86-3.42z"/><path class="cls-9" d="M645.21 478.3l-4.81 24.4c3.2.62 6.7 1.14 9.69 1.46l2.61-24.73c-2.99-.32-5.01-.65-7.49-1.13z"/><path class="cls-7" d="M626.31 472.33l-10.12 22.72c2.38 1.06 4.82 2.05 7.29 2.95l8.52-23.37q-2.89-1.05-5.69-2.3zM593.78 447.32L574.44 463c1.65 2 3.38 4 5.17 5.94L597.8 452c-1.39-1.55-2.74-3.09-4.02-4.68z"/><path class="cls-9" d="M639.32 476.94l-6.45 24c2.52.68 5.08 1.26 7.67 1.77l4.76-24.41c-2.02-.38-4.02-.84-5.98-1.36zM608 461.28l-15.32 19.59q3.87 3 8 5.73l13.55-20.85c-2.18-1.4-4.23-2.9-6.23-4.47z"/><path class="cls-9" d="M614.19 465.75l-13.55 20.85q3.29 2.14 6.74 4.06l12.07-21.75a87.15 87.15 0 0 1-5.26-3.16z"/><path class="cls-7" d="M603.27 457.33l-16.65 18.47q2.91 2.64 6 5.07L608 461.28a79.731 79.731 0 0 1-4.73-3.95z"/><path class="cls-3" d="M597.8 452l-18.19 16.9q3.35 3.6 7 6.9l16.65-18.47c-1.89-1.72-3.72-3.51-5.46-5.33z"/></g></svg>