<svg xmlns="http://www.w3.org/2000/svg" viewBox="0 0 1046.46 354"><defs><style>.cls-1{fill:#8ca4cc;}.cls-2{fill:#d5e2ee;}.cls-3{fill:#fff;}.cls-4{fill:#4c679c;}.cls-5{fill:#f0c62f;}.cls-6{fill:#fcff3c;}.cls-7{fill:#db7b24;}.cls-8{fill:#3b67a0;}.cls-9{fill:#f77c10;}</style></defs><title>Tekengebied 1 kopie</title><g id="Laag_3" data-name="Laag 3"><path class="cls-1" d="M121.42,77.51l-7.28-19q-4.27,1.65-8.4,3.57l8.59,18.46C116.65,79.44,119,78.43,121.42,77.51Z"/><path class="cls-1" d="M138,72.6l-4.22-19.91q-4.49.95-8.86,2.2l5.6,19.57Q134.26,73.4,138,72.6Z"/><path class="cls-2" d="M130.55,74.46,125,54.89q-5.51,1.57-10.81,3.61l7.28,19Q125.91,75.79,130.55,74.46Z"/><path class="cls-1" d="M114.33,80.53l-8.59-18.46c-3.45,1.62-6.83,3.38-10.11,5.28L105.79,85Q110,82.57,114.33,80.53Z"/><path class="cls-3" d="M105.79,85,95.63,67.35q-4,2.28-7.74,4.83L99.26,89.06C101.39,87.63,103.57,86.26,105.79,85Z"/><path class="cls-4" d="M147.53,71l-2.47-20.2q-5.7.69-11.25,1.88L138,72.6C141.16,71.94,144.32,71.4,147.53,71Z"/><path class="cls-4" d="M164.83,70.29,165.55,50q-5.75-.21-11.4.08l1.06,20.33C158.39,70.2,161.6,70.17,164.83,70.29Z"/><path class="cls-3" d="M182,72.25l3.87-20c-3.7-.72-7.54-1.3-11.3-1.7l-2.14,20.24C175.72,71.17,178.87,71.65,182,72.25Z"/><path class="cls-3" d="M155.21,70.36,154.15,50c-3.05.16-6.09.41-9.09.78L147.53,71C150.07,70.7,152.63,70.49,155.21,70.36Z"/><path class="cls-4" d="M172.43,70.82l2.14-20.24c-2.82-.3-6-.52-9.06-.63l-.74,20.33C167.32,70.38,170.08,70.57,172.43,70.82Z"/><path class="cls-2" d="M64.41,127l-17.8-9.88q-2.76,5-5.09,10.21l18.59,8.29Q62.08,131.22,64.41,127Z"/><path class="cls-4" d="M60.11,135.64l-18.59-8.29q-1.86,4.16-3.42,8.46l19.12,7C58.1,140.35,59.07,138,60.11,135.64Z"/><path class="cls-2" d="M68.38,120.42l-17.07-11.1q-2.48,3.83-4.7,7.82L64.41,127Q66.29,123.65,68.38,120.42Z"/><path class="cls-4" d="M57.22,142.78l-19.12-7q-1.93,5.33-3.43,10.88L54.33,152Q55.58,147.28,57.22,142.78Z"/><path class="cls-2" d="M79,106.7,63.83,93.07q-3.06,3.39-5.87,7l16,12.54C75.57,110.57,77.23,108.6,79,106.7Z"/><path class="cls-2" d="M85.7,99.83,71.83,84.94q-4.17,3.89-8,8.13L79,106.7Q82.17,103.12,85.7,99.83Z"/><path class="cls-4" d="M74,112.59,58,100.05q-3.51,4.49-6.65,9.27l17.07,11.1Q71,116.37,74,112.59Z"/><path class="cls-1" d="M91.52,94.78,78.72,79q-3.56,2.87-6.89,6L85.7,99.83Q88.52,97.21,91.52,94.78Z"/><path class="cls-4" d="M99.26,89.06,87.89,72.18c-3.15,2.13-6.22,4.39-9.17,6.78l12.8,15.82C94,92.76,96.6,90.86,99.26,89.06Z"/><path class="cls-2" d="M261,134l18.45-8.6c-1.61-3.45-3.38-6.82-5.28-10.11l-17.63,10.17Q258.95,129.6,261,134Z"/><path class="cls-3" d="M267.05,150.21l19.57-5.6Q285,139.1,283,133.79l-19,7.29Q265.72,145.55,267.05,150.21Z"/><path class="cls-2" d="M189.55,74l5.28-19.65q-4.38-1.17-8.9-2l-3.89,20Q185.85,73,189.55,74Z"/><path class="cls-3" d="M264,141.08l19-7.29c-1.09-2.85-2.29-5.65-3.57-8.4L261,134C262.07,136.31,263.08,138.67,264,141.08Z"/><path class="cls-3" d="M54.33,152l-19.66-5.27q-1.17,4.38-2,8.89l20,3.89C53.1,156.93,53.67,154.43,54.33,152Z"/><path class="cls-2" d="M271.16,174.86l20.32-1.05q-.23-4.59-.77-9.1l-20.21,2.47Q271,171,271.16,174.86Z"/><path class="cls-2" d="M271.22,184.49l20.34.72c.14-3.83.11-7.64-.08-11.4l-20.32,1.05Q271.4,179.63,271.22,184.49Z"/><path class="cls-4" d="M270.71,192l20.23,2.14c.3-2.82.52-6,.63-9l-20.33-.78C271.15,186.88,271,189.61,270.71,192Z"/><path class="cls-3" d="M256.53,125.45l17.63-10.17q-2.28-3.94-4.83-7.74l-16.88,11.38Q254.61,122.1,256.53,125.45Z"/><path class="cls-1" d="M270.5,167.18l20.21-2.47q-.7-5.69-1.88-11.25l-19.92,4.23C269.58,160.81,270.11,164,270.5,167.18Z"/><path class="cls-4" d="M268.91,157.69l19.92-4.23c-.64-3-1.37-5.94-2.21-8.85l-19.57,5.6Q268.12,153.9,268.91,157.69Z"/><path class="cls-5" d="M205.88,79.76l8.28-18.59q-4.14-1.85-8.46-3.42l-7,19.13Q202.38,78.2,205.88,79.76Z"/><path class="cls-4" d="M221.1,88,232.19,71q-3.81-2.49-7.82-4.71l-9.88,17.8Q217.88,85.94,221.1,88Z"/><path class="cls-4" d="M214.49,84.06l9.88-17.8q-5-2.76-10.21-5.09l-8.28,18.59C208.82,81.08,211.7,82.51,214.49,84.06Z"/><path class="cls-1" d="M252.45,118.92l16.88-11.38c-2.13-3.15-4.38-6.21-6.78-9.17l-15.82,12.8Q249.76,114.92,252.45,118.92Z"/><path class="cls-4" d="M198.73,76.88l7-19.13c-3.55-1.29-7.17-2.44-10.87-3.42L189.55,74Q194.23,75.24,198.73,76.88Z"/><path class="cls-4" d="M228.92,93.64l12.54-16Q237,74.1,232.19,71L221.1,88C223.79,89.79,226.4,91.67,228.92,93.64Z"/><path class="cls-2" d="M241.68,105.36l14.89-13.88q-3.88-4.17-8.13-8L234.82,98.6C237.2,100.76,239.5,103,241.68,105.36Z"/><path class="cls-2" d="M246.73,111.17l15.82-12.8q-2.87-3.54-6-6.89l-14.89,13.88C243.43,107.24,245.12,109.18,246.73,111.17Z"/><path class="cls-3" d="M234.82,98.6l13.62-15.11q-3.37-3.06-7-5.88l-12.54,16C231,95.23,232.91,96.88,234.82,98.6Z"/><path class="cls-4" d="M269.26,201.59l20,3.84c.71-3.7,1.25-7.1,1.69-11.33L270.71,192C270.36,195.25,269.87,198.47,269.26,201.59Z"/><path class="cls-1" d="M207.53,280.64l8.59,18.45q5.17-2.41,10.11-5.27l-10.17-17.63Q211.9,278.59,207.53,280.64Z"/><path class="cls-1" d="M200.44,283.66l7.28,19q4.28-1.65,8.4-3.58l-8.59-18.45C205.2,281.73,202.84,282.73,200.44,283.66Z"/><path class="cls-1" d="M191.3,286.71l5.6,19.57q5.5-1.57,10.82-3.61l-7.28-19Q196,285.39,191.3,286.71Z"/><path class="cls-4" d="M222.6,272.11,234,289c3.15-2.12,6.22-4.38,9.17-6.77l-12.8-15.82C227.85,268.41,225.26,270.31,222.6,272.11Z"/><path class="cls-5" d="M216.06,276.19l10.17,17.63q4-2.28,7.74-4.84L222.6,272.11Q219.41,274.26,216.06,276.19Z"/><path class="cls-3" d="M230.34,266.39l12.8,15.82q3.56-2.86,6.89-6l-13.87-14.89Q233.34,264,230.34,266.39Z"/><path class="cls-1" d="M166.65,290.81l1.06,20.33c3-.16,6.08-.41,9.09-.78l-2.47-20.2Q170.52,290.61,166.65,290.81Z"/><path class="cls-3" d="M183.83,288.57l4.22,19.91c3-.63,5.94-1.37,8.85-2.2l-5.6-19.57Q187.61,287.76,183.83,288.57Z"/><path class="cls-1" d="M157,290.88l-.72,20.33c3.83.14,7.64.12,11.41-.07l-1.06-20.33Q161.88,291.05,157,290.88Z"/><path class="cls-6" d="M174.33,290.16l2.47,20.2q5.7-.69,11.25-1.88l-4.22-19.91C180.7,289.23,177.53,289.77,174.33,290.16Z"/><path class="cls-4" d="M242.91,254.47,258,268.1q3-3.39,5.87-7l-16-12.54C246.28,250.6,244.63,252.57,242.91,254.47Z"/><path class="cls-4" d="M264.64,218.39l19.12,7q1.94-5.33,3.43-10.88l-19.66-5.28Q266.28,213.9,264.64,218.39Z"/><path class="cls-1" d="M261.75,225.53l18.59,8.29c1.23-2.77,2.38-5.59,3.42-8.46l-19.12-7Q263.31,222,261.75,225.53Z"/><path class="cls-1" d="M269.25,201.7c-.49,2.53-1.06,5-1.72,7.5l19.66,5.28c.78-2.92,1.46-5.89,2-8.89Z"/><path class="cls-2" d="M52.62,159.37l-20-4c-.72,3.7-1.3,7.47-1.69,11.23l20.24,2.13C51.49,166,52,162.49,52.62,159.37Z"/><path class="cls-1" d="M257.45,234.15l17.8,9.88q2.76-5,5.09-10.21l-18.59-8.29Q259.78,230,257.45,234.15Z"/><path class="cls-4" d="M149.25,290.33l-2.13,20.24c2.82.3,6.12.53,9.14.64l.7-20.34C154.41,290.78,151.6,290.58,149.25,290.33Z"/><path class="cls-1" d="M247.87,248.58l16,12.54q3.51-4.49,6.64-9.27l-17.06-11.1Q250.84,244.8,247.87,248.58Z"/><path class="cls-4" d="M236.16,261.34,250,276.23c2.78-2.59,5.45-5.31,8-8.13l-15.12-13.63C240.76,256.86,238.5,259.15,236.16,261.34Z"/><path class="cls-4" d="M253.48,240.75l17.06,11.1Q273,248,275.25,244l-17.8-9.88Q255.58,237.53,253.48,240.75Z"/><path class="cls-2" d="M92.93,267.52l-12.53,16q4.47,3.51,9.27,6.64l11.09-17.07C98.06,271.38,95.46,269.5,92.93,267.52Z"/><path class="cls-3" d="M54.8,211l-19.57,5.6q1.59,5.5,3.62,10.82l19-7.29Q56.14,215.61,54.8,211Z"/><path class="cls-2" d="M52.94,203.48,33,207.7c.63,3,1.37,5.94,2.2,8.86L54.8,211C54.1,208.5,53.48,206,52.94,203.48Z"/><path class="cls-4" d="M57.85,220.09l-19,7.29c1.09,2.84,2.29,5.64,3.57,8.39l18.45-8.59Q59.25,223.7,57.85,220.09Z"/><path class="cls-4" d="M65.32,235.72,47.69,245.89q2.3,3.95,4.84,7.73l16.88-11.37C68,240.12,66.61,238,65.32,235.72Z"/><path class="cls-4" d="M60.87,227.18l-18.45,8.59q2.41,5.19,5.27,10.12l17.63-10.17Q62.92,231.55,60.87,227.18Z"/><path class="cls-3" d="M51.36,194l-20.21,2.47c.46,3.8,1.1,7.55,1.88,11.25l19.91-4.22Q52,198.8,51.36,194Z"/><path class="cls-6" d="M50.64,176.68,30.3,176c-.14,3.83-.12,7.63.08,11.4l20.32-1.05Q50.46,181.53,50.64,176.68Z"/><path class="cls-1" d="M51.2,168.78,31,166.65c-.35,3.29-.54,6.18-.65,9.2l20.34.67C50.75,174,50.9,171.6,51.2,168.78Z"/><path class="cls-4" d="M50.7,186.31l-20.32,1.05q.23,4.59.77,9.09L51.36,194Q50.9,190.19,50.7,186.31Z"/><path class="cls-2" d="M69.41,242.25,52.53,253.62q3.19,4.74,6.77,9.18L75.13,250Q72.1,246.25,69.41,242.25Z"/><path class="cls-2" d="M116,281.4,107.69,300q4.16,1.85,8.46,3.42l7-19.13Q119.49,283,116,281.4Z"/><path class="cls-4" d="M123.12,284.29l-7,19.13q5.34,1.93,10.88,3.42l5.28-19.66Q127.63,285.94,123.12,284.29Z"/><path class="cls-1" d="M132.31,287.18,127,306.84c2.92.78,5.89,1.46,8.89,2l3.9-20Q136,288.18,132.31,287.18Z"/><path class="cls-4" d="M107.36,277.11l-9.87,17.8q5,2.76,10.2,5.09L116,281.4Q111.57,279.43,107.36,277.11Z"/><path class="cls-3" d="M100.76,273.13,89.67,290.2c2.54,1.65,5.15,3.23,7.82,4.71l9.87-17.8Q104,275.24,100.76,273.13Z"/><path class="cls-4" d="M80.18,255.81,65.29,269.68c2.58,2.79,5.3,5.45,8.13,8L87,262.56Q83.46,259.34,80.18,255.81Z"/><path class="cls-3" d="M75.13,250,59.3,262.8q2.88,3.54,6,6.88l14.89-13.87C78.43,253.93,76.74,252,75.13,250Z"/><path class="cls-4" d="M139.77,288.9l-3.91,20c3.7.71,7.5,1.29,11.26,1.69l2.13-20.24C146,290,142.9,289.51,139.77,288.9Z"/><path class="cls-2" d="M87,262.56,73.42,277.68q3.38,3.06,7,5.88l12.53-16C90.91,265.94,88.94,264.28,87,262.56Z"/><path class="cls-1" d="M128.61,96.26l-7.19-18.75c-2.4.92-4.77,1.93-7.09,3l8.48,18.2Q125.66,97.4,128.61,96.26Z"/><path class="cls-3" d="M136.08,93.76l-5.53-19.3q-4.64,1.33-9.13,3.05l7.19,18.75C131.05,95.32,133.55,94.49,136.08,93.76Z"/><path class="cls-1" d="M122.81,98.73l-8.48-18.2q-4.36,2-8.54,4.45l10,17.39C118.09,101.06,120.42,99.84,122.81,98.73Z"/><path class="cls-6" d="M110.48,105.71,99.26,89.06c-2.66,1.8-5.25,3.7-7.74,5.72l12.62,15.61C106.18,108.74,108.3,107.18,110.48,105.71Z"/><path class="cls-4" d="M115.82,102.37,105.79,85c-2.22,1.28-4.4,2.65-6.53,4.08l11.22,16.65C112.22,104.54,114,103.42,115.82,102.37Z"/><path class="cls-4" d="M142.2,92.24,138,72.6q-3.78.8-7.48,1.86l5.53,19.3Q139.1,92.91,142.2,92.24Z"/><path class="cls-1" d="M178.16,92,182,72.25c-3.13-.6-6.26-1.08-9.55-1.43l-2.11,20C173.15,91.08,175.6,91.47,178.16,92Z"/><path class="cls-4" d="M164.12,90.36l.71-20.07c-3.23-.12-6.44-.09-9.62.07l1,20C158.85,90.28,161.48,90.26,164.12,90.36Z"/><path class="cls-1" d="M150,90.94,147.53,71c-3.21.39-6.37.93-9.5,1.59l4.17,19.64C144.75,91.7,147.34,91.26,150,90.94Z"/><path class="cls-4" d="M156.25,90.41l-1-20c-2.58.13-5.14.34-7.68.65L150,90.94C152,90.69,154.14,90.52,156.25,90.41Z"/><path class="cls-3" d="M76.09,149.66l-18.87-6.88q-1.63,4.5-2.89,9.18l19.39,5.21C74.4,154.62,75.19,152.11,76.09,149.66Z"/><path class="cls-1" d="M82,136.76,64.41,127q-2.34,4.19-4.3,8.62l18.34,8.17Q80.05,140.2,82,136.76Z"/><path class="cls-1" d="M78.45,143.81l-18.34-8.17c-1,2.33-2,4.71-2.89,7.14l18.87,6.88Q77.17,146.67,78.45,143.81Z"/><path class="cls-1" d="M73.72,157.17,54.33,152c-.66,2.47-1.23,5-1.73,7.51l19.71,3.84Q72.91,160.21,73.72,157.17Z"/><path class="cls-2" d="M93.86,120.14,79,106.7c-1.72,1.9-3.38,3.87-5,5.89L89.8,125C91.1,123.3,92.46,121.69,93.86,120.14Z"/><path class="cls-2" d="M104.14,110.39,91.52,94.78q-3,2.43-5.82,5l13.69,14.69C100.92,113.09,102.51,111.71,104.14,110.39Z"/><path class="cls-2" d="M99.39,114.52,85.7,99.83q-3.53,3.28-6.75,6.87l14.91,13.44C95.62,118.19,97.46,116.31,99.39,114.52Z"/><path class="cls-4" d="M85.22,131.36,68.38,120.42q-2.1,3.22-4,6.6L82,136.76C83,134.92,84.07,133.12,85.22,131.36Z"/><path class="cls-1" d="M89.8,125,74,112.59q-3,3.78-5.61,7.83l16.84,10.94C86.65,129.16,88.19,127,89.8,125Z"/><path class="cls-1" d="M191.86,95.74l6.87-18.86q-4.5-1.63-9.18-2.9l-5.21,19.4C186.9,94.06,189.4,94.85,191.86,95.74Z"/><path class="cls-1" d="M250.57,169.62l19.93-2.44c-.39-3.2-.92-6.37-1.59-9.49l-19.64,4.16C249.81,164.41,250.25,167,250.57,169.62Z"/><path class="cls-3" d="M249.27,161.85l19.64-4.16q-.8-3.8-1.86-7.48l-19.3,5.53C248.33,157.75,248.83,159.79,249.27,161.85Z"/><path class="cls-2" d="M247.75,155.74l19.3-5.53q-1.32-4.65-3.05-9.13l-18.75,7.18Q246.66,151.94,247.75,155.74Z"/><path class="cls-2" d="M242.79,142.46,261,134q-2-4.38-4.46-8.54l-17.39,10Q241.11,138.89,242.79,142.46Z"/><path class="cls-1" d="M245.25,148.26,264,141.08c-.92-2.41-1.93-4.77-3-7.09l-18.2,8.47C243.67,144.36,244.5,146.3,245.25,148.26Z"/><path class="cls-2" d="M72.32,163.21l-19.7-3.89c-.6,3.12-1.13,6.64-1.42,9.46l20,2.11C71.41,168.54,71.83,165.76,72.32,163.21Z"/><path class="cls-2" d="M250.74,189.86l20,2.1c.24-2.35.43-5,.52-7.58l-20.06-.76C251.1,185.71,250.94,188,250.74,189.86Z"/><path class="cls-4" d="M251.1,175.9l20.06-1q-.2-3.87-.66-7.68l-19.93,2.44Q250.95,172.74,251.1,175.9Z"/><path class="cls-4" d="M251.16,183.78l20.06.71q.18-4.86-.06-9.63l-20.06,1C251.24,178.51,251.25,181.13,251.16,183.78Z"/><path class="cls-1" d="M184.34,93.38,189.55,74q-3.7-1-7.51-1.72L178.2,92C180.28,92.37,182.32,92.84,184.34,93.38Z"/><path class="cls-1" d="M210.15,104.87,221.1,88q-3.22-2.1-6.61-4l-9.74,17.56C206.59,102.64,208.39,103.73,210.15,104.87Z"/><path class="cls-4" d="M216.55,109.46l12.37-15.82c-2.52-2-5.13-3.85-7.82-5.6l-10.95,16.83Q213.47,107,216.55,109.46Z"/><path class="cls-3" d="M204.75,101.62l9.74-17.56c-2.79-1.55-5.67-3-8.61-4.3L197.7,98.1Q201.32,99.72,204.75,101.62Z"/><path class="cls-4" d="M197.7,98.1l8.18-18.34q-3.51-1.56-7.15-2.88l-6.87,18.86Q194.83,96.82,197.7,98.1Z"/><path class="cls-1" d="M231.12,123.8l15.61-12.63c-1.61-2-3.3-3.93-5-5.81L227,119Q229.14,121.35,231.12,123.8Z"/><path class="cls-2" d="M239.14,135.48l17.39-10q-1.92-3.35-4.08-6.53L235.8,130.13Q237.57,132.76,239.14,135.48Z"/><path class="cls-4" d="M235.8,130.13l16.65-11.21q-2.69-4-5.72-7.75L231.12,123.8C232.77,125.84,234.33,128,235.8,130.13Z"/><path class="cls-4" d="M227,119l14.69-13.68c-2.18-2.35-4.48-4.6-6.86-6.76l-13.44,14.92Q224.31,116.16,227,119Z"/><path class="cls-2" d="M221.38,113.52,234.82,98.6c-1.91-1.72-3.87-3.37-5.9-5l-12.37,15.82Q219,111.41,221.38,113.52Z"/><path class="cls-1" d="M170.32,90.79l2.11-20c-2.35-.25-5.09-.44-7.64-.53l-.73,20.06C166.14,90.42,168.44,90.59,170.32,90.79Z"/><path class="cls-4" d="M193.25,264.91l7.19,18.75c2.4-.93,4.76-1.93,7.09-3l-8.48-18.2Q196.2,263.77,193.25,264.91Z"/><path class="cls-2" d="M199.05,262.44l8.48,18.2q4.36-2,8.53-4.45L206,258.8C203.76,260.11,201.43,261.33,199.05,262.44Z"/><path class="cls-1" d="M206,258.8l10,17.39q3.34-1.94,6.54-4.08l-11.22-16.65C209.64,256.63,207.86,257.75,206,258.8Z"/><path class="cls-2" d="M211.38,255.46l11.22,16.65c2.66-1.8,5.25-3.7,7.74-5.72l-12.63-15.61Q214.65,253.26,211.38,255.46Z"/><path class="cls-1" d="M185.78,267.4l5.52,19.31q4.65-1.33,9.14-3l-7.19-18.75C190.81,265.85,188.31,266.68,185.78,267.4Z"/><path class="cls-1" d="M171.89,270.22l2.44,19.94c3.2-.39,6.37-.93,9.5-1.59l-4.17-19.64Q175.82,269.74,171.89,270.22Z"/><path class="cls-4" d="M157.73,270.81,157,290.88q4.86.17,9.63-.07l-1-20.05Q161.71,271,157.73,270.81Z"/><path class="cls-4" d="M179.66,268.93l4.17,19.64q3.78-.81,7.47-1.86l-5.52-19.31Q182.75,268.27,179.66,268.93Z"/><path class="cls-4" d="M165.61,270.76l1,20.05q3.87-.19,7.68-.65l-2.44-19.94C169.82,270.47,167.72,270.65,165.61,270.76Z"/><path class="cls-2" d="M217.71,250.78l12.63,15.61q3-2.43,5.82-5.05l-13.69-14.69C220.93,248.08,219.35,249.46,217.71,250.78Z"/><path class="cls-3" d="M243.41,217.36l18.34,8.17q1.56-3.51,2.89-7.14l-18.87-6.88Q244.69,214.48,243.41,217.36Z"/><path class="cls-1" d="M222.47,246.65l13.69,14.69c2.34-2.19,4.6-4.48,6.75-6.87L228,241C226.23,243,224.39,244.86,222.47,246.65Z"/><path class="cls-7" d="M245.77,211.51l18.87,6.88q1.64-4.5,2.89-9.19L248.14,204C247.45,206.55,246.66,209.06,245.77,211.51Z"/><path class="cls-1" d="M151.36,270.36l-2.11,20c2.35.25,5.18.45,7.73.54l.69-20.06C155.58,270.73,153.24,270.56,151.36,270.36Z"/><path class="cls-2" d="M250.74,189.86c-.3,2.82-.69,5.33-1.18,7.89l19.71,3.79c.61-3.13,1.09-6.29,1.44-9.58Z"/><path class="cls-1" d="M248.14,204l19.39,5.2c.66-2.46,1.23-5,1.72-7.5l-19.7-3.84Q249,201,248.14,204Z"/><path class="cls-1" d="M232.05,236.21l15.82,12.37q3-3.78,5.61-7.83l-16.84-10.94C235.2,232,233.67,234.15,232.05,236.21Z"/><path class="cls-2" d="M239.89,224.41l17.56,9.74q2.34-4.2,4.3-8.62l-18.34-8.17Q241.79,221,239.89,224.41Z"/><path class="cls-1" d="M228,241l14.91,13.44c1.72-1.9,3.37-3.87,5-5.89l-15.82-12.37C230.76,237.87,229.4,239.47,228,241Z"/><path class="cls-3" d="M236.64,229.81l16.84,10.94q2.1-3.23,4-6.6l-17.56-9.74Q238.36,227.17,236.64,229.81Z"/><path class="cls-4" d="M117.11,259.55l-9.75,17.56q4.2,2.33,8.62,4.29l8.18-18.34C121.75,262,119.39,260.82,117.11,259.55Z"/><path class="cls-4" d="M76.61,212.91l-18.76,7.18q1.4,3.61,3,7.09l18.2-8.47C78.19,216.8,77.36,214.87,76.61,212.91Z"/><path class="cls-1" d="M79.07,218.71l-18.2,8.47q2,4.38,4.45,8.54l17.4-10C81.4,223.42,80.19,221.09,79.07,218.71Z"/><path class="cls-4" d="M86.06,231,69.41,242.25q2.69,4,5.72,7.75l15.6-12.63C89.08,235.33,87.52,233.21,86.06,231Z"/><path class="cls-4" d="M74.11,205.43,54.8,211q1.34,4.65,3.05,9.13l18.76-7.18Q75.2,209.24,74.11,205.43Z"/><path class="cls-2" d="M90.73,237.37,75.13,250c1.61,2,3.3,3.93,5.05,5.81l14.69-13.68C93.43,240.59,92.06,239,90.73,237.37Z"/><path class="cls-1" d="M82.72,225.69l-17.4,10c1.29,2.23,2.65,4.4,4.09,6.53L86.06,231Q84.29,228.42,82.72,225.69Z"/><path class="cls-2" d="M70.7,177.39l-20.06-.71q-.18,4.84.06,9.63l20-1C70.62,182.66,70.6,180,70.7,177.39Z"/><path class="cls-1" d="M72.59,199.32l-19.65,4.16c.54,2.52,1.16,5,1.86,7.48l19.31-5.53Q73.24,202.41,72.59,199.32Z"/><path class="cls-4" d="M143.61,269.2l-3.86,19.7c3.13.61,6.21,1.08,9.5,1.43l2.11-20C148.54,270.07,146.17,269.69,143.61,269.2Z"/><path class="cls-1" d="M71.29,191.55,51.36,194q.59,4.82,1.58,9.5l19.65-4.16C72.05,196.76,71.61,194.17,71.29,191.55Z"/><path class="cls-4" d="M70.75,185.27l-20,1q.19,3.87.66,7.67l19.93-2.43Q70.92,188.43,70.75,185.27Z"/><path class="cls-1" d="M124.16,263.06,116,281.4q3.51,1.58,7.14,2.89L130,265.43C128,264.7,126.07,263.92,124.16,263.06Z"/><path class="cls-2" d="M130,265.43l-6.88,18.86q4.5,1.63,9.19,2.89l5.21-19.39Q133.68,266.77,130,265.43Z"/><path class="cls-4" d="M94.87,242.13,80.18,255.81q3.27,3.53,6.86,6.75l13.44-14.91C98.53,245.89,96.65,244.05,94.87,242.13Z"/><path class="cls-3" d="M71.16,170.89l-20-2.11c-.3,2.82-.46,5.24-.55,7.79l20.07.66C70.79,175.15,70.91,173.24,71.16,170.89Z"/><path class="cls-4" d="M137.52,267.79l-5.21,19.39q3.7,1,7.51,1.73l3.84-19.71Q140.54,268.6,137.52,267.79Z"/><path class="cls-2" d="M100.48,247.65,87,262.56c1.9,1.72,3.87,3.38,5.89,5l12.37-15.81Q102.83,249.76,100.48,247.65Z"/><path class="cls-2" d="M111.71,256.3l-10.95,16.83q3.22,2.1,6.6,4l9.75-17.56C115.27,258.53,113.46,257.44,111.71,256.3Z"/><path class="cls-3" d="M105.3,251.71,92.93,267.52c2.53,2,5.13,3.86,7.83,5.61l10.95-16.83C109.5,254.86,107.37,253.33,105.3,251.71Z"/><path class="cls-2" d="M143,117.92l-6.91-24.16c-2.53.73-5,1.56-7.47,2.5l9,23.46Q140.26,118.72,143,117.92Z"/><path class="cls-1" d="M119.94,129.92l-15.8-19.53c-1.63,1.32-3.22,2.7-4.75,4.13l17.12,18.38C117.62,131.87,118.77,130.87,119.94,129.92Z"/><path class="cls-4" d="M137.6,119.72l-9-23.46q-3,1.14-5.8,2.47l10.6,22.77C134.79,120.86,136.18,120.27,137.6,119.72Z"/><path class="cls-1" d="M128.37,124.13l-12.55-21.76c-1.82,1-3.6,2.17-5.34,3.34l14,20.83C125.77,125.7,127.06,124.89,128.37,124.13Z"/><path class="cls-2" d="M133.41,121.5l-10.6-22.77c-2.39,1.11-4.72,2.33-7,3.64l12.55,21.76Q130.83,122.72,133.41,121.5Z"/><path class="cls-4" d="M163.24,115.46l.88-25.1c-2.64-.1-5.27-.08-7.87,0l1.3,25.09C159.43,115.4,161.32,115.39,163.24,115.46Z"/><path class="cls-2" d="M147.41,116.82,142.2,92.24q-3.1.66-6.12,1.52L143,117.92C144.45,117.51,145.92,117.14,147.41,116.82Z"/><path class="cls-1" d="M157.55,115.5l-1.3-25.09c-2.11.11-4.21.28-6.28.53l3.05,25Q155.27,115.62,157.55,115.5Z"/><path class="cls-4" d="M153,115.89l-3.05-25c-2.63.32-5.22.76-7.77,1.3l5.21,24.58Q150.17,116.24,153,115.89Z"/><path class="cls-1" d="M124.52,126.54l-14-20.83c-2.18,1.47-4.3,3-6.34,4.68l15.8,19.53C121.42,128.73,122.94,127.6,124.52,126.54Z"/><path class="cls-1" d="M101.4,154l-23-10.23q-1.28,2.87-2.36,5.85l23.6,8.6C100.22,156.83,100.78,155.42,101.4,154Z"/><path class="cls-1" d="M98,163.69l-24.27-6.52q-.81,3-1.41,6.14L97,168.12C97.26,166.62,97.6,165.14,98,163.69Z"/><path class="cls-2" d="M99.69,158.26l-23.6-8.6c-.9,2.45-1.69,5-2.37,7.51L98,163.69Q98.73,160.92,99.69,158.26Z"/><path class="cls-4" d="M97,168l-24.65-4.85c-.5,2.55-.92,5.38-1.17,7.73l25,2.64C96.34,171.65,96.62,169.86,97,168Z"/><path class="cls-4" d="M167.69,115.77l2.63-25c-1.88-.2-4.15-.36-6.24-.44l-.91,25.1C164.68,115.51,166.28,115.62,167.69,115.77Z"/><path class="cls-1" d="M106.28,145.06l-21.06-13.7c-1.15,1.76-2.23,3.56-3.26,5.4l22,12.2C104.67,147.63,105.46,146.33,106.28,145.06Z"/><path class="cls-2" d="M109.59,140.44,89.8,125c-1.61,2.06-3.15,4.2-4.58,6.4l21.06,13.7C107.32,143.47,108.43,141.93,109.59,140.44Z"/><path class="cls-4" d="M112.52,137,93.86,120.14c-1.4,1.55-2.76,3.16-4.06,4.82l19.79,15.48Q111,138.64,112.52,137Z"/><path class="cls-4" d="M103.94,149l-22-12.2q-1.9,3.44-3.51,7.05l23,10.23C102.17,152.31,103,150.61,103.94,149Z"/><path class="cls-1" d="M116.51,132.9,99.39,114.52c-1.93,1.79-3.77,3.67-5.53,5.62L112.52,137C113.79,135.55,115.12,134.19,116.51,132.9Z"/><path class="cls-1" d="M226,177.21l25.09-1.31q-.15-3.17-.53-6.28l-24.94,3C225.81,174.17,225.94,175.68,226,177.21Z"/><path class="cls-1" d="M220,153.07l22.78-10.61q-1.68-3.57-3.65-7L217.38,148Q218.81,150.49,220,153.07Z"/><path class="cls-1" d="M217.38,148l21.76-12.55q-1.57-2.73-3.34-5.35l-20.83,14C215.82,145.43,216.62,146.71,217.38,148Z"/><path class="cls-1" d="M221.79,157.26l23.46-9c-.75-2-1.58-3.9-2.46-5.8L220,153.07C220.65,154.44,221.24,155.84,221.79,157.26Z"/><path class="cls-4" d="M215,144.17l20.83-14c-1.47-2.17-3-4.29-4.68-6.33l-19.53,15.8C212.78,141.07,213.91,142.6,215,144.17Z"/><path class="cls-3" d="M211.59,139.6l19.53-15.8q-2-2.44-4.13-4.76l-18.38,17.13C209.64,137.28,210.64,138.42,211.59,139.6Z"/><path class="cls-4" d="M225.63,172.67l24.94-3c-.32-2.62-.76-5.21-1.3-7.77l-24.58,5.21C225.08,168.91,225.4,170.78,225.63,172.67Z"/><path class="cls-2" d="M226.05,182.89l25.11.89c.09-2.65.08-5.27-.06-7.88L226,177.21C226.11,179.08,226.12,181,226.05,182.89Z"/><path class="cls-2" d="M223.59,162.65l24.16-6.91q-1.09-3.81-2.5-7.48l-23.46,9Q222.81,159.9,223.59,162.65Z"/><path class="cls-2" d="M224.69,167.06l24.58-5.21c-.44-2.06-.94-4.1-1.52-6.11l-24.16,6.91C224,164.1,224.37,165.57,224.69,167.06Z"/><path class="cls-4" d="M183.25,119.35l8.61-23.61c-2.46-.89-5-1.68-7.52-2.36l-6.51,24.26C179.67,118.13,181.48,118.71,183.25,119.35Z"/><path class="cls-1" d="M192.56,123.59l12.19-22q-3.44-1.91-7.05-3.52l-10.23,23C189.21,121.83,190.91,122.67,192.56,123.59Z"/><path class="cls-2" d="M187.47,121.05l10.23-23q-2.87-1.27-5.84-2.36l-8.61,23.61C184.68,119.87,186.09,120.44,187.47,121.05Z"/><path class="cls-1" d="M173.35,116.62,178.14,92c-2.56-.5-5-.88-7.82-1.17l-2.63,25C169.57,116,171.51,116.26,173.35,116.62Z"/><path class="cls-1" d="M177.83,117.64l6.51-24.26c-2-.54-4.06-1-6.14-1.41l-4.81,24.65Q175.64,117.06,177.83,117.64Z"/><path class="cls-4" d="M208.61,136.17,227,119q-2.69-2.88-5.61-5.52l-16.82,18.66Q206.68,134.08,208.61,136.17Z"/><path class="cls-4" d="M204.56,132.18l16.82-18.66q-2.34-2.11-4.83-4.06l-15.47,19.79C202.27,130.19,203.43,131.16,204.56,132.18Z"/><path class="cls-4" d="M96.15,173.53l-25-2.64c-.25,2.35-.37,4.31-.45,6.39l25.11.84C95.88,176.62,96,175.41,96.15,173.53Z"/><path class="cls-4" d="M201.08,129.25l15.47-19.79q-3.09-2.43-6.4-4.59l-13.7,21.07Q198.85,127.5,201.08,129.25Z"/><path class="cls-1" d="M196.45,125.94l13.7-21.07c-1.76-1.14-3.56-2.23-5.4-3.25l-12.19,22Q194.55,124.7,196.45,125.94Z"/><path class="cls-2" d="M201.91,231.25l15.8,19.53c1.64-1.32,3.22-2.7,4.76-4.13l-17.12-18.39C204.24,229.3,203.09,230.29,201.91,231.25Z"/><path class="cls-4" d="M193.48,237,206,258.8c1.83-1.05,3.61-2.17,5.35-3.34l-14-20.84C196.08,235.47,194.8,236.28,193.48,237Z"/><path class="cls-1" d="M184.26,241.44l9,23.47q3-1.14,5.8-2.47l-10.61-22.78C187.07,240.3,185.68,240.9,184.26,241.44Z"/><path class="cls-1" d="M205.35,228.26l17.12,18.39c1.92-1.79,3.76-3.67,5.53-5.62l-18.67-16.82Q207.43,226.33,205.35,228.26Z"/><path class="cls-1" d="M197.34,234.62l14,20.84q3.27-2.21,6.33-4.68l-15.8-19.53C200.44,232.44,198.91,233.56,197.34,234.62Z"/><path class="cls-3" d="M188.44,239.66l10.61,22.78c2.38-1.11,4.71-2.33,7-3.64L193.48,237Q191,238.46,188.44,239.66Z"/><path class="cls-3" d="M168.84,245.28l3,24.94q3.93-.48,7.77-1.29l-5.21-24.59Q171.68,244.94,168.84,245.28Z"/><path class="cls-1" d="M178.86,243.25l6.92,24.15c2.53-.72,5-1.55,7.47-2.49l-9-23.47Q181.61,242.46,178.86,243.25Z"/><path class="cls-4" d="M164.31,245.67l1.3,25.09c2.11-.11,4.21-.29,6.28-.54l-3-24.94Q166.59,245.55,164.31,245.67Z"/><path class="cls-4" d="M95.81,178.28l-25.11-.89c-.1,2.65-.08,5.27,0,7.88L95.84,184C95.75,182.08,95.74,180.19,95.81,178.28Z"/><path class="cls-1" d="M215.57,216.11l21.07,13.7q1.73-2.64,3.25-5.4l-22-12.2Q216.81,214.21,215.57,216.11Z"/><path class="cls-4" d="M224.9,192.94l24.66,4.76c.5-2.56.88-5,1.18-7.84l-25-2.64C225.51,189.57,225.26,191.1,224.9,192.94Z"/><path class="cls-1" d="M223.87,197.48,248.14,204q.81-3,1.41-6.14l-24.66-4.81C224.6,194.55,224.26,196,223.87,197.48Z"/><path class="cls-4" d="M222.16,202.91l23.61,8.6c.89-2.45,1.68-5,2.37-7.51l-24.27-6.52Q223.14,200.26,222.16,202.91Z"/><path class="cls-2" d="M226.06,182.79c-.05,1.5-.16,3-.3,4.43l25,2.64c.2-1.88.36-4.15.43-6.24Z"/><path class="cls-1" d="M209.33,224.21,228,241c1.4-1.56,2.76-3.16,4.05-4.82l-19.79-15.48Q210.87,222.53,209.33,224.21Z"/><path class="cls-4" d="M158.62,245.71l-.89,25.1q4,.15,7.88-.05l-1.3-25.09C162.43,245.76,160.53,245.78,158.62,245.71Z"/><path class="cls-1" d="M212.26,220.73l19.79,15.48c1.62-2.06,3.15-4.2,4.59-6.4l-21.07-13.7C214.54,217.7,213.43,219.24,212.26,220.73Z"/><path class="cls-4" d="M220.46,207.12l22.95,10.24q1.28-2.88,2.36-5.85l-23.61-8.6C221.64,204.34,221.07,205.74,220.46,207.12Z"/><path class="cls-1" d="M217.92,212.21l22,12.2q1.91-3.43,3.52-7l-22.95-10.24C219.68,208.86,218.84,210.56,217.92,212.21Z"/><path class="cls-4" d="M174.45,244.34l5.21,24.59q3.09-.66,6.12-1.53l-6.92-24.15C177.41,243.66,175.94,244,174.45,244.34Z"/><path class="cls-4" d="M110.27,221.57l-19.54,15.8c1.33,1.63,2.7,3.22,4.14,4.76L113.25,225C112.22,223.89,111.22,222.75,110.27,221.57Z"/><path class="cls-4" d="M104.48,213.14,82.72,225.69q1.57,2.73,3.34,5.34l20.83-14Q105.62,215.11,104.48,213.14Z"/><path class="cls-1" d="M106.89,217,86.06,231c1.46,2.18,3,4.3,4.67,6.34l19.54-15.8C109.07,220.1,108,218.57,106.89,217Z"/><path class="cls-1" d="M100.07,203.91l-23.46,9c.75,2,1.58,3.89,2.46,5.8l22.78-10.61C101.21,206.73,100.61,205.33,100.07,203.91Z"/><path class="cls-3" d="M101.85,208.1,79.07,218.71c1.12,2.38,2.33,4.71,3.65,7l21.76-12.55Q103.06,210.68,101.85,208.1Z"/><path class="cls-4" d="M96.23,188.5l-24.94,3.05c.32,2.62.76,5.21,1.3,7.77l24.58-5.22C96.78,192.26,96.46,190.39,96.23,188.5Z"/><path class="cls-4" d="M95.84,184l-25.09,1.31q.16,3.16.54,6.28l24.94-3.05C96.05,187,95.92,185.49,95.84,184Z"/><path class="cls-4" d="M97.17,194.1l-24.58,5.22q.64,3.09,1.52,6.11l24.16-6.91C97.85,197.07,97.48,195.59,97.17,194.1Z"/><path class="cls-2" d="M98.27,198.52l-24.16,6.91q1.1,3.81,2.5,7.48l23.46-9Q99.05,201.27,98.27,198.52Z"/><path class="cls-2" d="M113.25,225,94.87,242.13c1.78,1.92,3.66,3.76,5.61,5.52L117.3,229Q115.19,227.08,113.25,225Z"/><path class="cls-4" d="M144,243.53l-6.51,24.26q3,.81,6.14,1.41l4.8-24.66C147,244.25,145.49,243.92,144,243.53Z"/><path class="cls-4" d="M138.61,241.82,130,265.43q3.67,1.33,7.52,2.36L144,243.53Q141.27,242.78,138.61,241.82Z"/><path class="cls-3" d="M134.39,240.11l-10.23,22.95c1.91.86,3.86,1.64,5.84,2.37l8.61-23.61C137.18,241.3,135.77,240.73,134.39,240.11Z"/><path class="cls-4" d="M148.42,244.54l-4.83,24.66c2.56.49,4.95.87,7.77,1.16l2.64-25C152.12,245.18,150.27,244.9,148.42,244.54Z"/><path class="cls-1" d="M154,245.38l-2.64,25c1.88.2,4.25.37,6.33.45l.87-25.11C157.05,245.65,155.41,245.53,154,245.38Z"/><path class="cls-3" d="M120.78,231.92,105.3,251.71c2.07,1.62,4.2,3.15,6.41,4.59l13.69-21.07Q123,233.67,120.78,231.92Z"/><path class="cls-2" d="M129.3,237.58l-12.19,22c2.28,1.27,4.64,2.44,7,3.51l10.23-22.95C132.65,239.34,131,238.49,129.3,237.58Z"/><path class="cls-2" d="M117.3,229l-16.82,18.66q2.34,2.11,4.82,4.06l15.48-19.79Q119,230.51,117.3,229Z"/><path class="cls-3" d="M125.4,235.23,111.71,256.3c1.75,1.14,3.56,2.23,5.4,3.25l12.19-22Q127.31,236.47,125.4,235.23Z"/><path class="cls-5" d="M149.87,128.44l-2.46-11.62c-1.49.32-3,.69-4.42,1.1l3.27,11.41C147.45,129,148.65,128.69,149.87,128.44Z"/><path class="cls-6" d="M146.26,129.33,143,117.92q-2.73.8-5.39,1.8l4.25,11.09C143.29,130.25,144.76,129.76,146.26,129.33Z"/><path class="cls-7" d="M138.43,132.26l-5-10.76q-2.58,1.22-5,2.63l5.93,10.28Q136.31,133.26,138.43,132.26Z"/><path class="cls-5" d="M141.85,130.81l-4.25-11.09c-1.42.55-2.81,1.14-4.19,1.78l5,10.76C139.55,131.74,140.69,131.25,141.85,130.81Z"/><path class="cls-5" d="M166.44,127.57l1.25-11.8c-1.41-.15-3-.26-4.5-.31l-.44,11.85C164,127.36,165,127.42,166.44,127.57Z"/><path class="cls-3" d="M134.3,134.41l-5.93-10.28c-1.31.76-2.6,1.57-3.85,2.41l6.63,9.85C132.18,135.69,133.23,135,134.3,134.41Z"/><path class="cls-7" d="M171.08,128.27l2.25-11.65c-1.84-.36-3.76-.65-5.64-.85l-1.25,11.8C167.85,127.72,169.57,128,171.08,128.27Z"/><path class="cls-3" d="M162.81,127.32l.43-11.86c-1.92-.07-3.81-.06-5.69,0l.62,11.85C159.7,127.27,161.25,127.26,162.81,127.32Z"/><path class="cls-6" d="M154.46,127.67,153,115.89q-2.85.35-5.61.93l2.46,11.62C151.38,128.12,152.91,127.86,154.46,127.67Z"/><path class="cls-3" d="M158.17,127.35l-.62-11.85q-2.28.12-4.53.39l1.44,11.78C155.68,127.52,156.92,127.42,158.17,127.35Z"/><path class="cls-3" d="M112.24,158.88,101.4,154c-.62,1.38-1.19,2.79-1.71,4.22l11.16,4.07C111.27,161.16,111.74,160,112.24,158.88Z"/><path class="cls-5" d="M116.24,151.53l-10-6.47c-.82,1.27-1.61,2.57-2.34,3.9l10.38,5.76C114.92,153.63,115.56,152.57,116.24,151.53Z"/><path class="cls-7" d="M114.32,154.72,103.94,149q-1.38,2.47-2.54,5.08l10.84,4.84C112.87,157.46,113.57,156.07,114.32,154.72Z"/><path class="cls-6" d="M131.15,136.39l-6.63-9.85c-1.58,1.06-3.1,2.19-4.58,3.38l7.47,9.23Q129.21,137.68,131.15,136.39Z"/><path class="cls-5" d="M110.85,162.33l-11.16-4.07q-1,2.66-1.7,5.43l11.46,3.07C109.85,165.25,110.32,163.78,110.85,162.33Z"/><path class="cls-5" d="M124.6,141.59l-8.09-8.69c-1.39,1.29-2.72,2.65-4,4.06l8.82,7.94C122.38,143.75,123.47,142.64,124.6,141.59Z"/><path class="cls-5" d="M118.94,147.75l-9.35-7.31c-1.16,1.49-2.27,3-3.31,4.62l10,6.47C117.08,150.23,118,149,118.94,147.75Z"/><path class="cls-7" d="M127.41,139.15l-7.47-9.23c-1.17,1-2.32,2-3.43,3l8.09,8.69C125.51,140.74,126.44,139.93,127.41,139.15Z"/><path class="cls-6" d="M121.34,144.9,112.52,137q-1.51,1.68-2.93,3.48l9.35,7.31Q120.1,146.28,121.34,144.9Z"/><path class="cls-7" d="M190,135.89l6.47-9.95q-1.89-1.25-3.89-2.35L186.8,134C187.88,134.57,189,135.22,190,135.89Z"/><path class="cls-7" d="M213.08,169.53l11.61-2.47c-.32-1.49-.68-3-1.1-4.41l-11.41,3.27C212.52,167.1,212.82,168.31,213.08,169.53Z"/><path class="cls-5" d="M212.18,165.92l11.41-3.27q-.78-2.75-1.8-5.39l-11.08,4.24C211.26,163,211.75,164.42,212.18,165.92Z"/><path class="cls-7" d="M213.84,174.11l11.79-1.44c-.23-1.89-.55-3.76-.94-5.61l-11.61,2.47C213.4,171,213.66,172.56,213.84,174.11Z"/><path class="cls-7" d="M209.25,158.08l10.76-5q-1.2-2.58-2.63-5L207.1,154Q208.26,156,209.25,158.08Z"/><path class="cls-6" d="M210.71,161.5l11.08-4.24c-.55-1.42-1.14-2.82-1.78-4.19l-10.76,5C209.77,159.2,210.26,160.34,210.71,161.5Z"/><path class="cls-7" d="M214.16,177.82l11.85-.61c-.07-1.53-.2-3-.38-4.54l-11.79,1.44C214,175.34,214.1,176.57,214.16,177.82Z"/><path class="cls-5" d="M214,186l11.81,1.25c.14-1.41.25-2.93.3-4.43l-11.85-.48C214.16,183.54,214.05,185,214,186Z"/><path class="cls-3" d="M213.25,190.67l11.66,2.22c.35-1.84.6-3.32.85-5.67L214,186C213.76,187.85,213.54,189.17,213.25,190.67Z"/><path class="cls-5" d="M207.1,154,217.38,148c-.76-1.32-1.56-2.6-2.41-3.86l-9.84,6.63C205.82,151.83,206.48,152.88,207.1,154Z"/><path class="cls-6" d="M214.19,182.47l11.86.42c.07-1.91.06-3.81,0-5.68l-11.85.61Q214.28,180.13,214.19,182.47Z"/><path class="cls-6" d="M196.61,141l7.95-8.81c-1.13-1-2.29-2-3.48-2.93l-7.32,9.35C194.74,139.36,195.69,140.16,196.61,141Z"/><path class="cls-5" d="M182.63,131.9l4.84-10.85c-1.38-.61-2.79-1.18-4.22-1.7l-4.06,11.15C180.36,130.93,181.51,131.39,182.63,131.9Z"/><path class="cls-3" d="M109.45,166.76,98,163.69c-.39,1.45-.73,2.93-1,4.43l11.65,2.27C108.85,169.16,109.13,168,109.45,166.76Z"/><path class="cls-7" d="M186.8,134l5.76-10.38c-1.65-.92-3.35-1.76-5.09-2.54l-4.84,10.85Q184.78,132.85,186.8,134Z"/><path class="cls-6" d="M179.19,130.5l4.06-11.15c-1.77-.64-3.58-1.22-5.42-1.71l-3.08,11.46C176.26,129.51,177.74,130,179.19,130.5Z"/><path class="cls-7" d="M205.13,150.8l9.84-6.63c-1.06-1.57-2.19-3.1-3.38-4.57l-9.22,7.46Q203.83,148.88,205.13,150.8Z"/><path class="cls-5" d="M199.93,144.25l8.68-8.08q-1.94-2.08-4.05-4L196.61,141Q198.33,142.55,199.93,144.25Z"/><path class="cls-7" d="M202.37,147.06l9.22-7.46c-1-1.18-2-2.32-3-3.43l-8.68,8.08C200.77,145.16,201.59,146.1,202.37,147.06Z"/><path class="cls-5" d="M174.75,129.1l3.08-11.46q-2.19-.58-4.44-1l-2.27,11.65C172.35,128.51,173.56,128.79,174.75,129.1Z"/><path class="cls-7" d="M193.76,138.6l7.32-9.35q-2.24-1.75-4.63-3.31L190,135.89Q191.95,137.17,193.76,138.6Z"/><path class="cls-5" d="M147.11,232.06,144,243.53c1.46.39,2.94.72,4.43,1l2.27-11.64C149.51,232.66,148.3,232.38,147.11,232.06Z"/><path class="cls-3" d="M180,230.36l4.25,11.08c1.42-.54,2.81-1.14,4.18-1.78l-5-10.76C182.31,229.43,181.17,229.91,180,230.36Z"/><path class="cls-6" d="M194.45,222l7.46,9.23c1.18-1,2.33-1.95,3.44-3l-8.09-8.68C196.35,220.43,195.41,221.24,194.45,222Z"/><path class="cls-5" d="M190.71,224.78l6.63,9.84c1.57-1.06,3.1-2.18,4.57-3.37L194.45,222C193.24,223,192,223.91,190.71,224.78Z"/><path class="cls-3" d="M175.6,231.83l3.26,11.42q2.74-.8,5.4-1.81L180,230.36C178.57,230.92,177.09,231.41,175.6,231.83Z"/><path class="cls-7" d="M187.55,226.75,193.48,237c1.32-.75,2.6-1.56,3.86-2.41l-6.63-9.84C189.68,225.48,188.63,226.13,187.55,226.75Z"/><path class="cls-7" d="M183.43,228.9l5,10.76q2.58-1.2,5-2.63l-5.93-10.28Q185.54,227.92,183.43,228.9Z"/><path class="cls-5" d="M163.69,233.82l.62,11.85q2.28-.12,4.53-.39L167.4,233.5C166.17,233.65,164.94,233.75,163.69,233.82Z"/><path class="cls-6" d="M172,232.73l2.46,11.61c1.49-.31,3-.68,4.41-1.09l-3.26-11.42C174.41,232.17,173.2,232.47,172,232.73Z"/><path class="cls-5" d="M159,233.85l-.42,11.86c1.91.07,3.81,0,5.69,0l-.62-11.85C162.16,233.89,160.6,233.9,159,233.85Z"/><path class="cls-7" d="M167.4,233.5l1.44,11.78q2.83-.34,5.61-.94L172,232.73C170.48,233.05,169,233.31,167.4,233.5Z"/><path class="cls-7" d="M209.62,202.29l10.84,4.83c.61-1.38,1.18-2.78,1.7-4.21L211,198.84C210.59,200,210.12,201.16,209.62,202.29Z"/><path class="cls-5" d="M213.24,190.78c-.24,1.22-.51,2.43-.83,3.63l11.46,3.07c.39-1.45.73-2.93,1-4.43Z"/><path class="cls-6" d="M211,198.84l11.15,4.07q1-2.66,1.71-5.43l-11.46-3.07C212,195.91,211.54,197.39,211,198.84Z"/><path class="cls-7" d="M108.63,170.28,97,168c-.35,1.85-.64,3.69-.83,5.57l11.8,1.25C108.1,173.37,108.34,171.79,108.63,170.28Z"/><path class="cls-6" d="M155.25,233.58,154,245.38c1.41.15,3.08.27,4.58.32l.4-11.86C157.75,233.8,156.66,233.73,155.25,233.58Z"/><path class="cls-5" d="M197.26,219.58l8.09,8.68q2.07-1.94,4-4l-8.81-7.94C199.48,217.42,198.39,218.53,197.26,219.58Z"/><path class="cls-7" d="M207.54,206.45l10.38,5.76c.92-1.65,1.76-3.35,2.54-5.09l-10.84-4.83Q208.66,204.42,207.54,206.45Z"/><path class="cls-6" d="M200.52,216.27l8.81,7.94q1.53-1.68,2.93-3.48l-9.35-7.31C202.15,214.4,201.35,215.35,200.52,216.27Z"/><path class="cls-7" d="M202.91,213.42l9.35,7.31c1.17-1.49,2.28-3,3.31-4.62l-9.95-6.47Q204.35,211.59,202.91,213.42Z"/><path class="cls-5" d="M205.62,209.64l9.95,6.47q1.25-1.91,2.35-3.9l-10.38-5.76C206.94,207.54,206.3,208.6,205.62,209.64Z"/><path class="cls-7" d="M125.25,220.17l-8,8.82q1.7,1.51,3.48,2.93l7.31-9.35C127.12,221.8,126.17,221,125.25,220.17Z"/><path class="cls-7" d="M111.15,199.66l-11.08,4.25c.54,1.42,1.14,2.82,1.78,4.19l10.76-5C112.08,202,111.6,200.82,111.15,199.66Z"/><path class="cls-6" d="M109.68,195.25l-11.41,3.27q.78,2.74,1.8,5.39l11.08-4.25Q110.32,197.5,109.68,195.25Z"/><path class="cls-5" d="M112.61,203.09l-10.76,5q1.2,2.58,2.63,5l10.28-5.93C114,205.87,113.27,204.49,112.61,203.09Z"/><path class="cls-5" d="M114.76,207.21l-10.28,5.93q1.14,2,2.41,3.86l9.84-6.64C116,209.34,115.38,208.28,114.76,207.21Z"/><path class="cls-6" d="M108.78,191.64,97.17,194.1c.31,1.49.68,3,1.1,4.42l11.41-3.27C109.34,194.06,109,192.86,108.78,191.64Z"/><path class="cls-7" d="M150.69,232.89l-2.29,11.65c1.84.36,3.72.64,5.6.84l1.25-11.8C153.84,233.43,152.2,233.18,150.69,232.89Z"/><path class="cls-7" d="M107.67,178.7l-11.86-.42c-.07,1.91-.06,3.8,0,5.68l11.86-.61Q107.58,181,107.67,178.7Z"/><path class="cls-6" d="M108,187.05,96.23,188.5c.23,1.89.55,3.76.94,5.6l11.61-2.46C108.46,190.13,108.2,188.6,108,187.05Z"/><path class="cls-7" d="M107.7,183.35,95.84,184c.08,1.53.21,3,.39,4.54L108,187.05C107.87,185.83,107.76,184.59,107.7,183.35Z"/><path class="cls-5" d="M108,174.78l-11.8-1.25c-.2,1.88-.28,3.14-.33,4.64l11.86.37C107.73,177.31,107.8,176.19,108,174.78Z"/><path class="cls-5" d="M139.22,229.27l-4.83,10.84c1.38.62,2.79,1.19,4.22,1.71l4.06-11.15C141.5,230.24,140.35,229.78,139.22,229.27Z"/><path class="cls-6" d="M135.06,227.2l-5.76,10.38c1.65.91,3.35,1.76,5.09,2.53l4.83-10.84Q137.09,228.33,135.06,227.2Z"/><path class="cls-3" d="M131.87,225.28l-6.47,9.95q1.91,1.25,3.9,2.35l5.76-10.38C134,226.59,132.91,226,131.87,225.28Z"/><path class="cls-7" d="M142.67,230.67l-4.06,11.15q2.65,1,5.42,1.71l3.08-11.47C145.6,231.66,144.12,231.19,142.67,230.67Z"/><path class="cls-5" d="M116.73,210.36,106.89,217c1.06,1.57,2.18,3.1,3.38,4.57l9.22-7.47Q118,212.3,116.73,210.36Z"/><path class="cls-6" d="M121.93,216.91,113.25,225q1.94,2.08,4,4l8-8.82C124.09,219.13,123,218.05,121.93,216.91Z"/><path class="cls-7" d="M128.09,222.57l-7.31,9.35q2.23,1.76,4.62,3.31l6.47-9.95C130.57,224.43,129.31,223.52,128.09,222.57Z"/><path class="cls-3" d="M119.49,214.1l-9.22,7.47c1,1.18,2,2.32,3,3.43l8.68-8.09C121.09,216,120.27,215.07,119.49,214.1Z"/><path class="cls-5" d="M143.39,142.92l-5-10.66q-2.12,1-4.13,2.15l5.87,10.19C141.22,144,142.29,143.43,143.39,142.92Z"/><path class="cls-5" d="M140.17,144.6l-5.87-10.19c-1.07.63-2.12,1.28-3.15,2l6.57,9.74C138.52,145.59,139.34,145.08,140.17,144.6Z"/><path class="cls-3" d="M137.72,146.13l-6.57-9.74q-1.93,1.29-3.74,2.76l7.39,9.14C135.74,147.53,136.71,146.81,137.72,146.13Z"/><path class="cls-7" d="M146.06,141.78l-4.21-11c-1.16.44-2.3.93-3.42,1.45l5,10.66Q144.7,142.31,146.06,141.78Z"/><path class="cls-7" d="M152.31,139.94l-2.44-11.5c-1.22.25-2.42.55-3.61.89l3.24,11.31C150.42,140.37,151.36,140.14,152.31,139.94Z"/><path class="cls-5" d="M158.77,139.09l-.6-11.74c-1.25.07-2.49.17-3.71.32l1.43,11.67C156.84,139.22,157.8,139.14,158.77,139.09Z"/><path class="cls-7" d="M162.4,139.07l.41-11.75c-1.56-.06-3.11,0-4.64,0l.6,11.74C160,139,161.18,139,162.4,139.07Z"/><path class="cls-7" d="M155.89,139.34l-1.43-11.67c-1.55.19-3.08.45-4.59.77l2.44,11.5C153.49,139.69,154.68,139.49,155.89,139.34Z"/><path class="cls-3" d="M149.5,140.64l-3.24-11.31c-1.5.43-3,.92-4.41,1.48l4.21,11C147.18,141.35,148.33,141,149.5,140.64Z"/><path class="cls-7" d="M165.21,139.26l1.23-11.69c-1.41-.15-2.44-.21-3.67-.25l-.44,11.74C163.29,139.1,164.27,139.16,165.21,139.26Z"/><path class="cls-7" d="M124.59,160.42l-10.27-5.7c-.75,1.35-1.45,2.74-2.08,4.16L123,163.66C123.47,162.56,124,161.47,124.59,160.42Z"/><path class="cls-6" d="M134.8,148.29l-7.39-9.14c-1,.78-1.9,1.59-2.81,2.44l8,8.6C133.32,149.53,134.05,148.89,134.8,148.29Z"/><path class="cls-5" d="M121.89,166.35l-11-4c-.53,1.45-1,2.92-1.4,4.43l11.35,3.05C121.12,168.64,121.48,167.48,121.89,166.35Z"/><path class="cls-7" d="M120.8,169.81l-11.35-3.05c-.32,1.19-.6,2.4-.83,3.63l11.53,2.25C120.34,171.68,120.55,170.74,120.8,169.81Z"/><path class="cls-5" d="M123,163.66l-10.74-4.78c-.5,1.13-1,2.28-1.39,3.45l11,4C122.22,165.44,122.59,164.54,123,163.66Z"/><path class="cls-5" d="M130.07,152.77l-8.73-7.87q-1.25,1.38-2.4,2.85L128.2,155C128.8,154.23,129.42,153.49,130.07,152.77Z"/><path class="cls-3" d="M132.61,150.19l-8-8.6c-1.13,1-2.22,2.16-3.26,3.31l8.73,7.87C130.88,151.87,131.73,151,132.61,150.19Z"/><path class="cls-3" d="M126.09,157.94l-9.85-6.41c-.68,1-1.32,2.1-1.92,3.19l10.27,5.7C125.07,159.57,125.56,158.74,126.09,157.94Z"/><path class="cls-2" d="M128.2,155l-9.26-7.24c-1,1.22-1.86,2.48-2.7,3.78l9.85,6.41C126.75,156.92,127.46,155.94,128.2,155Z"/><path class="cls-7" d="M195.38,157.37l9.75-6.57q-1.31-1.92-2.76-3.74l-9.14,7.4C194,155.39,194.7,156.37,195.38,157.37Z"/><path class="cls-6" d="M202.17,175.54l11.67-1.43c-.18-1.55-.44-3.07-.76-4.58L201.58,172C201.83,173.14,202,174.33,202.17,175.54Z"/><path class="cls-7" d="M201.58,172l11.5-2.43c-.26-1.22-.56-2.43-.9-3.61l-11.3,3.23C201.14,170.08,201.38,171,201.58,172Z"/><path class="cls-7" d="M199.73,165.71l11-4.21c-.45-1.16-.94-2.3-1.46-3.42l-10.66,5Q199.21,164.36,199.73,165.71Z"/><path class="cls-6" d="M198.59,163l10.66-5q-1-2.12-2.15-4.12l-10.18,5.87C197.52,160.87,198.08,162,198.59,163Z"/><path class="cls-7" d="M202.42,178.43l11.74-.61c-.06-1.25-.17-2.48-.32-3.71l-11.67,1.43C202.29,176.5,202.37,177.46,202.42,178.43Z"/><path class="cls-3" d="M202.27,184.74,214,186c.1-.94.21-2.37.25-3.6l-11.74-.47C202.43,182.86,202.36,183.8,202.27,184.74Z"/><path class="cls-7" d="M196.92,159.83,207.1,154c-.62-1.08-1.28-2.13-2-3.16l-9.75,6.57C195.92,158.17,196.43,159,196.92,159.83Z"/><path class="cls-7" d="M168.83,139.8l2.23-11.54c-1.51-.29-3.21-.54-4.62-.69l-1.23,11.69C166.62,139.41,167.66,139.58,168.83,139.8Z"/><path class="cls-3" d="M202.45,182.05l11.74.42q.09-2.34,0-4.65l-11.74.61C202.48,179.63,202.49,180.84,202.45,182.05Z"/><path class="cls-5" d="M120.16,172.53l-11.53-2.3c-.29,1.51-.53,3.14-.68,4.55L119.64,176C119.74,175.07,119.94,173.71,120.16,172.53Z"/><path class="cls-7" d="M175.16,141.55l4-11.05c-1.45-.53-2.93-1-4.44-1.4l-3.05,11.36C172.88,140.77,174,141.14,175.16,141.55Z"/><path class="cls-7" d="M181.09,144.25,186.8,134q-2-1.12-4.17-2.07l-4.78,10.73Q179.52,143.38,181.09,144.25Z"/><path class="cls-6" d="M193.23,154.46l9.14-7.4c-.78-1-1.6-1.9-2.44-2.81l-8.6,8C192,153,192.62,153.7,193.23,154.46Z"/><path class="cls-6" d="M171.7,140.46l3.05-11.36c-1.19-.31-2.4-.59-3.63-.83l-2.24,11.54C169.83,140,170.77,140.21,171.7,140.46Z"/><path class="cls-7" d="M177.85,142.63l4.78-10.73c-1.12-.51-2.27-1-3.44-1.4l-4,11.05C176.07,141.88,177,142.24,177.85,142.63Z"/><path class="cls-6" d="M188.74,149.72l7.87-8.73c-.92-.83-1.87-1.63-2.85-2.39l-7.24,9.26C187.29,148.45,188,149.08,188.74,149.72Z"/><path class="cls-6" d="M191.33,152.27l8.6-8q-1.59-1.69-3.32-3.26l-7.87,8.73C189.64,150.54,190.5,151.38,191.33,152.27Z"/><path class="cls-7" d="M183.58,145.75l6.4-9.86c-1-.67-2.1-1.32-3.18-1.92l-5.71,10.28Q182.37,145,183.58,145.75Z"/><path class="cls-7" d="M186.52,147.86l7.24-9.26q-1.81-1.44-3.78-2.71l-6.4,9.86C184.59,146.41,185.57,147.11,186.52,147.86Z"/><path class="cls-4" d="M200.88,169.15l11.3-3.23c-.43-1.5-.92-3-1.47-4.42l-11,4.21C200.16,166.84,200.54,168,200.88,169.15Z"/><path class="cls-7" d="M187.06,212.88l7.39,9.14c1-.78,1.9-1.59,2.81-2.44l-8-8.6C188.54,211.64,187.81,212.27,187.06,212.88Z"/><path class="cls-3" d="M178.47,218.25l5,10.65q2.12-1,4.12-2.15l-5.87-10.18Q180.12,217.49,178.47,218.25Z"/><path class="cls-7" d="M175.8,219.38l4.21,11c1.16-.45,2.3-.93,3.42-1.46l-5-10.65C177.59,218.66,176.71,219,175.8,219.38Z"/><path class="cls-3" d="M181.68,216.57l5.87,10.18c1.08-.62,2.13-1.27,3.16-2L184.14,215Q182.94,215.85,181.68,216.57Z"/><path class="cls-6" d="M184.14,215l6.57,9.74c1.29-.87,2.53-1.78,3.74-2.76l-7.39-9.14C186.12,213.64,185.14,214.36,184.14,215Z"/><path class="cls-5" d="M172.36,220.53l3.24,11.3c1.49-.42,3-.91,4.41-1.47l-4.21-11C174.68,219.82,173.53,220.2,172.36,220.53Z"/><path class="cls-7" d="M163.08,222.08l.61,11.74c1.25-.07,2.48-.17,3.71-.32L166,221.83C165,222,164.05,222,163.08,222.08Z"/><path class="cls-3" d="M169.55,221.23l2.44,11.5c1.21-.26,2.42-.56,3.61-.9l-3.24-11.3C171.44,220.8,170.5,221,169.55,221.23Z"/><path class="cls-7" d="M156.48,221.89l-1.23,11.69c1.41.15,2.52.22,3.75.26l.39-11.75C158.44,222.06,157.42,222,156.48,221.89Z"/><path class="cls-3" d="M166,221.83l1.43,11.67c1.55-.19,3.08-.45,4.59-.77l-2.44-11.5C168.37,221.48,167.18,221.68,166,221.83Z"/><path class="cls-7" d="M159.46,222.1,159,233.85c1.56.05,3.12,0,4.65,0l-.61-11.74C161.89,222.14,160.68,222.15,159.46,222.1Z"/><path class="cls-3" d="M189.25,211l8,8.6c1.13-1.05,2.22-2.16,3.26-3.31l-8.73-7.87C191,209.3,190.13,210.16,189.25,211Z"/><path class="cls-7" d="M201.06,191.36l11.35,3c.32-1.2.59-2.41.83-3.63l-11.54-2.25C201.52,189.49,201.3,190.43,201.06,191.36Z"/><path class="cls-6" d="M202.27,184.74c-.15,1.41-.33,2.51-.55,3.69l11.54,2.19c.29-1.51.5-2.77.69-4.65Z"/><path class="cls-5" d="M198.88,197.5l10.74,4.79c.5-1.13,1-2.28,1.39-3.45l-11-4C199.63,195.73,199.27,196.62,198.88,197.5Z"/><path class="cls-7" d="M200,194.81l11,4c.53-1.45,1-2.93,1.4-4.43l-11.35-3C200.74,192.53,200.38,193.69,200,194.81Z"/><path class="cls-6" d="M193.66,206.18l9.25,7.24q1.44-1.83,2.71-3.78l-9.85-6.41C195.1,204.25,194.4,205.23,193.66,206.18Z"/><path class="cls-6" d="M197.26,200.75l10.28,5.7q1.13-2,2.08-4.16l-10.74-4.79C198.39,198.61,197.85,199.7,197.26,200.75Z"/><path class="cls-3" d="M191.79,208.4l8.73,7.87c.83-.92,1.63-1.87,2.39-2.85l-9.25-7.24C193.06,206.94,192.44,207.68,191.79,208.4Z"/><path class="cls-3" d="M195.77,203.23l9.85,6.41c.68-1,1.32-2.1,1.92-3.19l-10.28-5.7C196.79,201.6,196.29,202.42,195.77,203.23Z"/><path class="cls-6" d="M121,192l-11.3,3.23q.64,2.25,1.47,4.41l11-4.2C121.7,194.33,121.31,193.18,121,192Z"/><path class="cls-5" d="M119.64,176,108,174.78c-.15,1.41-.23,2.58-.27,3.81l11.75.37C119.46,178,119.49,177.42,119.64,176Z"/><path class="cls-5" d="M123.26,198.12l-10.65,5c.66,1.4,1.37,2.78,2.15,4.12l10.18-5.87C124.34,200.29,123.78,199.22,123.26,198.12Z"/><path class="cls-7" d="M122.13,195.46l-11,4.2c.45,1.16.93,2.31,1.46,3.43l10.65-5C122.86,197.25,122.48,196.36,122.13,195.46Z"/><path class="cls-7" d="M124.94,201.34l-10.18,5.87c.62,1.07,1.28,2.13,2,3.15l9.75-6.56C125.94,203,125.42,202.18,124.94,201.34Z"/><path class="cls-7" d="M119.68,185.63,108,187.05c.19,1.55.45,3.08.77,4.59l11.5-2.44C120,188,119.83,186.83,119.68,185.63Z"/><path class="cls-5" d="M119.44,182.74l-11.74.61c.06,1.24.17,2.48.31,3.7l11.67-1.42C119.57,184.67,119.49,183.71,119.44,182.74Z"/><path class="cls-7" d="M120.28,189.2l-11.5,2.44c.26,1.22.56,2.42.9,3.61L121,192C120.72,191.09,120.48,190.15,120.28,189.2Z"/><path class="cls-7" d="M119.41,179.11l-11.74-.41q-.09,2.34,0,4.65l11.74-.61Q119.35,180.94,119.41,179.11Z"/><path class="cls-5" d="M126.48,203.8l-9.75,6.56q1.3,1.94,2.76,3.74l9.14-7.39C127.87,205.77,127.15,204.8,126.48,203.8Z"/><path class="cls-6" d="M146.7,219.62l-4,11c1.45.52,2.93,1,4.44,1.39l3-11.35C149,220.4,147.83,220,146.7,219.62Z"/><path class="cls-5" d="M140.77,216.92l-5.71,10.28q2,1.13,4.16,2.07L144,218.54Q142.35,217.79,140.77,216.92Z"/><path class="cls-7" d="M152.94,221.36l-2.27,11.53c1.51.29,3.17.54,4.58.69l1.23-11.69C155.07,221.74,154.12,221.58,152.94,221.36Z"/><path class="cls-5" d="M144,218.54l-4.79,10.73c1.13.51,2.28,1,3.45,1.4l4-11C145.79,219.29,144.89,218.93,144,218.54Z"/><path class="cls-5" d="M128.63,206.71l-9.14,7.39c.78,1,1.6,1.91,2.44,2.81l8.6-8C129.87,208.19,129.24,207.46,128.63,206.71Z"/><path class="cls-7" d="M150.16,220.71l-3,11.35c1.19.32,2.4.6,3.62.84L153,221.36C152,221.17,151.08,221,150.16,220.71Z"/><path class="cls-7" d="M135.33,213.31l-7.24,9.26c1.22,1,2.48,1.86,3.78,2.71l6.41-9.86C137.27,214.76,136.28,214.05,135.33,213.31Z"/><path class="cls-7" d="M138.28,215.42l-6.41,9.86c1,.67,2.1,1.31,3.19,1.92l5.71-10.28Q139.49,216.21,138.28,215.42Z"/><path class="cls-5" d="M133.12,211.44l-7.87,8.73c.92.83,1.87,1.63,2.84,2.4l7.24-9.26C134.57,212.71,133.83,212.09,133.12,211.44Z"/><path class="cls-1" d="M130.53,208.9l-8.6,8c1.06,1.14,2.16,2.22,3.32,3.26l7.87-8.73C132.22,210.63,131.35,209.79,130.53,208.9Z"/><path class="cls-8" d="M353.71,106.63V256.42H331.1V106.63Z"/><path class="cls-8" d="M384.46,256.42,416,95.37l51.42,116.42L520.67,95.37,549,256.42H525.81L511.36,166,467,263.31,424,165.9l-16.11,90.52Z"/><path class="cls-8" d="M668.72,220H604.59L587.9,256.42H563.55l74.12-159.2,71.5,159.2H684.44Zm-9.22-21.25-22.21-50.93L614,198.79Z"/><path class="cls-8" d="M969.66,220H905.54l-16.69,36.38H864.5l74.12-159.2,71.5,159.2H985.38Zm-9.21-21.25-22.22-50.93L915,198.79Z"/><path class="cls-8" d="M866.81,171H808.45a21.81,21.81,0,0,1-.53,22H844a55.26,55.26,0,0,1-54.68,44.5,55.87,55.87,0,1,1,45.75-87.78l16.78-15.26a78.28,78.28,0,1,0,15,58.29,69.86,69.86,0,0,0,.81-10.87A67.23,67.23,0,0,0,866.81,171Z"/><path class="cls-9" d="M798.37,171a13.88,13.88,0,1,0,4.86,10.55A13.87,13.87,0,0,0,798.37,171Z"/></g></svg>